%TF.GenerationSoftware,KiCad,Pcbnew,(5.1.6)-1*%
%TF.CreationDate,2020-11-09T21:27:46-05:00*%
%TF.ProjectId,LIghtBoard,4c496768-7442-46f6-9172-642e6b696361,rev?*%
%TF.SameCoordinates,Original*%
%TF.FileFunction,Soldermask,Bot*%
%TF.FilePolarity,Negative*%
%FSLAX46Y46*%
G04 Gerber Fmt 4.6, Leading zero omitted, Abs format (unit mm)*
G04 Created by KiCad (PCBNEW (5.1.6)-1) date 2020-11-09 21:27:46*
%MOMM*%
%LPD*%
G01*
G04 APERTURE LIST*
%ADD10C,5.500000*%
%ADD11C,0.100000*%
G04 APERTURE END LIST*
D10*
%TO.C,H1*%
X123900000Y-85100000D03*
%TD*%
%TO.C,C2*%
G36*
G01*
X113775000Y-100887500D02*
X113775000Y-101412500D01*
G75*
G02*
X113512500Y-101675000I-262500J0D01*
G01*
X112887500Y-101675000D01*
G75*
G02*
X112625000Y-101412500I0J262500D01*
G01*
X112625000Y-100887500D01*
G75*
G02*
X112887500Y-100625000I262500J0D01*
G01*
X113512500Y-100625000D01*
G75*
G02*
X113775000Y-100887500I0J-262500D01*
G01*
G37*
G36*
G01*
X115525000Y-100887500D02*
X115525000Y-101412500D01*
G75*
G02*
X115262500Y-101675000I-262500J0D01*
G01*
X114637500Y-101675000D01*
G75*
G02*
X114375000Y-101412500I0J262500D01*
G01*
X114375000Y-100887500D01*
G75*
G02*
X114637500Y-100625000I262500J0D01*
G01*
X115262500Y-100625000D01*
G75*
G02*
X115525000Y-100887500I0J-262500D01*
G01*
G37*
%TD*%
%TO.C,R1*%
G36*
G01*
X119037500Y-102900000D02*
X119562500Y-102900000D01*
G75*
G02*
X119825000Y-103162500I0J-262500D01*
G01*
X119825000Y-103787500D01*
G75*
G02*
X119562500Y-104050000I-262500J0D01*
G01*
X119037500Y-104050000D01*
G75*
G02*
X118775000Y-103787500I0J262500D01*
G01*
X118775000Y-103162500D01*
G75*
G02*
X119037500Y-102900000I262500J0D01*
G01*
G37*
G36*
G01*
X119037500Y-101150000D02*
X119562500Y-101150000D01*
G75*
G02*
X119825000Y-101412500I0J-262500D01*
G01*
X119825000Y-102037500D01*
G75*
G02*
X119562500Y-102300000I-262500J0D01*
G01*
X119037500Y-102300000D01*
G75*
G02*
X118775000Y-102037500I0J262500D01*
G01*
X118775000Y-101412500D01*
G75*
G02*
X119037500Y-101150000I262500J0D01*
G01*
G37*
%TD*%
D11*
%TO.C,JP1*%
G36*
X122800602Y-101993889D02*
G01*
X122800602Y-101975466D01*
X122800843Y-101970565D01*
X122805653Y-101921734D01*
X122806373Y-101916881D01*
X122815945Y-101868756D01*
X122817137Y-101863995D01*
X122831381Y-101817040D01*
X122833034Y-101812421D01*
X122851811Y-101767088D01*
X122853909Y-101762651D01*
X122877040Y-101719378D01*
X122879562Y-101715171D01*
X122906822Y-101674372D01*
X122909746Y-101670430D01*
X122940874Y-101632501D01*
X122944169Y-101628866D01*
X122978866Y-101594169D01*
X122982501Y-101590874D01*
X123020430Y-101559746D01*
X123024372Y-101556822D01*
X123065171Y-101529562D01*
X123069378Y-101527040D01*
X123112651Y-101503909D01*
X123117088Y-101501811D01*
X123162421Y-101483034D01*
X123167040Y-101481381D01*
X123213995Y-101467137D01*
X123218756Y-101465945D01*
X123266881Y-101456373D01*
X123271734Y-101455653D01*
X123320565Y-101450843D01*
X123325466Y-101450602D01*
X123343889Y-101450602D01*
X123350000Y-101450000D01*
X123850000Y-101450000D01*
X123856111Y-101450602D01*
X123874534Y-101450602D01*
X123879435Y-101450843D01*
X123928266Y-101455653D01*
X123933119Y-101456373D01*
X123981244Y-101465945D01*
X123986005Y-101467137D01*
X124032960Y-101481381D01*
X124037579Y-101483034D01*
X124082912Y-101501811D01*
X124087349Y-101503909D01*
X124130622Y-101527040D01*
X124134829Y-101529562D01*
X124175628Y-101556822D01*
X124179570Y-101559746D01*
X124217499Y-101590874D01*
X124221134Y-101594169D01*
X124255831Y-101628866D01*
X124259126Y-101632501D01*
X124290254Y-101670430D01*
X124293178Y-101674372D01*
X124320438Y-101715171D01*
X124322960Y-101719378D01*
X124346091Y-101762651D01*
X124348189Y-101767088D01*
X124366966Y-101812421D01*
X124368619Y-101817040D01*
X124382863Y-101863995D01*
X124384055Y-101868756D01*
X124393627Y-101916881D01*
X124394347Y-101921734D01*
X124399157Y-101970565D01*
X124399398Y-101975466D01*
X124399398Y-101993889D01*
X124400000Y-102000000D01*
X124400000Y-102500000D01*
X124399039Y-102509755D01*
X124396194Y-102519134D01*
X124391573Y-102527779D01*
X124385355Y-102535355D01*
X124377779Y-102541573D01*
X124369134Y-102546194D01*
X124359755Y-102549039D01*
X124350000Y-102550000D01*
X122850000Y-102550000D01*
X122840245Y-102549039D01*
X122830866Y-102546194D01*
X122822221Y-102541573D01*
X122814645Y-102535355D01*
X122808427Y-102527779D01*
X122803806Y-102519134D01*
X122800961Y-102509755D01*
X122800000Y-102500000D01*
X122800000Y-102000000D01*
X122800602Y-101993889D01*
G37*
G36*
X122800961Y-102790245D02*
G01*
X122803806Y-102780866D01*
X122808427Y-102772221D01*
X122814645Y-102764645D01*
X122822221Y-102758427D01*
X122830866Y-102753806D01*
X122840245Y-102750961D01*
X122850000Y-102750000D01*
X124350000Y-102750000D01*
X124359755Y-102750961D01*
X124369134Y-102753806D01*
X124377779Y-102758427D01*
X124385355Y-102764645D01*
X124391573Y-102772221D01*
X124396194Y-102780866D01*
X124399039Y-102790245D01*
X124400000Y-102800000D01*
X124400000Y-103300000D01*
X124399398Y-103306111D01*
X124399398Y-103324534D01*
X124399157Y-103329435D01*
X124394347Y-103378266D01*
X124393627Y-103383119D01*
X124384055Y-103431244D01*
X124382863Y-103436005D01*
X124368619Y-103482960D01*
X124366966Y-103487579D01*
X124348189Y-103532912D01*
X124346091Y-103537349D01*
X124322960Y-103580622D01*
X124320438Y-103584829D01*
X124293178Y-103625628D01*
X124290254Y-103629570D01*
X124259126Y-103667499D01*
X124255831Y-103671134D01*
X124221134Y-103705831D01*
X124217499Y-103709126D01*
X124179570Y-103740254D01*
X124175628Y-103743178D01*
X124134829Y-103770438D01*
X124130622Y-103772960D01*
X124087349Y-103796091D01*
X124082912Y-103798189D01*
X124037579Y-103816966D01*
X124032960Y-103818619D01*
X123986005Y-103832863D01*
X123981244Y-103834055D01*
X123933119Y-103843627D01*
X123928266Y-103844347D01*
X123879435Y-103849157D01*
X123874534Y-103849398D01*
X123856111Y-103849398D01*
X123850000Y-103850000D01*
X123350000Y-103850000D01*
X123343889Y-103849398D01*
X123325466Y-103849398D01*
X123320565Y-103849157D01*
X123271734Y-103844347D01*
X123266881Y-103843627D01*
X123218756Y-103834055D01*
X123213995Y-103832863D01*
X123167040Y-103818619D01*
X123162421Y-103816966D01*
X123117088Y-103798189D01*
X123112651Y-103796091D01*
X123069378Y-103772960D01*
X123065171Y-103770438D01*
X123024372Y-103743178D01*
X123020430Y-103740254D01*
X122982501Y-103709126D01*
X122978866Y-103705831D01*
X122944169Y-103671134D01*
X122940874Y-103667499D01*
X122909746Y-103629570D01*
X122906822Y-103625628D01*
X122879562Y-103584829D01*
X122877040Y-103580622D01*
X122853909Y-103537349D01*
X122851811Y-103532912D01*
X122833034Y-103487579D01*
X122831381Y-103482960D01*
X122817137Y-103436005D01*
X122815945Y-103431244D01*
X122806373Y-103383119D01*
X122805653Y-103378266D01*
X122800843Y-103329435D01*
X122800602Y-103324534D01*
X122800602Y-103306111D01*
X122800000Y-103300000D01*
X122800000Y-102800000D01*
X122800961Y-102790245D01*
G37*
%TD*%
D10*
%TO.C,H2*%
X139900000Y-85100000D03*
%TD*%
%TO.C,C1*%
G36*
G01*
X113775000Y-98837500D02*
X113775000Y-99362500D01*
G75*
G02*
X113512500Y-99625000I-262500J0D01*
G01*
X112887500Y-99625000D01*
G75*
G02*
X112625000Y-99362500I0J262500D01*
G01*
X112625000Y-98837500D01*
G75*
G02*
X112887500Y-98575000I262500J0D01*
G01*
X113512500Y-98575000D01*
G75*
G02*
X113775000Y-98837500I0J-262500D01*
G01*
G37*
G36*
G01*
X115525000Y-98837500D02*
X115525000Y-99362500D01*
G75*
G02*
X115262500Y-99625000I-262500J0D01*
G01*
X114637500Y-99625000D01*
G75*
G02*
X114375000Y-99362500I0J262500D01*
G01*
X114375000Y-98837500D01*
G75*
G02*
X114637500Y-98575000I262500J0D01*
G01*
X115262500Y-98575000D01*
G75*
G02*
X115525000Y-98837500I0J-262500D01*
G01*
G37*
%TD*%
M02*
