%TF.GenerationSoftware,KiCad,Pcbnew,(5.1.6)-1*%
%TF.CreationDate,2020-11-09T21:27:46-05:00*%
%TF.ProjectId,LIghtBoard,4c496768-7442-46f6-9172-642e6b696361,rev?*%
%TF.SameCoordinates,Original*%
%TF.FileFunction,Legend,Top*%
%TF.FilePolarity,Positive*%
%FSLAX46Y46*%
G04 Gerber Fmt 4.6, Leading zero omitted, Abs format (unit mm)*
G04 Created by KiCad (PCBNEW (5.1.6)-1) date 2020-11-09 21:27:46*
%MOMM*%
%LPD*%
G01*
G04 APERTURE LIST*
%ADD10C,0.120000*%
%ADD11C,0.150000*%
G04 APERTURE END LIST*
D10*
%TO.C,D4*%
X146100000Y-102350000D02*
X153400000Y-102350000D01*
X146100000Y-107850000D02*
X153400000Y-107850000D01*
X153400000Y-107850000D02*
X153400000Y-106700000D01*
%TO.C,D3*%
X134250000Y-95350000D02*
X141550000Y-95350000D01*
X134250000Y-100850000D02*
X141550000Y-100850000D01*
X141550000Y-100850000D02*
X141550000Y-99700000D01*
%TO.C,D2*%
X122250000Y-95350000D02*
X129550000Y-95350000D01*
X122250000Y-100850000D02*
X129550000Y-100850000D01*
X129550000Y-100850000D02*
X129550000Y-99700000D01*
%TO.C,J2*%
X148940326Y-90818501D02*
X151280326Y-94871499D01*
X148044193Y-98206352D02*
X147144193Y-96647506D01*
X149429833Y-97406352D02*
X148044193Y-98206352D01*
X145334193Y-93512494D02*
X144520129Y-93982494D01*
X144434193Y-91953648D02*
X145334193Y-93512494D01*
X145819833Y-91153648D02*
X144434193Y-91953648D01*
%TO.C,J1*%
X112519674Y-94871499D02*
X114859674Y-90818501D01*
X119365807Y-91953648D02*
X118465807Y-93512494D01*
X117980167Y-91153648D02*
X119365807Y-91953648D01*
X116655807Y-96647506D02*
X117469871Y-97117506D01*
X115755807Y-98206352D02*
X116655807Y-96647506D01*
X114370167Y-97406352D02*
X115755807Y-98206352D01*
%TO.C,D1*%
X117700000Y-107850000D02*
X117700000Y-106700000D01*
X110400000Y-107850000D02*
X117700000Y-107850000D01*
X110400000Y-102350000D02*
X117700000Y-102350000D01*
%TO.C,H1*%
D11*
X123138095Y-81852380D02*
X123138095Y-80852380D01*
X123138095Y-81328571D02*
X123709523Y-81328571D01*
X123709523Y-81852380D02*
X123709523Y-80852380D01*
X124709523Y-81852380D02*
X124138095Y-81852380D01*
X124423809Y-81852380D02*
X124423809Y-80852380D01*
X124328571Y-80995238D01*
X124233333Y-81090476D01*
X124138095Y-81138095D01*
%TO.C,D4*%
X149011904Y-102052380D02*
X149011904Y-101052380D01*
X149250000Y-101052380D01*
X149392857Y-101100000D01*
X149488095Y-101195238D01*
X149535714Y-101290476D01*
X149583333Y-101480952D01*
X149583333Y-101623809D01*
X149535714Y-101814285D01*
X149488095Y-101909523D01*
X149392857Y-102004761D01*
X149250000Y-102052380D01*
X149011904Y-102052380D01*
X150440476Y-101385714D02*
X150440476Y-102052380D01*
X150202380Y-101004761D02*
X149964285Y-101719047D01*
X150583333Y-101719047D01*
X145885714Y-103952380D02*
X145314285Y-103952380D01*
X145600000Y-103952380D02*
X145600000Y-102952380D01*
X145504761Y-103095238D01*
X145409523Y-103190476D01*
X145314285Y-103238095D01*
%TO.C,D3*%
X137161904Y-95052380D02*
X137161904Y-94052380D01*
X137400000Y-94052380D01*
X137542857Y-94100000D01*
X137638095Y-94195238D01*
X137685714Y-94290476D01*
X137733333Y-94480952D01*
X137733333Y-94623809D01*
X137685714Y-94814285D01*
X137638095Y-94909523D01*
X137542857Y-95004761D01*
X137400000Y-95052380D01*
X137161904Y-95052380D01*
X138066666Y-94052380D02*
X138685714Y-94052380D01*
X138352380Y-94433333D01*
X138495238Y-94433333D01*
X138590476Y-94480952D01*
X138638095Y-94528571D01*
X138685714Y-94623809D01*
X138685714Y-94861904D01*
X138638095Y-94957142D01*
X138590476Y-95004761D01*
X138495238Y-95052380D01*
X138209523Y-95052380D01*
X138114285Y-95004761D01*
X138066666Y-94957142D01*
X134035714Y-96952380D02*
X133464285Y-96952380D01*
X133750000Y-96952380D02*
X133750000Y-95952380D01*
X133654761Y-96095238D01*
X133559523Y-96190476D01*
X133464285Y-96238095D01*
%TO.C,D2*%
X125161904Y-95052380D02*
X125161904Y-94052380D01*
X125400000Y-94052380D01*
X125542857Y-94100000D01*
X125638095Y-94195238D01*
X125685714Y-94290476D01*
X125733333Y-94480952D01*
X125733333Y-94623809D01*
X125685714Y-94814285D01*
X125638095Y-94909523D01*
X125542857Y-95004761D01*
X125400000Y-95052380D01*
X125161904Y-95052380D01*
X126114285Y-94147619D02*
X126161904Y-94100000D01*
X126257142Y-94052380D01*
X126495238Y-94052380D01*
X126590476Y-94100000D01*
X126638095Y-94147619D01*
X126685714Y-94242857D01*
X126685714Y-94338095D01*
X126638095Y-94480952D01*
X126066666Y-95052380D01*
X126685714Y-95052380D01*
X122035714Y-96952380D02*
X121464285Y-96952380D01*
X121750000Y-96952380D02*
X121750000Y-95952380D01*
X121654761Y-96095238D01*
X121559523Y-96190476D01*
X121464285Y-96238095D01*
%TO.C,J2*%
X145657585Y-89087516D02*
X145038995Y-89444659D01*
X144891468Y-89474848D01*
X144761370Y-89439988D01*
X144648702Y-89340080D01*
X144601083Y-89257601D01*
X145789392Y-89506289D02*
X145854441Y-89523718D01*
X145943299Y-89582388D01*
X146062347Y-89788584D01*
X146068726Y-89894872D01*
X146051297Y-89959921D01*
X145992628Y-90048779D01*
X145910149Y-90096398D01*
X145762622Y-90126588D01*
X144982036Y-89917430D01*
X145291559Y-90453541D01*
%TO.C,J1*%
X117959081Y-89814864D02*
X118577670Y-90172007D01*
X118677579Y-90284675D01*
X118712438Y-90414773D01*
X118682249Y-90562300D01*
X118634630Y-90644779D01*
X119325106Y-89448839D02*
X119039392Y-89943710D01*
X119182249Y-89696275D02*
X118316224Y-89196275D01*
X118392323Y-89350182D01*
X118427182Y-89480279D01*
X118420802Y-89586568D01*
%TO.C,H2*%
X139138095Y-81852380D02*
X139138095Y-80852380D01*
X139138095Y-81328571D02*
X139709523Y-81328571D01*
X139709523Y-81852380D02*
X139709523Y-80852380D01*
X140138095Y-80947619D02*
X140185714Y-80900000D01*
X140280952Y-80852380D01*
X140519047Y-80852380D01*
X140614285Y-80900000D01*
X140661904Y-80947619D01*
X140709523Y-81042857D01*
X140709523Y-81138095D01*
X140661904Y-81280952D01*
X140090476Y-81852380D01*
X140709523Y-81852380D01*
%TO.C,D1*%
X113311904Y-102052380D02*
X113311904Y-101052380D01*
X113550000Y-101052380D01*
X113692857Y-101100000D01*
X113788095Y-101195238D01*
X113835714Y-101290476D01*
X113883333Y-101480952D01*
X113883333Y-101623809D01*
X113835714Y-101814285D01*
X113788095Y-101909523D01*
X113692857Y-102004761D01*
X113550000Y-102052380D01*
X113311904Y-102052380D01*
X114835714Y-102052380D02*
X114264285Y-102052380D01*
X114550000Y-102052380D02*
X114550000Y-101052380D01*
X114454761Y-101195238D01*
X114359523Y-101290476D01*
X114264285Y-101338095D01*
X110185714Y-103952380D02*
X109614285Y-103952380D01*
X109900000Y-103952380D02*
X109900000Y-102952380D01*
X109804761Y-103095238D01*
X109709523Y-103190476D01*
X109614285Y-103238095D01*
%TD*%
M02*
