%TF.GenerationSoftware,KiCad,Pcbnew,(5.1.6)-1*%
%TF.CreationDate,2020-11-09T21:27:46-05:00*%
%TF.ProjectId,LIghtBoard,4c496768-7442-46f6-9172-642e6b696361,rev?*%
%TF.SameCoordinates,Original*%
%TF.FileFunction,Legend,Bot*%
%TF.FilePolarity,Positive*%
%FSLAX46Y46*%
G04 Gerber Fmt 4.6, Leading zero omitted, Abs format (unit mm)*
G04 Created by KiCad (PCBNEW (5.1.6)-1) date 2020-11-09 21:27:46*
%MOMM*%
%LPD*%
G01*
G04 APERTURE LIST*
%ADD10C,0.120000*%
%ADD11C,0.150000*%
G04 APERTURE END LIST*
D10*
%TO.C,C2*%
X114246267Y-101660000D02*
X113903733Y-101660000D01*
X114246267Y-100640000D02*
X113903733Y-100640000D01*
%TO.C,R1*%
X119810000Y-102428733D02*
X119810000Y-102771267D01*
X118790000Y-102428733D02*
X118790000Y-102771267D01*
%TO.C,JP1*%
X124600000Y-103350000D02*
X124600000Y-101950000D01*
X123900000Y-101250000D02*
X123300000Y-101250000D01*
X122600000Y-101950000D02*
X122600000Y-103350000D01*
X123300000Y-104050000D02*
X123900000Y-104050000D01*
X123900000Y-104050000D02*
G75*
G03*
X124600000Y-103350000I0J700000D01*
G01*
X122600000Y-103350000D02*
G75*
G03*
X123300000Y-104050000I700000J0D01*
G01*
X123300000Y-101250000D02*
G75*
G03*
X122600000Y-101950000I0J-700000D01*
G01*
X124600000Y-101950000D02*
G75*
G03*
X123900000Y-101250000I-700000J0D01*
G01*
%TO.C,C1*%
X114246267Y-99610000D02*
X113903733Y-99610000D01*
X114246267Y-98590000D02*
X113903733Y-98590000D01*
%TO.C,C2*%
D11*
X111491666Y-101507142D02*
X111539285Y-101554761D01*
X111682142Y-101602380D01*
X111777380Y-101602380D01*
X111920238Y-101554761D01*
X112015476Y-101459523D01*
X112063095Y-101364285D01*
X112110714Y-101173809D01*
X112110714Y-101030952D01*
X112063095Y-100840476D01*
X112015476Y-100745238D01*
X111920238Y-100650000D01*
X111777380Y-100602380D01*
X111682142Y-100602380D01*
X111539285Y-100650000D01*
X111491666Y-100697619D01*
X111110714Y-100697619D02*
X111063095Y-100650000D01*
X110967857Y-100602380D01*
X110729761Y-100602380D01*
X110634523Y-100650000D01*
X110586904Y-100697619D01*
X110539285Y-100792857D01*
X110539285Y-100888095D01*
X110586904Y-101030952D01*
X111158333Y-101602380D01*
X110539285Y-101602380D01*
%TO.C,R1*%
X119752380Y-99733333D02*
X119276190Y-99400000D01*
X119752380Y-99161904D02*
X118752380Y-99161904D01*
X118752380Y-99542857D01*
X118800000Y-99638095D01*
X118847619Y-99685714D01*
X118942857Y-99733333D01*
X119085714Y-99733333D01*
X119180952Y-99685714D01*
X119228571Y-99638095D01*
X119276190Y-99542857D01*
X119276190Y-99161904D01*
X119752380Y-100685714D02*
X119752380Y-100114285D01*
X119752380Y-100400000D02*
X118752380Y-100400000D01*
X118895238Y-100304761D01*
X118990476Y-100209523D01*
X119038095Y-100114285D01*
%TO.C,JP1*%
X123052380Y-98616666D02*
X123766666Y-98616666D01*
X123909523Y-98569047D01*
X124004761Y-98473809D01*
X124052380Y-98330952D01*
X124052380Y-98235714D01*
X124052380Y-99092857D02*
X123052380Y-99092857D01*
X123052380Y-99473809D01*
X123100000Y-99569047D01*
X123147619Y-99616666D01*
X123242857Y-99664285D01*
X123385714Y-99664285D01*
X123480952Y-99616666D01*
X123528571Y-99569047D01*
X123576190Y-99473809D01*
X123576190Y-99092857D01*
X124052380Y-100616666D02*
X124052380Y-100045238D01*
X124052380Y-100330952D02*
X123052380Y-100330952D01*
X123195238Y-100235714D01*
X123290476Y-100140476D01*
X123338095Y-100045238D01*
%TO.C,C1*%
X111541666Y-99457142D02*
X111589285Y-99504761D01*
X111732142Y-99552380D01*
X111827380Y-99552380D01*
X111970238Y-99504761D01*
X112065476Y-99409523D01*
X112113095Y-99314285D01*
X112160714Y-99123809D01*
X112160714Y-98980952D01*
X112113095Y-98790476D01*
X112065476Y-98695238D01*
X111970238Y-98600000D01*
X111827380Y-98552380D01*
X111732142Y-98552380D01*
X111589285Y-98600000D01*
X111541666Y-98647619D01*
X110589285Y-99552380D02*
X111160714Y-99552380D01*
X110875000Y-99552380D02*
X110875000Y-98552380D01*
X110970238Y-98695238D01*
X111065476Y-98790476D01*
X111160714Y-98838095D01*
%TD*%
M02*
