%TF.GenerationSoftware,KiCad,Pcbnew,(5.1.6)-1*%
%TF.CreationDate,2020-11-09T21:27:46-05:00*%
%TF.ProjectId,LIghtBoard,4c496768-7442-46f6-9172-642e6b696361,rev?*%
%TF.SameCoordinates,Original*%
%TF.FileFunction,Copper,L1,Top*%
%TF.FilePolarity,Positive*%
%FSLAX46Y46*%
G04 Gerber Fmt 4.6, Leading zero omitted, Abs format (unit mm)*
G04 Created by KiCad (PCBNEW (5.1.6)-1) date 2020-11-09 21:27:46*
%MOMM*%
%LPD*%
G01*
G04 APERTURE LIST*
%TA.AperFunction,ComponentPad*%
%ADD10C,5.400000*%
%TD*%
%TA.AperFunction,SMDPad,CuDef*%
%ADD11R,1.500000X1.000000*%
%TD*%
%TA.AperFunction,ViaPad*%
%ADD12C,0.800000*%
%TD*%
%TA.AperFunction,Conductor*%
%ADD13C,0.250000*%
%TD*%
%TA.AperFunction,Conductor*%
%ADD14C,0.500000*%
%TD*%
%TA.AperFunction,Conductor*%
%ADD15C,0.254000*%
%TD*%
G04 APERTURE END LIST*
D10*
%TO.P,H1,1*%
%TO.N,GND*%
X123900000Y-85100000D03*
%TD*%
D11*
%TO.P,D4,3*%
%TO.N,GND*%
X152200000Y-106700000D03*
%TO.P,D4,4*%
%TO.N,Net-(D1-Pad4)*%
X152200000Y-103500000D03*
%TO.P,D4,2*%
%TO.N,/Dout*%
X147300000Y-106700000D03*
%TO.P,D4,1*%
%TO.N,5V*%
X147300000Y-103500000D03*
%TD*%
%TO.P,D3,3*%
%TO.N,GND*%
X140350000Y-99700000D03*
%TO.P,D3,4*%
%TO.N,Net-(D1-Pad4)*%
X140350000Y-96500000D03*
%TO.P,D3,2*%
%TO.N,Net-(D3-Pad2)*%
X135450000Y-99700000D03*
%TO.P,D3,1*%
%TO.N,5V*%
X135450000Y-96500000D03*
%TD*%
%TO.P,D2,3*%
%TO.N,GND*%
X128350000Y-99700000D03*
%TO.P,D2,4*%
%TO.N,Net-(D1-Pad4)*%
X128350000Y-96500000D03*
%TO.P,D2,2*%
%TO.N,Net-(D2-Pad2)*%
X123450000Y-99700000D03*
%TO.P,D2,1*%
%TO.N,5V*%
X123450000Y-96500000D03*
%TD*%
%TO.P,J2,MP*%
%TO.N,N/C*%
%TA.AperFunction,SMDPad,CuDef*%
G36*
G01*
X149366507Y-96276666D02*
X151358365Y-95126667D01*
G75*
G02*
X151699871Y-95218173I125000J-216506D01*
G01*
X151949871Y-95651185D01*
G75*
G02*
X151858365Y-95992691I-216506J-125000D01*
G01*
X149866507Y-97142691D01*
G75*
G02*
X149525001Y-97051185I-125000J216506D01*
G01*
X149275001Y-96618173D01*
G75*
G02*
X149366507Y-96276667I216506J125000D01*
G01*
G37*
%TD.AperFunction*%
%TA.AperFunction,SMDPad,CuDef*%
G36*
G01*
X146266507Y-90907308D02*
X148258365Y-89757309D01*
G75*
G02*
X148599871Y-89848815I125000J-216506D01*
G01*
X148849871Y-90281827D01*
G75*
G02*
X148758365Y-90623333I-216506J-125000D01*
G01*
X146766507Y-91773333D01*
G75*
G02*
X146425001Y-91681827I-125000J216506D01*
G01*
X146175001Y-91248815D01*
G75*
G02*
X146266507Y-90907309I216506J125000D01*
G01*
G37*
%TD.AperFunction*%
%TO.P,J2,3*%
%TO.N,/Dout*%
%TA.AperFunction,SMDPad,CuDef*%
G36*
G01*
X146030032Y-96297724D02*
X147242468Y-95597724D01*
G75*
G02*
X147447372Y-95652628I75000J-129904D01*
G01*
X147597372Y-95912436D01*
G75*
G02*
X147542468Y-96117340I-129904J-75000D01*
G01*
X146330032Y-96817340D01*
G75*
G02*
X146125128Y-96762436I-75000J129904D01*
G01*
X145975128Y-96502628D01*
G75*
G02*
X146030032Y-96297724I129904J75000D01*
G01*
G37*
%TD.AperFunction*%
%TO.P,J2,2*%
%TO.N,GND*%
%TA.AperFunction,SMDPad,CuDef*%
G36*
G01*
X145405032Y-95215192D02*
X146617468Y-94515192D01*
G75*
G02*
X146822372Y-94570096I75000J-129904D01*
G01*
X146972372Y-94829904D01*
G75*
G02*
X146917468Y-95034808I-129904J-75000D01*
G01*
X145705032Y-95734808D01*
G75*
G02*
X145500128Y-95679904I-75000J129904D01*
G01*
X145350128Y-95420096D01*
G75*
G02*
X145405032Y-95215192I129904J75000D01*
G01*
G37*
%TD.AperFunction*%
%TO.P,J2,1*%
%TO.N,5V*%
%TA.AperFunction,SMDPad,CuDef*%
G36*
G01*
X144780032Y-94132660D02*
X145992468Y-93432660D01*
G75*
G02*
X146197372Y-93487564I75000J-129904D01*
G01*
X146347372Y-93747372D01*
G75*
G02*
X146292468Y-93952276I-129904J-75000D01*
G01*
X145080032Y-94652276D01*
G75*
G02*
X144875128Y-94597372I-75000J129904D01*
G01*
X144725128Y-94337564D01*
G75*
G02*
X144780032Y-94132660I129904J75000D01*
G01*
G37*
%TD.AperFunction*%
%TD*%
%TO.P,J1,MP*%
%TO.N,N/C*%
%TA.AperFunction,SMDPad,CuDef*%
G36*
G01*
X117033493Y-91773334D02*
X115041635Y-90623333D01*
G75*
G02*
X114950129Y-90281827I125000J216506D01*
G01*
X115200129Y-89848815D01*
G75*
G02*
X115541635Y-89757309I216506J-125000D01*
G01*
X117533493Y-90907309D01*
G75*
G02*
X117624999Y-91248815I-125000J-216506D01*
G01*
X117374999Y-91681827D01*
G75*
G02*
X117033493Y-91773333I-216506J125000D01*
G01*
G37*
%TD.AperFunction*%
%TA.AperFunction,SMDPad,CuDef*%
G36*
G01*
X113933493Y-97142692D02*
X111941635Y-95992691D01*
G75*
G02*
X111850129Y-95651185I125000J216506D01*
G01*
X112100129Y-95218173D01*
G75*
G02*
X112441635Y-95126667I216506J-125000D01*
G01*
X114433493Y-96276667D01*
G75*
G02*
X114524999Y-96618173I-125000J-216506D01*
G01*
X114274999Y-97051185D01*
G75*
G02*
X113933493Y-97142691I-216506J125000D01*
G01*
G37*
%TD.AperFunction*%
%TO.P,J1,3*%
%TO.N,/Din*%
%TA.AperFunction,SMDPad,CuDef*%
G36*
G01*
X118719968Y-94652276D02*
X117507532Y-93952276D01*
G75*
G02*
X117452628Y-93747372I75000J129904D01*
G01*
X117602628Y-93487564D01*
G75*
G02*
X117807532Y-93432660I129904J-75000D01*
G01*
X119019968Y-94132660D01*
G75*
G02*
X119074872Y-94337564I-75000J-129904D01*
G01*
X118924872Y-94597372D01*
G75*
G02*
X118719968Y-94652276I-129904J75000D01*
G01*
G37*
%TD.AperFunction*%
%TO.P,J1,2*%
%TO.N,GND*%
%TA.AperFunction,SMDPad,CuDef*%
G36*
G01*
X118094968Y-95734808D02*
X116882532Y-95034808D01*
G75*
G02*
X116827628Y-94829904I75000J129904D01*
G01*
X116977628Y-94570096D01*
G75*
G02*
X117182532Y-94515192I129904J-75000D01*
G01*
X118394968Y-95215192D01*
G75*
G02*
X118449872Y-95420096I-75000J-129904D01*
G01*
X118299872Y-95679904D01*
G75*
G02*
X118094968Y-95734808I-129904J75000D01*
G01*
G37*
%TD.AperFunction*%
%TO.P,J1,1*%
%TO.N,5V*%
%TA.AperFunction,SMDPad,CuDef*%
G36*
G01*
X117469968Y-96817340D02*
X116257532Y-96117340D01*
G75*
G02*
X116202628Y-95912436I75000J129904D01*
G01*
X116352628Y-95652628D01*
G75*
G02*
X116557532Y-95597724I129904J-75000D01*
G01*
X117769968Y-96297724D01*
G75*
G02*
X117824872Y-96502628I-75000J-129904D01*
G01*
X117674872Y-96762436D01*
G75*
G02*
X117469968Y-96817340I-129904J75000D01*
G01*
G37*
%TD.AperFunction*%
%TD*%
D10*
%TO.P,H2,1*%
%TO.N,GND*%
X139900000Y-85100000D03*
%TD*%
D11*
%TO.P,D1,1*%
%TO.N,5V*%
X111600000Y-103500000D03*
%TO.P,D1,2*%
%TO.N,Net-(D1-Pad2)*%
X111600000Y-106700000D03*
%TO.P,D1,4*%
%TO.N,Net-(D1-Pad4)*%
X116500000Y-103500000D03*
%TO.P,D1,3*%
%TO.N,GND*%
X116500000Y-106700000D03*
%TD*%
D12*
%TO.N,GND*%
X143900000Y-100600000D03*
X131900000Y-99700000D03*
%TO.N,5V*%
X116550000Y-99000000D03*
%TO.N,Net-(D1-Pad4)*%
X128300000Y-97850000D03*
X140350000Y-97850000D03*
X152200000Y-104750000D03*
X118000000Y-103450000D03*
%TO.N,/Din*%
X119600000Y-94800000D03*
%TD*%
D13*
%TO.N,GND*%
X114592160Y-92078410D02*
X117638750Y-95125000D01*
X123900000Y-85100000D02*
X119478018Y-85100000D01*
X149207840Y-92078410D02*
X146161250Y-95125000D01*
X139900000Y-85100000D02*
X144321982Y-85100000D01*
X117638750Y-95125000D02*
X117282448Y-94768698D01*
X116500000Y-106700000D02*
X121350000Y-106700000D01*
D14*
%TO.N,5V*%
X135450000Y-96500000D02*
X138450000Y-93500000D01*
X144993782Y-93500000D02*
X145536250Y-94042468D01*
X138450000Y-93500000D02*
X144993782Y-93500000D01*
X141450000Y-103500000D02*
X147300000Y-103500000D01*
X135450000Y-97500000D02*
X141450000Y-103500000D01*
X135450000Y-96500000D02*
X135450000Y-97500000D01*
X123450000Y-96500000D02*
X125150000Y-94800000D01*
X133750000Y-94800000D02*
X135450000Y-96500000D01*
X125150000Y-94800000D02*
X133750000Y-94800000D01*
X117013750Y-98536250D02*
X116550000Y-99000000D01*
X117013750Y-96207532D02*
X117013750Y-98536250D01*
X112050000Y-103500000D02*
X111600000Y-103500000D01*
X116550000Y-99000000D02*
X112050000Y-103500000D01*
X117013750Y-96207532D02*
X117207532Y-96207532D01*
X117500000Y-96500000D02*
X123450000Y-96500000D01*
X117207532Y-96207532D02*
X117500000Y-96500000D01*
D13*
%TO.N,Net-(D1-Pad4)*%
X116550000Y-103450000D02*
X116500000Y-103500000D01*
X118000000Y-103450000D02*
X116550000Y-103450000D01*
X140350000Y-97850000D02*
X140350000Y-96500000D01*
X128300000Y-96550000D02*
X128350000Y-96500000D01*
X128300000Y-97850000D02*
X128300000Y-96550000D01*
X152200000Y-104750000D02*
X152200000Y-103500000D01*
%TO.N,/Dout*%
X148475001Y-97896283D02*
X146786250Y-96207532D01*
X148475001Y-105524999D02*
X148475001Y-97896283D01*
X147300000Y-106700000D02*
X148475001Y-105524999D01*
%TO.N,/Din*%
X118842468Y-94042468D02*
X119600000Y-94800000D01*
X118263750Y-94042468D02*
X118842468Y-94042468D01*
%TD*%
D15*
%TO.N,GND*%
G36*
X142068082Y-80331175D02*
G01*
X142565649Y-80467294D01*
X144230062Y-81415622D01*
X144673272Y-81872980D01*
X145069997Y-82449826D01*
X160656702Y-109440000D01*
X103143297Y-109440000D01*
X105014382Y-106200000D01*
X110211928Y-106200000D01*
X110211928Y-107200000D01*
X110224188Y-107324482D01*
X110260498Y-107444180D01*
X110319463Y-107554494D01*
X110398815Y-107651185D01*
X110495506Y-107730537D01*
X110605820Y-107789502D01*
X110725518Y-107825812D01*
X110850000Y-107838072D01*
X112350000Y-107838072D01*
X112474482Y-107825812D01*
X112594180Y-107789502D01*
X112704494Y-107730537D01*
X112801185Y-107651185D01*
X112880537Y-107554494D01*
X112939502Y-107444180D01*
X112975812Y-107324482D01*
X112988072Y-107200000D01*
X115111928Y-107200000D01*
X115124188Y-107324482D01*
X115160498Y-107444180D01*
X115219463Y-107554494D01*
X115298815Y-107651185D01*
X115395506Y-107730537D01*
X115505820Y-107789502D01*
X115625518Y-107825812D01*
X115750000Y-107838072D01*
X116214250Y-107835000D01*
X116373000Y-107676250D01*
X116373000Y-106827000D01*
X116627000Y-106827000D01*
X116627000Y-107676250D01*
X116785750Y-107835000D01*
X117250000Y-107838072D01*
X117374482Y-107825812D01*
X117494180Y-107789502D01*
X117604494Y-107730537D01*
X117701185Y-107651185D01*
X117780537Y-107554494D01*
X117839502Y-107444180D01*
X117875812Y-107324482D01*
X117888072Y-107200000D01*
X117885000Y-106985750D01*
X117726250Y-106827000D01*
X116627000Y-106827000D01*
X116373000Y-106827000D01*
X115273750Y-106827000D01*
X115115000Y-106985750D01*
X115111928Y-107200000D01*
X112988072Y-107200000D01*
X112988072Y-106200000D01*
X115111928Y-106200000D01*
X115115000Y-106414250D01*
X115273750Y-106573000D01*
X116373000Y-106573000D01*
X116373000Y-105723750D01*
X116627000Y-105723750D01*
X116627000Y-106573000D01*
X117726250Y-106573000D01*
X117885000Y-106414250D01*
X117888072Y-106200000D01*
X117875812Y-106075518D01*
X117839502Y-105955820D01*
X117780537Y-105845506D01*
X117701185Y-105748815D01*
X117604494Y-105669463D01*
X117494180Y-105610498D01*
X117374482Y-105574188D01*
X117250000Y-105561928D01*
X116785750Y-105565000D01*
X116627000Y-105723750D01*
X116373000Y-105723750D01*
X116214250Y-105565000D01*
X115750000Y-105561928D01*
X115625518Y-105574188D01*
X115505820Y-105610498D01*
X115395506Y-105669463D01*
X115298815Y-105748815D01*
X115219463Y-105845506D01*
X115160498Y-105955820D01*
X115124188Y-106075518D01*
X115111928Y-106200000D01*
X112988072Y-106200000D01*
X112975812Y-106075518D01*
X112939502Y-105955820D01*
X112880537Y-105845506D01*
X112801185Y-105748815D01*
X112704494Y-105669463D01*
X112594180Y-105610498D01*
X112474482Y-105574188D01*
X112350000Y-105561928D01*
X110850000Y-105561928D01*
X110725518Y-105574188D01*
X110605820Y-105610498D01*
X110495506Y-105669463D01*
X110398815Y-105748815D01*
X110319463Y-105845506D01*
X110260498Y-105955820D01*
X110224188Y-106075518D01*
X110211928Y-106200000D01*
X105014382Y-106200000D01*
X106862367Y-103000000D01*
X110211928Y-103000000D01*
X110211928Y-104000000D01*
X110224188Y-104124482D01*
X110260498Y-104244180D01*
X110319463Y-104354494D01*
X110398815Y-104451185D01*
X110495506Y-104530537D01*
X110605820Y-104589502D01*
X110725518Y-104625812D01*
X110850000Y-104638072D01*
X112350000Y-104638072D01*
X112474482Y-104625812D01*
X112594180Y-104589502D01*
X112704494Y-104530537D01*
X112801185Y-104451185D01*
X112880537Y-104354494D01*
X112939502Y-104244180D01*
X112975812Y-104124482D01*
X112988072Y-104000000D01*
X112988072Y-103813506D01*
X113801578Y-103000000D01*
X115111928Y-103000000D01*
X115111928Y-104000000D01*
X115124188Y-104124482D01*
X115160498Y-104244180D01*
X115219463Y-104354494D01*
X115298815Y-104451185D01*
X115395506Y-104530537D01*
X115505820Y-104589502D01*
X115625518Y-104625812D01*
X115750000Y-104638072D01*
X117250000Y-104638072D01*
X117374482Y-104625812D01*
X117494180Y-104589502D01*
X117604494Y-104530537D01*
X117701185Y-104451185D01*
X117704956Y-104446589D01*
X117898061Y-104485000D01*
X118101939Y-104485000D01*
X118301898Y-104445226D01*
X118490256Y-104367205D01*
X118659774Y-104253937D01*
X118803937Y-104109774D01*
X118917205Y-103940256D01*
X118995226Y-103751898D01*
X119035000Y-103551939D01*
X119035000Y-103348061D01*
X118995226Y-103148102D01*
X118917205Y-102959744D01*
X118803937Y-102790226D01*
X118659774Y-102646063D01*
X118490256Y-102532795D01*
X118301898Y-102454774D01*
X118101939Y-102415000D01*
X117898061Y-102415000D01*
X117698102Y-102454774D01*
X117623998Y-102485469D01*
X117604494Y-102469463D01*
X117494180Y-102410498D01*
X117374482Y-102374188D01*
X117250000Y-102361928D01*
X115750000Y-102361928D01*
X115625518Y-102374188D01*
X115505820Y-102410498D01*
X115395506Y-102469463D01*
X115298815Y-102548815D01*
X115219463Y-102645506D01*
X115160498Y-102755820D01*
X115124188Y-102875518D01*
X115111928Y-103000000D01*
X113801578Y-103000000D01*
X116795044Y-100006535D01*
X116851898Y-99995226D01*
X117040256Y-99917205D01*
X117209774Y-99803937D01*
X117353937Y-99659774D01*
X117467205Y-99490256D01*
X117545226Y-99301898D01*
X117556535Y-99245043D01*
X117601578Y-99200000D01*
X122061928Y-99200000D01*
X122061928Y-100200000D01*
X122074188Y-100324482D01*
X122110498Y-100444180D01*
X122169463Y-100554494D01*
X122248815Y-100651185D01*
X122345506Y-100730537D01*
X122455820Y-100789502D01*
X122575518Y-100825812D01*
X122700000Y-100838072D01*
X124200000Y-100838072D01*
X124324482Y-100825812D01*
X124444180Y-100789502D01*
X124554494Y-100730537D01*
X124651185Y-100651185D01*
X124730537Y-100554494D01*
X124789502Y-100444180D01*
X124825812Y-100324482D01*
X124838072Y-100200000D01*
X126961928Y-100200000D01*
X126974188Y-100324482D01*
X127010498Y-100444180D01*
X127069463Y-100554494D01*
X127148815Y-100651185D01*
X127245506Y-100730537D01*
X127355820Y-100789502D01*
X127475518Y-100825812D01*
X127600000Y-100838072D01*
X128064250Y-100835000D01*
X128223000Y-100676250D01*
X128223000Y-99827000D01*
X128477000Y-99827000D01*
X128477000Y-100676250D01*
X128635750Y-100835000D01*
X129100000Y-100838072D01*
X129224482Y-100825812D01*
X129344180Y-100789502D01*
X129454494Y-100730537D01*
X129551185Y-100651185D01*
X129630537Y-100554494D01*
X129689502Y-100444180D01*
X129725812Y-100324482D01*
X129738072Y-100200000D01*
X129735000Y-99985750D01*
X129576250Y-99827000D01*
X128477000Y-99827000D01*
X128223000Y-99827000D01*
X127123750Y-99827000D01*
X126965000Y-99985750D01*
X126961928Y-100200000D01*
X124838072Y-100200000D01*
X124838072Y-99200000D01*
X124825812Y-99075518D01*
X124789502Y-98955820D01*
X124730537Y-98845506D01*
X124651185Y-98748815D01*
X124554494Y-98669463D01*
X124444180Y-98610498D01*
X124324482Y-98574188D01*
X124200000Y-98561928D01*
X122700000Y-98561928D01*
X122575518Y-98574188D01*
X122455820Y-98610498D01*
X122345506Y-98669463D01*
X122248815Y-98748815D01*
X122169463Y-98845506D01*
X122110498Y-98955820D01*
X122074188Y-99075518D01*
X122061928Y-99200000D01*
X117601578Y-99200000D01*
X117608794Y-99192784D01*
X117642567Y-99165067D01*
X117753161Y-99030309D01*
X117794250Y-98953436D01*
X117835339Y-98876564D01*
X117885945Y-98709740D01*
X117890848Y-98659960D01*
X117898750Y-98579727D01*
X117898750Y-98579719D01*
X117903031Y-98536250D01*
X117898750Y-98492781D01*
X117898750Y-97390986D01*
X117908377Y-97385000D01*
X122194499Y-97385000D01*
X122248815Y-97451185D01*
X122345506Y-97530537D01*
X122455820Y-97589502D01*
X122575518Y-97625812D01*
X122700000Y-97638072D01*
X124200000Y-97638072D01*
X124324482Y-97625812D01*
X124444180Y-97589502D01*
X124554494Y-97530537D01*
X124651185Y-97451185D01*
X124730537Y-97354494D01*
X124789502Y-97244180D01*
X124825812Y-97124482D01*
X124838072Y-97000000D01*
X124838072Y-96363506D01*
X125516579Y-95685000D01*
X127048353Y-95685000D01*
X127010498Y-95755820D01*
X126974188Y-95875518D01*
X126961928Y-96000000D01*
X126961928Y-97000000D01*
X126974188Y-97124482D01*
X127010498Y-97244180D01*
X127069463Y-97354494D01*
X127148815Y-97451185D01*
X127245506Y-97530537D01*
X127302236Y-97560860D01*
X127265000Y-97748061D01*
X127265000Y-97951939D01*
X127304774Y-98151898D01*
X127382795Y-98340256D01*
X127496063Y-98509774D01*
X127552860Y-98566571D01*
X127475518Y-98574188D01*
X127355820Y-98610498D01*
X127245506Y-98669463D01*
X127148815Y-98748815D01*
X127069463Y-98845506D01*
X127010498Y-98955820D01*
X126974188Y-99075518D01*
X126961928Y-99200000D01*
X126965000Y-99414250D01*
X127123750Y-99573000D01*
X128223000Y-99573000D01*
X128223000Y-99553000D01*
X128477000Y-99553000D01*
X128477000Y-99573000D01*
X129576250Y-99573000D01*
X129735000Y-99414250D01*
X129738072Y-99200000D01*
X129725812Y-99075518D01*
X129689502Y-98955820D01*
X129630537Y-98845506D01*
X129551185Y-98748815D01*
X129454494Y-98669463D01*
X129344180Y-98610498D01*
X129224482Y-98574188D01*
X129100000Y-98561928D01*
X129051462Y-98562249D01*
X129103937Y-98509774D01*
X129217205Y-98340256D01*
X129295226Y-98151898D01*
X129335000Y-97951939D01*
X129335000Y-97748061D01*
X129305778Y-97601151D01*
X129344180Y-97589502D01*
X129454494Y-97530537D01*
X129551185Y-97451185D01*
X129630537Y-97354494D01*
X129689502Y-97244180D01*
X129725812Y-97124482D01*
X129738072Y-97000000D01*
X129738072Y-96000000D01*
X129725812Y-95875518D01*
X129689502Y-95755820D01*
X129651647Y-95685000D01*
X133383422Y-95685000D01*
X134061928Y-96363507D01*
X134061928Y-97000000D01*
X134074188Y-97124482D01*
X134110498Y-97244180D01*
X134169463Y-97354494D01*
X134248815Y-97451185D01*
X134345506Y-97530537D01*
X134455820Y-97589502D01*
X134573035Y-97625059D01*
X134577805Y-97673490D01*
X134628412Y-97840313D01*
X134710590Y-97994059D01*
X134793468Y-98095046D01*
X134793471Y-98095049D01*
X134821184Y-98128817D01*
X134854952Y-98156530D01*
X135260350Y-98561928D01*
X134700000Y-98561928D01*
X134575518Y-98574188D01*
X134455820Y-98610498D01*
X134345506Y-98669463D01*
X134248815Y-98748815D01*
X134169463Y-98845506D01*
X134110498Y-98955820D01*
X134074188Y-99075518D01*
X134061928Y-99200000D01*
X134061928Y-100200000D01*
X134074188Y-100324482D01*
X134110498Y-100444180D01*
X134169463Y-100554494D01*
X134248815Y-100651185D01*
X134345506Y-100730537D01*
X134455820Y-100789502D01*
X134575518Y-100825812D01*
X134700000Y-100838072D01*
X136200000Y-100838072D01*
X136324482Y-100825812D01*
X136444180Y-100789502D01*
X136554494Y-100730537D01*
X136651185Y-100651185D01*
X136730537Y-100554494D01*
X136789502Y-100444180D01*
X136825812Y-100324482D01*
X136838072Y-100200000D01*
X136838072Y-100139650D01*
X140793470Y-104095049D01*
X140821183Y-104128817D01*
X140854951Y-104156530D01*
X140854953Y-104156532D01*
X140906704Y-104199003D01*
X140955941Y-104239411D01*
X141109687Y-104321589D01*
X141276510Y-104372195D01*
X141406523Y-104385000D01*
X141406533Y-104385000D01*
X141449999Y-104389281D01*
X141493465Y-104385000D01*
X146044499Y-104385000D01*
X146098815Y-104451185D01*
X146195506Y-104530537D01*
X146305820Y-104589502D01*
X146425518Y-104625812D01*
X146550000Y-104638072D01*
X147715001Y-104638072D01*
X147715001Y-105210197D01*
X147363270Y-105561928D01*
X146550000Y-105561928D01*
X146425518Y-105574188D01*
X146305820Y-105610498D01*
X146195506Y-105669463D01*
X146098815Y-105748815D01*
X146019463Y-105845506D01*
X145960498Y-105955820D01*
X145924188Y-106075518D01*
X145911928Y-106200000D01*
X145911928Y-107200000D01*
X145924188Y-107324482D01*
X145960498Y-107444180D01*
X146019463Y-107554494D01*
X146098815Y-107651185D01*
X146195506Y-107730537D01*
X146305820Y-107789502D01*
X146425518Y-107825812D01*
X146550000Y-107838072D01*
X148050000Y-107838072D01*
X148174482Y-107825812D01*
X148294180Y-107789502D01*
X148404494Y-107730537D01*
X148501185Y-107651185D01*
X148580537Y-107554494D01*
X148639502Y-107444180D01*
X148675812Y-107324482D01*
X148688072Y-107200000D01*
X150811928Y-107200000D01*
X150824188Y-107324482D01*
X150860498Y-107444180D01*
X150919463Y-107554494D01*
X150998815Y-107651185D01*
X151095506Y-107730537D01*
X151205820Y-107789502D01*
X151325518Y-107825812D01*
X151450000Y-107838072D01*
X151914250Y-107835000D01*
X152073000Y-107676250D01*
X152073000Y-106827000D01*
X152327000Y-106827000D01*
X152327000Y-107676250D01*
X152485750Y-107835000D01*
X152950000Y-107838072D01*
X153074482Y-107825812D01*
X153194180Y-107789502D01*
X153304494Y-107730537D01*
X153401185Y-107651185D01*
X153480537Y-107554494D01*
X153539502Y-107444180D01*
X153575812Y-107324482D01*
X153588072Y-107200000D01*
X153585000Y-106985750D01*
X153426250Y-106827000D01*
X152327000Y-106827000D01*
X152073000Y-106827000D01*
X150973750Y-106827000D01*
X150815000Y-106985750D01*
X150811928Y-107200000D01*
X148688072Y-107200000D01*
X148688072Y-106386730D01*
X148986005Y-106088797D01*
X149015002Y-106065000D01*
X149109975Y-105949275D01*
X149180547Y-105817246D01*
X149224004Y-105673985D01*
X149235001Y-105562332D01*
X149235001Y-105562323D01*
X149238677Y-105525000D01*
X149235001Y-105487677D01*
X149235001Y-103000000D01*
X150811928Y-103000000D01*
X150811928Y-104000000D01*
X150824188Y-104124482D01*
X150860498Y-104244180D01*
X150919463Y-104354494D01*
X150998815Y-104451185D01*
X151095506Y-104530537D01*
X151179452Y-104575408D01*
X151165000Y-104648061D01*
X151165000Y-104851939D01*
X151204774Y-105051898D01*
X151282795Y-105240256D01*
X151396063Y-105409774D01*
X151540226Y-105553937D01*
X151553207Y-105562611D01*
X151450000Y-105561928D01*
X151325518Y-105574188D01*
X151205820Y-105610498D01*
X151095506Y-105669463D01*
X150998815Y-105748815D01*
X150919463Y-105845506D01*
X150860498Y-105955820D01*
X150824188Y-106075518D01*
X150811928Y-106200000D01*
X150815000Y-106414250D01*
X150973750Y-106573000D01*
X152073000Y-106573000D01*
X152073000Y-106553000D01*
X152327000Y-106553000D01*
X152327000Y-106573000D01*
X153426250Y-106573000D01*
X153585000Y-106414250D01*
X153588072Y-106200000D01*
X153575812Y-106075518D01*
X153539502Y-105955820D01*
X153480537Y-105845506D01*
X153401185Y-105748815D01*
X153304494Y-105669463D01*
X153194180Y-105610498D01*
X153074482Y-105574188D01*
X152950000Y-105561928D01*
X152846793Y-105562611D01*
X152859774Y-105553937D01*
X153003937Y-105409774D01*
X153117205Y-105240256D01*
X153195226Y-105051898D01*
X153235000Y-104851939D01*
X153235000Y-104648061D01*
X153220548Y-104575408D01*
X153304494Y-104530537D01*
X153401185Y-104451185D01*
X153480537Y-104354494D01*
X153539502Y-104244180D01*
X153575812Y-104124482D01*
X153588072Y-104000000D01*
X153588072Y-103000000D01*
X153575812Y-102875518D01*
X153539502Y-102755820D01*
X153480537Y-102645506D01*
X153401185Y-102548815D01*
X153304494Y-102469463D01*
X153194180Y-102410498D01*
X153074482Y-102374188D01*
X152950000Y-102361928D01*
X151450000Y-102361928D01*
X151325518Y-102374188D01*
X151205820Y-102410498D01*
X151095506Y-102469463D01*
X150998815Y-102548815D01*
X150919463Y-102645506D01*
X150860498Y-102755820D01*
X150824188Y-102875518D01*
X150811928Y-103000000D01*
X149235001Y-103000000D01*
X149235001Y-97933616D01*
X149238678Y-97896283D01*
X149224004Y-97747297D01*
X149183792Y-97614732D01*
X149200883Y-97630740D01*
X149348723Y-97722673D01*
X149511657Y-97783997D01*
X149683424Y-97812356D01*
X149857424Y-97806659D01*
X150026968Y-97767127D01*
X150185543Y-97695278D01*
X152177401Y-96545278D01*
X152318912Y-96443872D01*
X152437920Y-96316808D01*
X152529853Y-96168969D01*
X152591177Y-96006034D01*
X152619536Y-95834267D01*
X152613839Y-95660268D01*
X152574307Y-95490723D01*
X152502458Y-95332148D01*
X152252458Y-94899136D01*
X152151053Y-94757626D01*
X152023989Y-94638618D01*
X151876149Y-94546685D01*
X151713215Y-94485361D01*
X151541448Y-94457002D01*
X151367448Y-94462699D01*
X151197904Y-94502231D01*
X151039329Y-94574080D01*
X149047471Y-95724080D01*
X148905960Y-95825486D01*
X148786952Y-95952550D01*
X148695019Y-96100389D01*
X148633695Y-96263324D01*
X148605336Y-96435091D01*
X148611033Y-96609090D01*
X148650565Y-96778635D01*
X148722414Y-96937210D01*
X148902298Y-97248779D01*
X148103429Y-96449910D01*
X148174268Y-96335992D01*
X148228687Y-96191405D01*
X148253853Y-96038979D01*
X148248798Y-95884572D01*
X148213717Y-95734119D01*
X148149959Y-95593400D01*
X147999959Y-95333592D01*
X147909972Y-95208016D01*
X147797216Y-95102409D01*
X147679508Y-95029214D01*
X147684077Y-95001540D01*
X147679985Y-94876523D01*
X147651582Y-94754706D01*
X147599958Y-94640772D01*
X147590173Y-94629967D01*
X147373316Y-94571860D01*
X146334735Y-95171485D01*
X146344735Y-95188806D01*
X146124765Y-95315806D01*
X146114765Y-95298485D01*
X145076184Y-95898110D01*
X145018077Y-96114967D01*
X145022542Y-96128844D01*
X145095400Y-96230518D01*
X145186695Y-96316025D01*
X145292917Y-96382077D01*
X145319167Y-96391957D01*
X145323702Y-96530492D01*
X145358783Y-96680945D01*
X145422541Y-96821664D01*
X145572541Y-97081472D01*
X145662528Y-97207048D01*
X145775284Y-97312655D01*
X145906477Y-97394236D01*
X146051064Y-97448655D01*
X146203490Y-97473821D01*
X146357896Y-97468766D01*
X146508349Y-97433685D01*
X146649068Y-97369926D01*
X146791569Y-97287653D01*
X147715002Y-98211086D01*
X147715001Y-102361928D01*
X146550000Y-102361928D01*
X146425518Y-102374188D01*
X146305820Y-102410498D01*
X146195506Y-102469463D01*
X146098815Y-102548815D01*
X146044499Y-102615000D01*
X141816579Y-102615000D01*
X140036761Y-100835182D01*
X140064250Y-100835000D01*
X140223000Y-100676250D01*
X140223000Y-99827000D01*
X140477000Y-99827000D01*
X140477000Y-100676250D01*
X140635750Y-100835000D01*
X141100000Y-100838072D01*
X141224482Y-100825812D01*
X141344180Y-100789502D01*
X141454494Y-100730537D01*
X141551185Y-100651185D01*
X141630537Y-100554494D01*
X141689502Y-100444180D01*
X141725812Y-100324482D01*
X141738072Y-100200000D01*
X141735000Y-99985750D01*
X141576250Y-99827000D01*
X140477000Y-99827000D01*
X140223000Y-99827000D01*
X139123750Y-99827000D01*
X139076164Y-99874586D01*
X136651896Y-97450318D01*
X136730537Y-97354494D01*
X136789502Y-97244180D01*
X136825812Y-97124482D01*
X136838072Y-97000000D01*
X136838072Y-96363506D01*
X137201578Y-96000000D01*
X138961928Y-96000000D01*
X138961928Y-97000000D01*
X138974188Y-97124482D01*
X139010498Y-97244180D01*
X139069463Y-97354494D01*
X139148815Y-97451185D01*
X139245506Y-97530537D01*
X139347431Y-97585018D01*
X139315000Y-97748061D01*
X139315000Y-97951939D01*
X139354774Y-98151898D01*
X139432795Y-98340256D01*
X139546063Y-98509774D01*
X139598377Y-98562088D01*
X139475518Y-98574188D01*
X139355820Y-98610498D01*
X139245506Y-98669463D01*
X139148815Y-98748815D01*
X139069463Y-98845506D01*
X139010498Y-98955820D01*
X138974188Y-99075518D01*
X138961928Y-99200000D01*
X138965000Y-99414250D01*
X139123750Y-99573000D01*
X140223000Y-99573000D01*
X140223000Y-99553000D01*
X140477000Y-99553000D01*
X140477000Y-99573000D01*
X141576250Y-99573000D01*
X141735000Y-99414250D01*
X141738072Y-99200000D01*
X141725812Y-99075518D01*
X141689502Y-98955820D01*
X141630537Y-98845506D01*
X141551185Y-98748815D01*
X141454494Y-98669463D01*
X141344180Y-98610498D01*
X141224482Y-98574188D01*
X141101623Y-98562088D01*
X141153937Y-98509774D01*
X141267205Y-98340256D01*
X141345226Y-98151898D01*
X141385000Y-97951939D01*
X141385000Y-97748061D01*
X141352569Y-97585018D01*
X141454494Y-97530537D01*
X141551185Y-97451185D01*
X141630537Y-97354494D01*
X141689502Y-97244180D01*
X141725812Y-97124482D01*
X141738072Y-97000000D01*
X141738072Y-96000000D01*
X141725812Y-95875518D01*
X141689502Y-95755820D01*
X141630537Y-95645506D01*
X141551185Y-95548815D01*
X141454494Y-95469463D01*
X141344180Y-95410498D01*
X141224482Y-95374188D01*
X141100000Y-95361928D01*
X139600000Y-95361928D01*
X139475518Y-95374188D01*
X139355820Y-95410498D01*
X139245506Y-95469463D01*
X139148815Y-95548815D01*
X139069463Y-95645506D01*
X139010498Y-95755820D01*
X138974188Y-95875518D01*
X138961928Y-96000000D01*
X137201578Y-96000000D01*
X138816579Y-94385000D01*
X144078266Y-94385000D01*
X144108783Y-94515881D01*
X144172541Y-94656600D01*
X144322541Y-94916408D01*
X144412528Y-95041984D01*
X144525284Y-95147591D01*
X144642992Y-95220786D01*
X144638423Y-95248460D01*
X144642515Y-95373477D01*
X144670918Y-95495294D01*
X144722542Y-95609228D01*
X144732327Y-95620033D01*
X144949184Y-95678140D01*
X145987765Y-95078515D01*
X145977765Y-95061194D01*
X146197735Y-94934194D01*
X146207735Y-94951515D01*
X147246316Y-94351890D01*
X147304423Y-94135033D01*
X147299958Y-94121156D01*
X147227100Y-94019482D01*
X147135805Y-93933975D01*
X147029583Y-93867923D01*
X147003333Y-93858043D01*
X146998798Y-93719508D01*
X146963717Y-93569055D01*
X146899959Y-93428336D01*
X146749959Y-93168528D01*
X146659972Y-93042952D01*
X146547216Y-92937345D01*
X146416023Y-92855764D01*
X146271436Y-92801345D01*
X146119010Y-92776179D01*
X145964604Y-92781234D01*
X145814151Y-92816315D01*
X145673432Y-92880074D01*
X145643892Y-92897129D01*
X145622599Y-92871183D01*
X145487841Y-92760589D01*
X145334095Y-92678411D01*
X145167272Y-92627805D01*
X145037259Y-92615000D01*
X145037251Y-92615000D01*
X144993782Y-92610719D01*
X144950313Y-92615000D01*
X138493469Y-92615000D01*
X138450000Y-92610719D01*
X138406531Y-92615000D01*
X138406523Y-92615000D01*
X138276510Y-92627805D01*
X138109686Y-92678411D01*
X137955941Y-92760589D01*
X137854953Y-92843468D01*
X137854951Y-92843470D01*
X137821183Y-92871183D01*
X137793470Y-92904951D01*
X135450000Y-95248422D01*
X134406534Y-94204956D01*
X134378817Y-94171183D01*
X134244059Y-94060589D01*
X134090313Y-93978411D01*
X133923490Y-93927805D01*
X133793477Y-93915000D01*
X133793469Y-93915000D01*
X133750000Y-93910719D01*
X133706531Y-93915000D01*
X125193466Y-93915000D01*
X125149999Y-93910719D01*
X125106533Y-93915000D01*
X125106523Y-93915000D01*
X124976510Y-93927805D01*
X124809687Y-93978411D01*
X124655941Y-94060589D01*
X124655939Y-94060590D01*
X124655940Y-94060590D01*
X124554953Y-94143468D01*
X124554951Y-94143470D01*
X124521183Y-94171183D01*
X124493470Y-94204951D01*
X123336494Y-95361928D01*
X122700000Y-95361928D01*
X122575518Y-95374188D01*
X122455820Y-95410498D01*
X122345506Y-95469463D01*
X122248815Y-95548815D01*
X122194499Y-95615000D01*
X120243217Y-95615000D01*
X120259774Y-95603937D01*
X120403937Y-95459774D01*
X120517205Y-95290256D01*
X120595226Y-95101898D01*
X120635000Y-94901939D01*
X120635000Y-94698061D01*
X120595226Y-94498102D01*
X120517205Y-94309744D01*
X120403937Y-94140226D01*
X120259774Y-93996063D01*
X120090256Y-93882795D01*
X119901898Y-93804774D01*
X119701939Y-93765000D01*
X119639801Y-93765000D01*
X119406271Y-93531470D01*
X119382469Y-93502467D01*
X119266744Y-93407494D01*
X119134715Y-93336922D01*
X118991454Y-93293465D01*
X118879801Y-93282468D01*
X118879790Y-93282468D01*
X118842468Y-93278792D01*
X118820855Y-93280921D01*
X118126568Y-92880074D01*
X117985849Y-92816315D01*
X117835396Y-92781234D01*
X117680989Y-92776179D01*
X117528563Y-92801345D01*
X117383976Y-92855764D01*
X117252784Y-92937345D01*
X117140028Y-93042952D01*
X117050041Y-93168528D01*
X116900041Y-93428336D01*
X116836283Y-93569055D01*
X116801202Y-93719508D01*
X116796667Y-93858043D01*
X116770417Y-93867923D01*
X116664195Y-93933975D01*
X116572900Y-94019482D01*
X116500042Y-94121156D01*
X116495577Y-94135033D01*
X116553684Y-94351890D01*
X117592265Y-94951515D01*
X117602265Y-94934194D01*
X117822235Y-95061194D01*
X117812235Y-95078515D01*
X117829556Y-95088515D01*
X117702556Y-95308485D01*
X117685235Y-95298485D01*
X117675235Y-95315806D01*
X117455265Y-95188806D01*
X117465265Y-95171485D01*
X116426684Y-94571860D01*
X116209827Y-94629967D01*
X116200042Y-94640772D01*
X116148418Y-94754706D01*
X116120015Y-94876523D01*
X116115923Y-95001540D01*
X116120492Y-95029213D01*
X116002784Y-95102409D01*
X115890028Y-95208016D01*
X115800041Y-95333592D01*
X115650041Y-95593400D01*
X115586283Y-95734119D01*
X115551202Y-95884572D01*
X115546147Y-96038978D01*
X115571313Y-96191404D01*
X115625732Y-96335991D01*
X115707313Y-96467184D01*
X115812920Y-96579940D01*
X115938496Y-96669926D01*
X116128750Y-96779769D01*
X116128751Y-98054211D01*
X116059744Y-98082795D01*
X115890226Y-98196063D01*
X115746063Y-98340226D01*
X115632795Y-98509744D01*
X115554774Y-98698102D01*
X115543465Y-98754956D01*
X111936494Y-102361928D01*
X110850000Y-102361928D01*
X110725518Y-102374188D01*
X110605820Y-102410498D01*
X110495506Y-102469463D01*
X110398815Y-102548815D01*
X110319463Y-102645506D01*
X110260498Y-102755820D01*
X110224188Y-102875518D01*
X110211928Y-103000000D01*
X106862367Y-103000000D01*
X111000544Y-95834268D01*
X111180464Y-95834268D01*
X111208823Y-96006035D01*
X111270147Y-96168969D01*
X111362080Y-96316809D01*
X111481088Y-96443873D01*
X111622599Y-96545278D01*
X113614457Y-97695278D01*
X113773031Y-97767127D01*
X113942576Y-97806659D01*
X114116575Y-97812356D01*
X114288342Y-97783997D01*
X114451277Y-97722673D01*
X114599116Y-97630740D01*
X114726180Y-97511732D01*
X114827586Y-97370222D01*
X115077586Y-96937210D01*
X115149435Y-96778634D01*
X115188967Y-96609090D01*
X115194664Y-96435090D01*
X115166305Y-96263323D01*
X115104981Y-96100389D01*
X115013048Y-95952549D01*
X114894040Y-95825485D01*
X114752529Y-95724080D01*
X112760671Y-94574080D01*
X112602097Y-94502231D01*
X112432552Y-94462699D01*
X112258553Y-94457002D01*
X112086786Y-94485361D01*
X111923851Y-94546685D01*
X111776012Y-94638618D01*
X111648948Y-94757626D01*
X111547542Y-94899136D01*
X111297542Y-95332148D01*
X111225693Y-95490724D01*
X111186161Y-95660268D01*
X111180464Y-95834268D01*
X111000544Y-95834268D01*
X114101324Y-90464910D01*
X114280464Y-90464910D01*
X114308823Y-90636677D01*
X114370147Y-90799611D01*
X114462080Y-90947451D01*
X114581088Y-91074515D01*
X114722599Y-91175920D01*
X116714457Y-92325920D01*
X116873031Y-92397769D01*
X117042576Y-92437301D01*
X117216575Y-92442998D01*
X117388342Y-92414639D01*
X117551277Y-92353315D01*
X117699116Y-92261382D01*
X117826180Y-92142374D01*
X117927586Y-92000864D01*
X118177586Y-91567852D01*
X118249435Y-91409276D01*
X118288967Y-91239732D01*
X118294663Y-91065733D01*
X145505336Y-91065733D01*
X145511033Y-91239732D01*
X145550565Y-91409277D01*
X145622414Y-91567852D01*
X145872414Y-92000864D01*
X145973819Y-92142374D01*
X146100883Y-92261382D01*
X146248723Y-92353315D01*
X146411657Y-92414639D01*
X146583424Y-92442998D01*
X146757424Y-92437301D01*
X146926968Y-92397769D01*
X147085543Y-92325920D01*
X149077401Y-91175920D01*
X149218912Y-91074514D01*
X149337920Y-90947450D01*
X149429853Y-90799611D01*
X149491177Y-90636676D01*
X149519536Y-90464909D01*
X149513839Y-90290910D01*
X149474307Y-90121365D01*
X149402458Y-89962790D01*
X149152458Y-89529778D01*
X149051053Y-89388268D01*
X148923989Y-89269260D01*
X148776149Y-89177327D01*
X148613215Y-89116003D01*
X148441448Y-89087644D01*
X148267448Y-89093341D01*
X148097904Y-89132873D01*
X147939329Y-89204722D01*
X145947471Y-90354722D01*
X145805960Y-90456128D01*
X145686952Y-90583192D01*
X145595019Y-90731031D01*
X145533695Y-90893966D01*
X145505336Y-91065733D01*
X118294663Y-91065733D01*
X118294664Y-91065732D01*
X118266305Y-90893965D01*
X118204981Y-90731031D01*
X118113048Y-90583191D01*
X117994040Y-90456127D01*
X117852529Y-90354722D01*
X115860671Y-89204722D01*
X115702097Y-89132873D01*
X115532552Y-89093341D01*
X115358553Y-89087644D01*
X115186786Y-89116003D01*
X115023851Y-89177327D01*
X114876012Y-89269260D01*
X114748948Y-89388268D01*
X114647542Y-89529778D01*
X114397542Y-89962790D01*
X114325693Y-90121366D01*
X114286161Y-90290910D01*
X114280464Y-90464910D01*
X114101324Y-90464910D01*
X115845092Y-87445374D01*
X121734231Y-87445374D01*
X122034411Y-87883828D01*
X122613356Y-88194296D01*
X123241746Y-88385852D01*
X123895431Y-88451134D01*
X124549293Y-88387634D01*
X125178203Y-88197792D01*
X125757992Y-87888904D01*
X125765589Y-87883828D01*
X126065769Y-87445374D01*
X137734231Y-87445374D01*
X138034411Y-87883828D01*
X138613356Y-88194296D01*
X139241746Y-88385852D01*
X139895431Y-88451134D01*
X140549293Y-88387634D01*
X141178203Y-88197792D01*
X141757992Y-87888904D01*
X141765589Y-87883828D01*
X142065769Y-87445374D01*
X139900000Y-85279605D01*
X137734231Y-87445374D01*
X126065769Y-87445374D01*
X123900000Y-85279605D01*
X121734231Y-87445374D01*
X115845092Y-87445374D01*
X117202174Y-85095431D01*
X120548866Y-85095431D01*
X120612366Y-85749293D01*
X120802208Y-86378203D01*
X121111096Y-86957992D01*
X121116172Y-86965589D01*
X121554626Y-87265769D01*
X123720395Y-85100000D01*
X124079605Y-85100000D01*
X126245374Y-87265769D01*
X126683828Y-86965589D01*
X126994296Y-86386644D01*
X127185852Y-85758254D01*
X127251134Y-85104569D01*
X127250247Y-85095431D01*
X136548866Y-85095431D01*
X136612366Y-85749293D01*
X136802208Y-86378203D01*
X137111096Y-86957992D01*
X137116172Y-86965589D01*
X137554626Y-87265769D01*
X139720395Y-85100000D01*
X140079605Y-85100000D01*
X142245374Y-87265769D01*
X142683828Y-86965589D01*
X142994296Y-86386644D01*
X143185852Y-85758254D01*
X143251134Y-85104569D01*
X143187634Y-84450707D01*
X142997792Y-83821797D01*
X142688904Y-83242008D01*
X142683828Y-83234411D01*
X142245374Y-82934231D01*
X140079605Y-85100000D01*
X139720395Y-85100000D01*
X137554626Y-82934231D01*
X137116172Y-83234411D01*
X136805704Y-83813356D01*
X136614148Y-84441746D01*
X136548866Y-85095431D01*
X127250247Y-85095431D01*
X127187634Y-84450707D01*
X126997792Y-83821797D01*
X126688904Y-83242008D01*
X126683828Y-83234411D01*
X126245374Y-82934231D01*
X124079605Y-85100000D01*
X123720395Y-85100000D01*
X121554626Y-82934231D01*
X121116172Y-83234411D01*
X120805704Y-83813356D01*
X120614148Y-84441746D01*
X120548866Y-85095431D01*
X117202174Y-85095431D01*
X118553979Y-82754626D01*
X121734231Y-82754626D01*
X123900000Y-84920395D01*
X126065769Y-82754626D01*
X137734231Y-82754626D01*
X139900000Y-84920395D01*
X142065769Y-82754626D01*
X141765589Y-82316172D01*
X141186644Y-82005704D01*
X140558254Y-81814148D01*
X139904569Y-81748866D01*
X139250707Y-81812366D01*
X138621797Y-82002208D01*
X138042008Y-82311096D01*
X138034411Y-82316172D01*
X137734231Y-82754626D01*
X126065769Y-82754626D01*
X125765589Y-82316172D01*
X125186644Y-82005704D01*
X124558254Y-81814148D01*
X123904569Y-81748866D01*
X123250707Y-81812366D01*
X122621797Y-82002208D01*
X122042008Y-82311096D01*
X122034411Y-82316172D01*
X121734231Y-82754626D01*
X118553979Y-82754626D01*
X118727291Y-82454517D01*
X119187800Y-81799612D01*
X119736052Y-81257332D01*
X120371670Y-80820707D01*
X121074561Y-80503542D01*
X121825924Y-80315005D01*
X122525897Y-80260000D01*
X141270586Y-80260000D01*
X142068082Y-80331175D01*
G37*
X142068082Y-80331175D02*
X142565649Y-80467294D01*
X144230062Y-81415622D01*
X144673272Y-81872980D01*
X145069997Y-82449826D01*
X160656702Y-109440000D01*
X103143297Y-109440000D01*
X105014382Y-106200000D01*
X110211928Y-106200000D01*
X110211928Y-107200000D01*
X110224188Y-107324482D01*
X110260498Y-107444180D01*
X110319463Y-107554494D01*
X110398815Y-107651185D01*
X110495506Y-107730537D01*
X110605820Y-107789502D01*
X110725518Y-107825812D01*
X110850000Y-107838072D01*
X112350000Y-107838072D01*
X112474482Y-107825812D01*
X112594180Y-107789502D01*
X112704494Y-107730537D01*
X112801185Y-107651185D01*
X112880537Y-107554494D01*
X112939502Y-107444180D01*
X112975812Y-107324482D01*
X112988072Y-107200000D01*
X115111928Y-107200000D01*
X115124188Y-107324482D01*
X115160498Y-107444180D01*
X115219463Y-107554494D01*
X115298815Y-107651185D01*
X115395506Y-107730537D01*
X115505820Y-107789502D01*
X115625518Y-107825812D01*
X115750000Y-107838072D01*
X116214250Y-107835000D01*
X116373000Y-107676250D01*
X116373000Y-106827000D01*
X116627000Y-106827000D01*
X116627000Y-107676250D01*
X116785750Y-107835000D01*
X117250000Y-107838072D01*
X117374482Y-107825812D01*
X117494180Y-107789502D01*
X117604494Y-107730537D01*
X117701185Y-107651185D01*
X117780537Y-107554494D01*
X117839502Y-107444180D01*
X117875812Y-107324482D01*
X117888072Y-107200000D01*
X117885000Y-106985750D01*
X117726250Y-106827000D01*
X116627000Y-106827000D01*
X116373000Y-106827000D01*
X115273750Y-106827000D01*
X115115000Y-106985750D01*
X115111928Y-107200000D01*
X112988072Y-107200000D01*
X112988072Y-106200000D01*
X115111928Y-106200000D01*
X115115000Y-106414250D01*
X115273750Y-106573000D01*
X116373000Y-106573000D01*
X116373000Y-105723750D01*
X116627000Y-105723750D01*
X116627000Y-106573000D01*
X117726250Y-106573000D01*
X117885000Y-106414250D01*
X117888072Y-106200000D01*
X117875812Y-106075518D01*
X117839502Y-105955820D01*
X117780537Y-105845506D01*
X117701185Y-105748815D01*
X117604494Y-105669463D01*
X117494180Y-105610498D01*
X117374482Y-105574188D01*
X117250000Y-105561928D01*
X116785750Y-105565000D01*
X116627000Y-105723750D01*
X116373000Y-105723750D01*
X116214250Y-105565000D01*
X115750000Y-105561928D01*
X115625518Y-105574188D01*
X115505820Y-105610498D01*
X115395506Y-105669463D01*
X115298815Y-105748815D01*
X115219463Y-105845506D01*
X115160498Y-105955820D01*
X115124188Y-106075518D01*
X115111928Y-106200000D01*
X112988072Y-106200000D01*
X112975812Y-106075518D01*
X112939502Y-105955820D01*
X112880537Y-105845506D01*
X112801185Y-105748815D01*
X112704494Y-105669463D01*
X112594180Y-105610498D01*
X112474482Y-105574188D01*
X112350000Y-105561928D01*
X110850000Y-105561928D01*
X110725518Y-105574188D01*
X110605820Y-105610498D01*
X110495506Y-105669463D01*
X110398815Y-105748815D01*
X110319463Y-105845506D01*
X110260498Y-105955820D01*
X110224188Y-106075518D01*
X110211928Y-106200000D01*
X105014382Y-106200000D01*
X106862367Y-103000000D01*
X110211928Y-103000000D01*
X110211928Y-104000000D01*
X110224188Y-104124482D01*
X110260498Y-104244180D01*
X110319463Y-104354494D01*
X110398815Y-104451185D01*
X110495506Y-104530537D01*
X110605820Y-104589502D01*
X110725518Y-104625812D01*
X110850000Y-104638072D01*
X112350000Y-104638072D01*
X112474482Y-104625812D01*
X112594180Y-104589502D01*
X112704494Y-104530537D01*
X112801185Y-104451185D01*
X112880537Y-104354494D01*
X112939502Y-104244180D01*
X112975812Y-104124482D01*
X112988072Y-104000000D01*
X112988072Y-103813506D01*
X113801578Y-103000000D01*
X115111928Y-103000000D01*
X115111928Y-104000000D01*
X115124188Y-104124482D01*
X115160498Y-104244180D01*
X115219463Y-104354494D01*
X115298815Y-104451185D01*
X115395506Y-104530537D01*
X115505820Y-104589502D01*
X115625518Y-104625812D01*
X115750000Y-104638072D01*
X117250000Y-104638072D01*
X117374482Y-104625812D01*
X117494180Y-104589502D01*
X117604494Y-104530537D01*
X117701185Y-104451185D01*
X117704956Y-104446589D01*
X117898061Y-104485000D01*
X118101939Y-104485000D01*
X118301898Y-104445226D01*
X118490256Y-104367205D01*
X118659774Y-104253937D01*
X118803937Y-104109774D01*
X118917205Y-103940256D01*
X118995226Y-103751898D01*
X119035000Y-103551939D01*
X119035000Y-103348061D01*
X118995226Y-103148102D01*
X118917205Y-102959744D01*
X118803937Y-102790226D01*
X118659774Y-102646063D01*
X118490256Y-102532795D01*
X118301898Y-102454774D01*
X118101939Y-102415000D01*
X117898061Y-102415000D01*
X117698102Y-102454774D01*
X117623998Y-102485469D01*
X117604494Y-102469463D01*
X117494180Y-102410498D01*
X117374482Y-102374188D01*
X117250000Y-102361928D01*
X115750000Y-102361928D01*
X115625518Y-102374188D01*
X115505820Y-102410498D01*
X115395506Y-102469463D01*
X115298815Y-102548815D01*
X115219463Y-102645506D01*
X115160498Y-102755820D01*
X115124188Y-102875518D01*
X115111928Y-103000000D01*
X113801578Y-103000000D01*
X116795044Y-100006535D01*
X116851898Y-99995226D01*
X117040256Y-99917205D01*
X117209774Y-99803937D01*
X117353937Y-99659774D01*
X117467205Y-99490256D01*
X117545226Y-99301898D01*
X117556535Y-99245043D01*
X117601578Y-99200000D01*
X122061928Y-99200000D01*
X122061928Y-100200000D01*
X122074188Y-100324482D01*
X122110498Y-100444180D01*
X122169463Y-100554494D01*
X122248815Y-100651185D01*
X122345506Y-100730537D01*
X122455820Y-100789502D01*
X122575518Y-100825812D01*
X122700000Y-100838072D01*
X124200000Y-100838072D01*
X124324482Y-100825812D01*
X124444180Y-100789502D01*
X124554494Y-100730537D01*
X124651185Y-100651185D01*
X124730537Y-100554494D01*
X124789502Y-100444180D01*
X124825812Y-100324482D01*
X124838072Y-100200000D01*
X126961928Y-100200000D01*
X126974188Y-100324482D01*
X127010498Y-100444180D01*
X127069463Y-100554494D01*
X127148815Y-100651185D01*
X127245506Y-100730537D01*
X127355820Y-100789502D01*
X127475518Y-100825812D01*
X127600000Y-100838072D01*
X128064250Y-100835000D01*
X128223000Y-100676250D01*
X128223000Y-99827000D01*
X128477000Y-99827000D01*
X128477000Y-100676250D01*
X128635750Y-100835000D01*
X129100000Y-100838072D01*
X129224482Y-100825812D01*
X129344180Y-100789502D01*
X129454494Y-100730537D01*
X129551185Y-100651185D01*
X129630537Y-100554494D01*
X129689502Y-100444180D01*
X129725812Y-100324482D01*
X129738072Y-100200000D01*
X129735000Y-99985750D01*
X129576250Y-99827000D01*
X128477000Y-99827000D01*
X128223000Y-99827000D01*
X127123750Y-99827000D01*
X126965000Y-99985750D01*
X126961928Y-100200000D01*
X124838072Y-100200000D01*
X124838072Y-99200000D01*
X124825812Y-99075518D01*
X124789502Y-98955820D01*
X124730537Y-98845506D01*
X124651185Y-98748815D01*
X124554494Y-98669463D01*
X124444180Y-98610498D01*
X124324482Y-98574188D01*
X124200000Y-98561928D01*
X122700000Y-98561928D01*
X122575518Y-98574188D01*
X122455820Y-98610498D01*
X122345506Y-98669463D01*
X122248815Y-98748815D01*
X122169463Y-98845506D01*
X122110498Y-98955820D01*
X122074188Y-99075518D01*
X122061928Y-99200000D01*
X117601578Y-99200000D01*
X117608794Y-99192784D01*
X117642567Y-99165067D01*
X117753161Y-99030309D01*
X117794250Y-98953436D01*
X117835339Y-98876564D01*
X117885945Y-98709740D01*
X117890848Y-98659960D01*
X117898750Y-98579727D01*
X117898750Y-98579719D01*
X117903031Y-98536250D01*
X117898750Y-98492781D01*
X117898750Y-97390986D01*
X117908377Y-97385000D01*
X122194499Y-97385000D01*
X122248815Y-97451185D01*
X122345506Y-97530537D01*
X122455820Y-97589502D01*
X122575518Y-97625812D01*
X122700000Y-97638072D01*
X124200000Y-97638072D01*
X124324482Y-97625812D01*
X124444180Y-97589502D01*
X124554494Y-97530537D01*
X124651185Y-97451185D01*
X124730537Y-97354494D01*
X124789502Y-97244180D01*
X124825812Y-97124482D01*
X124838072Y-97000000D01*
X124838072Y-96363506D01*
X125516579Y-95685000D01*
X127048353Y-95685000D01*
X127010498Y-95755820D01*
X126974188Y-95875518D01*
X126961928Y-96000000D01*
X126961928Y-97000000D01*
X126974188Y-97124482D01*
X127010498Y-97244180D01*
X127069463Y-97354494D01*
X127148815Y-97451185D01*
X127245506Y-97530537D01*
X127302236Y-97560860D01*
X127265000Y-97748061D01*
X127265000Y-97951939D01*
X127304774Y-98151898D01*
X127382795Y-98340256D01*
X127496063Y-98509774D01*
X127552860Y-98566571D01*
X127475518Y-98574188D01*
X127355820Y-98610498D01*
X127245506Y-98669463D01*
X127148815Y-98748815D01*
X127069463Y-98845506D01*
X127010498Y-98955820D01*
X126974188Y-99075518D01*
X126961928Y-99200000D01*
X126965000Y-99414250D01*
X127123750Y-99573000D01*
X128223000Y-99573000D01*
X128223000Y-99553000D01*
X128477000Y-99553000D01*
X128477000Y-99573000D01*
X129576250Y-99573000D01*
X129735000Y-99414250D01*
X129738072Y-99200000D01*
X129725812Y-99075518D01*
X129689502Y-98955820D01*
X129630537Y-98845506D01*
X129551185Y-98748815D01*
X129454494Y-98669463D01*
X129344180Y-98610498D01*
X129224482Y-98574188D01*
X129100000Y-98561928D01*
X129051462Y-98562249D01*
X129103937Y-98509774D01*
X129217205Y-98340256D01*
X129295226Y-98151898D01*
X129335000Y-97951939D01*
X129335000Y-97748061D01*
X129305778Y-97601151D01*
X129344180Y-97589502D01*
X129454494Y-97530537D01*
X129551185Y-97451185D01*
X129630537Y-97354494D01*
X129689502Y-97244180D01*
X129725812Y-97124482D01*
X129738072Y-97000000D01*
X129738072Y-96000000D01*
X129725812Y-95875518D01*
X129689502Y-95755820D01*
X129651647Y-95685000D01*
X133383422Y-95685000D01*
X134061928Y-96363507D01*
X134061928Y-97000000D01*
X134074188Y-97124482D01*
X134110498Y-97244180D01*
X134169463Y-97354494D01*
X134248815Y-97451185D01*
X134345506Y-97530537D01*
X134455820Y-97589502D01*
X134573035Y-97625059D01*
X134577805Y-97673490D01*
X134628412Y-97840313D01*
X134710590Y-97994059D01*
X134793468Y-98095046D01*
X134793471Y-98095049D01*
X134821184Y-98128817D01*
X134854952Y-98156530D01*
X135260350Y-98561928D01*
X134700000Y-98561928D01*
X134575518Y-98574188D01*
X134455820Y-98610498D01*
X134345506Y-98669463D01*
X134248815Y-98748815D01*
X134169463Y-98845506D01*
X134110498Y-98955820D01*
X134074188Y-99075518D01*
X134061928Y-99200000D01*
X134061928Y-100200000D01*
X134074188Y-100324482D01*
X134110498Y-100444180D01*
X134169463Y-100554494D01*
X134248815Y-100651185D01*
X134345506Y-100730537D01*
X134455820Y-100789502D01*
X134575518Y-100825812D01*
X134700000Y-100838072D01*
X136200000Y-100838072D01*
X136324482Y-100825812D01*
X136444180Y-100789502D01*
X136554494Y-100730537D01*
X136651185Y-100651185D01*
X136730537Y-100554494D01*
X136789502Y-100444180D01*
X136825812Y-100324482D01*
X136838072Y-100200000D01*
X136838072Y-100139650D01*
X140793470Y-104095049D01*
X140821183Y-104128817D01*
X140854951Y-104156530D01*
X140854953Y-104156532D01*
X140906704Y-104199003D01*
X140955941Y-104239411D01*
X141109687Y-104321589D01*
X141276510Y-104372195D01*
X141406523Y-104385000D01*
X141406533Y-104385000D01*
X141449999Y-104389281D01*
X141493465Y-104385000D01*
X146044499Y-104385000D01*
X146098815Y-104451185D01*
X146195506Y-104530537D01*
X146305820Y-104589502D01*
X146425518Y-104625812D01*
X146550000Y-104638072D01*
X147715001Y-104638072D01*
X147715001Y-105210197D01*
X147363270Y-105561928D01*
X146550000Y-105561928D01*
X146425518Y-105574188D01*
X146305820Y-105610498D01*
X146195506Y-105669463D01*
X146098815Y-105748815D01*
X146019463Y-105845506D01*
X145960498Y-105955820D01*
X145924188Y-106075518D01*
X145911928Y-106200000D01*
X145911928Y-107200000D01*
X145924188Y-107324482D01*
X145960498Y-107444180D01*
X146019463Y-107554494D01*
X146098815Y-107651185D01*
X146195506Y-107730537D01*
X146305820Y-107789502D01*
X146425518Y-107825812D01*
X146550000Y-107838072D01*
X148050000Y-107838072D01*
X148174482Y-107825812D01*
X148294180Y-107789502D01*
X148404494Y-107730537D01*
X148501185Y-107651185D01*
X148580537Y-107554494D01*
X148639502Y-107444180D01*
X148675812Y-107324482D01*
X148688072Y-107200000D01*
X150811928Y-107200000D01*
X150824188Y-107324482D01*
X150860498Y-107444180D01*
X150919463Y-107554494D01*
X150998815Y-107651185D01*
X151095506Y-107730537D01*
X151205820Y-107789502D01*
X151325518Y-107825812D01*
X151450000Y-107838072D01*
X151914250Y-107835000D01*
X152073000Y-107676250D01*
X152073000Y-106827000D01*
X152327000Y-106827000D01*
X152327000Y-107676250D01*
X152485750Y-107835000D01*
X152950000Y-107838072D01*
X153074482Y-107825812D01*
X153194180Y-107789502D01*
X153304494Y-107730537D01*
X153401185Y-107651185D01*
X153480537Y-107554494D01*
X153539502Y-107444180D01*
X153575812Y-107324482D01*
X153588072Y-107200000D01*
X153585000Y-106985750D01*
X153426250Y-106827000D01*
X152327000Y-106827000D01*
X152073000Y-106827000D01*
X150973750Y-106827000D01*
X150815000Y-106985750D01*
X150811928Y-107200000D01*
X148688072Y-107200000D01*
X148688072Y-106386730D01*
X148986005Y-106088797D01*
X149015002Y-106065000D01*
X149109975Y-105949275D01*
X149180547Y-105817246D01*
X149224004Y-105673985D01*
X149235001Y-105562332D01*
X149235001Y-105562323D01*
X149238677Y-105525000D01*
X149235001Y-105487677D01*
X149235001Y-103000000D01*
X150811928Y-103000000D01*
X150811928Y-104000000D01*
X150824188Y-104124482D01*
X150860498Y-104244180D01*
X150919463Y-104354494D01*
X150998815Y-104451185D01*
X151095506Y-104530537D01*
X151179452Y-104575408D01*
X151165000Y-104648061D01*
X151165000Y-104851939D01*
X151204774Y-105051898D01*
X151282795Y-105240256D01*
X151396063Y-105409774D01*
X151540226Y-105553937D01*
X151553207Y-105562611D01*
X151450000Y-105561928D01*
X151325518Y-105574188D01*
X151205820Y-105610498D01*
X151095506Y-105669463D01*
X150998815Y-105748815D01*
X150919463Y-105845506D01*
X150860498Y-105955820D01*
X150824188Y-106075518D01*
X150811928Y-106200000D01*
X150815000Y-106414250D01*
X150973750Y-106573000D01*
X152073000Y-106573000D01*
X152073000Y-106553000D01*
X152327000Y-106553000D01*
X152327000Y-106573000D01*
X153426250Y-106573000D01*
X153585000Y-106414250D01*
X153588072Y-106200000D01*
X153575812Y-106075518D01*
X153539502Y-105955820D01*
X153480537Y-105845506D01*
X153401185Y-105748815D01*
X153304494Y-105669463D01*
X153194180Y-105610498D01*
X153074482Y-105574188D01*
X152950000Y-105561928D01*
X152846793Y-105562611D01*
X152859774Y-105553937D01*
X153003937Y-105409774D01*
X153117205Y-105240256D01*
X153195226Y-105051898D01*
X153235000Y-104851939D01*
X153235000Y-104648061D01*
X153220548Y-104575408D01*
X153304494Y-104530537D01*
X153401185Y-104451185D01*
X153480537Y-104354494D01*
X153539502Y-104244180D01*
X153575812Y-104124482D01*
X153588072Y-104000000D01*
X153588072Y-103000000D01*
X153575812Y-102875518D01*
X153539502Y-102755820D01*
X153480537Y-102645506D01*
X153401185Y-102548815D01*
X153304494Y-102469463D01*
X153194180Y-102410498D01*
X153074482Y-102374188D01*
X152950000Y-102361928D01*
X151450000Y-102361928D01*
X151325518Y-102374188D01*
X151205820Y-102410498D01*
X151095506Y-102469463D01*
X150998815Y-102548815D01*
X150919463Y-102645506D01*
X150860498Y-102755820D01*
X150824188Y-102875518D01*
X150811928Y-103000000D01*
X149235001Y-103000000D01*
X149235001Y-97933616D01*
X149238678Y-97896283D01*
X149224004Y-97747297D01*
X149183792Y-97614732D01*
X149200883Y-97630740D01*
X149348723Y-97722673D01*
X149511657Y-97783997D01*
X149683424Y-97812356D01*
X149857424Y-97806659D01*
X150026968Y-97767127D01*
X150185543Y-97695278D01*
X152177401Y-96545278D01*
X152318912Y-96443872D01*
X152437920Y-96316808D01*
X152529853Y-96168969D01*
X152591177Y-96006034D01*
X152619536Y-95834267D01*
X152613839Y-95660268D01*
X152574307Y-95490723D01*
X152502458Y-95332148D01*
X152252458Y-94899136D01*
X152151053Y-94757626D01*
X152023989Y-94638618D01*
X151876149Y-94546685D01*
X151713215Y-94485361D01*
X151541448Y-94457002D01*
X151367448Y-94462699D01*
X151197904Y-94502231D01*
X151039329Y-94574080D01*
X149047471Y-95724080D01*
X148905960Y-95825486D01*
X148786952Y-95952550D01*
X148695019Y-96100389D01*
X148633695Y-96263324D01*
X148605336Y-96435091D01*
X148611033Y-96609090D01*
X148650565Y-96778635D01*
X148722414Y-96937210D01*
X148902298Y-97248779D01*
X148103429Y-96449910D01*
X148174268Y-96335992D01*
X148228687Y-96191405D01*
X148253853Y-96038979D01*
X148248798Y-95884572D01*
X148213717Y-95734119D01*
X148149959Y-95593400D01*
X147999959Y-95333592D01*
X147909972Y-95208016D01*
X147797216Y-95102409D01*
X147679508Y-95029214D01*
X147684077Y-95001540D01*
X147679985Y-94876523D01*
X147651582Y-94754706D01*
X147599958Y-94640772D01*
X147590173Y-94629967D01*
X147373316Y-94571860D01*
X146334735Y-95171485D01*
X146344735Y-95188806D01*
X146124765Y-95315806D01*
X146114765Y-95298485D01*
X145076184Y-95898110D01*
X145018077Y-96114967D01*
X145022542Y-96128844D01*
X145095400Y-96230518D01*
X145186695Y-96316025D01*
X145292917Y-96382077D01*
X145319167Y-96391957D01*
X145323702Y-96530492D01*
X145358783Y-96680945D01*
X145422541Y-96821664D01*
X145572541Y-97081472D01*
X145662528Y-97207048D01*
X145775284Y-97312655D01*
X145906477Y-97394236D01*
X146051064Y-97448655D01*
X146203490Y-97473821D01*
X146357896Y-97468766D01*
X146508349Y-97433685D01*
X146649068Y-97369926D01*
X146791569Y-97287653D01*
X147715002Y-98211086D01*
X147715001Y-102361928D01*
X146550000Y-102361928D01*
X146425518Y-102374188D01*
X146305820Y-102410498D01*
X146195506Y-102469463D01*
X146098815Y-102548815D01*
X146044499Y-102615000D01*
X141816579Y-102615000D01*
X140036761Y-100835182D01*
X140064250Y-100835000D01*
X140223000Y-100676250D01*
X140223000Y-99827000D01*
X140477000Y-99827000D01*
X140477000Y-100676250D01*
X140635750Y-100835000D01*
X141100000Y-100838072D01*
X141224482Y-100825812D01*
X141344180Y-100789502D01*
X141454494Y-100730537D01*
X141551185Y-100651185D01*
X141630537Y-100554494D01*
X141689502Y-100444180D01*
X141725812Y-100324482D01*
X141738072Y-100200000D01*
X141735000Y-99985750D01*
X141576250Y-99827000D01*
X140477000Y-99827000D01*
X140223000Y-99827000D01*
X139123750Y-99827000D01*
X139076164Y-99874586D01*
X136651896Y-97450318D01*
X136730537Y-97354494D01*
X136789502Y-97244180D01*
X136825812Y-97124482D01*
X136838072Y-97000000D01*
X136838072Y-96363506D01*
X137201578Y-96000000D01*
X138961928Y-96000000D01*
X138961928Y-97000000D01*
X138974188Y-97124482D01*
X139010498Y-97244180D01*
X139069463Y-97354494D01*
X139148815Y-97451185D01*
X139245506Y-97530537D01*
X139347431Y-97585018D01*
X139315000Y-97748061D01*
X139315000Y-97951939D01*
X139354774Y-98151898D01*
X139432795Y-98340256D01*
X139546063Y-98509774D01*
X139598377Y-98562088D01*
X139475518Y-98574188D01*
X139355820Y-98610498D01*
X139245506Y-98669463D01*
X139148815Y-98748815D01*
X139069463Y-98845506D01*
X139010498Y-98955820D01*
X138974188Y-99075518D01*
X138961928Y-99200000D01*
X138965000Y-99414250D01*
X139123750Y-99573000D01*
X140223000Y-99573000D01*
X140223000Y-99553000D01*
X140477000Y-99553000D01*
X140477000Y-99573000D01*
X141576250Y-99573000D01*
X141735000Y-99414250D01*
X141738072Y-99200000D01*
X141725812Y-99075518D01*
X141689502Y-98955820D01*
X141630537Y-98845506D01*
X141551185Y-98748815D01*
X141454494Y-98669463D01*
X141344180Y-98610498D01*
X141224482Y-98574188D01*
X141101623Y-98562088D01*
X141153937Y-98509774D01*
X141267205Y-98340256D01*
X141345226Y-98151898D01*
X141385000Y-97951939D01*
X141385000Y-97748061D01*
X141352569Y-97585018D01*
X141454494Y-97530537D01*
X141551185Y-97451185D01*
X141630537Y-97354494D01*
X141689502Y-97244180D01*
X141725812Y-97124482D01*
X141738072Y-97000000D01*
X141738072Y-96000000D01*
X141725812Y-95875518D01*
X141689502Y-95755820D01*
X141630537Y-95645506D01*
X141551185Y-95548815D01*
X141454494Y-95469463D01*
X141344180Y-95410498D01*
X141224482Y-95374188D01*
X141100000Y-95361928D01*
X139600000Y-95361928D01*
X139475518Y-95374188D01*
X139355820Y-95410498D01*
X139245506Y-95469463D01*
X139148815Y-95548815D01*
X139069463Y-95645506D01*
X139010498Y-95755820D01*
X138974188Y-95875518D01*
X138961928Y-96000000D01*
X137201578Y-96000000D01*
X138816579Y-94385000D01*
X144078266Y-94385000D01*
X144108783Y-94515881D01*
X144172541Y-94656600D01*
X144322541Y-94916408D01*
X144412528Y-95041984D01*
X144525284Y-95147591D01*
X144642992Y-95220786D01*
X144638423Y-95248460D01*
X144642515Y-95373477D01*
X144670918Y-95495294D01*
X144722542Y-95609228D01*
X144732327Y-95620033D01*
X144949184Y-95678140D01*
X145987765Y-95078515D01*
X145977765Y-95061194D01*
X146197735Y-94934194D01*
X146207735Y-94951515D01*
X147246316Y-94351890D01*
X147304423Y-94135033D01*
X147299958Y-94121156D01*
X147227100Y-94019482D01*
X147135805Y-93933975D01*
X147029583Y-93867923D01*
X147003333Y-93858043D01*
X146998798Y-93719508D01*
X146963717Y-93569055D01*
X146899959Y-93428336D01*
X146749959Y-93168528D01*
X146659972Y-93042952D01*
X146547216Y-92937345D01*
X146416023Y-92855764D01*
X146271436Y-92801345D01*
X146119010Y-92776179D01*
X145964604Y-92781234D01*
X145814151Y-92816315D01*
X145673432Y-92880074D01*
X145643892Y-92897129D01*
X145622599Y-92871183D01*
X145487841Y-92760589D01*
X145334095Y-92678411D01*
X145167272Y-92627805D01*
X145037259Y-92615000D01*
X145037251Y-92615000D01*
X144993782Y-92610719D01*
X144950313Y-92615000D01*
X138493469Y-92615000D01*
X138450000Y-92610719D01*
X138406531Y-92615000D01*
X138406523Y-92615000D01*
X138276510Y-92627805D01*
X138109686Y-92678411D01*
X137955941Y-92760589D01*
X137854953Y-92843468D01*
X137854951Y-92843470D01*
X137821183Y-92871183D01*
X137793470Y-92904951D01*
X135450000Y-95248422D01*
X134406534Y-94204956D01*
X134378817Y-94171183D01*
X134244059Y-94060589D01*
X134090313Y-93978411D01*
X133923490Y-93927805D01*
X133793477Y-93915000D01*
X133793469Y-93915000D01*
X133750000Y-93910719D01*
X133706531Y-93915000D01*
X125193466Y-93915000D01*
X125149999Y-93910719D01*
X125106533Y-93915000D01*
X125106523Y-93915000D01*
X124976510Y-93927805D01*
X124809687Y-93978411D01*
X124655941Y-94060589D01*
X124655939Y-94060590D01*
X124655940Y-94060590D01*
X124554953Y-94143468D01*
X124554951Y-94143470D01*
X124521183Y-94171183D01*
X124493470Y-94204951D01*
X123336494Y-95361928D01*
X122700000Y-95361928D01*
X122575518Y-95374188D01*
X122455820Y-95410498D01*
X122345506Y-95469463D01*
X122248815Y-95548815D01*
X122194499Y-95615000D01*
X120243217Y-95615000D01*
X120259774Y-95603937D01*
X120403937Y-95459774D01*
X120517205Y-95290256D01*
X120595226Y-95101898D01*
X120635000Y-94901939D01*
X120635000Y-94698061D01*
X120595226Y-94498102D01*
X120517205Y-94309744D01*
X120403937Y-94140226D01*
X120259774Y-93996063D01*
X120090256Y-93882795D01*
X119901898Y-93804774D01*
X119701939Y-93765000D01*
X119639801Y-93765000D01*
X119406271Y-93531470D01*
X119382469Y-93502467D01*
X119266744Y-93407494D01*
X119134715Y-93336922D01*
X118991454Y-93293465D01*
X118879801Y-93282468D01*
X118879790Y-93282468D01*
X118842468Y-93278792D01*
X118820855Y-93280921D01*
X118126568Y-92880074D01*
X117985849Y-92816315D01*
X117835396Y-92781234D01*
X117680989Y-92776179D01*
X117528563Y-92801345D01*
X117383976Y-92855764D01*
X117252784Y-92937345D01*
X117140028Y-93042952D01*
X117050041Y-93168528D01*
X116900041Y-93428336D01*
X116836283Y-93569055D01*
X116801202Y-93719508D01*
X116796667Y-93858043D01*
X116770417Y-93867923D01*
X116664195Y-93933975D01*
X116572900Y-94019482D01*
X116500042Y-94121156D01*
X116495577Y-94135033D01*
X116553684Y-94351890D01*
X117592265Y-94951515D01*
X117602265Y-94934194D01*
X117822235Y-95061194D01*
X117812235Y-95078515D01*
X117829556Y-95088515D01*
X117702556Y-95308485D01*
X117685235Y-95298485D01*
X117675235Y-95315806D01*
X117455265Y-95188806D01*
X117465265Y-95171485D01*
X116426684Y-94571860D01*
X116209827Y-94629967D01*
X116200042Y-94640772D01*
X116148418Y-94754706D01*
X116120015Y-94876523D01*
X116115923Y-95001540D01*
X116120492Y-95029213D01*
X116002784Y-95102409D01*
X115890028Y-95208016D01*
X115800041Y-95333592D01*
X115650041Y-95593400D01*
X115586283Y-95734119D01*
X115551202Y-95884572D01*
X115546147Y-96038978D01*
X115571313Y-96191404D01*
X115625732Y-96335991D01*
X115707313Y-96467184D01*
X115812920Y-96579940D01*
X115938496Y-96669926D01*
X116128750Y-96779769D01*
X116128751Y-98054211D01*
X116059744Y-98082795D01*
X115890226Y-98196063D01*
X115746063Y-98340226D01*
X115632795Y-98509744D01*
X115554774Y-98698102D01*
X115543465Y-98754956D01*
X111936494Y-102361928D01*
X110850000Y-102361928D01*
X110725518Y-102374188D01*
X110605820Y-102410498D01*
X110495506Y-102469463D01*
X110398815Y-102548815D01*
X110319463Y-102645506D01*
X110260498Y-102755820D01*
X110224188Y-102875518D01*
X110211928Y-103000000D01*
X106862367Y-103000000D01*
X111000544Y-95834268D01*
X111180464Y-95834268D01*
X111208823Y-96006035D01*
X111270147Y-96168969D01*
X111362080Y-96316809D01*
X111481088Y-96443873D01*
X111622599Y-96545278D01*
X113614457Y-97695278D01*
X113773031Y-97767127D01*
X113942576Y-97806659D01*
X114116575Y-97812356D01*
X114288342Y-97783997D01*
X114451277Y-97722673D01*
X114599116Y-97630740D01*
X114726180Y-97511732D01*
X114827586Y-97370222D01*
X115077586Y-96937210D01*
X115149435Y-96778634D01*
X115188967Y-96609090D01*
X115194664Y-96435090D01*
X115166305Y-96263323D01*
X115104981Y-96100389D01*
X115013048Y-95952549D01*
X114894040Y-95825485D01*
X114752529Y-95724080D01*
X112760671Y-94574080D01*
X112602097Y-94502231D01*
X112432552Y-94462699D01*
X112258553Y-94457002D01*
X112086786Y-94485361D01*
X111923851Y-94546685D01*
X111776012Y-94638618D01*
X111648948Y-94757626D01*
X111547542Y-94899136D01*
X111297542Y-95332148D01*
X111225693Y-95490724D01*
X111186161Y-95660268D01*
X111180464Y-95834268D01*
X111000544Y-95834268D01*
X114101324Y-90464910D01*
X114280464Y-90464910D01*
X114308823Y-90636677D01*
X114370147Y-90799611D01*
X114462080Y-90947451D01*
X114581088Y-91074515D01*
X114722599Y-91175920D01*
X116714457Y-92325920D01*
X116873031Y-92397769D01*
X117042576Y-92437301D01*
X117216575Y-92442998D01*
X117388342Y-92414639D01*
X117551277Y-92353315D01*
X117699116Y-92261382D01*
X117826180Y-92142374D01*
X117927586Y-92000864D01*
X118177586Y-91567852D01*
X118249435Y-91409276D01*
X118288967Y-91239732D01*
X118294663Y-91065733D01*
X145505336Y-91065733D01*
X145511033Y-91239732D01*
X145550565Y-91409277D01*
X145622414Y-91567852D01*
X145872414Y-92000864D01*
X145973819Y-92142374D01*
X146100883Y-92261382D01*
X146248723Y-92353315D01*
X146411657Y-92414639D01*
X146583424Y-92442998D01*
X146757424Y-92437301D01*
X146926968Y-92397769D01*
X147085543Y-92325920D01*
X149077401Y-91175920D01*
X149218912Y-91074514D01*
X149337920Y-90947450D01*
X149429853Y-90799611D01*
X149491177Y-90636676D01*
X149519536Y-90464909D01*
X149513839Y-90290910D01*
X149474307Y-90121365D01*
X149402458Y-89962790D01*
X149152458Y-89529778D01*
X149051053Y-89388268D01*
X148923989Y-89269260D01*
X148776149Y-89177327D01*
X148613215Y-89116003D01*
X148441448Y-89087644D01*
X148267448Y-89093341D01*
X148097904Y-89132873D01*
X147939329Y-89204722D01*
X145947471Y-90354722D01*
X145805960Y-90456128D01*
X145686952Y-90583192D01*
X145595019Y-90731031D01*
X145533695Y-90893966D01*
X145505336Y-91065733D01*
X118294663Y-91065733D01*
X118294664Y-91065732D01*
X118266305Y-90893965D01*
X118204981Y-90731031D01*
X118113048Y-90583191D01*
X117994040Y-90456127D01*
X117852529Y-90354722D01*
X115860671Y-89204722D01*
X115702097Y-89132873D01*
X115532552Y-89093341D01*
X115358553Y-89087644D01*
X115186786Y-89116003D01*
X115023851Y-89177327D01*
X114876012Y-89269260D01*
X114748948Y-89388268D01*
X114647542Y-89529778D01*
X114397542Y-89962790D01*
X114325693Y-90121366D01*
X114286161Y-90290910D01*
X114280464Y-90464910D01*
X114101324Y-90464910D01*
X115845092Y-87445374D01*
X121734231Y-87445374D01*
X122034411Y-87883828D01*
X122613356Y-88194296D01*
X123241746Y-88385852D01*
X123895431Y-88451134D01*
X124549293Y-88387634D01*
X125178203Y-88197792D01*
X125757992Y-87888904D01*
X125765589Y-87883828D01*
X126065769Y-87445374D01*
X137734231Y-87445374D01*
X138034411Y-87883828D01*
X138613356Y-88194296D01*
X139241746Y-88385852D01*
X139895431Y-88451134D01*
X140549293Y-88387634D01*
X141178203Y-88197792D01*
X141757992Y-87888904D01*
X141765589Y-87883828D01*
X142065769Y-87445374D01*
X139900000Y-85279605D01*
X137734231Y-87445374D01*
X126065769Y-87445374D01*
X123900000Y-85279605D01*
X121734231Y-87445374D01*
X115845092Y-87445374D01*
X117202174Y-85095431D01*
X120548866Y-85095431D01*
X120612366Y-85749293D01*
X120802208Y-86378203D01*
X121111096Y-86957992D01*
X121116172Y-86965589D01*
X121554626Y-87265769D01*
X123720395Y-85100000D01*
X124079605Y-85100000D01*
X126245374Y-87265769D01*
X126683828Y-86965589D01*
X126994296Y-86386644D01*
X127185852Y-85758254D01*
X127251134Y-85104569D01*
X127250247Y-85095431D01*
X136548866Y-85095431D01*
X136612366Y-85749293D01*
X136802208Y-86378203D01*
X137111096Y-86957992D01*
X137116172Y-86965589D01*
X137554626Y-87265769D01*
X139720395Y-85100000D01*
X140079605Y-85100000D01*
X142245374Y-87265769D01*
X142683828Y-86965589D01*
X142994296Y-86386644D01*
X143185852Y-85758254D01*
X143251134Y-85104569D01*
X143187634Y-84450707D01*
X142997792Y-83821797D01*
X142688904Y-83242008D01*
X142683828Y-83234411D01*
X142245374Y-82934231D01*
X140079605Y-85100000D01*
X139720395Y-85100000D01*
X137554626Y-82934231D01*
X137116172Y-83234411D01*
X136805704Y-83813356D01*
X136614148Y-84441746D01*
X136548866Y-85095431D01*
X127250247Y-85095431D01*
X127187634Y-84450707D01*
X126997792Y-83821797D01*
X126688904Y-83242008D01*
X126683828Y-83234411D01*
X126245374Y-82934231D01*
X124079605Y-85100000D01*
X123720395Y-85100000D01*
X121554626Y-82934231D01*
X121116172Y-83234411D01*
X120805704Y-83813356D01*
X120614148Y-84441746D01*
X120548866Y-85095431D01*
X117202174Y-85095431D01*
X118553979Y-82754626D01*
X121734231Y-82754626D01*
X123900000Y-84920395D01*
X126065769Y-82754626D01*
X137734231Y-82754626D01*
X139900000Y-84920395D01*
X142065769Y-82754626D01*
X141765589Y-82316172D01*
X141186644Y-82005704D01*
X140558254Y-81814148D01*
X139904569Y-81748866D01*
X139250707Y-81812366D01*
X138621797Y-82002208D01*
X138042008Y-82311096D01*
X138034411Y-82316172D01*
X137734231Y-82754626D01*
X126065769Y-82754626D01*
X125765589Y-82316172D01*
X125186644Y-82005704D01*
X124558254Y-81814148D01*
X123904569Y-81748866D01*
X123250707Y-81812366D01*
X122621797Y-82002208D01*
X122042008Y-82311096D01*
X122034411Y-82316172D01*
X121734231Y-82754626D01*
X118553979Y-82754626D01*
X118727291Y-82454517D01*
X119187800Y-81799612D01*
X119736052Y-81257332D01*
X120371670Y-80820707D01*
X121074561Y-80503542D01*
X121825924Y-80315005D01*
X122525897Y-80260000D01*
X141270586Y-80260000D01*
X142068082Y-80331175D01*
%TD*%
M02*
