%TF.GenerationSoftware,KiCad,Pcbnew,(5.1.6)-1*%
%TF.CreationDate,2020-11-09T21:27:46-05:00*%
%TF.ProjectId,LIghtBoard,4c496768-7442-46f6-9172-642e6b696361,rev?*%
%TF.SameCoordinates,Original*%
%TF.FileFunction,Paste,Top*%
%TF.FilePolarity,Positive*%
%FSLAX46Y46*%
G04 Gerber Fmt 4.6, Leading zero omitted, Abs format (unit mm)*
G04 Created by KiCad (PCBNEW (5.1.6)-1) date 2020-11-09 21:27:46*
%MOMM*%
%LPD*%
G01*
G04 APERTURE LIST*
%ADD10R,1.500000X1.000000*%
G04 APERTURE END LIST*
D10*
%TO.C,D4*%
X152200000Y-106700000D03*
X152200000Y-103500000D03*
X147300000Y-106700000D03*
X147300000Y-103500000D03*
%TD*%
%TO.C,D3*%
X140350000Y-99700000D03*
X140350000Y-96500000D03*
X135450000Y-99700000D03*
X135450000Y-96500000D03*
%TD*%
%TO.C,D2*%
X128350000Y-99700000D03*
X128350000Y-96500000D03*
X123450000Y-99700000D03*
X123450000Y-96500000D03*
%TD*%
%TO.C,J2*%
G36*
G01*
X149366507Y-96276666D02*
X151358365Y-95126667D01*
G75*
G02*
X151699871Y-95218173I125000J-216506D01*
G01*
X151949871Y-95651185D01*
G75*
G02*
X151858365Y-95992691I-216506J-125000D01*
G01*
X149866507Y-97142691D01*
G75*
G02*
X149525001Y-97051185I-125000J216506D01*
G01*
X149275001Y-96618173D01*
G75*
G02*
X149366507Y-96276667I216506J125000D01*
G01*
G37*
G36*
G01*
X146266507Y-90907308D02*
X148258365Y-89757309D01*
G75*
G02*
X148599871Y-89848815I125000J-216506D01*
G01*
X148849871Y-90281827D01*
G75*
G02*
X148758365Y-90623333I-216506J-125000D01*
G01*
X146766507Y-91773333D01*
G75*
G02*
X146425001Y-91681827I-125000J216506D01*
G01*
X146175001Y-91248815D01*
G75*
G02*
X146266507Y-90907309I216506J125000D01*
G01*
G37*
G36*
G01*
X146030032Y-96297724D02*
X147242468Y-95597724D01*
G75*
G02*
X147447372Y-95652628I75000J-129904D01*
G01*
X147597372Y-95912436D01*
G75*
G02*
X147542468Y-96117340I-129904J-75000D01*
G01*
X146330032Y-96817340D01*
G75*
G02*
X146125128Y-96762436I-75000J129904D01*
G01*
X145975128Y-96502628D01*
G75*
G02*
X146030032Y-96297724I129904J75000D01*
G01*
G37*
G36*
G01*
X145405032Y-95215192D02*
X146617468Y-94515192D01*
G75*
G02*
X146822372Y-94570096I75000J-129904D01*
G01*
X146972372Y-94829904D01*
G75*
G02*
X146917468Y-95034808I-129904J-75000D01*
G01*
X145705032Y-95734808D01*
G75*
G02*
X145500128Y-95679904I-75000J129904D01*
G01*
X145350128Y-95420096D01*
G75*
G02*
X145405032Y-95215192I129904J75000D01*
G01*
G37*
G36*
G01*
X144780032Y-94132660D02*
X145992468Y-93432660D01*
G75*
G02*
X146197372Y-93487564I75000J-129904D01*
G01*
X146347372Y-93747372D01*
G75*
G02*
X146292468Y-93952276I-129904J-75000D01*
G01*
X145080032Y-94652276D01*
G75*
G02*
X144875128Y-94597372I-75000J129904D01*
G01*
X144725128Y-94337564D01*
G75*
G02*
X144780032Y-94132660I129904J75000D01*
G01*
G37*
%TD*%
%TO.C,J1*%
G36*
G01*
X117033493Y-91773334D02*
X115041635Y-90623333D01*
G75*
G02*
X114950129Y-90281827I125000J216506D01*
G01*
X115200129Y-89848815D01*
G75*
G02*
X115541635Y-89757309I216506J-125000D01*
G01*
X117533493Y-90907309D01*
G75*
G02*
X117624999Y-91248815I-125000J-216506D01*
G01*
X117374999Y-91681827D01*
G75*
G02*
X117033493Y-91773333I-216506J125000D01*
G01*
G37*
G36*
G01*
X113933493Y-97142692D02*
X111941635Y-95992691D01*
G75*
G02*
X111850129Y-95651185I125000J216506D01*
G01*
X112100129Y-95218173D01*
G75*
G02*
X112441635Y-95126667I216506J-125000D01*
G01*
X114433493Y-96276667D01*
G75*
G02*
X114524999Y-96618173I-125000J-216506D01*
G01*
X114274999Y-97051185D01*
G75*
G02*
X113933493Y-97142691I-216506J125000D01*
G01*
G37*
G36*
G01*
X118719968Y-94652276D02*
X117507532Y-93952276D01*
G75*
G02*
X117452628Y-93747372I75000J129904D01*
G01*
X117602628Y-93487564D01*
G75*
G02*
X117807532Y-93432660I129904J-75000D01*
G01*
X119019968Y-94132660D01*
G75*
G02*
X119074872Y-94337564I-75000J-129904D01*
G01*
X118924872Y-94597372D01*
G75*
G02*
X118719968Y-94652276I-129904J75000D01*
G01*
G37*
G36*
G01*
X118094968Y-95734808D02*
X116882532Y-95034808D01*
G75*
G02*
X116827628Y-94829904I75000J129904D01*
G01*
X116977628Y-94570096D01*
G75*
G02*
X117182532Y-94515192I129904J-75000D01*
G01*
X118394968Y-95215192D01*
G75*
G02*
X118449872Y-95420096I-75000J-129904D01*
G01*
X118299872Y-95679904D01*
G75*
G02*
X118094968Y-95734808I-129904J75000D01*
G01*
G37*
G36*
G01*
X117469968Y-96817340D02*
X116257532Y-96117340D01*
G75*
G02*
X116202628Y-95912436I75000J129904D01*
G01*
X116352628Y-95652628D01*
G75*
G02*
X116557532Y-95597724I129904J-75000D01*
G01*
X117769968Y-96297724D01*
G75*
G02*
X117824872Y-96502628I-75000J-129904D01*
G01*
X117674872Y-96762436D01*
G75*
G02*
X117469968Y-96817340I-129904J75000D01*
G01*
G37*
%TD*%
%TO.C,D1*%
X111600000Y-103500000D03*
X111600000Y-106700000D03*
X116500000Y-103500000D03*
X116500000Y-106700000D03*
%TD*%
M02*
