%TF.GenerationSoftware,KiCad,Pcbnew,(5.1.6)-1*%
%TF.CreationDate,2020-11-09T21:27:46-05:00*%
%TF.ProjectId,LIghtBoard,4c496768-7442-46f6-9172-642e6b696361,rev?*%
%TF.SameCoordinates,Original*%
%TF.FileFunction,Soldermask,Top*%
%TF.FilePolarity,Negative*%
%FSLAX46Y46*%
G04 Gerber Fmt 4.6, Leading zero omitted, Abs format (unit mm)*
G04 Created by KiCad (PCBNEW (5.1.6)-1) date 2020-11-09 21:27:46*
%MOMM*%
%LPD*%
G01*
G04 APERTURE LIST*
%ADD10C,5.500000*%
%ADD11R,1.600000X1.100000*%
G04 APERTURE END LIST*
D10*
%TO.C,H1*%
X123900000Y-85100000D03*
%TD*%
D11*
%TO.C,D4*%
X152200000Y-106700000D03*
X152200000Y-103500000D03*
X147300000Y-106700000D03*
X147300000Y-103500000D03*
%TD*%
%TO.C,D3*%
X140350000Y-99700000D03*
X140350000Y-96500000D03*
X135450000Y-99700000D03*
X135450000Y-96500000D03*
%TD*%
%TO.C,D2*%
X128350000Y-99700000D03*
X128350000Y-96500000D03*
X123450000Y-99700000D03*
X123450000Y-96500000D03*
%TD*%
%TO.C,J2*%
G36*
G01*
X149319856Y-96245865D02*
X151355016Y-95070865D01*
G75*
G02*
X151730673Y-95171522I137500J-238157D01*
G01*
X152005673Y-95647836D01*
G75*
G02*
X151905016Y-96023493I-238157J-137500D01*
G01*
X149869856Y-97198493D01*
G75*
G02*
X149494199Y-97097836I-137500J238157D01*
G01*
X149219199Y-96621522D01*
G75*
G02*
X149319856Y-96245865I238157J137500D01*
G01*
G37*
G36*
G01*
X146219856Y-90876507D02*
X148255016Y-89701507D01*
G75*
G02*
X148630673Y-89802164I137500J-238157D01*
G01*
X148905673Y-90278478D01*
G75*
G02*
X148805016Y-90654135I-238157J-137500D01*
G01*
X146769856Y-91829135D01*
G75*
G02*
X146394199Y-91728478I-137500J238157D01*
G01*
X146119199Y-91252164D01*
G75*
G02*
X146219856Y-90876507I238157J137500D01*
G01*
G37*
G36*
G01*
X145983382Y-96266923D02*
X147239118Y-95541924D01*
G75*
G02*
X147478172Y-95605978I87500J-151554D01*
G01*
X147653172Y-95909086D01*
G75*
G02*
X147589118Y-96148140I-151554J-87500D01*
G01*
X146333382Y-96873140D01*
G75*
G02*
X146094328Y-96809086I-87500J151554D01*
G01*
X145919328Y-96505978D01*
G75*
G02*
X145983382Y-96266924I151554J87500D01*
G01*
G37*
G36*
G01*
X145358382Y-95184391D02*
X146614118Y-94459392D01*
G75*
G02*
X146853172Y-94523446I87500J-151554D01*
G01*
X147028172Y-94826554D01*
G75*
G02*
X146964118Y-95065608I-151554J-87500D01*
G01*
X145708382Y-95790608D01*
G75*
G02*
X145469328Y-95726554I-87500J151554D01*
G01*
X145294328Y-95423446D01*
G75*
G02*
X145358382Y-95184392I151554J87500D01*
G01*
G37*
G36*
G01*
X144733382Y-94101859D02*
X145989118Y-93376860D01*
G75*
G02*
X146228172Y-93440914I87500J-151554D01*
G01*
X146403172Y-93744022D01*
G75*
G02*
X146339118Y-93983076I-151554J-87500D01*
G01*
X145083382Y-94708076D01*
G75*
G02*
X144844328Y-94644022I-87500J151554D01*
G01*
X144669328Y-94340914D01*
G75*
G02*
X144733382Y-94101860I151554J87500D01*
G01*
G37*
%TD*%
%TO.C,J1*%
G36*
G01*
X117030144Y-91829135D02*
X114994984Y-90654135D01*
G75*
G02*
X114894327Y-90278478I137500J238157D01*
G01*
X115169327Y-89802164D01*
G75*
G02*
X115544984Y-89701507I238157J-137500D01*
G01*
X117580144Y-90876507D01*
G75*
G02*
X117680801Y-91252164I-137500J-238157D01*
G01*
X117405801Y-91728478D01*
G75*
G02*
X117030144Y-91829135I-238157J137500D01*
G01*
G37*
G36*
G01*
X113930144Y-97198493D02*
X111894984Y-96023493D01*
G75*
G02*
X111794327Y-95647836I137500J238157D01*
G01*
X112069327Y-95171522D01*
G75*
G02*
X112444984Y-95070865I238157J-137500D01*
G01*
X114480144Y-96245865D01*
G75*
G02*
X114580801Y-96621522I-137500J-238157D01*
G01*
X114305801Y-97097836D01*
G75*
G02*
X113930144Y-97198493I-238157J137500D01*
G01*
G37*
G36*
G01*
X118716618Y-94708077D02*
X117460882Y-93983076D01*
G75*
G02*
X117396828Y-93744022I87500J151554D01*
G01*
X117571828Y-93440914D01*
G75*
G02*
X117810882Y-93376860I151554J-87500D01*
G01*
X119066618Y-94101860D01*
G75*
G02*
X119130672Y-94340914I-87500J-151554D01*
G01*
X118955672Y-94644022D01*
G75*
G02*
X118716618Y-94708076I-151554J87500D01*
G01*
G37*
G36*
G01*
X118091618Y-95790609D02*
X116835882Y-95065608D01*
G75*
G02*
X116771828Y-94826554I87500J151554D01*
G01*
X116946828Y-94523446D01*
G75*
G02*
X117185882Y-94459392I151554J-87500D01*
G01*
X118441618Y-95184392D01*
G75*
G02*
X118505672Y-95423446I-87500J-151554D01*
G01*
X118330672Y-95726554D01*
G75*
G02*
X118091618Y-95790608I-151554J87500D01*
G01*
G37*
G36*
G01*
X117466618Y-96873141D02*
X116210882Y-96148140D01*
G75*
G02*
X116146828Y-95909086I87500J151554D01*
G01*
X116321828Y-95605978D01*
G75*
G02*
X116560882Y-95541924I151554J-87500D01*
G01*
X117816618Y-96266924D01*
G75*
G02*
X117880672Y-96505978I-87500J-151554D01*
G01*
X117705672Y-96809086D01*
G75*
G02*
X117466618Y-96873140I-151554J87500D01*
G01*
G37*
%TD*%
D10*
%TO.C,H2*%
X139900000Y-85100000D03*
%TD*%
D11*
%TO.C,D1*%
X111600000Y-103500000D03*
X111600000Y-106700000D03*
X116500000Y-103500000D03*
X116500000Y-106700000D03*
%TD*%
M02*
