%TF.GenerationSoftware,KiCad,Pcbnew,(5.1.6)-1*%
%TF.CreationDate,2020-11-09T21:23:30-05:00*%
%TF.ProjectId,CellLight,43656c6c-4c69-4676-9874-2e6b69636164,rev?*%
%TF.SameCoordinates,Original*%
%TF.FileFunction,Legend,Bot*%
%TF.FilePolarity,Positive*%
%FSLAX46Y46*%
G04 Gerber Fmt 4.6, Leading zero omitted, Abs format (unit mm)*
G04 Created by KiCad (PCBNEW (5.1.6)-1) date 2020-11-09 21:23:30*
%MOMM*%
%LPD*%
G01*
G04 APERTURE LIST*
%ADD10C,0.120000*%
%ADD11C,0.100000*%
%ADD12C,0.150000*%
G04 APERTURE END LIST*
D10*
%TO.C,J6*%
X157640000Y-127390000D02*
X152960000Y-127390000D01*
X151690000Y-131860000D02*
X153490000Y-131860000D01*
X151690000Y-130260000D02*
X151690000Y-131860000D01*
X157110000Y-131860000D02*
X157110000Y-132800000D01*
X158910000Y-131860000D02*
X157110000Y-131860000D01*
X158910000Y-130260000D02*
X158910000Y-131860000D01*
%TO.C,SW1*%
X164250000Y-131900000D02*
X164700000Y-131450000D01*
X167650000Y-131900000D02*
X167200000Y-131450000D01*
X167650000Y-136500000D02*
X167200000Y-136950000D01*
X164250000Y-136500000D02*
X164700000Y-136950000D01*
X168700000Y-135200000D02*
X168700000Y-133200000D01*
X164700000Y-131450000D02*
X167200000Y-131450000D01*
X163200000Y-135200000D02*
X163200000Y-133200000D01*
X164700000Y-136950000D02*
X167200000Y-136950000D01*
%TO.C,J1*%
X161520000Y-128650000D02*
X161520000Y-129980000D01*
X161520000Y-129980000D02*
X162850000Y-129980000D01*
X164120000Y-129980000D02*
X174340000Y-129980000D01*
X174340000Y-127320000D02*
X174340000Y-129980000D01*
X164120000Y-127320000D02*
X174340000Y-127320000D01*
X164120000Y-127320000D02*
X164120000Y-129980000D01*
D11*
%TO.C,U1*%
X157050000Y-138100000D02*
X157050000Y-137750000D01*
X156700000Y-138100000D02*
X157050000Y-138100000D01*
X157050000Y-136100000D02*
X156700000Y-136100000D01*
X157050000Y-136450000D02*
X157050000Y-136100000D01*
X153750000Y-138100000D02*
X153750000Y-137750000D01*
X154100000Y-138100000D02*
X153750000Y-138100000D01*
X154100000Y-136050000D02*
X153750000Y-136500000D01*
X154100000Y-135450000D02*
X154100000Y-136050000D01*
D10*
%TO.C,J5*%
X192110000Y-130260000D02*
X192110000Y-131860000D01*
X192110000Y-131860000D02*
X190310000Y-131860000D01*
X190310000Y-131860000D02*
X190310000Y-132800000D01*
X184890000Y-130260000D02*
X184890000Y-131860000D01*
X184890000Y-131860000D02*
X186690000Y-131860000D01*
X190840000Y-127390000D02*
X186160000Y-127390000D01*
%TO.C,J4*%
X123535000Y-130260000D02*
X123535000Y-131860000D01*
X123535000Y-131860000D02*
X121735000Y-131860000D01*
X121735000Y-131860000D02*
X121735000Y-132800000D01*
X117565000Y-130260000D02*
X117565000Y-131860000D01*
X117565000Y-131860000D02*
X119365000Y-131860000D01*
X122265000Y-127390000D02*
X118835000Y-127390000D01*
%TO.C,J3*%
X132960000Y-130260000D02*
X132960000Y-131860000D01*
X132960000Y-131860000D02*
X131160000Y-131860000D01*
X131160000Y-131860000D02*
X131160000Y-132800000D01*
X126990000Y-130260000D02*
X126990000Y-131860000D01*
X126990000Y-131860000D02*
X128790000Y-131860000D01*
X131690000Y-127390000D02*
X128260000Y-127390000D01*
%TO.C,J2*%
X142385000Y-130260000D02*
X142385000Y-131860000D01*
X142385000Y-131860000D02*
X140585000Y-131860000D01*
X140585000Y-131860000D02*
X140585000Y-132800000D01*
X136415000Y-130260000D02*
X136415000Y-131860000D01*
X136415000Y-131860000D02*
X138215000Y-131860000D01*
X141115000Y-127390000D02*
X137685000Y-127390000D01*
%TO.C,U8*%
X181470000Y-130460000D02*
X180070000Y-130460000D01*
X180070000Y-128140000D02*
X181970000Y-128140000D01*
%TO.C,U7*%
X197570000Y-134685000D02*
X196170000Y-134685000D01*
X196170000Y-132365000D02*
X198070000Y-132365000D01*
%TO.C,U6*%
X181470000Y-134685000D02*
X180070000Y-134685000D01*
X180070000Y-132365000D02*
X181970000Y-132365000D01*
%TO.C,U5*%
X197570000Y-138910000D02*
X196170000Y-138910000D01*
X196170000Y-136590000D02*
X198070000Y-136590000D01*
%TO.C,U4*%
X181470000Y-138910000D02*
X180070000Y-138910000D01*
X180070000Y-136590000D02*
X181970000Y-136590000D01*
%TO.C,U3*%
X197570000Y-130460000D02*
X196170000Y-130460000D01*
X196170000Y-128140000D02*
X198070000Y-128140000D01*
%TO.C,R3*%
X160190000Y-133053733D02*
X160190000Y-133396267D01*
X161210000Y-133053733D02*
X161210000Y-133396267D01*
%TO.C,J6*%
D12*
X155633333Y-133652380D02*
X155633333Y-134366666D01*
X155680952Y-134509523D01*
X155776190Y-134604761D01*
X155919047Y-134652380D01*
X156014285Y-134652380D01*
X154728571Y-133652380D02*
X154919047Y-133652380D01*
X155014285Y-133700000D01*
X155061904Y-133747619D01*
X155157142Y-133890476D01*
X155204761Y-134080952D01*
X155204761Y-134461904D01*
X155157142Y-134557142D01*
X155109523Y-134604761D01*
X155014285Y-134652380D01*
X154823809Y-134652380D01*
X154728571Y-134604761D01*
X154680952Y-134557142D01*
X154633333Y-134461904D01*
X154633333Y-134223809D01*
X154680952Y-134128571D01*
X154728571Y-134080952D01*
X154823809Y-134033333D01*
X155014285Y-134033333D01*
X155109523Y-134080952D01*
X155157142Y-134128571D01*
X155204761Y-134223809D01*
%TO.C,SW1*%
X172683333Y-134604761D02*
X172540476Y-134652380D01*
X172302380Y-134652380D01*
X172207142Y-134604761D01*
X172159523Y-134557142D01*
X172111904Y-134461904D01*
X172111904Y-134366666D01*
X172159523Y-134271428D01*
X172207142Y-134223809D01*
X172302380Y-134176190D01*
X172492857Y-134128571D01*
X172588095Y-134080952D01*
X172635714Y-134033333D01*
X172683333Y-133938095D01*
X172683333Y-133842857D01*
X172635714Y-133747619D01*
X172588095Y-133700000D01*
X172492857Y-133652380D01*
X172254761Y-133652380D01*
X172111904Y-133700000D01*
X171778571Y-133652380D02*
X171540476Y-134652380D01*
X171350000Y-133938095D01*
X171159523Y-134652380D01*
X170921428Y-133652380D01*
X170016666Y-134652380D02*
X170588095Y-134652380D01*
X170302380Y-134652380D02*
X170302380Y-133652380D01*
X170397619Y-133795238D01*
X170492857Y-133890476D01*
X170588095Y-133938095D01*
%TO.C,J1*%
X175983333Y-129302380D02*
X175983333Y-130016666D01*
X176030952Y-130159523D01*
X176126190Y-130254761D01*
X176269047Y-130302380D01*
X176364285Y-130302380D01*
X174983333Y-130302380D02*
X175554761Y-130302380D01*
X175269047Y-130302380D02*
X175269047Y-129302380D01*
X175364285Y-129445238D01*
X175459523Y-129540476D01*
X175554761Y-129588095D01*
%TO.C,U1*%
X156186904Y-140102380D02*
X156186904Y-140911904D01*
X156139285Y-141007142D01*
X156091666Y-141054761D01*
X155996428Y-141102380D01*
X155805952Y-141102380D01*
X155710714Y-141054761D01*
X155663095Y-141007142D01*
X155615476Y-140911904D01*
X155615476Y-140102380D01*
X154615476Y-141102380D02*
X155186904Y-141102380D01*
X154901190Y-141102380D02*
X154901190Y-140102380D01*
X154996428Y-140245238D01*
X155091666Y-140340476D01*
X155186904Y-140388095D01*
%TO.C,J5*%
X194133333Y-129402380D02*
X194133333Y-130116666D01*
X194180952Y-130259523D01*
X194276190Y-130354761D01*
X194419047Y-130402380D01*
X194514285Y-130402380D01*
X193180952Y-129402380D02*
X193657142Y-129402380D01*
X193704761Y-129878571D01*
X193657142Y-129830952D01*
X193561904Y-129783333D01*
X193323809Y-129783333D01*
X193228571Y-129830952D01*
X193180952Y-129878571D01*
X193133333Y-129973809D01*
X193133333Y-130211904D01*
X193180952Y-130307142D01*
X193228571Y-130354761D01*
X193323809Y-130402380D01*
X193561904Y-130402380D01*
X193657142Y-130354761D01*
X193704761Y-130307142D01*
%TO.C,J4*%
X120883333Y-134452380D02*
X120883333Y-135166666D01*
X120930952Y-135309523D01*
X121026190Y-135404761D01*
X121169047Y-135452380D01*
X121264285Y-135452380D01*
X119978571Y-134785714D02*
X119978571Y-135452380D01*
X120216666Y-134404761D02*
X120454761Y-135119047D01*
X119835714Y-135119047D01*
%TO.C,J3*%
X130308333Y-134852380D02*
X130308333Y-135566666D01*
X130355952Y-135709523D01*
X130451190Y-135804761D01*
X130594047Y-135852380D01*
X130689285Y-135852380D01*
X129927380Y-134852380D02*
X129308333Y-134852380D01*
X129641666Y-135233333D01*
X129498809Y-135233333D01*
X129403571Y-135280952D01*
X129355952Y-135328571D01*
X129308333Y-135423809D01*
X129308333Y-135661904D01*
X129355952Y-135757142D01*
X129403571Y-135804761D01*
X129498809Y-135852380D01*
X129784523Y-135852380D01*
X129879761Y-135804761D01*
X129927380Y-135757142D01*
%TO.C,J2*%
X139733333Y-134552380D02*
X139733333Y-135266666D01*
X139780952Y-135409523D01*
X139876190Y-135504761D01*
X140019047Y-135552380D01*
X140114285Y-135552380D01*
X139304761Y-134647619D02*
X139257142Y-134600000D01*
X139161904Y-134552380D01*
X138923809Y-134552380D01*
X138828571Y-134600000D01*
X138780952Y-134647619D01*
X138733333Y-134742857D01*
X138733333Y-134838095D01*
X138780952Y-134980952D01*
X139352380Y-135552380D01*
X138733333Y-135552380D01*
%TO.C,U8*%
X177561904Y-127052380D02*
X177561904Y-127861904D01*
X177514285Y-127957142D01*
X177466666Y-128004761D01*
X177371428Y-128052380D01*
X177180952Y-128052380D01*
X177085714Y-128004761D01*
X177038095Y-127957142D01*
X176990476Y-127861904D01*
X176990476Y-127052380D01*
X176371428Y-127480952D02*
X176466666Y-127433333D01*
X176514285Y-127385714D01*
X176561904Y-127290476D01*
X176561904Y-127242857D01*
X176514285Y-127147619D01*
X176466666Y-127100000D01*
X176371428Y-127052380D01*
X176180952Y-127052380D01*
X176085714Y-127100000D01*
X176038095Y-127147619D01*
X175990476Y-127242857D01*
X175990476Y-127290476D01*
X176038095Y-127385714D01*
X176085714Y-127433333D01*
X176180952Y-127480952D01*
X176371428Y-127480952D01*
X176466666Y-127528571D01*
X176514285Y-127576190D01*
X176561904Y-127671428D01*
X176561904Y-127861904D01*
X176514285Y-127957142D01*
X176466666Y-128004761D01*
X176371428Y-128052380D01*
X176180952Y-128052380D01*
X176085714Y-128004761D01*
X176038095Y-127957142D01*
X175990476Y-127861904D01*
X175990476Y-127671428D01*
X176038095Y-127576190D01*
X176085714Y-127528571D01*
X176180952Y-127480952D01*
%TO.C,U7*%
X197631904Y-130977380D02*
X197631904Y-131786904D01*
X197584285Y-131882142D01*
X197536666Y-131929761D01*
X197441428Y-131977380D01*
X197250952Y-131977380D01*
X197155714Y-131929761D01*
X197108095Y-131882142D01*
X197060476Y-131786904D01*
X197060476Y-130977380D01*
X196679523Y-130977380D02*
X196012857Y-130977380D01*
X196441428Y-131977380D01*
%TO.C,U6*%
X181531904Y-130977380D02*
X181531904Y-131786904D01*
X181484285Y-131882142D01*
X181436666Y-131929761D01*
X181341428Y-131977380D01*
X181150952Y-131977380D01*
X181055714Y-131929761D01*
X181008095Y-131882142D01*
X180960476Y-131786904D01*
X180960476Y-130977380D01*
X180055714Y-130977380D02*
X180246190Y-130977380D01*
X180341428Y-131025000D01*
X180389047Y-131072619D01*
X180484285Y-131215476D01*
X180531904Y-131405952D01*
X180531904Y-131786904D01*
X180484285Y-131882142D01*
X180436666Y-131929761D01*
X180341428Y-131977380D01*
X180150952Y-131977380D01*
X180055714Y-131929761D01*
X180008095Y-131882142D01*
X179960476Y-131786904D01*
X179960476Y-131548809D01*
X180008095Y-131453571D01*
X180055714Y-131405952D01*
X180150952Y-131358333D01*
X180341428Y-131358333D01*
X180436666Y-131405952D01*
X180484285Y-131453571D01*
X180531904Y-131548809D01*
%TO.C,U5*%
X197631904Y-135202380D02*
X197631904Y-136011904D01*
X197584285Y-136107142D01*
X197536666Y-136154761D01*
X197441428Y-136202380D01*
X197250952Y-136202380D01*
X197155714Y-136154761D01*
X197108095Y-136107142D01*
X197060476Y-136011904D01*
X197060476Y-135202380D01*
X196108095Y-135202380D02*
X196584285Y-135202380D01*
X196631904Y-135678571D01*
X196584285Y-135630952D01*
X196489047Y-135583333D01*
X196250952Y-135583333D01*
X196155714Y-135630952D01*
X196108095Y-135678571D01*
X196060476Y-135773809D01*
X196060476Y-136011904D01*
X196108095Y-136107142D01*
X196155714Y-136154761D01*
X196250952Y-136202380D01*
X196489047Y-136202380D01*
X196584285Y-136154761D01*
X196631904Y-136107142D01*
%TO.C,U4*%
X181531904Y-135202380D02*
X181531904Y-136011904D01*
X181484285Y-136107142D01*
X181436666Y-136154761D01*
X181341428Y-136202380D01*
X181150952Y-136202380D01*
X181055714Y-136154761D01*
X181008095Y-136107142D01*
X180960476Y-136011904D01*
X180960476Y-135202380D01*
X180055714Y-135535714D02*
X180055714Y-136202380D01*
X180293809Y-135154761D02*
X180531904Y-135869047D01*
X179912857Y-135869047D01*
%TO.C,U3*%
X201761904Y-127052380D02*
X201761904Y-127861904D01*
X201714285Y-127957142D01*
X201666666Y-128004761D01*
X201571428Y-128052380D01*
X201380952Y-128052380D01*
X201285714Y-128004761D01*
X201238095Y-127957142D01*
X201190476Y-127861904D01*
X201190476Y-127052380D01*
X200809523Y-127052380D02*
X200190476Y-127052380D01*
X200523809Y-127433333D01*
X200380952Y-127433333D01*
X200285714Y-127480952D01*
X200238095Y-127528571D01*
X200190476Y-127623809D01*
X200190476Y-127861904D01*
X200238095Y-127957142D01*
X200285714Y-128004761D01*
X200380952Y-128052380D01*
X200666666Y-128052380D01*
X200761904Y-128004761D01*
X200809523Y-127957142D01*
%TO.C,R3*%
X161152380Y-135683333D02*
X160676190Y-135350000D01*
X161152380Y-135111904D02*
X160152380Y-135111904D01*
X160152380Y-135492857D01*
X160200000Y-135588095D01*
X160247619Y-135635714D01*
X160342857Y-135683333D01*
X160485714Y-135683333D01*
X160580952Y-135635714D01*
X160628571Y-135588095D01*
X160676190Y-135492857D01*
X160676190Y-135111904D01*
X160152380Y-136016666D02*
X160152380Y-136635714D01*
X160533333Y-136302380D01*
X160533333Y-136445238D01*
X160580952Y-136540476D01*
X160628571Y-136588095D01*
X160723809Y-136635714D01*
X160961904Y-136635714D01*
X161057142Y-136588095D01*
X161104761Y-136540476D01*
X161152380Y-136445238D01*
X161152380Y-136159523D01*
X161104761Y-136064285D01*
X161057142Y-136016666D01*
%TD*%
M02*
