%TF.GenerationSoftware,KiCad,Pcbnew,(5.1.6)-1*%
%TF.CreationDate,2020-11-09T21:23:30-05:00*%
%TF.ProjectId,CellLight,43656c6c-4c69-4676-9874-2e6b69636164,rev?*%
%TF.SameCoordinates,Original*%
%TF.FileFunction,Legend,Top*%
%TF.FilePolarity,Positive*%
%FSLAX46Y46*%
G04 Gerber Fmt 4.6, Leading zero omitted, Abs format (unit mm)*
G04 Created by KiCad (PCBNEW (5.1.6)-1) date 2020-11-09 21:23:30*
%MOMM*%
%LPD*%
G01*
G04 APERTURE LIST*
%ADD10C,0.120000*%
%ADD11C,0.152400*%
%ADD12C,0.150000*%
G04 APERTURE END LIST*
D10*
%TO.C,U10*%
X148550000Y-139190000D02*
X147450000Y-139190000D01*
X148550000Y-141000000D02*
X148550000Y-139190000D01*
X150050000Y-141000000D02*
X148550000Y-141000000D01*
X148550000Y-132410000D02*
X143425000Y-132410000D01*
X148550000Y-130600000D02*
X148550000Y-132410000D01*
X150050000Y-130600000D02*
X148550000Y-130600000D01*
D11*
%TO.C,CR1*%
X127308677Y-130171800D02*
X125618500Y-130171800D01*
X132408677Y-130171800D02*
X127591323Y-130171800D01*
X132691323Y-136928200D02*
X134381500Y-136928200D01*
X128179608Y-136928200D02*
X132408677Y-136928200D01*
X125618500Y-136928200D02*
X126720392Y-136928200D01*
X125618500Y-130171800D02*
X125618500Y-136928200D01*
X134381500Y-130171800D02*
X132691323Y-130171800D01*
X134381500Y-136928200D02*
X134381500Y-130171800D01*
D10*
%TO.C,U11*%
X162900000Y-138040000D02*
X160450000Y-138040000D01*
X161100000Y-141260000D02*
X162900000Y-141260000D01*
%TO.C,U9*%
X168740000Y-136800000D02*
X168740000Y-140250000D01*
X168740000Y-136800000D02*
X168740000Y-134850000D01*
X173860000Y-136800000D02*
X173860000Y-138750000D01*
X173860000Y-136800000D02*
X173860000Y-134850000D01*
D11*
%TO.C,U2*%
X184511600Y-132984502D02*
X184765600Y-132984502D01*
X184511600Y-133365502D02*
X184511600Y-132984502D01*
X184765600Y-133365502D02*
X184511600Y-133365502D01*
X184765600Y-132984502D02*
X184765600Y-133365502D01*
X176688400Y-138834498D02*
X176434400Y-138834498D01*
X176688400Y-139215498D02*
X176688400Y-138834498D01*
X176434400Y-139215498D02*
X176688400Y-139215498D01*
X176434400Y-138834498D02*
X176434400Y-139215498D01*
X182718764Y-132671000D02*
X178481249Y-132671000D01*
X178481236Y-139529000D02*
X182718751Y-139529000D01*
D10*
%TO.C,R2*%
X175760000Y-136221267D02*
X175760000Y-135878733D01*
X174740000Y-136221267D02*
X174740000Y-135878733D01*
%TO.C,R1*%
X175290000Y-130353733D02*
X175290000Y-130696267D01*
X176310000Y-130353733D02*
X176310000Y-130696267D01*
%TO.C,C5*%
X164390000Y-139478733D02*
X164390000Y-139821267D01*
X165410000Y-139478733D02*
X165410000Y-139821267D01*
%TO.C,C4*%
X148721267Y-128490000D02*
X148378733Y-128490000D01*
X148721267Y-129510000D02*
X148378733Y-129510000D01*
%TO.C,C3*%
X141290000Y-139053733D02*
X141290000Y-139396267D01*
X142310000Y-139053733D02*
X142310000Y-139396267D01*
%TO.C,C2*%
X135590000Y-139053733D02*
X135590000Y-139396267D01*
X136610000Y-139053733D02*
X136610000Y-139396267D01*
%TO.C,C1*%
X138440000Y-139053733D02*
X138440000Y-139396267D01*
X139460000Y-139053733D02*
X139460000Y-139396267D01*
%TO.C,C6*%
X166090000Y-139478733D02*
X166090000Y-139821267D01*
X167110000Y-139478733D02*
X167110000Y-139821267D01*
%TO.C,U10*%
D12*
X144261904Y-140102380D02*
X144261904Y-140911904D01*
X144309523Y-141007142D01*
X144357142Y-141054761D01*
X144452380Y-141102380D01*
X144642857Y-141102380D01*
X144738095Y-141054761D01*
X144785714Y-141007142D01*
X144833333Y-140911904D01*
X144833333Y-140102380D01*
X145833333Y-141102380D02*
X145261904Y-141102380D01*
X145547619Y-141102380D02*
X145547619Y-140102380D01*
X145452380Y-140245238D01*
X145357142Y-140340476D01*
X145261904Y-140388095D01*
X146452380Y-140102380D02*
X146547619Y-140102380D01*
X146642857Y-140150000D01*
X146690476Y-140197619D01*
X146738095Y-140292857D01*
X146785714Y-140483333D01*
X146785714Y-140721428D01*
X146738095Y-140911904D01*
X146690476Y-141007142D01*
X146642857Y-141054761D01*
X146547619Y-141102380D01*
X146452380Y-141102380D01*
X146357142Y-141054761D01*
X146309523Y-141007142D01*
X146261904Y-140911904D01*
X146214285Y-140721428D01*
X146214285Y-140483333D01*
X146261904Y-140292857D01*
X146309523Y-140197619D01*
X146357142Y-140150000D01*
X146452380Y-140102380D01*
%TO.C,CR1*%
X130357142Y-134216666D02*
X130404761Y-134264285D01*
X130452380Y-134407142D01*
X130452380Y-134502380D01*
X130404761Y-134645238D01*
X130309523Y-134740476D01*
X130214285Y-134788095D01*
X130023809Y-134835714D01*
X129880952Y-134835714D01*
X129690476Y-134788095D01*
X129595238Y-134740476D01*
X129500000Y-134645238D01*
X129452380Y-134502380D01*
X129452380Y-134407142D01*
X129500000Y-134264285D01*
X129547619Y-134216666D01*
X130452380Y-133216666D02*
X129976190Y-133550000D01*
X130452380Y-133788095D02*
X129452380Y-133788095D01*
X129452380Y-133407142D01*
X129500000Y-133311904D01*
X129547619Y-133264285D01*
X129642857Y-133216666D01*
X129785714Y-133216666D01*
X129880952Y-133264285D01*
X129928571Y-133311904D01*
X129976190Y-133407142D01*
X129976190Y-133788095D01*
X130452380Y-132264285D02*
X130452380Y-132835714D01*
X130452380Y-132550000D02*
X129452380Y-132550000D01*
X129595238Y-132645238D01*
X129690476Y-132740476D01*
X129738095Y-132835714D01*
%TO.C,H2*%
X201938095Y-130452380D02*
X201938095Y-129452380D01*
X201938095Y-129928571D02*
X202509523Y-129928571D01*
X202509523Y-130452380D02*
X202509523Y-129452380D01*
X202938095Y-129547619D02*
X202985714Y-129500000D01*
X203080952Y-129452380D01*
X203319047Y-129452380D01*
X203414285Y-129500000D01*
X203461904Y-129547619D01*
X203509523Y-129642857D01*
X203509523Y-129738095D01*
X203461904Y-129880952D01*
X202890476Y-130452380D01*
X203509523Y-130452380D01*
%TO.C,H1*%
X111938095Y-130452380D02*
X111938095Y-129452380D01*
X111938095Y-129928571D02*
X112509523Y-129928571D01*
X112509523Y-130452380D02*
X112509523Y-129452380D01*
X113509523Y-130452380D02*
X112938095Y-130452380D01*
X113223809Y-130452380D02*
X113223809Y-129452380D01*
X113128571Y-129595238D01*
X113033333Y-129690476D01*
X112938095Y-129738095D01*
%TO.C,U11*%
X160761904Y-136552380D02*
X160761904Y-137361904D01*
X160809523Y-137457142D01*
X160857142Y-137504761D01*
X160952380Y-137552380D01*
X161142857Y-137552380D01*
X161238095Y-137504761D01*
X161285714Y-137457142D01*
X161333333Y-137361904D01*
X161333333Y-136552380D01*
X162333333Y-137552380D02*
X161761904Y-137552380D01*
X162047619Y-137552380D02*
X162047619Y-136552380D01*
X161952380Y-136695238D01*
X161857142Y-136790476D01*
X161761904Y-136838095D01*
X163285714Y-137552380D02*
X162714285Y-137552380D01*
X163000000Y-137552380D02*
X163000000Y-136552380D01*
X162904761Y-136695238D01*
X162809523Y-136790476D01*
X162714285Y-136838095D01*
%TO.C,U9*%
X167352380Y-137561904D02*
X168161904Y-137561904D01*
X168257142Y-137514285D01*
X168304761Y-137466666D01*
X168352380Y-137371428D01*
X168352380Y-137180952D01*
X168304761Y-137085714D01*
X168257142Y-137038095D01*
X168161904Y-136990476D01*
X167352380Y-136990476D01*
X168352380Y-136466666D02*
X168352380Y-136276190D01*
X168304761Y-136180952D01*
X168257142Y-136133333D01*
X168114285Y-136038095D01*
X167923809Y-135990476D01*
X167542857Y-135990476D01*
X167447619Y-136038095D01*
X167400000Y-136085714D01*
X167352380Y-136180952D01*
X167352380Y-136371428D01*
X167400000Y-136466666D01*
X167447619Y-136514285D01*
X167542857Y-136561904D01*
X167780952Y-136561904D01*
X167876190Y-136514285D01*
X167923809Y-136466666D01*
X167971428Y-136371428D01*
X167971428Y-136180952D01*
X167923809Y-136085714D01*
X167876190Y-136038095D01*
X167780952Y-135990476D01*
%TO.C,U2*%
X179838095Y-140152380D02*
X179838095Y-140961904D01*
X179885714Y-141057142D01*
X179933333Y-141104761D01*
X180028571Y-141152380D01*
X180219047Y-141152380D01*
X180314285Y-141104761D01*
X180361904Y-141057142D01*
X180409523Y-140961904D01*
X180409523Y-140152380D01*
X180838095Y-140247619D02*
X180885714Y-140200000D01*
X180980952Y-140152380D01*
X181219047Y-140152380D01*
X181314285Y-140200000D01*
X181361904Y-140247619D01*
X181409523Y-140342857D01*
X181409523Y-140438095D01*
X181361904Y-140580952D01*
X180790476Y-141152380D01*
X181409523Y-141152380D01*
%TO.C,R2*%
X175702380Y-139016666D02*
X175226190Y-139350000D01*
X175702380Y-139588095D02*
X174702380Y-139588095D01*
X174702380Y-139207142D01*
X174750000Y-139111904D01*
X174797619Y-139064285D01*
X174892857Y-139016666D01*
X175035714Y-139016666D01*
X175130952Y-139064285D01*
X175178571Y-139111904D01*
X175226190Y-139207142D01*
X175226190Y-139588095D01*
X174797619Y-138635714D02*
X174750000Y-138588095D01*
X174702380Y-138492857D01*
X174702380Y-138254761D01*
X174750000Y-138159523D01*
X174797619Y-138111904D01*
X174892857Y-138064285D01*
X174988095Y-138064285D01*
X175130952Y-138111904D01*
X175702380Y-138683333D01*
X175702380Y-138064285D01*
%TO.C,R1*%
X176252380Y-127816666D02*
X175776190Y-128150000D01*
X176252380Y-128388095D02*
X175252380Y-128388095D01*
X175252380Y-128007142D01*
X175300000Y-127911904D01*
X175347619Y-127864285D01*
X175442857Y-127816666D01*
X175585714Y-127816666D01*
X175680952Y-127864285D01*
X175728571Y-127911904D01*
X175776190Y-128007142D01*
X175776190Y-128388095D01*
X176252380Y-126864285D02*
X176252380Y-127435714D01*
X176252380Y-127150000D02*
X175252380Y-127150000D01*
X175395238Y-127245238D01*
X175490476Y-127340476D01*
X175538095Y-127435714D01*
%TO.C,C5*%
X165257142Y-137166666D02*
X165304761Y-137214285D01*
X165352380Y-137357142D01*
X165352380Y-137452380D01*
X165304761Y-137595238D01*
X165209523Y-137690476D01*
X165114285Y-137738095D01*
X164923809Y-137785714D01*
X164780952Y-137785714D01*
X164590476Y-137738095D01*
X164495238Y-137690476D01*
X164400000Y-137595238D01*
X164352380Y-137452380D01*
X164352380Y-137357142D01*
X164400000Y-137214285D01*
X164447619Y-137166666D01*
X164352380Y-136261904D02*
X164352380Y-136738095D01*
X164828571Y-136785714D01*
X164780952Y-136738095D01*
X164733333Y-136642857D01*
X164733333Y-136404761D01*
X164780952Y-136309523D01*
X164828571Y-136261904D01*
X164923809Y-136214285D01*
X165161904Y-136214285D01*
X165257142Y-136261904D01*
X165304761Y-136309523D01*
X165352380Y-136404761D01*
X165352380Y-136642857D01*
X165304761Y-136738095D01*
X165257142Y-136785714D01*
%TO.C,C4*%
X145583333Y-129357142D02*
X145535714Y-129404761D01*
X145392857Y-129452380D01*
X145297619Y-129452380D01*
X145154761Y-129404761D01*
X145059523Y-129309523D01*
X145011904Y-129214285D01*
X144964285Y-129023809D01*
X144964285Y-128880952D01*
X145011904Y-128690476D01*
X145059523Y-128595238D01*
X145154761Y-128500000D01*
X145297619Y-128452380D01*
X145392857Y-128452380D01*
X145535714Y-128500000D01*
X145583333Y-128547619D01*
X146440476Y-128785714D02*
X146440476Y-129452380D01*
X146202380Y-128404761D02*
X145964285Y-129119047D01*
X146583333Y-129119047D01*
%TO.C,C3*%
X140757142Y-139391666D02*
X140804761Y-139439285D01*
X140852380Y-139582142D01*
X140852380Y-139677380D01*
X140804761Y-139820238D01*
X140709523Y-139915476D01*
X140614285Y-139963095D01*
X140423809Y-140010714D01*
X140280952Y-140010714D01*
X140090476Y-139963095D01*
X139995238Y-139915476D01*
X139900000Y-139820238D01*
X139852380Y-139677380D01*
X139852380Y-139582142D01*
X139900000Y-139439285D01*
X139947619Y-139391666D01*
X139852380Y-139058333D02*
X139852380Y-138439285D01*
X140233333Y-138772619D01*
X140233333Y-138629761D01*
X140280952Y-138534523D01*
X140328571Y-138486904D01*
X140423809Y-138439285D01*
X140661904Y-138439285D01*
X140757142Y-138486904D01*
X140804761Y-138534523D01*
X140852380Y-138629761D01*
X140852380Y-138915476D01*
X140804761Y-139010714D01*
X140757142Y-139058333D01*
%TO.C,C2*%
X135007142Y-139416666D02*
X135054761Y-139464285D01*
X135102380Y-139607142D01*
X135102380Y-139702380D01*
X135054761Y-139845238D01*
X134959523Y-139940476D01*
X134864285Y-139988095D01*
X134673809Y-140035714D01*
X134530952Y-140035714D01*
X134340476Y-139988095D01*
X134245238Y-139940476D01*
X134150000Y-139845238D01*
X134102380Y-139702380D01*
X134102380Y-139607142D01*
X134150000Y-139464285D01*
X134197619Y-139416666D01*
X134197619Y-139035714D02*
X134150000Y-138988095D01*
X134102380Y-138892857D01*
X134102380Y-138654761D01*
X134150000Y-138559523D01*
X134197619Y-138511904D01*
X134292857Y-138464285D01*
X134388095Y-138464285D01*
X134530952Y-138511904D01*
X135102380Y-139083333D01*
X135102380Y-138464285D01*
%TO.C,C1*%
X137907142Y-139416666D02*
X137954761Y-139464285D01*
X138002380Y-139607142D01*
X138002380Y-139702380D01*
X137954761Y-139845238D01*
X137859523Y-139940476D01*
X137764285Y-139988095D01*
X137573809Y-140035714D01*
X137430952Y-140035714D01*
X137240476Y-139988095D01*
X137145238Y-139940476D01*
X137050000Y-139845238D01*
X137002380Y-139702380D01*
X137002380Y-139607142D01*
X137050000Y-139464285D01*
X137097619Y-139416666D01*
X138002380Y-138464285D02*
X138002380Y-139035714D01*
X138002380Y-138750000D02*
X137002380Y-138750000D01*
X137145238Y-138845238D01*
X137240476Y-138940476D01*
X137288095Y-139035714D01*
%TO.C,C6*%
X166957142Y-137166666D02*
X167004761Y-137214285D01*
X167052380Y-137357142D01*
X167052380Y-137452380D01*
X167004761Y-137595238D01*
X166909523Y-137690476D01*
X166814285Y-137738095D01*
X166623809Y-137785714D01*
X166480952Y-137785714D01*
X166290476Y-137738095D01*
X166195238Y-137690476D01*
X166100000Y-137595238D01*
X166052380Y-137452380D01*
X166052380Y-137357142D01*
X166100000Y-137214285D01*
X166147619Y-137166666D01*
X166052380Y-136309523D02*
X166052380Y-136500000D01*
X166100000Y-136595238D01*
X166147619Y-136642857D01*
X166290476Y-136738095D01*
X166480952Y-136785714D01*
X166861904Y-136785714D01*
X166957142Y-136738095D01*
X167004761Y-136690476D01*
X167052380Y-136595238D01*
X167052380Y-136404761D01*
X167004761Y-136309523D01*
X166957142Y-136261904D01*
X166861904Y-136214285D01*
X166623809Y-136214285D01*
X166528571Y-136261904D01*
X166480952Y-136309523D01*
X166433333Y-136404761D01*
X166433333Y-136595238D01*
X166480952Y-136690476D01*
X166528571Y-136738095D01*
X166623809Y-136785714D01*
%TD*%
M02*
