M48
; DRILL file {KiCad (5.1.6)-1} date 11/09/20 21:23:33
; FORMAT={-:-/ absolute / inch / decimal}
; #@! TF.CreationDate,2020-11-09T21:23:33-05:00
; #@! TF.GenerationSoftware,Kicad,Pcbnew,(5.1.6)-1
; #@! TF.FileFunction,Plated,1,2,PTH
FMAT,2
INCH
T1C0.0157
T2C0.0394
T3C0.1063
%
G90
G05
T1
X5.0167Y-5.2451
X5.2195Y-5.1447
X6.1292Y-5.1102
X6.3268Y-5.1496
X6.3799Y-5.4606
X6.5295Y-5.3583
X6.5728Y-5.2087
X6.6161Y-5.5295
X6.7244Y-5.3583
X6.9865Y-5.5052
X7.1086Y-5.1613
X7.157Y-5.3387
X7.278Y-5.3455
X7.3102Y-5.1659
X7.314Y-5.2304
X7.3773Y-5.4478
X7.4156Y-5.1377
X7.5235Y-5.1572
X7.5893Y-5.4044
X7.6216Y-5.0643
X7.6439Y-5.4484
X7.6871Y-5.3209
T2
X6.4114Y-5.065
X6.5114Y-5.065
X6.6114Y-5.065
X6.7114Y-5.065
X6.8114Y-5.065
T3
X7.9803Y-5.2638
X4.437Y-5.2638
T0
M30
