%TF.GenerationSoftware,KiCad,Pcbnew,(5.1.6)-1*%
%TF.CreationDate,2020-11-09T21:23:30-05:00*%
%TF.ProjectId,CellLight,43656c6c-4c69-4676-9874-2e6b69636164,rev?*%
%TF.SameCoordinates,Original*%
%TF.FileFunction,Copper,L1,Top*%
%TF.FilePolarity,Positive*%
%FSLAX46Y46*%
G04 Gerber Fmt 4.6, Leading zero omitted, Abs format (unit mm)*
G04 Created by KiCad (PCBNEW (5.1.6)-1) date 2020-11-09 21:23:30*
%MOMM*%
%LPD*%
G01*
G04 APERTURE LIST*
%TA.AperFunction,SMDPad,CuDef*%
%ADD10R,9.400000X10.800000*%
%TD*%
%TA.AperFunction,SMDPad,CuDef*%
%ADD11R,4.600000X1.100000*%
%TD*%
%TA.AperFunction,SMDPad,CuDef*%
%ADD12O,1.295400X1.498600*%
%TD*%
%TA.AperFunction,SMDPad,CuDef*%
%ADD13R,1.295400X1.498600*%
%TD*%
%TA.AperFunction,ComponentPad*%
%ADD14C,5.400000*%
%TD*%
%TA.AperFunction,ComponentPad*%
%ADD15O,1.700000X1.700000*%
%TD*%
%TA.AperFunction,ComponentPad*%
%ADD16R,1.700000X1.700000*%
%TD*%
%TA.AperFunction,SMDPad,CuDef*%
%ADD17R,1.060000X0.650000*%
%TD*%
%TA.AperFunction,SMDPad,CuDef*%
%ADD18R,1.473200X0.355600*%
%TD*%
%TA.AperFunction,ViaPad*%
%ADD19C,0.800000*%
%TD*%
%TA.AperFunction,Conductor*%
%ADD20C,0.250000*%
%TD*%
%TA.AperFunction,Conductor*%
%ADD21C,0.450000*%
%TD*%
%TA.AperFunction,Conductor*%
%ADD22C,0.254000*%
%TD*%
G04 APERTURE END LIST*
D10*
%TO.P,U10,2*%
%TO.N,5V*%
X154875000Y-135800000D03*
D11*
%TO.P,U10,3*%
%TO.N,+VDC*%
X145725000Y-138340000D03*
%TO.P,U10,2*%
%TO.N,5V*%
X145725000Y-135800000D03*
%TO.P,U10,1*%
%TO.N,GND*%
X145725000Y-133260000D03*
%TD*%
D12*
%TO.P,CR1,4*%
%TO.N,PRI_HI*%
X127450000Y-129099999D03*
%TO.P,CR1,3*%
%TO.N,PRI_LO*%
X132550000Y-129099999D03*
%TO.P,CR1,2*%
%TO.N,GND*%
X132550000Y-138000001D03*
D13*
%TO.P,CR1,1*%
%TO.N,+VDC*%
X127450000Y-138000001D03*
%TD*%
D14*
%TO.P,H2,1*%
%TO.N,GND*%
X202700000Y-133700000D03*
%TD*%
%TO.P,H1,1*%
%TO.N,GND*%
X112700000Y-133700000D03*
%TD*%
D15*
%TO.P,J1,5*%
%TO.N,SWCLK*%
X173010000Y-128650000D03*
%TO.P,J1,4*%
%TO.N,SWDIO*%
X170470000Y-128650000D03*
%TO.P,J1,3*%
%TO.N,NRST*%
X167930000Y-128650000D03*
%TO.P,J1,2*%
%TO.N,GND*%
X165390000Y-128650000D03*
D16*
%TO.P,J1,1*%
%TO.N,3.3V*%
X162850000Y-128650000D03*
%TD*%
D17*
%TO.P,U11,5*%
%TO.N,3.3V*%
X163100000Y-138700000D03*
%TO.P,U11,4*%
%TO.N,Net-(U11-Pad4)*%
X163100000Y-140600000D03*
%TO.P,U11,3*%
%TO.N,5V*%
X160900000Y-140600000D03*
%TO.P,U11,2*%
%TO.N,GND*%
X160900000Y-139650000D03*
%TO.P,U11,1*%
%TO.N,5V*%
X160900000Y-138700000D03*
%TD*%
%TO.P,U9,8*%
%TO.N,3.3V*%
%TA.AperFunction,SMDPad,CuDef*%
G36*
G01*
X169545000Y-135300000D02*
X169245000Y-135300000D01*
G75*
G02*
X169095000Y-135150000I0J150000D01*
G01*
X169095000Y-133500000D01*
G75*
G02*
X169245000Y-133350000I150000J0D01*
G01*
X169545000Y-133350000D01*
G75*
G02*
X169695000Y-133500000I0J-150000D01*
G01*
X169695000Y-135150000D01*
G75*
G02*
X169545000Y-135300000I-150000J0D01*
G01*
G37*
%TD.AperFunction*%
%TO.P,U9,7*%
%TO.N,GND*%
%TA.AperFunction,SMDPad,CuDef*%
G36*
G01*
X170815000Y-135300000D02*
X170515000Y-135300000D01*
G75*
G02*
X170365000Y-135150000I0J150000D01*
G01*
X170365000Y-133500000D01*
G75*
G02*
X170515000Y-133350000I150000J0D01*
G01*
X170815000Y-133350000D01*
G75*
G02*
X170965000Y-133500000I0J-150000D01*
G01*
X170965000Y-135150000D01*
G75*
G02*
X170815000Y-135300000I-150000J0D01*
G01*
G37*
%TD.AperFunction*%
%TO.P,U9,6*%
%TO.N,SCL*%
%TA.AperFunction,SMDPad,CuDef*%
G36*
G01*
X172085000Y-135300000D02*
X171785000Y-135300000D01*
G75*
G02*
X171635000Y-135150000I0J150000D01*
G01*
X171635000Y-133500000D01*
G75*
G02*
X171785000Y-133350000I150000J0D01*
G01*
X172085000Y-133350000D01*
G75*
G02*
X172235000Y-133500000I0J-150000D01*
G01*
X172235000Y-135150000D01*
G75*
G02*
X172085000Y-135300000I-150000J0D01*
G01*
G37*
%TD.AperFunction*%
%TO.P,U9,5*%
%TO.N,SDA*%
%TA.AperFunction,SMDPad,CuDef*%
G36*
G01*
X173355000Y-135300000D02*
X173055000Y-135300000D01*
G75*
G02*
X172905000Y-135150000I0J150000D01*
G01*
X172905000Y-133500000D01*
G75*
G02*
X173055000Y-133350000I150000J0D01*
G01*
X173355000Y-133350000D01*
G75*
G02*
X173505000Y-133500000I0J-150000D01*
G01*
X173505000Y-135150000D01*
G75*
G02*
X173355000Y-135300000I-150000J0D01*
G01*
G37*
%TD.AperFunction*%
%TO.P,U9,4*%
%TO.N,GND*%
%TA.AperFunction,SMDPad,CuDef*%
G36*
G01*
X173355000Y-140250000D02*
X173055000Y-140250000D01*
G75*
G02*
X172905000Y-140100000I0J150000D01*
G01*
X172905000Y-138450000D01*
G75*
G02*
X173055000Y-138300000I150000J0D01*
G01*
X173355000Y-138300000D01*
G75*
G02*
X173505000Y-138450000I0J-150000D01*
G01*
X173505000Y-140100000D01*
G75*
G02*
X173355000Y-140250000I-150000J0D01*
G01*
G37*
%TD.AperFunction*%
%TO.P,U9,3*%
%TO.N,3.3V*%
%TA.AperFunction,SMDPad,CuDef*%
G36*
G01*
X172085000Y-140250000D02*
X171785000Y-140250000D01*
G75*
G02*
X171635000Y-140100000I0J150000D01*
G01*
X171635000Y-138450000D01*
G75*
G02*
X171785000Y-138300000I150000J0D01*
G01*
X172085000Y-138300000D01*
G75*
G02*
X172235000Y-138450000I0J-150000D01*
G01*
X172235000Y-140100000D01*
G75*
G02*
X172085000Y-140250000I-150000J0D01*
G01*
G37*
%TD.AperFunction*%
%TO.P,U9,2*%
%TA.AperFunction,SMDPad,CuDef*%
G36*
G01*
X170815000Y-140250000D02*
X170515000Y-140250000D01*
G75*
G02*
X170365000Y-140100000I0J150000D01*
G01*
X170365000Y-138450000D01*
G75*
G02*
X170515000Y-138300000I150000J0D01*
G01*
X170815000Y-138300000D01*
G75*
G02*
X170965000Y-138450000I0J-150000D01*
G01*
X170965000Y-140100000D01*
G75*
G02*
X170815000Y-140250000I-150000J0D01*
G01*
G37*
%TD.AperFunction*%
%TO.P,U9,1*%
%TA.AperFunction,SMDPad,CuDef*%
G36*
G01*
X169545000Y-140250000D02*
X169245000Y-140250000D01*
G75*
G02*
X169095000Y-140100000I0J150000D01*
G01*
X169095000Y-138450000D01*
G75*
G02*
X169245000Y-138300000I150000J0D01*
G01*
X169545000Y-138300000D01*
G75*
G02*
X169695000Y-138450000I0J-150000D01*
G01*
X169695000Y-140100000D01*
G75*
G02*
X169545000Y-140250000I-150000J0D01*
G01*
G37*
%TD.AperFunction*%
%TD*%
D18*
%TO.P,U2,20*%
%TO.N,COM_DATA*%
X183521000Y-133175002D03*
%TO.P,U2,19*%
%TO.N,SWCLK*%
X183521000Y-133825001D03*
%TO.P,U2,18*%
%TO.N,SWDIO*%
X183521000Y-134475002D03*
%TO.P,U2,17*%
%TO.N,CH1_TX_EN*%
X183521000Y-135125001D03*
%TO.P,U2,16*%
%TO.N,CH1_RX_EN*%
X183521000Y-135775002D03*
%TO.P,U2,15*%
%TO.N,Net-(U1-Pad4)*%
X183521000Y-136425001D03*
%TO.P,U2,14*%
%TO.N,CH2_TX_EN*%
X183521000Y-137075002D03*
%TO.P,U2,13*%
%TO.N,CH2_RX_EN*%
X183521000Y-137725001D03*
%TO.P,U2,12*%
%TO.N,CH3_TX_EN*%
X183521000Y-138375002D03*
%TO.P,U2,11*%
%TO.N,CH3_RX_EN*%
X183521000Y-139025000D03*
%TO.P,U2,10*%
%TO.N,Net-(U2-Pad10)*%
X177679000Y-139024998D03*
%TO.P,U2,9*%
%TO.N,CH3_DATA*%
X177679000Y-138374999D03*
%TO.P,U2,8*%
%TO.N,CH2_DATA*%
X177679000Y-137724998D03*
%TO.P,U2,7*%
%TO.N,CH1_DATA*%
X177679000Y-137074999D03*
%TO.P,U2,6*%
%TO.N,NRST*%
X177679000Y-136424998D03*
%TO.P,U2,5*%
%TO.N,GND*%
X177679000Y-135774999D03*
%TO.P,U2,4*%
%TO.N,3.3V*%
X177679000Y-135125001D03*
%TO.P,U2,3*%
%TO.N,Net-(U2-Pad3)*%
X177679000Y-134474999D03*
%TO.P,U2,2*%
%TO.N,SDA*%
X177679000Y-133825001D03*
%TO.P,U2,1*%
%TO.N,SCL*%
X177679000Y-133175000D03*
%TD*%
%TO.P,R2,2*%
%TO.N,SDA*%
%TA.AperFunction,SMDPad,CuDef*%
G36*
G01*
X175487500Y-135700000D02*
X175012500Y-135700000D01*
G75*
G02*
X174775000Y-135462500I0J237500D01*
G01*
X174775000Y-134887500D01*
G75*
G02*
X175012500Y-134650000I237500J0D01*
G01*
X175487500Y-134650000D01*
G75*
G02*
X175725000Y-134887500I0J-237500D01*
G01*
X175725000Y-135462500D01*
G75*
G02*
X175487500Y-135700000I-237500J0D01*
G01*
G37*
%TD.AperFunction*%
%TO.P,R2,1*%
%TO.N,3.3V*%
%TA.AperFunction,SMDPad,CuDef*%
G36*
G01*
X175487500Y-137450000D02*
X175012500Y-137450000D01*
G75*
G02*
X174775000Y-137212500I0J237500D01*
G01*
X174775000Y-136637500D01*
G75*
G02*
X175012500Y-136400000I237500J0D01*
G01*
X175487500Y-136400000D01*
G75*
G02*
X175725000Y-136637500I0J-237500D01*
G01*
X175725000Y-137212500D01*
G75*
G02*
X175487500Y-137450000I-237500J0D01*
G01*
G37*
%TD.AperFunction*%
%TD*%
%TO.P,R1,2*%
%TO.N,SCL*%
%TA.AperFunction,SMDPad,CuDef*%
G36*
G01*
X175562500Y-130875000D02*
X176037500Y-130875000D01*
G75*
G02*
X176275000Y-131112500I0J-237500D01*
G01*
X176275000Y-131687500D01*
G75*
G02*
X176037500Y-131925000I-237500J0D01*
G01*
X175562500Y-131925000D01*
G75*
G02*
X175325000Y-131687500I0J237500D01*
G01*
X175325000Y-131112500D01*
G75*
G02*
X175562500Y-130875000I237500J0D01*
G01*
G37*
%TD.AperFunction*%
%TO.P,R1,1*%
%TO.N,3.3V*%
%TA.AperFunction,SMDPad,CuDef*%
G36*
G01*
X175562500Y-129125000D02*
X176037500Y-129125000D01*
G75*
G02*
X176275000Y-129362500I0J-237500D01*
G01*
X176275000Y-129937500D01*
G75*
G02*
X176037500Y-130175000I-237500J0D01*
G01*
X175562500Y-130175000D01*
G75*
G02*
X175325000Y-129937500I0J237500D01*
G01*
X175325000Y-129362500D01*
G75*
G02*
X175562500Y-129125000I237500J0D01*
G01*
G37*
%TD.AperFunction*%
%TD*%
%TO.P,C5,2*%
%TO.N,GND*%
%TA.AperFunction,SMDPad,CuDef*%
G36*
G01*
X164662500Y-140000000D02*
X165137500Y-140000000D01*
G75*
G02*
X165375000Y-140237500I0J-237500D01*
G01*
X165375000Y-140812500D01*
G75*
G02*
X165137500Y-141050000I-237500J0D01*
G01*
X164662500Y-141050000D01*
G75*
G02*
X164425000Y-140812500I0J237500D01*
G01*
X164425000Y-140237500D01*
G75*
G02*
X164662500Y-140000000I237500J0D01*
G01*
G37*
%TD.AperFunction*%
%TO.P,C5,1*%
%TO.N,3.3V*%
%TA.AperFunction,SMDPad,CuDef*%
G36*
G01*
X164662500Y-138250000D02*
X165137500Y-138250000D01*
G75*
G02*
X165375000Y-138487500I0J-237500D01*
G01*
X165375000Y-139062500D01*
G75*
G02*
X165137500Y-139300000I-237500J0D01*
G01*
X164662500Y-139300000D01*
G75*
G02*
X164425000Y-139062500I0J237500D01*
G01*
X164425000Y-138487500D01*
G75*
G02*
X164662500Y-138250000I237500J0D01*
G01*
G37*
%TD.AperFunction*%
%TD*%
%TO.P,C4,2*%
%TO.N,GND*%
%TA.AperFunction,SMDPad,CuDef*%
G36*
G01*
X148200000Y-128762500D02*
X148200000Y-129237500D01*
G75*
G02*
X147962500Y-129475000I-237500J0D01*
G01*
X147387500Y-129475000D01*
G75*
G02*
X147150000Y-129237500I0J237500D01*
G01*
X147150000Y-128762500D01*
G75*
G02*
X147387500Y-128525000I237500J0D01*
G01*
X147962500Y-128525000D01*
G75*
G02*
X148200000Y-128762500I0J-237500D01*
G01*
G37*
%TD.AperFunction*%
%TO.P,C4,1*%
%TO.N,5V*%
%TA.AperFunction,SMDPad,CuDef*%
G36*
G01*
X149950000Y-128762500D02*
X149950000Y-129237500D01*
G75*
G02*
X149712500Y-129475000I-237500J0D01*
G01*
X149137500Y-129475000D01*
G75*
G02*
X148900000Y-129237500I0J237500D01*
G01*
X148900000Y-128762500D01*
G75*
G02*
X149137500Y-128525000I237500J0D01*
G01*
X149712500Y-128525000D01*
G75*
G02*
X149950000Y-128762500I0J-237500D01*
G01*
G37*
%TD.AperFunction*%
%TD*%
%TO.P,C3,2*%
%TO.N,GND*%
%TA.AperFunction,SMDPad,CuDef*%
G36*
G01*
X141562500Y-139575000D02*
X142037500Y-139575000D01*
G75*
G02*
X142275000Y-139812500I0J-237500D01*
G01*
X142275000Y-140387500D01*
G75*
G02*
X142037500Y-140625000I-237500J0D01*
G01*
X141562500Y-140625000D01*
G75*
G02*
X141325000Y-140387500I0J237500D01*
G01*
X141325000Y-139812500D01*
G75*
G02*
X141562500Y-139575000I237500J0D01*
G01*
G37*
%TD.AperFunction*%
%TO.P,C3,1*%
%TO.N,+VDC*%
%TA.AperFunction,SMDPad,CuDef*%
G36*
G01*
X141562500Y-137825000D02*
X142037500Y-137825000D01*
G75*
G02*
X142275000Y-138062500I0J-237500D01*
G01*
X142275000Y-138637500D01*
G75*
G02*
X142037500Y-138875000I-237500J0D01*
G01*
X141562500Y-138875000D01*
G75*
G02*
X141325000Y-138637500I0J237500D01*
G01*
X141325000Y-138062500D01*
G75*
G02*
X141562500Y-137825000I237500J0D01*
G01*
G37*
%TD.AperFunction*%
%TD*%
%TO.P,C2,2*%
%TO.N,GND*%
%TA.AperFunction,SMDPad,CuDef*%
G36*
G01*
X135862500Y-139575000D02*
X136337500Y-139575000D01*
G75*
G02*
X136575000Y-139812500I0J-237500D01*
G01*
X136575000Y-140387500D01*
G75*
G02*
X136337500Y-140625000I-237500J0D01*
G01*
X135862500Y-140625000D01*
G75*
G02*
X135625000Y-140387500I0J237500D01*
G01*
X135625000Y-139812500D01*
G75*
G02*
X135862500Y-139575000I237500J0D01*
G01*
G37*
%TD.AperFunction*%
%TO.P,C2,1*%
%TO.N,+VDC*%
%TA.AperFunction,SMDPad,CuDef*%
G36*
G01*
X135862500Y-137825000D02*
X136337500Y-137825000D01*
G75*
G02*
X136575000Y-138062500I0J-237500D01*
G01*
X136575000Y-138637500D01*
G75*
G02*
X136337500Y-138875000I-237500J0D01*
G01*
X135862500Y-138875000D01*
G75*
G02*
X135625000Y-138637500I0J237500D01*
G01*
X135625000Y-138062500D01*
G75*
G02*
X135862500Y-137825000I237500J0D01*
G01*
G37*
%TD.AperFunction*%
%TD*%
%TO.P,C1,2*%
%TO.N,GND*%
%TA.AperFunction,SMDPad,CuDef*%
G36*
G01*
X138712500Y-139575000D02*
X139187500Y-139575000D01*
G75*
G02*
X139425000Y-139812500I0J-237500D01*
G01*
X139425000Y-140387500D01*
G75*
G02*
X139187500Y-140625000I-237500J0D01*
G01*
X138712500Y-140625000D01*
G75*
G02*
X138475000Y-140387500I0J237500D01*
G01*
X138475000Y-139812500D01*
G75*
G02*
X138712500Y-139575000I237500J0D01*
G01*
G37*
%TD.AperFunction*%
%TO.P,C1,1*%
%TO.N,+VDC*%
%TA.AperFunction,SMDPad,CuDef*%
G36*
G01*
X138712500Y-137825000D02*
X139187500Y-137825000D01*
G75*
G02*
X139425000Y-138062500I0J-237500D01*
G01*
X139425000Y-138637500D01*
G75*
G02*
X139187500Y-138875000I-237500J0D01*
G01*
X138712500Y-138875000D01*
G75*
G02*
X138475000Y-138637500I0J237500D01*
G01*
X138475000Y-138062500D01*
G75*
G02*
X138712500Y-137825000I237500J0D01*
G01*
G37*
%TD.AperFunction*%
%TD*%
%TO.P,C6,2*%
%TO.N,GND*%
%TA.AperFunction,SMDPad,CuDef*%
G36*
G01*
X166362500Y-140000000D02*
X166837500Y-140000000D01*
G75*
G02*
X167075000Y-140237500I0J-237500D01*
G01*
X167075000Y-140812500D01*
G75*
G02*
X166837500Y-141050000I-237500J0D01*
G01*
X166362500Y-141050000D01*
G75*
G02*
X166125000Y-140812500I0J237500D01*
G01*
X166125000Y-140237500D01*
G75*
G02*
X166362500Y-140000000I237500J0D01*
G01*
G37*
%TD.AperFunction*%
%TO.P,C6,1*%
%TO.N,3.3V*%
%TA.AperFunction,SMDPad,CuDef*%
G36*
G01*
X166362500Y-138250000D02*
X166837500Y-138250000D01*
G75*
G02*
X167075000Y-138487500I0J-237500D01*
G01*
X167075000Y-139062500D01*
G75*
G02*
X166837500Y-139300000I-237500J0D01*
G01*
X166362500Y-139300000D01*
G75*
G02*
X166125000Y-139062500I0J237500D01*
G01*
X166125000Y-138487500D01*
G75*
G02*
X166362500Y-138250000I237500J0D01*
G01*
G37*
%TD.AperFunction*%
%TD*%
D19*
%TO.N,GND*%
X165850000Y-136100000D03*
X170800000Y-136100000D03*
X168050000Y-140450000D03*
%TO.N,PRI_LO*%
X132575000Y-130675000D03*
%TO.N,PRI_HI*%
X127425000Y-133225000D03*
%TO.N,3.3V*%
X160700000Y-130800000D03*
X162050000Y-138700000D03*
%TO.N,COM_DATA*%
X180559600Y-131096100D03*
%TO.N,CH1_TX_EN*%
X193587900Y-128634300D03*
%TO.N,CH1_RX_EN*%
X184862300Y-135775000D03*
%TO.N,CH2_TX_EN*%
X192767000Y-137271500D03*
%TO.N,CH2_RX_EN*%
X185775200Y-132851600D03*
%TO.N,CH3_TX_EN*%
X187383400Y-138375000D03*
%TO.N,CH3_RX_EN*%
X185678900Y-131214100D03*
%TO.N,CH3_DATA*%
X188355300Y-130497700D03*
X195251600Y-135150400D03*
%TO.N,CH2_DATA*%
X191097500Y-130991800D03*
X194155500Y-138389000D03*
%TO.N,CH1_DATA*%
X181788400Y-135602300D03*
%TO.N,NRST*%
X166950000Y-132300000D03*
%TO.N,5V*%
X155681400Y-129797900D03*
%TO.N,Net-(U1-Pad4)*%
X177455900Y-139832400D03*
%TD*%
D20*
%TO.N,GND*%
X134024700Y-139474700D02*
X118474700Y-139474700D01*
X118474700Y-139474700D02*
X112700000Y-133700000D01*
X134024700Y-139474700D02*
X134650000Y-140100000D01*
X134650000Y-140100000D02*
X136100000Y-140100000D01*
X132550000Y-138000000D02*
X134024700Y-139474700D01*
X165390000Y-127474700D02*
X165546100Y-127318600D01*
X165546100Y-127318600D02*
X196318600Y-127318600D01*
X196318600Y-127318600D02*
X202700000Y-133700000D01*
X147675000Y-129000000D02*
X149200300Y-127474700D01*
X149200300Y-127474700D02*
X165390000Y-127474700D01*
X165390000Y-128650000D02*
X165390000Y-127474700D01*
X145725000Y-133260000D02*
X145725000Y-130950000D01*
X145725000Y-130950000D02*
X147675000Y-129000000D01*
X176072700Y-136049900D02*
X176072700Y-137645600D01*
X176072700Y-137645600D02*
X175716500Y-138001800D01*
X175716500Y-138001800D02*
X175716500Y-139446400D01*
X175716500Y-139446400D02*
X173896900Y-141266000D01*
X173896900Y-141266000D02*
X167341000Y-141266000D01*
X167341000Y-141266000D02*
X166600000Y-140525000D01*
X138950000Y-140100000D02*
X141800000Y-140100000D01*
X165850000Y-136100000D02*
X165850000Y-129110000D01*
X165850000Y-129110000D02*
X165390000Y-128650000D01*
X176072700Y-136049900D02*
X173329100Y-136049900D01*
X173329100Y-136049900D02*
X172039500Y-137339500D01*
X177679000Y-135775000D02*
X176347600Y-135775000D01*
X176347600Y-135775000D02*
X176072700Y-136049900D01*
X164900000Y-140525000D02*
X166600000Y-140525000D01*
X172039500Y-137339500D02*
X173205000Y-138505000D01*
X173205000Y-138505000D02*
X173205000Y-139275000D01*
X170800000Y-136100000D02*
X172039500Y-137339500D01*
X170800000Y-136100000D02*
X170800000Y-134460000D01*
X170800000Y-134460000D02*
X170665000Y-134325000D01*
X136100000Y-140100000D02*
X138950000Y-140100000D01*
X136100000Y-140100000D02*
X138950000Y-140100000D01*
X160900000Y-139650000D02*
X164025000Y-139650000D01*
X164025000Y-139650000D02*
X164900000Y-140525000D01*
D21*
%TO.N,+VDC*%
X138950000Y-138350000D02*
X136100000Y-138350000D01*
X141800000Y-138350000D02*
X138950000Y-138350000D01*
X127450000Y-138000000D02*
X127450000Y-136700000D01*
X127450000Y-136700000D02*
X134975000Y-136700000D01*
X134975000Y-136700000D02*
X136100000Y-137825000D01*
X136100000Y-137825000D02*
X136100000Y-138350000D01*
X145725000Y-138340000D02*
X141810000Y-138340000D01*
X141810000Y-138340000D02*
X141800000Y-138350000D01*
%TO.N,PRI_LO*%
X132575000Y-130675000D02*
X132575000Y-129125000D01*
X132575000Y-129125000D02*
X132550000Y-129100000D01*
%TO.N,PRI_HI*%
X127425000Y-133225000D02*
X127425000Y-129125000D01*
X127425000Y-129125000D02*
X127450000Y-129100000D01*
%TO.N,3.3V*%
X169395000Y-134325000D02*
X169395000Y-133755200D01*
X169395000Y-133755200D02*
X171584100Y-131566100D01*
X171584100Y-131566100D02*
X174027700Y-131566100D01*
X174027700Y-131566100D02*
X175800000Y-129793800D01*
X175250000Y-136925000D02*
X175166200Y-137008800D01*
X175166200Y-137008800D02*
X175166200Y-139181300D01*
X175166200Y-139181300D02*
X173670000Y-140677500D01*
X173670000Y-140677500D02*
X172702500Y-140677500D01*
X172702500Y-140677500D02*
X171300000Y-139275000D01*
X175800000Y-129793800D02*
X175828400Y-129793800D01*
X175828400Y-129793800D02*
X178840900Y-132806300D01*
X178840900Y-132806300D02*
X178840900Y-135125000D01*
X175800000Y-129793800D02*
X175800000Y-129650000D01*
X177679000Y-135125000D02*
X178840900Y-135125000D01*
X169395000Y-139275000D02*
X169395000Y-134325000D01*
X171300000Y-139275000D02*
X171935000Y-139275000D01*
X170665000Y-139275000D02*
X171300000Y-139275000D01*
X169395000Y-139275000D02*
X170665000Y-139275000D01*
X166600000Y-138775000D02*
X168895000Y-138775000D01*
X168895000Y-138775000D02*
X169395000Y-139275000D01*
X160700000Y-130800000D02*
X162050000Y-132150000D01*
X162050000Y-132150000D02*
X162050000Y-138700000D01*
X163100000Y-138700000D02*
X162050000Y-138700000D01*
X164900000Y-138775000D02*
X166600000Y-138775000D01*
X163100000Y-138700000D02*
X164825000Y-138700000D01*
X164825000Y-138700000D02*
X164900000Y-138775000D01*
D20*
%TO.N,SCL*%
X171935000Y-134325000D02*
X171935000Y-133917000D01*
X171935000Y-133917000D02*
X173494100Y-132357900D01*
X173494100Y-132357900D02*
X175800000Y-132357900D01*
X175800000Y-132357900D02*
X176617100Y-133175000D01*
X175800000Y-131400000D02*
X175800000Y-132357900D01*
X177679000Y-133175000D02*
X176617100Y-133175000D01*
%TO.N,SDA*%
X175250000Y-135175000D02*
X176600000Y-133825000D01*
X176600000Y-133825000D02*
X177679000Y-133825000D01*
X175250000Y-135175000D02*
X174055000Y-135175000D01*
X174055000Y-135175000D02*
X173205000Y-134325000D01*
%TO.N,COM_DATA*%
X182459100Y-133175000D02*
X182459100Y-132995600D01*
X182459100Y-132995600D02*
X180559600Y-131096100D01*
X183521000Y-133175000D02*
X182459100Y-133175000D01*
%TO.N,CH1_TX_EN*%
X183521000Y-135125000D02*
X184265200Y-135125000D01*
X184265200Y-135125000D02*
X184622600Y-134767600D01*
X184622600Y-134767600D02*
X184622600Y-131173500D01*
X184622600Y-131173500D02*
X187161800Y-128634300D01*
X187161800Y-128634300D02*
X193587900Y-128634300D01*
%TO.N,CH1_RX_EN*%
X184582900Y-135775000D02*
X184862300Y-135775000D01*
X183521000Y-135775000D02*
X184582900Y-135775000D01*
%TO.N,CH2_TX_EN*%
X182459100Y-137075000D02*
X182459100Y-139347400D01*
X182459100Y-139347400D02*
X182731600Y-139619900D01*
X182731600Y-139619900D02*
X190418600Y-139619900D01*
X190418600Y-139619900D02*
X192767000Y-137271500D01*
X183521000Y-137075000D02*
X182459100Y-137075000D01*
%TO.N,CH2_RX_EN*%
X184582900Y-137725000D02*
X185775200Y-136532700D01*
X185775200Y-136532700D02*
X185775200Y-132851600D01*
X183521000Y-137725000D02*
X184582900Y-137725000D01*
%TO.N,CH3_TX_EN*%
X183521000Y-138375000D02*
X187383400Y-138375000D01*
%TO.N,CH3_RX_EN*%
X184582900Y-139025000D02*
X184683200Y-139125300D01*
X184683200Y-139125300D02*
X187744700Y-139125300D01*
X187744700Y-139125300D02*
X188110000Y-138760000D01*
X188110000Y-138760000D02*
X188110000Y-133645200D01*
X188110000Y-133645200D02*
X185678900Y-131214100D01*
X183521000Y-139025000D02*
X184582900Y-139025000D01*
%TO.N,CH3_DATA*%
X195251600Y-135150400D02*
X193008000Y-135150400D01*
X193008000Y-135150400D02*
X188355300Y-130497700D01*
X176617100Y-138375000D02*
X176617100Y-140019300D01*
X176617100Y-140019300D02*
X177177600Y-140579800D01*
X177177600Y-140579800D02*
X190506600Y-140579800D01*
X190506600Y-140579800D02*
X195251600Y-135834800D01*
X195251600Y-135834800D02*
X195251600Y-135150400D01*
X177679000Y-138375000D02*
X176617100Y-138375000D01*
%TO.N,CH2_DATA*%
X194155500Y-138389000D02*
X196006800Y-136537700D01*
X196006800Y-136537700D02*
X196006800Y-134842400D01*
X196006800Y-134842400D02*
X192156200Y-130991800D01*
X192156200Y-130991800D02*
X191097500Y-130991800D01*
X176617100Y-137725000D02*
X176617100Y-137738100D01*
X176617100Y-137738100D02*
X176166800Y-138188400D01*
X176166800Y-138188400D02*
X176166800Y-140205900D01*
X176166800Y-140205900D02*
X177037100Y-141076200D01*
X177037100Y-141076200D02*
X191468300Y-141076200D01*
X191468300Y-141076200D02*
X194155500Y-138389000D01*
X177679000Y-137725000D02*
X176617100Y-137725000D01*
%TO.N,CH1_DATA*%
X177679000Y-137075000D02*
X180315700Y-137075000D01*
X180315700Y-137075000D02*
X181788400Y-135602300D01*
%TO.N,SWCLK*%
X174185300Y-128650000D02*
X175014000Y-127821300D01*
X175014000Y-127821300D02*
X176671100Y-127821300D01*
X176671100Y-127821300D02*
X179663200Y-130813400D01*
X179663200Y-130813400D02*
X179663200Y-131232100D01*
X179663200Y-131232100D02*
X182256100Y-133825000D01*
X182256100Y-133825000D02*
X182459100Y-133825000D01*
X173010000Y-128650000D02*
X174185300Y-128650000D01*
X183521000Y-133825000D02*
X182459100Y-133825000D01*
%TO.N,SWDIO*%
X171645300Y-128650000D02*
X171645300Y-129017400D01*
X171645300Y-129017400D02*
X172453200Y-129825300D01*
X172453200Y-129825300D02*
X173651800Y-129825300D01*
X173651800Y-129825300D02*
X175171600Y-128305500D01*
X175171600Y-128305500D02*
X176444500Y-128305500D01*
X176444500Y-128305500D02*
X179130600Y-130991600D01*
X179130600Y-130991600D02*
X179130600Y-131344600D01*
X179130600Y-131344600D02*
X182261000Y-134475000D01*
X182261000Y-134475000D02*
X182459100Y-134475000D01*
X170470000Y-128650000D02*
X171645300Y-128650000D01*
X183521000Y-134475000D02*
X182459100Y-134475000D01*
%TO.N,NRST*%
X177679000Y-136425000D02*
X178740900Y-136425000D01*
X167930000Y-128650000D02*
X169105300Y-128650000D01*
X169105300Y-128650000D02*
X169105300Y-129017300D01*
X169105300Y-129017300D02*
X170382700Y-130294700D01*
X170382700Y-130294700D02*
X173819400Y-130294700D01*
X173819400Y-130294700D02*
X175358200Y-128755900D01*
X175358200Y-128755900D02*
X176228100Y-128755900D01*
X176228100Y-128755900D02*
X177197100Y-129724900D01*
X177197100Y-129724900D02*
X177197100Y-130384100D01*
X177197100Y-130384100D02*
X179416900Y-132603900D01*
X179416900Y-132603900D02*
X179416900Y-135749000D01*
X179416900Y-135749000D02*
X178740900Y-136425000D01*
D21*
%TO.N,5V*%
X153844100Y-132158200D02*
X155681400Y-130320900D01*
X155681400Y-130320900D02*
X155681400Y-129797900D01*
X157775000Y-138700000D02*
X154875000Y-135800000D01*
X160900000Y-140600000D02*
X159675000Y-140600000D01*
X159675000Y-140600000D02*
X157775000Y-138700000D01*
X160900000Y-138700000D02*
X157775000Y-138700000D01*
X157775000Y-138700000D02*
X154875000Y-135800000D01*
X154875000Y-135800000D02*
X154875000Y-134450000D01*
X154875000Y-134450000D02*
X149425000Y-129000000D01*
D20*
%TO.N,Net-(U1-Pad4)*%
X177455900Y-139832400D02*
X179031800Y-139832400D01*
X179031800Y-139832400D02*
X182439200Y-136425000D01*
X182439200Y-136425000D02*
X183521000Y-136425000D01*
%TD*%
D22*
%TO.N,GND*%
G36*
X207015000Y-141015000D02*
G01*
X192604301Y-141015000D01*
X194195302Y-139424000D01*
X194257439Y-139424000D01*
X194457398Y-139384226D01*
X194645756Y-139306205D01*
X194815274Y-139192937D01*
X194959437Y-139048774D01*
X195072705Y-138879256D01*
X195150726Y-138690898D01*
X195190500Y-138490939D01*
X195190500Y-138428801D01*
X196517804Y-137101498D01*
X196546801Y-137077701D01*
X196641774Y-136961976D01*
X196712346Y-136829947D01*
X196755803Y-136686686D01*
X196766800Y-136575033D01*
X196766800Y-136575032D01*
X196770477Y-136537700D01*
X196766800Y-136500367D01*
X196766800Y-136045374D01*
X200534231Y-136045374D01*
X200834411Y-136483828D01*
X201413356Y-136794296D01*
X202041746Y-136985852D01*
X202695431Y-137051134D01*
X203349293Y-136987634D01*
X203978203Y-136797792D01*
X204557992Y-136488904D01*
X204565589Y-136483828D01*
X204865769Y-136045374D01*
X202700000Y-133879605D01*
X200534231Y-136045374D01*
X196766800Y-136045374D01*
X196766800Y-134879725D01*
X196770476Y-134842400D01*
X196766800Y-134805075D01*
X196766800Y-134805067D01*
X196755803Y-134693414D01*
X196712346Y-134550153D01*
X196641774Y-134418124D01*
X196546801Y-134302399D01*
X196517803Y-134278601D01*
X195934633Y-133695431D01*
X199348866Y-133695431D01*
X199412366Y-134349293D01*
X199602208Y-134978203D01*
X199911096Y-135557992D01*
X199916172Y-135565589D01*
X200354626Y-135865769D01*
X202520395Y-133700000D01*
X202879605Y-133700000D01*
X205045374Y-135865769D01*
X205483828Y-135565589D01*
X205794296Y-134986644D01*
X205985852Y-134358254D01*
X206051134Y-133704569D01*
X205987634Y-133050707D01*
X205797792Y-132421797D01*
X205488904Y-131842008D01*
X205483828Y-131834411D01*
X205045374Y-131534231D01*
X202879605Y-133700000D01*
X202520395Y-133700000D01*
X200354626Y-131534231D01*
X199916172Y-131834411D01*
X199605704Y-132413356D01*
X199414148Y-133041746D01*
X199348866Y-133695431D01*
X195934633Y-133695431D01*
X193593828Y-131354626D01*
X200534231Y-131354626D01*
X202700000Y-133520395D01*
X204865769Y-131354626D01*
X204565589Y-130916172D01*
X203986644Y-130605704D01*
X203358254Y-130414148D01*
X202704569Y-130348866D01*
X202050707Y-130412366D01*
X201421797Y-130602208D01*
X200842008Y-130911096D01*
X200834411Y-130916172D01*
X200534231Y-131354626D01*
X193593828Y-131354626D01*
X192720004Y-130480803D01*
X192696201Y-130451799D01*
X192580476Y-130356826D01*
X192448447Y-130286254D01*
X192305186Y-130242797D01*
X192193533Y-130231800D01*
X192193522Y-130231800D01*
X192156200Y-130228124D01*
X192118878Y-130231800D01*
X191801211Y-130231800D01*
X191757274Y-130187863D01*
X191587756Y-130074595D01*
X191399398Y-129996574D01*
X191199439Y-129956800D01*
X190995561Y-129956800D01*
X190795602Y-129996574D01*
X190607244Y-130074595D01*
X190437726Y-130187863D01*
X190293563Y-130332026D01*
X190180295Y-130501544D01*
X190102274Y-130689902D01*
X190062500Y-130889861D01*
X190062500Y-131093739D01*
X190071528Y-131139127D01*
X189390300Y-130457899D01*
X189390300Y-130395761D01*
X189350526Y-130195802D01*
X189272505Y-130007444D01*
X189159237Y-129837926D01*
X189015074Y-129693763D01*
X188845556Y-129580495D01*
X188657198Y-129502474D01*
X188457239Y-129462700D01*
X188253361Y-129462700D01*
X188053402Y-129502474D01*
X187865044Y-129580495D01*
X187695526Y-129693763D01*
X187551363Y-129837926D01*
X187438095Y-130007444D01*
X187360074Y-130195802D01*
X187320300Y-130395761D01*
X187320300Y-130599639D01*
X187360074Y-130799598D01*
X187438095Y-130987956D01*
X187551363Y-131157474D01*
X187695526Y-131301637D01*
X187865044Y-131414905D01*
X188053402Y-131492926D01*
X188253361Y-131532700D01*
X188315499Y-131532700D01*
X192444205Y-135661408D01*
X192467999Y-135690401D01*
X192496992Y-135714195D01*
X192496996Y-135714199D01*
X192552774Y-135759974D01*
X192583724Y-135785374D01*
X192715753Y-135855946D01*
X192859014Y-135899403D01*
X192970667Y-135910400D01*
X192970676Y-135910400D01*
X193007999Y-135914076D01*
X193045322Y-135910400D01*
X194101198Y-135910400D01*
X193485405Y-136526194D01*
X193426774Y-136467563D01*
X193257256Y-136354295D01*
X193068898Y-136276274D01*
X192868939Y-136236500D01*
X192665061Y-136236500D01*
X192465102Y-136276274D01*
X192276744Y-136354295D01*
X192107226Y-136467563D01*
X191963063Y-136611726D01*
X191849795Y-136781244D01*
X191771774Y-136969602D01*
X191732000Y-137169561D01*
X191732000Y-137231698D01*
X190103799Y-138859900D01*
X188863838Y-138859900D01*
X188870000Y-138797333D01*
X188870000Y-138797324D01*
X188873676Y-138760001D01*
X188870000Y-138722678D01*
X188870000Y-133682533D01*
X188873677Y-133645200D01*
X188859003Y-133496214D01*
X188815546Y-133352953D01*
X188744974Y-133220924D01*
X188724533Y-133196016D01*
X188650001Y-133105199D01*
X188621003Y-133081401D01*
X186713900Y-131174299D01*
X186713900Y-131112161D01*
X186674126Y-130912202D01*
X186596105Y-130723844D01*
X186482837Y-130554326D01*
X186399706Y-130471195D01*
X187476602Y-129394300D01*
X192884189Y-129394300D01*
X192928126Y-129438237D01*
X193097644Y-129551505D01*
X193286002Y-129629526D01*
X193485961Y-129669300D01*
X193689839Y-129669300D01*
X193889798Y-129629526D01*
X194078156Y-129551505D01*
X194247674Y-129438237D01*
X194391837Y-129294074D01*
X194505105Y-129124556D01*
X194583126Y-128936198D01*
X194622900Y-128736239D01*
X194622900Y-128532361D01*
X194583126Y-128332402D01*
X194505105Y-128144044D01*
X194391837Y-127974526D01*
X194247674Y-127830363D01*
X194078156Y-127717095D01*
X193889798Y-127639074D01*
X193689839Y-127599300D01*
X193485961Y-127599300D01*
X193286002Y-127639074D01*
X193097644Y-127717095D01*
X192928126Y-127830363D01*
X192884189Y-127874300D01*
X187199122Y-127874300D01*
X187161799Y-127870624D01*
X187124476Y-127874300D01*
X187124467Y-127874300D01*
X187012814Y-127885297D01*
X186876281Y-127926713D01*
X186869553Y-127928754D01*
X186737523Y-127999326D01*
X186675346Y-128050354D01*
X186621799Y-128094299D01*
X186598001Y-128123297D01*
X184111598Y-130609701D01*
X184082600Y-130633499D01*
X184058802Y-130662497D01*
X184058801Y-130662498D01*
X183987626Y-130749224D01*
X183917054Y-130881254D01*
X183892444Y-130962385D01*
X183873598Y-131024514D01*
X183862903Y-131133103D01*
X183858924Y-131173500D01*
X183862601Y-131210832D01*
X183862601Y-132359130D01*
X182897432Y-132359130D01*
X181594600Y-131056299D01*
X181594600Y-130994161D01*
X181554826Y-130794202D01*
X181476805Y-130605844D01*
X181363537Y-130436326D01*
X181219374Y-130292163D01*
X181049856Y-130178895D01*
X180861498Y-130100874D01*
X180661539Y-130061100D01*
X180457661Y-130061100D01*
X180257702Y-130100874D01*
X180093494Y-130168891D01*
X177309601Y-127385000D01*
X207015001Y-127385000D01*
X207015000Y-141015000D01*
G37*
X207015000Y-141015000D02*
X192604301Y-141015000D01*
X194195302Y-139424000D01*
X194257439Y-139424000D01*
X194457398Y-139384226D01*
X194645756Y-139306205D01*
X194815274Y-139192937D01*
X194959437Y-139048774D01*
X195072705Y-138879256D01*
X195150726Y-138690898D01*
X195190500Y-138490939D01*
X195190500Y-138428801D01*
X196517804Y-137101498D01*
X196546801Y-137077701D01*
X196641774Y-136961976D01*
X196712346Y-136829947D01*
X196755803Y-136686686D01*
X196766800Y-136575033D01*
X196766800Y-136575032D01*
X196770477Y-136537700D01*
X196766800Y-136500367D01*
X196766800Y-136045374D01*
X200534231Y-136045374D01*
X200834411Y-136483828D01*
X201413356Y-136794296D01*
X202041746Y-136985852D01*
X202695431Y-137051134D01*
X203349293Y-136987634D01*
X203978203Y-136797792D01*
X204557992Y-136488904D01*
X204565589Y-136483828D01*
X204865769Y-136045374D01*
X202700000Y-133879605D01*
X200534231Y-136045374D01*
X196766800Y-136045374D01*
X196766800Y-134879725D01*
X196770476Y-134842400D01*
X196766800Y-134805075D01*
X196766800Y-134805067D01*
X196755803Y-134693414D01*
X196712346Y-134550153D01*
X196641774Y-134418124D01*
X196546801Y-134302399D01*
X196517803Y-134278601D01*
X195934633Y-133695431D01*
X199348866Y-133695431D01*
X199412366Y-134349293D01*
X199602208Y-134978203D01*
X199911096Y-135557992D01*
X199916172Y-135565589D01*
X200354626Y-135865769D01*
X202520395Y-133700000D01*
X202879605Y-133700000D01*
X205045374Y-135865769D01*
X205483828Y-135565589D01*
X205794296Y-134986644D01*
X205985852Y-134358254D01*
X206051134Y-133704569D01*
X205987634Y-133050707D01*
X205797792Y-132421797D01*
X205488904Y-131842008D01*
X205483828Y-131834411D01*
X205045374Y-131534231D01*
X202879605Y-133700000D01*
X202520395Y-133700000D01*
X200354626Y-131534231D01*
X199916172Y-131834411D01*
X199605704Y-132413356D01*
X199414148Y-133041746D01*
X199348866Y-133695431D01*
X195934633Y-133695431D01*
X193593828Y-131354626D01*
X200534231Y-131354626D01*
X202700000Y-133520395D01*
X204865769Y-131354626D01*
X204565589Y-130916172D01*
X203986644Y-130605704D01*
X203358254Y-130414148D01*
X202704569Y-130348866D01*
X202050707Y-130412366D01*
X201421797Y-130602208D01*
X200842008Y-130911096D01*
X200834411Y-130916172D01*
X200534231Y-131354626D01*
X193593828Y-131354626D01*
X192720004Y-130480803D01*
X192696201Y-130451799D01*
X192580476Y-130356826D01*
X192448447Y-130286254D01*
X192305186Y-130242797D01*
X192193533Y-130231800D01*
X192193522Y-130231800D01*
X192156200Y-130228124D01*
X192118878Y-130231800D01*
X191801211Y-130231800D01*
X191757274Y-130187863D01*
X191587756Y-130074595D01*
X191399398Y-129996574D01*
X191199439Y-129956800D01*
X190995561Y-129956800D01*
X190795602Y-129996574D01*
X190607244Y-130074595D01*
X190437726Y-130187863D01*
X190293563Y-130332026D01*
X190180295Y-130501544D01*
X190102274Y-130689902D01*
X190062500Y-130889861D01*
X190062500Y-131093739D01*
X190071528Y-131139127D01*
X189390300Y-130457899D01*
X189390300Y-130395761D01*
X189350526Y-130195802D01*
X189272505Y-130007444D01*
X189159237Y-129837926D01*
X189015074Y-129693763D01*
X188845556Y-129580495D01*
X188657198Y-129502474D01*
X188457239Y-129462700D01*
X188253361Y-129462700D01*
X188053402Y-129502474D01*
X187865044Y-129580495D01*
X187695526Y-129693763D01*
X187551363Y-129837926D01*
X187438095Y-130007444D01*
X187360074Y-130195802D01*
X187320300Y-130395761D01*
X187320300Y-130599639D01*
X187360074Y-130799598D01*
X187438095Y-130987956D01*
X187551363Y-131157474D01*
X187695526Y-131301637D01*
X187865044Y-131414905D01*
X188053402Y-131492926D01*
X188253361Y-131532700D01*
X188315499Y-131532700D01*
X192444205Y-135661408D01*
X192467999Y-135690401D01*
X192496992Y-135714195D01*
X192496996Y-135714199D01*
X192552774Y-135759974D01*
X192583724Y-135785374D01*
X192715753Y-135855946D01*
X192859014Y-135899403D01*
X192970667Y-135910400D01*
X192970676Y-135910400D01*
X193007999Y-135914076D01*
X193045322Y-135910400D01*
X194101198Y-135910400D01*
X193485405Y-136526194D01*
X193426774Y-136467563D01*
X193257256Y-136354295D01*
X193068898Y-136276274D01*
X192868939Y-136236500D01*
X192665061Y-136236500D01*
X192465102Y-136276274D01*
X192276744Y-136354295D01*
X192107226Y-136467563D01*
X191963063Y-136611726D01*
X191849795Y-136781244D01*
X191771774Y-136969602D01*
X191732000Y-137169561D01*
X191732000Y-137231698D01*
X190103799Y-138859900D01*
X188863838Y-138859900D01*
X188870000Y-138797333D01*
X188870000Y-138797324D01*
X188873676Y-138760001D01*
X188870000Y-138722678D01*
X188870000Y-133682533D01*
X188873677Y-133645200D01*
X188859003Y-133496214D01*
X188815546Y-133352953D01*
X188744974Y-133220924D01*
X188724533Y-133196016D01*
X188650001Y-133105199D01*
X188621003Y-133081401D01*
X186713900Y-131174299D01*
X186713900Y-131112161D01*
X186674126Y-130912202D01*
X186596105Y-130723844D01*
X186482837Y-130554326D01*
X186399706Y-130471195D01*
X187476602Y-129394300D01*
X192884189Y-129394300D01*
X192928126Y-129438237D01*
X193097644Y-129551505D01*
X193286002Y-129629526D01*
X193485961Y-129669300D01*
X193689839Y-129669300D01*
X193889798Y-129629526D01*
X194078156Y-129551505D01*
X194247674Y-129438237D01*
X194391837Y-129294074D01*
X194505105Y-129124556D01*
X194583126Y-128936198D01*
X194622900Y-128736239D01*
X194622900Y-128532361D01*
X194583126Y-128332402D01*
X194505105Y-128144044D01*
X194391837Y-127974526D01*
X194247674Y-127830363D01*
X194078156Y-127717095D01*
X193889798Y-127639074D01*
X193689839Y-127599300D01*
X193485961Y-127599300D01*
X193286002Y-127639074D01*
X193097644Y-127717095D01*
X192928126Y-127830363D01*
X192884189Y-127874300D01*
X187199122Y-127874300D01*
X187161799Y-127870624D01*
X187124476Y-127874300D01*
X187124467Y-127874300D01*
X187012814Y-127885297D01*
X186876281Y-127926713D01*
X186869553Y-127928754D01*
X186737523Y-127999326D01*
X186675346Y-128050354D01*
X186621799Y-128094299D01*
X186598001Y-128123297D01*
X184111598Y-130609701D01*
X184082600Y-130633499D01*
X184058802Y-130662497D01*
X184058801Y-130662498D01*
X183987626Y-130749224D01*
X183917054Y-130881254D01*
X183892444Y-130962385D01*
X183873598Y-131024514D01*
X183862903Y-131133103D01*
X183858924Y-131173500D01*
X183862601Y-131210832D01*
X183862601Y-132359130D01*
X182897432Y-132359130D01*
X181594600Y-131056299D01*
X181594600Y-130994161D01*
X181554826Y-130794202D01*
X181476805Y-130605844D01*
X181363537Y-130436326D01*
X181219374Y-130292163D01*
X181049856Y-130178895D01*
X180861498Y-130100874D01*
X180661539Y-130061100D01*
X180457661Y-130061100D01*
X180257702Y-130100874D01*
X180093494Y-130168891D01*
X177309601Y-127385000D01*
X207015001Y-127385000D01*
X207015000Y-141015000D01*
G36*
X161469463Y-127445506D02*
G01*
X161410498Y-127555820D01*
X161374188Y-127675518D01*
X161361928Y-127800000D01*
X161361928Y-129500000D01*
X161374188Y-129624482D01*
X161410498Y-129744180D01*
X161469463Y-129854494D01*
X161548815Y-129951185D01*
X161645506Y-130030537D01*
X161755820Y-130089502D01*
X161875518Y-130125812D01*
X162000000Y-130138072D01*
X163700000Y-130138072D01*
X163824482Y-130125812D01*
X163944180Y-130089502D01*
X164054494Y-130030537D01*
X164151185Y-129951185D01*
X164230537Y-129854494D01*
X164289502Y-129744180D01*
X164313966Y-129663534D01*
X164389731Y-129747588D01*
X164623080Y-129921641D01*
X164885901Y-130046825D01*
X165033110Y-130091476D01*
X165263000Y-129970155D01*
X165263000Y-128777000D01*
X165243000Y-128777000D01*
X165243000Y-128523000D01*
X165263000Y-128523000D01*
X165263000Y-128503000D01*
X165517000Y-128503000D01*
X165517000Y-128523000D01*
X165537000Y-128523000D01*
X165537000Y-128777000D01*
X165517000Y-128777000D01*
X165517000Y-129970155D01*
X165746890Y-130091476D01*
X165894099Y-130046825D01*
X166156920Y-129921641D01*
X166390269Y-129747588D01*
X166585178Y-129531355D01*
X166654805Y-129414466D01*
X166776525Y-129596632D01*
X166983368Y-129803475D01*
X167226589Y-129965990D01*
X167496842Y-130077932D01*
X167783740Y-130135000D01*
X168076260Y-130135000D01*
X168363158Y-130077932D01*
X168633411Y-129965990D01*
X168840690Y-129827491D01*
X169818905Y-130805708D01*
X169842699Y-130834701D01*
X169871692Y-130858495D01*
X169871696Y-130858499D01*
X169916298Y-130895102D01*
X169958424Y-130929674D01*
X170090453Y-131000246D01*
X170233714Y-131043703D01*
X170345367Y-131054700D01*
X170345376Y-131054700D01*
X170382699Y-131058376D01*
X170420022Y-131054700D01*
X170879276Y-131054700D01*
X169219541Y-132714436D01*
X169091255Y-132727071D01*
X168943418Y-132771916D01*
X168807171Y-132844742D01*
X168687749Y-132942749D01*
X168589742Y-133062171D01*
X168516916Y-133198418D01*
X168472071Y-133346255D01*
X168456928Y-133500000D01*
X168456928Y-135150000D01*
X168472071Y-135303745D01*
X168516916Y-135451582D01*
X168535001Y-135485416D01*
X168535000Y-137915000D01*
X167494886Y-137915000D01*
X167456623Y-137868377D01*
X167323942Y-137759488D01*
X167172567Y-137678577D01*
X167008316Y-137628752D01*
X166837500Y-137611928D01*
X166362500Y-137611928D01*
X166191684Y-137628752D01*
X166027433Y-137678577D01*
X165876058Y-137759488D01*
X165750000Y-137862942D01*
X165623942Y-137759488D01*
X165472567Y-137678577D01*
X165308316Y-137628752D01*
X165137500Y-137611928D01*
X164662500Y-137611928D01*
X164491684Y-137628752D01*
X164327433Y-137678577D01*
X164176058Y-137759488D01*
X164077954Y-137840000D01*
X163976144Y-137840000D01*
X163874180Y-137785498D01*
X163754482Y-137749188D01*
X163630000Y-137736928D01*
X162910000Y-137736928D01*
X162910000Y-132198061D01*
X165915000Y-132198061D01*
X165915000Y-132401939D01*
X165954774Y-132601898D01*
X166032795Y-132790256D01*
X166146063Y-132959774D01*
X166290226Y-133103937D01*
X166459744Y-133217205D01*
X166648102Y-133295226D01*
X166848061Y-133335000D01*
X167051939Y-133335000D01*
X167251898Y-133295226D01*
X167440256Y-133217205D01*
X167609774Y-133103937D01*
X167753937Y-132959774D01*
X167867205Y-132790256D01*
X167945226Y-132601898D01*
X167985000Y-132401939D01*
X167985000Y-132198061D01*
X167945226Y-131998102D01*
X167867205Y-131809744D01*
X167753937Y-131640226D01*
X167609774Y-131496063D01*
X167440256Y-131382795D01*
X167251898Y-131304774D01*
X167051939Y-131265000D01*
X166848061Y-131265000D01*
X166648102Y-131304774D01*
X166459744Y-131382795D01*
X166290226Y-131496063D01*
X166146063Y-131640226D01*
X166032795Y-131809744D01*
X165954774Y-131998102D01*
X165915000Y-132198061D01*
X162910000Y-132198061D01*
X162910000Y-132192238D01*
X162914160Y-132149999D01*
X162910000Y-132107760D01*
X162910000Y-132107754D01*
X162897556Y-131981411D01*
X162897556Y-131981409D01*
X162871890Y-131896800D01*
X162848381Y-131819300D01*
X162768524Y-131669898D01*
X162661054Y-131538946D01*
X162628242Y-131512018D01*
X161715314Y-130599090D01*
X161695226Y-130498102D01*
X161617205Y-130309744D01*
X161503937Y-130140226D01*
X161359774Y-129996063D01*
X161190256Y-129882795D01*
X161001898Y-129804774D01*
X160801939Y-129765000D01*
X160598061Y-129765000D01*
X160398102Y-129804774D01*
X160209744Y-129882795D01*
X160056201Y-129985389D01*
X160026185Y-129948815D01*
X159929494Y-129869463D01*
X159819180Y-129810498D01*
X159699482Y-129774188D01*
X159575000Y-129761928D01*
X156716400Y-129761928D01*
X156716400Y-129695961D01*
X156676626Y-129496002D01*
X156598605Y-129307644D01*
X156485337Y-129138126D01*
X156341174Y-128993963D01*
X156171656Y-128880695D01*
X155983298Y-128802674D01*
X155783339Y-128762900D01*
X155579461Y-128762900D01*
X155379502Y-128802674D01*
X155191144Y-128880695D01*
X155021626Y-128993963D01*
X154877463Y-129138126D01*
X154764195Y-129307644D01*
X154686174Y-129496002D01*
X154646400Y-129695961D01*
X154646400Y-129761928D01*
X151403151Y-129761928D01*
X150588072Y-128946849D01*
X150588072Y-128762500D01*
X150571248Y-128591684D01*
X150521423Y-128427433D01*
X150440512Y-128276058D01*
X150331623Y-128143377D01*
X150198942Y-128034488D01*
X150047567Y-127953577D01*
X149883316Y-127903752D01*
X149712500Y-127886928D01*
X149137500Y-127886928D01*
X148966684Y-127903752D01*
X148802433Y-127953577D01*
X148651058Y-128034488D01*
X148627161Y-128054099D01*
X148554494Y-127994463D01*
X148444180Y-127935498D01*
X148324482Y-127899188D01*
X148200000Y-127886928D01*
X147960750Y-127890000D01*
X147802000Y-128048750D01*
X147802000Y-128873000D01*
X147822000Y-128873000D01*
X147822000Y-129127000D01*
X147802000Y-129127000D01*
X147802000Y-129951250D01*
X147960750Y-130110000D01*
X148200000Y-130113072D01*
X148324482Y-130100812D01*
X148444180Y-130064502D01*
X148554494Y-130005537D01*
X148627161Y-129945901D01*
X148651058Y-129965512D01*
X148802433Y-130046423D01*
X148966684Y-130096248D01*
X149137500Y-130113072D01*
X149321849Y-130113072D01*
X149543370Y-130334593D01*
X149536928Y-130400000D01*
X149536928Y-141015000D01*
X142776398Y-141015000D01*
X142805537Y-140979494D01*
X142864502Y-140869180D01*
X142900812Y-140749482D01*
X142913072Y-140625000D01*
X142910000Y-140385750D01*
X142751250Y-140227000D01*
X141927000Y-140227000D01*
X141927000Y-140247000D01*
X141673000Y-140247000D01*
X141673000Y-140227000D01*
X140848750Y-140227000D01*
X140690000Y-140385750D01*
X140686928Y-140625000D01*
X140699188Y-140749482D01*
X140735498Y-140869180D01*
X140794463Y-140979494D01*
X140823602Y-141015000D01*
X139926398Y-141015000D01*
X139955537Y-140979494D01*
X140014502Y-140869180D01*
X140050812Y-140749482D01*
X140063072Y-140625000D01*
X140060000Y-140385750D01*
X139901250Y-140227000D01*
X139077000Y-140227000D01*
X139077000Y-140247000D01*
X138823000Y-140247000D01*
X138823000Y-140227000D01*
X137998750Y-140227000D01*
X137840000Y-140385750D01*
X137836928Y-140625000D01*
X137849188Y-140749482D01*
X137885498Y-140869180D01*
X137944463Y-140979494D01*
X137973602Y-141015000D01*
X137076398Y-141015000D01*
X137105537Y-140979494D01*
X137164502Y-140869180D01*
X137200812Y-140749482D01*
X137213072Y-140625000D01*
X137210000Y-140385750D01*
X137051250Y-140227000D01*
X136227000Y-140227000D01*
X136227000Y-140247000D01*
X135973000Y-140247000D01*
X135973000Y-140227000D01*
X135148750Y-140227000D01*
X134990000Y-140385750D01*
X134986928Y-140625000D01*
X134999188Y-140749482D01*
X135035498Y-140869180D01*
X135094463Y-140979494D01*
X135123602Y-141015000D01*
X108385000Y-141015000D01*
X108385000Y-137250701D01*
X126164228Y-137250701D01*
X126164228Y-138749301D01*
X126176488Y-138873783D01*
X126212798Y-138993481D01*
X126271763Y-139103795D01*
X126351115Y-139200486D01*
X126447806Y-139279838D01*
X126558120Y-139338803D01*
X126677818Y-139375113D01*
X126802300Y-139387373D01*
X128097700Y-139387373D01*
X128222182Y-139375113D01*
X128341880Y-139338803D01*
X128452194Y-139279838D01*
X128548885Y-139200486D01*
X128628237Y-139103795D01*
X128687202Y-138993481D01*
X128723512Y-138873783D01*
X128735772Y-138749301D01*
X128735772Y-138327150D01*
X131288307Y-138327150D01*
X131356553Y-138568960D01*
X131470662Y-138792810D01*
X131626249Y-138990097D01*
X131817336Y-139153240D01*
X132036579Y-139275969D01*
X132224891Y-139342416D01*
X132423000Y-139218353D01*
X132423000Y-138127001D01*
X132677000Y-138127001D01*
X132677000Y-139218353D01*
X132875109Y-139342416D01*
X133063421Y-139275969D01*
X133282664Y-139153240D01*
X133473751Y-138990097D01*
X133629338Y-138792810D01*
X133743447Y-138568960D01*
X133811693Y-138327150D01*
X133672693Y-138127001D01*
X132677000Y-138127001D01*
X132423000Y-138127001D01*
X131427307Y-138127001D01*
X131288307Y-138327150D01*
X128735772Y-138327150D01*
X128735772Y-137560000D01*
X131320157Y-137560000D01*
X131288307Y-137672852D01*
X131427307Y-137873001D01*
X132423000Y-137873001D01*
X132423000Y-137853001D01*
X132677000Y-137853001D01*
X132677000Y-137873001D01*
X133672693Y-137873001D01*
X133811693Y-137672852D01*
X133779843Y-137560000D01*
X134618777Y-137560000D01*
X134998974Y-137940197D01*
X134986928Y-138062500D01*
X134986928Y-138637500D01*
X135003752Y-138808316D01*
X135053577Y-138972567D01*
X135134488Y-139123942D01*
X135154099Y-139147839D01*
X135094463Y-139220506D01*
X135035498Y-139330820D01*
X134999188Y-139450518D01*
X134986928Y-139575000D01*
X134990000Y-139814250D01*
X135148750Y-139973000D01*
X135973000Y-139973000D01*
X135973000Y-139953000D01*
X136227000Y-139953000D01*
X136227000Y-139973000D01*
X137051250Y-139973000D01*
X137210000Y-139814250D01*
X137213072Y-139575000D01*
X137200812Y-139450518D01*
X137164502Y-139330820D01*
X137105537Y-139220506D01*
X137096915Y-139210000D01*
X137953085Y-139210000D01*
X137944463Y-139220506D01*
X137885498Y-139330820D01*
X137849188Y-139450518D01*
X137836928Y-139575000D01*
X137840000Y-139814250D01*
X137998750Y-139973000D01*
X138823000Y-139973000D01*
X138823000Y-139953000D01*
X139077000Y-139953000D01*
X139077000Y-139973000D01*
X139901250Y-139973000D01*
X140060000Y-139814250D01*
X140063072Y-139575000D01*
X140050812Y-139450518D01*
X140014502Y-139330820D01*
X139955537Y-139220506D01*
X139946915Y-139210000D01*
X140803085Y-139210000D01*
X140794463Y-139220506D01*
X140735498Y-139330820D01*
X140699188Y-139450518D01*
X140686928Y-139575000D01*
X140690000Y-139814250D01*
X140848750Y-139973000D01*
X141673000Y-139973000D01*
X141673000Y-139953000D01*
X141927000Y-139953000D01*
X141927000Y-139973000D01*
X142751250Y-139973000D01*
X142910000Y-139814250D01*
X142913072Y-139575000D01*
X142900812Y-139450518D01*
X142864502Y-139330820D01*
X142805537Y-139220506D01*
X142788708Y-139200000D01*
X142870680Y-139200000D01*
X142894463Y-139244494D01*
X142973815Y-139341185D01*
X143070506Y-139420537D01*
X143180820Y-139479502D01*
X143300518Y-139515812D01*
X143425000Y-139528072D01*
X148025000Y-139528072D01*
X148149482Y-139515812D01*
X148269180Y-139479502D01*
X148379494Y-139420537D01*
X148476185Y-139341185D01*
X148555537Y-139244494D01*
X148614502Y-139134180D01*
X148650812Y-139014482D01*
X148663072Y-138890000D01*
X148663072Y-137790000D01*
X148650812Y-137665518D01*
X148614502Y-137545820D01*
X148555537Y-137435506D01*
X148476185Y-137338815D01*
X148379494Y-137259463D01*
X148269180Y-137200498D01*
X148149482Y-137164188D01*
X148025000Y-137151928D01*
X143425000Y-137151928D01*
X143300518Y-137164188D01*
X143180820Y-137200498D01*
X143070506Y-137259463D01*
X142973815Y-137338815D01*
X142894463Y-137435506D01*
X142870680Y-137480000D01*
X142686679Y-137480000D01*
X142656623Y-137443377D01*
X142523942Y-137334488D01*
X142372567Y-137253577D01*
X142208316Y-137203752D01*
X142037500Y-137186928D01*
X141562500Y-137186928D01*
X141391684Y-137203752D01*
X141227433Y-137253577D01*
X141076058Y-137334488D01*
X140943377Y-137443377D01*
X140905114Y-137490000D01*
X139844886Y-137490000D01*
X139806623Y-137443377D01*
X139673942Y-137334488D01*
X139522567Y-137253577D01*
X139358316Y-137203752D01*
X139187500Y-137186928D01*
X138712500Y-137186928D01*
X138541684Y-137203752D01*
X138377433Y-137253577D01*
X138226058Y-137334488D01*
X138093377Y-137443377D01*
X138055114Y-137490000D01*
X136994886Y-137490000D01*
X136956623Y-137443377D01*
X136823942Y-137334488D01*
X136799071Y-137321194D01*
X136745321Y-137255700D01*
X136737984Y-137246760D01*
X136737983Y-137246759D01*
X136711054Y-137213946D01*
X136678242Y-137187018D01*
X135612988Y-136121765D01*
X135586054Y-136088946D01*
X135455102Y-135981476D01*
X135305700Y-135901619D01*
X135143589Y-135852444D01*
X135017246Y-135840000D01*
X135017239Y-135840000D01*
X134975000Y-135835840D01*
X134932761Y-135840000D01*
X127492246Y-135840000D01*
X127450000Y-135835839D01*
X127407754Y-135840000D01*
X127281411Y-135852444D01*
X127119300Y-135901619D01*
X126969898Y-135981476D01*
X126838946Y-136088946D01*
X126731476Y-136219898D01*
X126651619Y-136369300D01*
X126602444Y-136531411D01*
X126590632Y-136651337D01*
X126558120Y-136661199D01*
X126447806Y-136720164D01*
X126351115Y-136799516D01*
X126271763Y-136896207D01*
X126212798Y-137006521D01*
X126176488Y-137126219D01*
X126164228Y-137250701D01*
X108385000Y-137250701D01*
X108385000Y-136045374D01*
X110534231Y-136045374D01*
X110834411Y-136483828D01*
X111413356Y-136794296D01*
X112041746Y-136985852D01*
X112695431Y-137051134D01*
X113349293Y-136987634D01*
X113978203Y-136797792D01*
X114557992Y-136488904D01*
X114565589Y-136483828D01*
X114865769Y-136045374D01*
X112700000Y-133879605D01*
X110534231Y-136045374D01*
X108385000Y-136045374D01*
X108385000Y-133695431D01*
X109348866Y-133695431D01*
X109412366Y-134349293D01*
X109602208Y-134978203D01*
X109911096Y-135557992D01*
X109916172Y-135565589D01*
X110354626Y-135865769D01*
X112520395Y-133700000D01*
X112879605Y-133700000D01*
X115045374Y-135865769D01*
X115483828Y-135565589D01*
X115653067Y-135250000D01*
X142786928Y-135250000D01*
X142786928Y-136350000D01*
X142799188Y-136474482D01*
X142835498Y-136594180D01*
X142894463Y-136704494D01*
X142973815Y-136801185D01*
X143070506Y-136880537D01*
X143180820Y-136939502D01*
X143300518Y-136975812D01*
X143425000Y-136988072D01*
X148025000Y-136988072D01*
X148149482Y-136975812D01*
X148269180Y-136939502D01*
X148379494Y-136880537D01*
X148476185Y-136801185D01*
X148555537Y-136704494D01*
X148614502Y-136594180D01*
X148650812Y-136474482D01*
X148663072Y-136350000D01*
X148663072Y-135250000D01*
X148650812Y-135125518D01*
X148614502Y-135005820D01*
X148555537Y-134895506D01*
X148476185Y-134798815D01*
X148379494Y-134719463D01*
X148269180Y-134660498D01*
X148149482Y-134624188D01*
X148025000Y-134611928D01*
X143425000Y-134611928D01*
X143300518Y-134624188D01*
X143180820Y-134660498D01*
X143070506Y-134719463D01*
X142973815Y-134798815D01*
X142894463Y-134895506D01*
X142835498Y-135005820D01*
X142799188Y-135125518D01*
X142786928Y-135250000D01*
X115653067Y-135250000D01*
X115794296Y-134986644D01*
X115985852Y-134358254D01*
X116051134Y-133704569D01*
X115987634Y-133050707D01*
X115797792Y-132421797D01*
X115488904Y-131842008D01*
X115483828Y-131834411D01*
X115045374Y-131534231D01*
X112879605Y-133700000D01*
X112520395Y-133700000D01*
X110354626Y-131534231D01*
X109916172Y-131834411D01*
X109605704Y-132413356D01*
X109414148Y-133041746D01*
X109348866Y-133695431D01*
X108385000Y-133695431D01*
X108385000Y-131354626D01*
X110534231Y-131354626D01*
X112700000Y-133520395D01*
X114865769Y-131354626D01*
X114565589Y-130916172D01*
X113986644Y-130605704D01*
X113358254Y-130414148D01*
X112704569Y-130348866D01*
X112050707Y-130412366D01*
X111421797Y-130602208D01*
X110842008Y-130911096D01*
X110834411Y-130916172D01*
X110534231Y-131354626D01*
X108385000Y-131354626D01*
X108385000Y-128935390D01*
X126167300Y-128935390D01*
X126167300Y-129264609D01*
X126185860Y-129453052D01*
X126259206Y-129694842D01*
X126378314Y-129917677D01*
X126538607Y-130112993D01*
X126565001Y-130134654D01*
X126565000Y-132649130D01*
X126507795Y-132734744D01*
X126429774Y-132923102D01*
X126390000Y-133123061D01*
X126390000Y-133326939D01*
X126429774Y-133526898D01*
X126507795Y-133715256D01*
X126621063Y-133884774D01*
X126765226Y-134028937D01*
X126934744Y-134142205D01*
X127123102Y-134220226D01*
X127323061Y-134260000D01*
X127526939Y-134260000D01*
X127726898Y-134220226D01*
X127915256Y-134142205D01*
X128084774Y-134028937D01*
X128228937Y-133884774D01*
X128278899Y-133810000D01*
X142786928Y-133810000D01*
X142799188Y-133934482D01*
X142835498Y-134054180D01*
X142894463Y-134164494D01*
X142973815Y-134261185D01*
X143070506Y-134340537D01*
X143180820Y-134399502D01*
X143300518Y-134435812D01*
X143425000Y-134448072D01*
X145439250Y-134445000D01*
X145598000Y-134286250D01*
X145598000Y-133387000D01*
X145852000Y-133387000D01*
X145852000Y-134286250D01*
X146010750Y-134445000D01*
X148025000Y-134448072D01*
X148149482Y-134435812D01*
X148269180Y-134399502D01*
X148379494Y-134340537D01*
X148476185Y-134261185D01*
X148555537Y-134164494D01*
X148614502Y-134054180D01*
X148650812Y-133934482D01*
X148663072Y-133810000D01*
X148660000Y-133545750D01*
X148501250Y-133387000D01*
X145852000Y-133387000D01*
X145598000Y-133387000D01*
X142948750Y-133387000D01*
X142790000Y-133545750D01*
X142786928Y-133810000D01*
X128278899Y-133810000D01*
X128342205Y-133715256D01*
X128420226Y-133526898D01*
X128460000Y-133326939D01*
X128460000Y-133123061D01*
X128420226Y-132923102D01*
X128342205Y-132734744D01*
X128325672Y-132710000D01*
X142786928Y-132710000D01*
X142790000Y-132974250D01*
X142948750Y-133133000D01*
X145598000Y-133133000D01*
X145598000Y-132233750D01*
X145852000Y-132233750D01*
X145852000Y-133133000D01*
X148501250Y-133133000D01*
X148660000Y-132974250D01*
X148663072Y-132710000D01*
X148650812Y-132585518D01*
X148614502Y-132465820D01*
X148555537Y-132355506D01*
X148476185Y-132258815D01*
X148379494Y-132179463D01*
X148269180Y-132120498D01*
X148149482Y-132084188D01*
X148025000Y-132071928D01*
X146010750Y-132075000D01*
X145852000Y-132233750D01*
X145598000Y-132233750D01*
X145439250Y-132075000D01*
X143425000Y-132071928D01*
X143300518Y-132084188D01*
X143180820Y-132120498D01*
X143070506Y-132179463D01*
X142973815Y-132258815D01*
X142894463Y-132355506D01*
X142835498Y-132465820D01*
X142799188Y-132585518D01*
X142786928Y-132710000D01*
X128325672Y-132710000D01*
X128285000Y-132649130D01*
X128285000Y-130175688D01*
X128361394Y-130112993D01*
X128521686Y-129917676D01*
X128640794Y-129694841D01*
X128714140Y-129453051D01*
X128732700Y-129264608D01*
X128732700Y-128935390D01*
X131267300Y-128935390D01*
X131267300Y-129264609D01*
X131285860Y-129453052D01*
X131359206Y-129694842D01*
X131478314Y-129917677D01*
X131638607Y-130112993D01*
X131681963Y-130148574D01*
X131657795Y-130184744D01*
X131579774Y-130373102D01*
X131540000Y-130573061D01*
X131540000Y-130776939D01*
X131579774Y-130976898D01*
X131657795Y-131165256D01*
X131771063Y-131334774D01*
X131915226Y-131478937D01*
X132084744Y-131592205D01*
X132273102Y-131670226D01*
X132473061Y-131710000D01*
X132676939Y-131710000D01*
X132876898Y-131670226D01*
X133065256Y-131592205D01*
X133234774Y-131478937D01*
X133378937Y-131334774D01*
X133492205Y-131165256D01*
X133570226Y-130976898D01*
X133610000Y-130776939D01*
X133610000Y-130573061D01*
X133570226Y-130373102D01*
X133492205Y-130184744D01*
X133450330Y-130122073D01*
X133461394Y-130112993D01*
X133621686Y-129917676D01*
X133740794Y-129694841D01*
X133807481Y-129475000D01*
X146511928Y-129475000D01*
X146524188Y-129599482D01*
X146560498Y-129719180D01*
X146619463Y-129829494D01*
X146698815Y-129926185D01*
X146795506Y-130005537D01*
X146905820Y-130064502D01*
X147025518Y-130100812D01*
X147150000Y-130113072D01*
X147389250Y-130110000D01*
X147548000Y-129951250D01*
X147548000Y-129127000D01*
X146673750Y-129127000D01*
X146515000Y-129285750D01*
X146511928Y-129475000D01*
X133807481Y-129475000D01*
X133814140Y-129453051D01*
X133832700Y-129264608D01*
X133832700Y-128935389D01*
X133814140Y-128746946D01*
X133746814Y-128525000D01*
X146511928Y-128525000D01*
X146515000Y-128714250D01*
X146673750Y-128873000D01*
X147548000Y-128873000D01*
X147548000Y-128048750D01*
X147389250Y-127890000D01*
X147150000Y-127886928D01*
X147025518Y-127899188D01*
X146905820Y-127935498D01*
X146795506Y-127994463D01*
X146698815Y-128073815D01*
X146619463Y-128170506D01*
X146560498Y-128280820D01*
X146524188Y-128400518D01*
X146511928Y-128525000D01*
X133746814Y-128525000D01*
X133740794Y-128505156D01*
X133621686Y-128282321D01*
X133461394Y-128087005D01*
X133266077Y-127926713D01*
X133043242Y-127807605D01*
X132801452Y-127734259D01*
X132550000Y-127709493D01*
X132298547Y-127734259D01*
X132056757Y-127807605D01*
X131833922Y-127926713D01*
X131638606Y-128087005D01*
X131478314Y-128282322D01*
X131359206Y-128505157D01*
X131285860Y-128746947D01*
X131267300Y-128935390D01*
X128732700Y-128935390D01*
X128732700Y-128935389D01*
X128714140Y-128746946D01*
X128640794Y-128505156D01*
X128521686Y-128282321D01*
X128361394Y-128087005D01*
X128166077Y-127926713D01*
X127943242Y-127807605D01*
X127701452Y-127734259D01*
X127450000Y-127709493D01*
X127198547Y-127734259D01*
X126956757Y-127807605D01*
X126733922Y-127926713D01*
X126538606Y-128087005D01*
X126378314Y-128282322D01*
X126259206Y-128505157D01*
X126185860Y-128746947D01*
X126167300Y-128935390D01*
X108385000Y-128935390D01*
X108385000Y-127385000D01*
X161519119Y-127385000D01*
X161469463Y-127445506D01*
G37*
X161469463Y-127445506D02*
X161410498Y-127555820D01*
X161374188Y-127675518D01*
X161361928Y-127800000D01*
X161361928Y-129500000D01*
X161374188Y-129624482D01*
X161410498Y-129744180D01*
X161469463Y-129854494D01*
X161548815Y-129951185D01*
X161645506Y-130030537D01*
X161755820Y-130089502D01*
X161875518Y-130125812D01*
X162000000Y-130138072D01*
X163700000Y-130138072D01*
X163824482Y-130125812D01*
X163944180Y-130089502D01*
X164054494Y-130030537D01*
X164151185Y-129951185D01*
X164230537Y-129854494D01*
X164289502Y-129744180D01*
X164313966Y-129663534D01*
X164389731Y-129747588D01*
X164623080Y-129921641D01*
X164885901Y-130046825D01*
X165033110Y-130091476D01*
X165263000Y-129970155D01*
X165263000Y-128777000D01*
X165243000Y-128777000D01*
X165243000Y-128523000D01*
X165263000Y-128523000D01*
X165263000Y-128503000D01*
X165517000Y-128503000D01*
X165517000Y-128523000D01*
X165537000Y-128523000D01*
X165537000Y-128777000D01*
X165517000Y-128777000D01*
X165517000Y-129970155D01*
X165746890Y-130091476D01*
X165894099Y-130046825D01*
X166156920Y-129921641D01*
X166390269Y-129747588D01*
X166585178Y-129531355D01*
X166654805Y-129414466D01*
X166776525Y-129596632D01*
X166983368Y-129803475D01*
X167226589Y-129965990D01*
X167496842Y-130077932D01*
X167783740Y-130135000D01*
X168076260Y-130135000D01*
X168363158Y-130077932D01*
X168633411Y-129965990D01*
X168840690Y-129827491D01*
X169818905Y-130805708D01*
X169842699Y-130834701D01*
X169871692Y-130858495D01*
X169871696Y-130858499D01*
X169916298Y-130895102D01*
X169958424Y-130929674D01*
X170090453Y-131000246D01*
X170233714Y-131043703D01*
X170345367Y-131054700D01*
X170345376Y-131054700D01*
X170382699Y-131058376D01*
X170420022Y-131054700D01*
X170879276Y-131054700D01*
X169219541Y-132714436D01*
X169091255Y-132727071D01*
X168943418Y-132771916D01*
X168807171Y-132844742D01*
X168687749Y-132942749D01*
X168589742Y-133062171D01*
X168516916Y-133198418D01*
X168472071Y-133346255D01*
X168456928Y-133500000D01*
X168456928Y-135150000D01*
X168472071Y-135303745D01*
X168516916Y-135451582D01*
X168535001Y-135485416D01*
X168535000Y-137915000D01*
X167494886Y-137915000D01*
X167456623Y-137868377D01*
X167323942Y-137759488D01*
X167172567Y-137678577D01*
X167008316Y-137628752D01*
X166837500Y-137611928D01*
X166362500Y-137611928D01*
X166191684Y-137628752D01*
X166027433Y-137678577D01*
X165876058Y-137759488D01*
X165750000Y-137862942D01*
X165623942Y-137759488D01*
X165472567Y-137678577D01*
X165308316Y-137628752D01*
X165137500Y-137611928D01*
X164662500Y-137611928D01*
X164491684Y-137628752D01*
X164327433Y-137678577D01*
X164176058Y-137759488D01*
X164077954Y-137840000D01*
X163976144Y-137840000D01*
X163874180Y-137785498D01*
X163754482Y-137749188D01*
X163630000Y-137736928D01*
X162910000Y-137736928D01*
X162910000Y-132198061D01*
X165915000Y-132198061D01*
X165915000Y-132401939D01*
X165954774Y-132601898D01*
X166032795Y-132790256D01*
X166146063Y-132959774D01*
X166290226Y-133103937D01*
X166459744Y-133217205D01*
X166648102Y-133295226D01*
X166848061Y-133335000D01*
X167051939Y-133335000D01*
X167251898Y-133295226D01*
X167440256Y-133217205D01*
X167609774Y-133103937D01*
X167753937Y-132959774D01*
X167867205Y-132790256D01*
X167945226Y-132601898D01*
X167985000Y-132401939D01*
X167985000Y-132198061D01*
X167945226Y-131998102D01*
X167867205Y-131809744D01*
X167753937Y-131640226D01*
X167609774Y-131496063D01*
X167440256Y-131382795D01*
X167251898Y-131304774D01*
X167051939Y-131265000D01*
X166848061Y-131265000D01*
X166648102Y-131304774D01*
X166459744Y-131382795D01*
X166290226Y-131496063D01*
X166146063Y-131640226D01*
X166032795Y-131809744D01*
X165954774Y-131998102D01*
X165915000Y-132198061D01*
X162910000Y-132198061D01*
X162910000Y-132192238D01*
X162914160Y-132149999D01*
X162910000Y-132107760D01*
X162910000Y-132107754D01*
X162897556Y-131981411D01*
X162897556Y-131981409D01*
X162871890Y-131896800D01*
X162848381Y-131819300D01*
X162768524Y-131669898D01*
X162661054Y-131538946D01*
X162628242Y-131512018D01*
X161715314Y-130599090D01*
X161695226Y-130498102D01*
X161617205Y-130309744D01*
X161503937Y-130140226D01*
X161359774Y-129996063D01*
X161190256Y-129882795D01*
X161001898Y-129804774D01*
X160801939Y-129765000D01*
X160598061Y-129765000D01*
X160398102Y-129804774D01*
X160209744Y-129882795D01*
X160056201Y-129985389D01*
X160026185Y-129948815D01*
X159929494Y-129869463D01*
X159819180Y-129810498D01*
X159699482Y-129774188D01*
X159575000Y-129761928D01*
X156716400Y-129761928D01*
X156716400Y-129695961D01*
X156676626Y-129496002D01*
X156598605Y-129307644D01*
X156485337Y-129138126D01*
X156341174Y-128993963D01*
X156171656Y-128880695D01*
X155983298Y-128802674D01*
X155783339Y-128762900D01*
X155579461Y-128762900D01*
X155379502Y-128802674D01*
X155191144Y-128880695D01*
X155021626Y-128993963D01*
X154877463Y-129138126D01*
X154764195Y-129307644D01*
X154686174Y-129496002D01*
X154646400Y-129695961D01*
X154646400Y-129761928D01*
X151403151Y-129761928D01*
X150588072Y-128946849D01*
X150588072Y-128762500D01*
X150571248Y-128591684D01*
X150521423Y-128427433D01*
X150440512Y-128276058D01*
X150331623Y-128143377D01*
X150198942Y-128034488D01*
X150047567Y-127953577D01*
X149883316Y-127903752D01*
X149712500Y-127886928D01*
X149137500Y-127886928D01*
X148966684Y-127903752D01*
X148802433Y-127953577D01*
X148651058Y-128034488D01*
X148627161Y-128054099D01*
X148554494Y-127994463D01*
X148444180Y-127935498D01*
X148324482Y-127899188D01*
X148200000Y-127886928D01*
X147960750Y-127890000D01*
X147802000Y-128048750D01*
X147802000Y-128873000D01*
X147822000Y-128873000D01*
X147822000Y-129127000D01*
X147802000Y-129127000D01*
X147802000Y-129951250D01*
X147960750Y-130110000D01*
X148200000Y-130113072D01*
X148324482Y-130100812D01*
X148444180Y-130064502D01*
X148554494Y-130005537D01*
X148627161Y-129945901D01*
X148651058Y-129965512D01*
X148802433Y-130046423D01*
X148966684Y-130096248D01*
X149137500Y-130113072D01*
X149321849Y-130113072D01*
X149543370Y-130334593D01*
X149536928Y-130400000D01*
X149536928Y-141015000D01*
X142776398Y-141015000D01*
X142805537Y-140979494D01*
X142864502Y-140869180D01*
X142900812Y-140749482D01*
X142913072Y-140625000D01*
X142910000Y-140385750D01*
X142751250Y-140227000D01*
X141927000Y-140227000D01*
X141927000Y-140247000D01*
X141673000Y-140247000D01*
X141673000Y-140227000D01*
X140848750Y-140227000D01*
X140690000Y-140385750D01*
X140686928Y-140625000D01*
X140699188Y-140749482D01*
X140735498Y-140869180D01*
X140794463Y-140979494D01*
X140823602Y-141015000D01*
X139926398Y-141015000D01*
X139955537Y-140979494D01*
X140014502Y-140869180D01*
X140050812Y-140749482D01*
X140063072Y-140625000D01*
X140060000Y-140385750D01*
X139901250Y-140227000D01*
X139077000Y-140227000D01*
X139077000Y-140247000D01*
X138823000Y-140247000D01*
X138823000Y-140227000D01*
X137998750Y-140227000D01*
X137840000Y-140385750D01*
X137836928Y-140625000D01*
X137849188Y-140749482D01*
X137885498Y-140869180D01*
X137944463Y-140979494D01*
X137973602Y-141015000D01*
X137076398Y-141015000D01*
X137105537Y-140979494D01*
X137164502Y-140869180D01*
X137200812Y-140749482D01*
X137213072Y-140625000D01*
X137210000Y-140385750D01*
X137051250Y-140227000D01*
X136227000Y-140227000D01*
X136227000Y-140247000D01*
X135973000Y-140247000D01*
X135973000Y-140227000D01*
X135148750Y-140227000D01*
X134990000Y-140385750D01*
X134986928Y-140625000D01*
X134999188Y-140749482D01*
X135035498Y-140869180D01*
X135094463Y-140979494D01*
X135123602Y-141015000D01*
X108385000Y-141015000D01*
X108385000Y-137250701D01*
X126164228Y-137250701D01*
X126164228Y-138749301D01*
X126176488Y-138873783D01*
X126212798Y-138993481D01*
X126271763Y-139103795D01*
X126351115Y-139200486D01*
X126447806Y-139279838D01*
X126558120Y-139338803D01*
X126677818Y-139375113D01*
X126802300Y-139387373D01*
X128097700Y-139387373D01*
X128222182Y-139375113D01*
X128341880Y-139338803D01*
X128452194Y-139279838D01*
X128548885Y-139200486D01*
X128628237Y-139103795D01*
X128687202Y-138993481D01*
X128723512Y-138873783D01*
X128735772Y-138749301D01*
X128735772Y-138327150D01*
X131288307Y-138327150D01*
X131356553Y-138568960D01*
X131470662Y-138792810D01*
X131626249Y-138990097D01*
X131817336Y-139153240D01*
X132036579Y-139275969D01*
X132224891Y-139342416D01*
X132423000Y-139218353D01*
X132423000Y-138127001D01*
X132677000Y-138127001D01*
X132677000Y-139218353D01*
X132875109Y-139342416D01*
X133063421Y-139275969D01*
X133282664Y-139153240D01*
X133473751Y-138990097D01*
X133629338Y-138792810D01*
X133743447Y-138568960D01*
X133811693Y-138327150D01*
X133672693Y-138127001D01*
X132677000Y-138127001D01*
X132423000Y-138127001D01*
X131427307Y-138127001D01*
X131288307Y-138327150D01*
X128735772Y-138327150D01*
X128735772Y-137560000D01*
X131320157Y-137560000D01*
X131288307Y-137672852D01*
X131427307Y-137873001D01*
X132423000Y-137873001D01*
X132423000Y-137853001D01*
X132677000Y-137853001D01*
X132677000Y-137873001D01*
X133672693Y-137873001D01*
X133811693Y-137672852D01*
X133779843Y-137560000D01*
X134618777Y-137560000D01*
X134998974Y-137940197D01*
X134986928Y-138062500D01*
X134986928Y-138637500D01*
X135003752Y-138808316D01*
X135053577Y-138972567D01*
X135134488Y-139123942D01*
X135154099Y-139147839D01*
X135094463Y-139220506D01*
X135035498Y-139330820D01*
X134999188Y-139450518D01*
X134986928Y-139575000D01*
X134990000Y-139814250D01*
X135148750Y-139973000D01*
X135973000Y-139973000D01*
X135973000Y-139953000D01*
X136227000Y-139953000D01*
X136227000Y-139973000D01*
X137051250Y-139973000D01*
X137210000Y-139814250D01*
X137213072Y-139575000D01*
X137200812Y-139450518D01*
X137164502Y-139330820D01*
X137105537Y-139220506D01*
X137096915Y-139210000D01*
X137953085Y-139210000D01*
X137944463Y-139220506D01*
X137885498Y-139330820D01*
X137849188Y-139450518D01*
X137836928Y-139575000D01*
X137840000Y-139814250D01*
X137998750Y-139973000D01*
X138823000Y-139973000D01*
X138823000Y-139953000D01*
X139077000Y-139953000D01*
X139077000Y-139973000D01*
X139901250Y-139973000D01*
X140060000Y-139814250D01*
X140063072Y-139575000D01*
X140050812Y-139450518D01*
X140014502Y-139330820D01*
X139955537Y-139220506D01*
X139946915Y-139210000D01*
X140803085Y-139210000D01*
X140794463Y-139220506D01*
X140735498Y-139330820D01*
X140699188Y-139450518D01*
X140686928Y-139575000D01*
X140690000Y-139814250D01*
X140848750Y-139973000D01*
X141673000Y-139973000D01*
X141673000Y-139953000D01*
X141927000Y-139953000D01*
X141927000Y-139973000D01*
X142751250Y-139973000D01*
X142910000Y-139814250D01*
X142913072Y-139575000D01*
X142900812Y-139450518D01*
X142864502Y-139330820D01*
X142805537Y-139220506D01*
X142788708Y-139200000D01*
X142870680Y-139200000D01*
X142894463Y-139244494D01*
X142973815Y-139341185D01*
X143070506Y-139420537D01*
X143180820Y-139479502D01*
X143300518Y-139515812D01*
X143425000Y-139528072D01*
X148025000Y-139528072D01*
X148149482Y-139515812D01*
X148269180Y-139479502D01*
X148379494Y-139420537D01*
X148476185Y-139341185D01*
X148555537Y-139244494D01*
X148614502Y-139134180D01*
X148650812Y-139014482D01*
X148663072Y-138890000D01*
X148663072Y-137790000D01*
X148650812Y-137665518D01*
X148614502Y-137545820D01*
X148555537Y-137435506D01*
X148476185Y-137338815D01*
X148379494Y-137259463D01*
X148269180Y-137200498D01*
X148149482Y-137164188D01*
X148025000Y-137151928D01*
X143425000Y-137151928D01*
X143300518Y-137164188D01*
X143180820Y-137200498D01*
X143070506Y-137259463D01*
X142973815Y-137338815D01*
X142894463Y-137435506D01*
X142870680Y-137480000D01*
X142686679Y-137480000D01*
X142656623Y-137443377D01*
X142523942Y-137334488D01*
X142372567Y-137253577D01*
X142208316Y-137203752D01*
X142037500Y-137186928D01*
X141562500Y-137186928D01*
X141391684Y-137203752D01*
X141227433Y-137253577D01*
X141076058Y-137334488D01*
X140943377Y-137443377D01*
X140905114Y-137490000D01*
X139844886Y-137490000D01*
X139806623Y-137443377D01*
X139673942Y-137334488D01*
X139522567Y-137253577D01*
X139358316Y-137203752D01*
X139187500Y-137186928D01*
X138712500Y-137186928D01*
X138541684Y-137203752D01*
X138377433Y-137253577D01*
X138226058Y-137334488D01*
X138093377Y-137443377D01*
X138055114Y-137490000D01*
X136994886Y-137490000D01*
X136956623Y-137443377D01*
X136823942Y-137334488D01*
X136799071Y-137321194D01*
X136745321Y-137255700D01*
X136737984Y-137246760D01*
X136737983Y-137246759D01*
X136711054Y-137213946D01*
X136678242Y-137187018D01*
X135612988Y-136121765D01*
X135586054Y-136088946D01*
X135455102Y-135981476D01*
X135305700Y-135901619D01*
X135143589Y-135852444D01*
X135017246Y-135840000D01*
X135017239Y-135840000D01*
X134975000Y-135835840D01*
X134932761Y-135840000D01*
X127492246Y-135840000D01*
X127450000Y-135835839D01*
X127407754Y-135840000D01*
X127281411Y-135852444D01*
X127119300Y-135901619D01*
X126969898Y-135981476D01*
X126838946Y-136088946D01*
X126731476Y-136219898D01*
X126651619Y-136369300D01*
X126602444Y-136531411D01*
X126590632Y-136651337D01*
X126558120Y-136661199D01*
X126447806Y-136720164D01*
X126351115Y-136799516D01*
X126271763Y-136896207D01*
X126212798Y-137006521D01*
X126176488Y-137126219D01*
X126164228Y-137250701D01*
X108385000Y-137250701D01*
X108385000Y-136045374D01*
X110534231Y-136045374D01*
X110834411Y-136483828D01*
X111413356Y-136794296D01*
X112041746Y-136985852D01*
X112695431Y-137051134D01*
X113349293Y-136987634D01*
X113978203Y-136797792D01*
X114557992Y-136488904D01*
X114565589Y-136483828D01*
X114865769Y-136045374D01*
X112700000Y-133879605D01*
X110534231Y-136045374D01*
X108385000Y-136045374D01*
X108385000Y-133695431D01*
X109348866Y-133695431D01*
X109412366Y-134349293D01*
X109602208Y-134978203D01*
X109911096Y-135557992D01*
X109916172Y-135565589D01*
X110354626Y-135865769D01*
X112520395Y-133700000D01*
X112879605Y-133700000D01*
X115045374Y-135865769D01*
X115483828Y-135565589D01*
X115653067Y-135250000D01*
X142786928Y-135250000D01*
X142786928Y-136350000D01*
X142799188Y-136474482D01*
X142835498Y-136594180D01*
X142894463Y-136704494D01*
X142973815Y-136801185D01*
X143070506Y-136880537D01*
X143180820Y-136939502D01*
X143300518Y-136975812D01*
X143425000Y-136988072D01*
X148025000Y-136988072D01*
X148149482Y-136975812D01*
X148269180Y-136939502D01*
X148379494Y-136880537D01*
X148476185Y-136801185D01*
X148555537Y-136704494D01*
X148614502Y-136594180D01*
X148650812Y-136474482D01*
X148663072Y-136350000D01*
X148663072Y-135250000D01*
X148650812Y-135125518D01*
X148614502Y-135005820D01*
X148555537Y-134895506D01*
X148476185Y-134798815D01*
X148379494Y-134719463D01*
X148269180Y-134660498D01*
X148149482Y-134624188D01*
X148025000Y-134611928D01*
X143425000Y-134611928D01*
X143300518Y-134624188D01*
X143180820Y-134660498D01*
X143070506Y-134719463D01*
X142973815Y-134798815D01*
X142894463Y-134895506D01*
X142835498Y-135005820D01*
X142799188Y-135125518D01*
X142786928Y-135250000D01*
X115653067Y-135250000D01*
X115794296Y-134986644D01*
X115985852Y-134358254D01*
X116051134Y-133704569D01*
X115987634Y-133050707D01*
X115797792Y-132421797D01*
X115488904Y-131842008D01*
X115483828Y-131834411D01*
X115045374Y-131534231D01*
X112879605Y-133700000D01*
X112520395Y-133700000D01*
X110354626Y-131534231D01*
X109916172Y-131834411D01*
X109605704Y-132413356D01*
X109414148Y-133041746D01*
X109348866Y-133695431D01*
X108385000Y-133695431D01*
X108385000Y-131354626D01*
X110534231Y-131354626D01*
X112700000Y-133520395D01*
X114865769Y-131354626D01*
X114565589Y-130916172D01*
X113986644Y-130605704D01*
X113358254Y-130414148D01*
X112704569Y-130348866D01*
X112050707Y-130412366D01*
X111421797Y-130602208D01*
X110842008Y-130911096D01*
X110834411Y-130916172D01*
X110534231Y-131354626D01*
X108385000Y-131354626D01*
X108385000Y-128935390D01*
X126167300Y-128935390D01*
X126167300Y-129264609D01*
X126185860Y-129453052D01*
X126259206Y-129694842D01*
X126378314Y-129917677D01*
X126538607Y-130112993D01*
X126565001Y-130134654D01*
X126565000Y-132649130D01*
X126507795Y-132734744D01*
X126429774Y-132923102D01*
X126390000Y-133123061D01*
X126390000Y-133326939D01*
X126429774Y-133526898D01*
X126507795Y-133715256D01*
X126621063Y-133884774D01*
X126765226Y-134028937D01*
X126934744Y-134142205D01*
X127123102Y-134220226D01*
X127323061Y-134260000D01*
X127526939Y-134260000D01*
X127726898Y-134220226D01*
X127915256Y-134142205D01*
X128084774Y-134028937D01*
X128228937Y-133884774D01*
X128278899Y-133810000D01*
X142786928Y-133810000D01*
X142799188Y-133934482D01*
X142835498Y-134054180D01*
X142894463Y-134164494D01*
X142973815Y-134261185D01*
X143070506Y-134340537D01*
X143180820Y-134399502D01*
X143300518Y-134435812D01*
X143425000Y-134448072D01*
X145439250Y-134445000D01*
X145598000Y-134286250D01*
X145598000Y-133387000D01*
X145852000Y-133387000D01*
X145852000Y-134286250D01*
X146010750Y-134445000D01*
X148025000Y-134448072D01*
X148149482Y-134435812D01*
X148269180Y-134399502D01*
X148379494Y-134340537D01*
X148476185Y-134261185D01*
X148555537Y-134164494D01*
X148614502Y-134054180D01*
X148650812Y-133934482D01*
X148663072Y-133810000D01*
X148660000Y-133545750D01*
X148501250Y-133387000D01*
X145852000Y-133387000D01*
X145598000Y-133387000D01*
X142948750Y-133387000D01*
X142790000Y-133545750D01*
X142786928Y-133810000D01*
X128278899Y-133810000D01*
X128342205Y-133715256D01*
X128420226Y-133526898D01*
X128460000Y-133326939D01*
X128460000Y-133123061D01*
X128420226Y-132923102D01*
X128342205Y-132734744D01*
X128325672Y-132710000D01*
X142786928Y-132710000D01*
X142790000Y-132974250D01*
X142948750Y-133133000D01*
X145598000Y-133133000D01*
X145598000Y-132233750D01*
X145852000Y-132233750D01*
X145852000Y-133133000D01*
X148501250Y-133133000D01*
X148660000Y-132974250D01*
X148663072Y-132710000D01*
X148650812Y-132585518D01*
X148614502Y-132465820D01*
X148555537Y-132355506D01*
X148476185Y-132258815D01*
X148379494Y-132179463D01*
X148269180Y-132120498D01*
X148149482Y-132084188D01*
X148025000Y-132071928D01*
X146010750Y-132075000D01*
X145852000Y-132233750D01*
X145598000Y-132233750D01*
X145439250Y-132075000D01*
X143425000Y-132071928D01*
X143300518Y-132084188D01*
X143180820Y-132120498D01*
X143070506Y-132179463D01*
X142973815Y-132258815D01*
X142894463Y-132355506D01*
X142835498Y-132465820D01*
X142799188Y-132585518D01*
X142786928Y-132710000D01*
X128325672Y-132710000D01*
X128285000Y-132649130D01*
X128285000Y-130175688D01*
X128361394Y-130112993D01*
X128521686Y-129917676D01*
X128640794Y-129694841D01*
X128714140Y-129453051D01*
X128732700Y-129264608D01*
X128732700Y-128935390D01*
X131267300Y-128935390D01*
X131267300Y-129264609D01*
X131285860Y-129453052D01*
X131359206Y-129694842D01*
X131478314Y-129917677D01*
X131638607Y-130112993D01*
X131681963Y-130148574D01*
X131657795Y-130184744D01*
X131579774Y-130373102D01*
X131540000Y-130573061D01*
X131540000Y-130776939D01*
X131579774Y-130976898D01*
X131657795Y-131165256D01*
X131771063Y-131334774D01*
X131915226Y-131478937D01*
X132084744Y-131592205D01*
X132273102Y-131670226D01*
X132473061Y-131710000D01*
X132676939Y-131710000D01*
X132876898Y-131670226D01*
X133065256Y-131592205D01*
X133234774Y-131478937D01*
X133378937Y-131334774D01*
X133492205Y-131165256D01*
X133570226Y-130976898D01*
X133610000Y-130776939D01*
X133610000Y-130573061D01*
X133570226Y-130373102D01*
X133492205Y-130184744D01*
X133450330Y-130122073D01*
X133461394Y-130112993D01*
X133621686Y-129917676D01*
X133740794Y-129694841D01*
X133807481Y-129475000D01*
X146511928Y-129475000D01*
X146524188Y-129599482D01*
X146560498Y-129719180D01*
X146619463Y-129829494D01*
X146698815Y-129926185D01*
X146795506Y-130005537D01*
X146905820Y-130064502D01*
X147025518Y-130100812D01*
X147150000Y-130113072D01*
X147389250Y-130110000D01*
X147548000Y-129951250D01*
X147548000Y-129127000D01*
X146673750Y-129127000D01*
X146515000Y-129285750D01*
X146511928Y-129475000D01*
X133807481Y-129475000D01*
X133814140Y-129453051D01*
X133832700Y-129264608D01*
X133832700Y-128935389D01*
X133814140Y-128746946D01*
X133746814Y-128525000D01*
X146511928Y-128525000D01*
X146515000Y-128714250D01*
X146673750Y-128873000D01*
X147548000Y-128873000D01*
X147548000Y-128048750D01*
X147389250Y-127890000D01*
X147150000Y-127886928D01*
X147025518Y-127899188D01*
X146905820Y-127935498D01*
X146795506Y-127994463D01*
X146698815Y-128073815D01*
X146619463Y-128170506D01*
X146560498Y-128280820D01*
X146524188Y-128400518D01*
X146511928Y-128525000D01*
X133746814Y-128525000D01*
X133740794Y-128505156D01*
X133621686Y-128282321D01*
X133461394Y-128087005D01*
X133266077Y-127926713D01*
X133043242Y-127807605D01*
X132801452Y-127734259D01*
X132550000Y-127709493D01*
X132298547Y-127734259D01*
X132056757Y-127807605D01*
X131833922Y-127926713D01*
X131638606Y-128087005D01*
X131478314Y-128282322D01*
X131359206Y-128505157D01*
X131285860Y-128746947D01*
X131267300Y-128935390D01*
X128732700Y-128935390D01*
X128732700Y-128935389D01*
X128714140Y-128746946D01*
X128640794Y-128505156D01*
X128521686Y-128282321D01*
X128361394Y-128087005D01*
X128166077Y-127926713D01*
X127943242Y-127807605D01*
X127701452Y-127734259D01*
X127450000Y-127709493D01*
X127198547Y-127734259D01*
X126956757Y-127807605D01*
X126733922Y-127926713D01*
X126538606Y-128087005D01*
X126378314Y-128282322D01*
X126259206Y-128505157D01*
X126185860Y-128746947D01*
X126167300Y-128935390D01*
X108385000Y-128935390D01*
X108385000Y-127385000D01*
X161519119Y-127385000D01*
X161469463Y-127445506D01*
G36*
X168456928Y-140100000D02*
G01*
X168472071Y-140253745D01*
X168516916Y-140401582D01*
X168589742Y-140537829D01*
X168687749Y-140657251D01*
X168807171Y-140755258D01*
X168943418Y-140828084D01*
X169091255Y-140872929D01*
X169245000Y-140888072D01*
X169545000Y-140888072D01*
X169698745Y-140872929D01*
X169846582Y-140828084D01*
X169982829Y-140755258D01*
X170030000Y-140716546D01*
X170077171Y-140755258D01*
X170213418Y-140828084D01*
X170361255Y-140872929D01*
X170515000Y-140888072D01*
X170815000Y-140888072D01*
X170968745Y-140872929D01*
X171116582Y-140828084D01*
X171252829Y-140755258D01*
X171300000Y-140716546D01*
X171347171Y-140755258D01*
X171483418Y-140828084D01*
X171631255Y-140872929D01*
X171687217Y-140878441D01*
X171823776Y-141015000D01*
X167712623Y-141015000D01*
X167710000Y-140810750D01*
X167551250Y-140652000D01*
X166727000Y-140652000D01*
X166727000Y-140672000D01*
X166473000Y-140672000D01*
X166473000Y-140652000D01*
X165027000Y-140652000D01*
X165027000Y-140672000D01*
X164773000Y-140672000D01*
X164773000Y-140652000D01*
X164753000Y-140652000D01*
X164753000Y-140398000D01*
X164773000Y-140398000D01*
X164773000Y-140378000D01*
X165027000Y-140378000D01*
X165027000Y-140398000D01*
X166473000Y-140398000D01*
X166473000Y-140378000D01*
X166727000Y-140378000D01*
X166727000Y-140398000D01*
X167551250Y-140398000D01*
X167710000Y-140239250D01*
X167713072Y-140000000D01*
X167700812Y-139875518D01*
X167664502Y-139755820D01*
X167605537Y-139645506D01*
X167596915Y-139635000D01*
X168456928Y-139635000D01*
X168456928Y-140100000D01*
G37*
X168456928Y-140100000D02*
X168472071Y-140253745D01*
X168516916Y-140401582D01*
X168589742Y-140537829D01*
X168687749Y-140657251D01*
X168807171Y-140755258D01*
X168943418Y-140828084D01*
X169091255Y-140872929D01*
X169245000Y-140888072D01*
X169545000Y-140888072D01*
X169698745Y-140872929D01*
X169846582Y-140828084D01*
X169982829Y-140755258D01*
X170030000Y-140716546D01*
X170077171Y-140755258D01*
X170213418Y-140828084D01*
X170361255Y-140872929D01*
X170515000Y-140888072D01*
X170815000Y-140888072D01*
X170968745Y-140872929D01*
X171116582Y-140828084D01*
X171252829Y-140755258D01*
X171300000Y-140716546D01*
X171347171Y-140755258D01*
X171483418Y-140828084D01*
X171631255Y-140872929D01*
X171687217Y-140878441D01*
X171823776Y-141015000D01*
X167712623Y-141015000D01*
X167710000Y-140810750D01*
X167551250Y-140652000D01*
X166727000Y-140652000D01*
X166727000Y-140672000D01*
X166473000Y-140672000D01*
X166473000Y-140652000D01*
X165027000Y-140652000D01*
X165027000Y-140672000D01*
X164773000Y-140672000D01*
X164773000Y-140652000D01*
X164753000Y-140652000D01*
X164753000Y-140398000D01*
X164773000Y-140398000D01*
X164773000Y-140378000D01*
X165027000Y-140378000D01*
X165027000Y-140398000D01*
X166473000Y-140398000D01*
X166473000Y-140378000D01*
X166727000Y-140378000D01*
X166727000Y-140398000D01*
X167551250Y-140398000D01*
X167710000Y-140239250D01*
X167713072Y-140000000D01*
X167700812Y-139875518D01*
X167664502Y-139755820D01*
X167605537Y-139645506D01*
X167596915Y-139635000D01*
X168456928Y-139635000D01*
X168456928Y-140100000D01*
G36*
X163954099Y-139572839D02*
G01*
X163894463Y-139645506D01*
X163873239Y-139685213D01*
X163757159Y-139650000D01*
X163874180Y-139614502D01*
X163953498Y-139572105D01*
X163954099Y-139572839D01*
G37*
X163954099Y-139572839D02*
X163894463Y-139645506D01*
X163873239Y-139685213D01*
X163757159Y-139650000D01*
X163874180Y-139614502D01*
X163953498Y-139572105D01*
X163954099Y-139572839D01*
G36*
X170792000Y-134198000D02*
G01*
X170812000Y-134198000D01*
X170812000Y-134452000D01*
X170792000Y-134452000D01*
X170792000Y-135776250D01*
X170950750Y-135935000D01*
X170965000Y-135938072D01*
X171089482Y-135925812D01*
X171209180Y-135889502D01*
X171319494Y-135830537D01*
X171349064Y-135806270D01*
X171483418Y-135878084D01*
X171631255Y-135922929D01*
X171785000Y-135938072D01*
X172085000Y-135938072D01*
X172238745Y-135922929D01*
X172386582Y-135878084D01*
X172522829Y-135805258D01*
X172570000Y-135766546D01*
X172617171Y-135805258D01*
X172753418Y-135878084D01*
X172901255Y-135922929D01*
X173055000Y-135938072D01*
X173355000Y-135938072D01*
X173508745Y-135922929D01*
X173656582Y-135878084D01*
X173707365Y-135850940D01*
X173762753Y-135880546D01*
X173906014Y-135924003D01*
X174055000Y-135938677D01*
X174092333Y-135935000D01*
X174277036Y-135935000D01*
X174284488Y-135948942D01*
X174367425Y-136050000D01*
X174284488Y-136151058D01*
X174203577Y-136302433D01*
X174153752Y-136466684D01*
X174136928Y-136637500D01*
X174136928Y-137212500D01*
X174153752Y-137383316D01*
X174203577Y-137547567D01*
X174284488Y-137698942D01*
X174306200Y-137725398D01*
X174306201Y-138825075D01*
X173983279Y-139147998D01*
X173981252Y-139147998D01*
X174140000Y-138989250D01*
X174143072Y-138300000D01*
X174130812Y-138175518D01*
X174094502Y-138055820D01*
X174035537Y-137945506D01*
X173956185Y-137848815D01*
X173859494Y-137769463D01*
X173749180Y-137710498D01*
X173629482Y-137674188D01*
X173505000Y-137661928D01*
X173490750Y-137665000D01*
X173332000Y-137823750D01*
X173332000Y-139148000D01*
X173352000Y-139148000D01*
X173352000Y-139402000D01*
X173332000Y-139402000D01*
X173332000Y-139422000D01*
X173078000Y-139422000D01*
X173078000Y-139402000D01*
X173058000Y-139402000D01*
X173058000Y-139148000D01*
X173078000Y-139148000D01*
X173078000Y-137823750D01*
X172919250Y-137665000D01*
X172905000Y-137661928D01*
X172780518Y-137674188D01*
X172660820Y-137710498D01*
X172550506Y-137769463D01*
X172520936Y-137793730D01*
X172386582Y-137721916D01*
X172238745Y-137677071D01*
X172085000Y-137661928D01*
X171785000Y-137661928D01*
X171631255Y-137677071D01*
X171483418Y-137721916D01*
X171347171Y-137794742D01*
X171300000Y-137833454D01*
X171252829Y-137794742D01*
X171116582Y-137721916D01*
X170968745Y-137677071D01*
X170815000Y-137661928D01*
X170515000Y-137661928D01*
X170361255Y-137677071D01*
X170255000Y-137709302D01*
X170255000Y-135927238D01*
X170365000Y-135938072D01*
X170379250Y-135935000D01*
X170538000Y-135776250D01*
X170538000Y-134452000D01*
X170518000Y-134452000D01*
X170518000Y-134198000D01*
X170538000Y-134198000D01*
X170538000Y-134178000D01*
X170792000Y-134178000D01*
X170792000Y-134198000D01*
G37*
X170792000Y-134198000D02*
X170812000Y-134198000D01*
X170812000Y-134452000D01*
X170792000Y-134452000D01*
X170792000Y-135776250D01*
X170950750Y-135935000D01*
X170965000Y-135938072D01*
X171089482Y-135925812D01*
X171209180Y-135889502D01*
X171319494Y-135830537D01*
X171349064Y-135806270D01*
X171483418Y-135878084D01*
X171631255Y-135922929D01*
X171785000Y-135938072D01*
X172085000Y-135938072D01*
X172238745Y-135922929D01*
X172386582Y-135878084D01*
X172522829Y-135805258D01*
X172570000Y-135766546D01*
X172617171Y-135805258D01*
X172753418Y-135878084D01*
X172901255Y-135922929D01*
X173055000Y-135938072D01*
X173355000Y-135938072D01*
X173508745Y-135922929D01*
X173656582Y-135878084D01*
X173707365Y-135850940D01*
X173762753Y-135880546D01*
X173906014Y-135924003D01*
X174055000Y-135938677D01*
X174092333Y-135935000D01*
X174277036Y-135935000D01*
X174284488Y-135948942D01*
X174367425Y-136050000D01*
X174284488Y-136151058D01*
X174203577Y-136302433D01*
X174153752Y-136466684D01*
X174136928Y-136637500D01*
X174136928Y-137212500D01*
X174153752Y-137383316D01*
X174203577Y-137547567D01*
X174284488Y-137698942D01*
X174306200Y-137725398D01*
X174306201Y-138825075D01*
X173983279Y-139147998D01*
X173981252Y-139147998D01*
X174140000Y-138989250D01*
X174143072Y-138300000D01*
X174130812Y-138175518D01*
X174094502Y-138055820D01*
X174035537Y-137945506D01*
X173956185Y-137848815D01*
X173859494Y-137769463D01*
X173749180Y-137710498D01*
X173629482Y-137674188D01*
X173505000Y-137661928D01*
X173490750Y-137665000D01*
X173332000Y-137823750D01*
X173332000Y-139148000D01*
X173352000Y-139148000D01*
X173352000Y-139402000D01*
X173332000Y-139402000D01*
X173332000Y-139422000D01*
X173078000Y-139422000D01*
X173078000Y-139402000D01*
X173058000Y-139402000D01*
X173058000Y-139148000D01*
X173078000Y-139148000D01*
X173078000Y-137823750D01*
X172919250Y-137665000D01*
X172905000Y-137661928D01*
X172780518Y-137674188D01*
X172660820Y-137710498D01*
X172550506Y-137769463D01*
X172520936Y-137793730D01*
X172386582Y-137721916D01*
X172238745Y-137677071D01*
X172085000Y-137661928D01*
X171785000Y-137661928D01*
X171631255Y-137677071D01*
X171483418Y-137721916D01*
X171347171Y-137794742D01*
X171300000Y-137833454D01*
X171252829Y-137794742D01*
X171116582Y-137721916D01*
X170968745Y-137677071D01*
X170815000Y-137661928D01*
X170515000Y-137661928D01*
X170361255Y-137677071D01*
X170255000Y-137709302D01*
X170255000Y-135927238D01*
X170365000Y-135938072D01*
X170379250Y-135935000D01*
X170538000Y-135776250D01*
X170538000Y-134452000D01*
X170518000Y-134452000D01*
X170518000Y-134198000D01*
X170538000Y-134198000D01*
X170538000Y-134178000D01*
X170792000Y-134178000D01*
X170792000Y-134198000D01*
G36*
X176466150Y-135724199D02*
G01*
X176466770Y-135724199D01*
X176491215Y-135753986D01*
X176516820Y-135775000D01*
X176491215Y-135796013D01*
X176466770Y-135825799D01*
X176466150Y-135825799D01*
X176307400Y-135984549D01*
X176318534Y-136086690D01*
X176323144Y-136101103D01*
X176316588Y-136122716D01*
X176304328Y-136247198D01*
X176304328Y-136328492D01*
X176296423Y-136302433D01*
X176215512Y-136151058D01*
X176132575Y-136050000D01*
X176215512Y-135948942D01*
X176296423Y-135797567D01*
X176346248Y-135633316D01*
X176348850Y-135606899D01*
X176466150Y-135724199D01*
G37*
X176466150Y-135724199D02*
X176466770Y-135724199D01*
X176491215Y-135753986D01*
X176516820Y-135775000D01*
X176491215Y-135796013D01*
X176466770Y-135825799D01*
X176466150Y-135825799D01*
X176307400Y-135984549D01*
X176318534Y-136086690D01*
X176323144Y-136101103D01*
X176316588Y-136122716D01*
X176304328Y-136247198D01*
X176304328Y-136328492D01*
X176296423Y-136302433D01*
X176215512Y-136151058D01*
X176132575Y-136050000D01*
X176215512Y-135948942D01*
X176296423Y-135797567D01*
X176346248Y-135633316D01*
X176348850Y-135606899D01*
X176466150Y-135724199D01*
%TD*%
M02*
