%TF.GenerationSoftware,KiCad,Pcbnew,(5.1.6)-1*%
%TF.CreationDate,2020-11-09T21:23:30-05:00*%
%TF.ProjectId,CellLight,43656c6c-4c69-4676-9874-2e6b69636164,rev?*%
%TF.SameCoordinates,Original*%
%TF.FileFunction,Paste,Top*%
%TF.FilePolarity,Positive*%
%FSLAX46Y46*%
G04 Gerber Fmt 4.6, Leading zero omitted, Abs format (unit mm)*
G04 Created by KiCad (PCBNEW (5.1.6)-1) date 2020-11-09 21:23:30*
%MOMM*%
%LPD*%
G01*
G04 APERTURE LIST*
%ADD10R,4.550000X5.250000*%
%ADD11R,4.600000X1.100000*%
%ADD12O,1.295400X1.498600*%
%ADD13R,1.295400X1.498600*%
%ADD14R,1.060000X0.650000*%
%ADD15R,1.473200X0.355600*%
G04 APERTURE END LIST*
D10*
%TO.C,U10*%
X152450000Y-138575000D03*
X157300000Y-133025000D03*
X152450000Y-133025000D03*
X157300000Y-138575000D03*
D11*
X145725000Y-138340000D03*
X145725000Y-135800000D03*
X145725000Y-133260000D03*
%TD*%
D12*
%TO.C,CR1*%
X127450000Y-129099999D03*
X132550000Y-129099999D03*
X132550000Y-138000001D03*
D13*
X127450000Y-138000001D03*
%TD*%
D14*
%TO.C,U11*%
X163100000Y-138700000D03*
X163100000Y-140600000D03*
X160900000Y-140600000D03*
X160900000Y-139650000D03*
X160900000Y-138700000D03*
%TD*%
%TO.C,U9*%
G36*
G01*
X169545000Y-135300000D02*
X169245000Y-135300000D01*
G75*
G02*
X169095000Y-135150000I0J150000D01*
G01*
X169095000Y-133500000D01*
G75*
G02*
X169245000Y-133350000I150000J0D01*
G01*
X169545000Y-133350000D01*
G75*
G02*
X169695000Y-133500000I0J-150000D01*
G01*
X169695000Y-135150000D01*
G75*
G02*
X169545000Y-135300000I-150000J0D01*
G01*
G37*
G36*
G01*
X170815000Y-135300000D02*
X170515000Y-135300000D01*
G75*
G02*
X170365000Y-135150000I0J150000D01*
G01*
X170365000Y-133500000D01*
G75*
G02*
X170515000Y-133350000I150000J0D01*
G01*
X170815000Y-133350000D01*
G75*
G02*
X170965000Y-133500000I0J-150000D01*
G01*
X170965000Y-135150000D01*
G75*
G02*
X170815000Y-135300000I-150000J0D01*
G01*
G37*
G36*
G01*
X172085000Y-135300000D02*
X171785000Y-135300000D01*
G75*
G02*
X171635000Y-135150000I0J150000D01*
G01*
X171635000Y-133500000D01*
G75*
G02*
X171785000Y-133350000I150000J0D01*
G01*
X172085000Y-133350000D01*
G75*
G02*
X172235000Y-133500000I0J-150000D01*
G01*
X172235000Y-135150000D01*
G75*
G02*
X172085000Y-135300000I-150000J0D01*
G01*
G37*
G36*
G01*
X173355000Y-135300000D02*
X173055000Y-135300000D01*
G75*
G02*
X172905000Y-135150000I0J150000D01*
G01*
X172905000Y-133500000D01*
G75*
G02*
X173055000Y-133350000I150000J0D01*
G01*
X173355000Y-133350000D01*
G75*
G02*
X173505000Y-133500000I0J-150000D01*
G01*
X173505000Y-135150000D01*
G75*
G02*
X173355000Y-135300000I-150000J0D01*
G01*
G37*
G36*
G01*
X173355000Y-140250000D02*
X173055000Y-140250000D01*
G75*
G02*
X172905000Y-140100000I0J150000D01*
G01*
X172905000Y-138450000D01*
G75*
G02*
X173055000Y-138300000I150000J0D01*
G01*
X173355000Y-138300000D01*
G75*
G02*
X173505000Y-138450000I0J-150000D01*
G01*
X173505000Y-140100000D01*
G75*
G02*
X173355000Y-140250000I-150000J0D01*
G01*
G37*
G36*
G01*
X172085000Y-140250000D02*
X171785000Y-140250000D01*
G75*
G02*
X171635000Y-140100000I0J150000D01*
G01*
X171635000Y-138450000D01*
G75*
G02*
X171785000Y-138300000I150000J0D01*
G01*
X172085000Y-138300000D01*
G75*
G02*
X172235000Y-138450000I0J-150000D01*
G01*
X172235000Y-140100000D01*
G75*
G02*
X172085000Y-140250000I-150000J0D01*
G01*
G37*
G36*
G01*
X170815000Y-140250000D02*
X170515000Y-140250000D01*
G75*
G02*
X170365000Y-140100000I0J150000D01*
G01*
X170365000Y-138450000D01*
G75*
G02*
X170515000Y-138300000I150000J0D01*
G01*
X170815000Y-138300000D01*
G75*
G02*
X170965000Y-138450000I0J-150000D01*
G01*
X170965000Y-140100000D01*
G75*
G02*
X170815000Y-140250000I-150000J0D01*
G01*
G37*
G36*
G01*
X169545000Y-140250000D02*
X169245000Y-140250000D01*
G75*
G02*
X169095000Y-140100000I0J150000D01*
G01*
X169095000Y-138450000D01*
G75*
G02*
X169245000Y-138300000I150000J0D01*
G01*
X169545000Y-138300000D01*
G75*
G02*
X169695000Y-138450000I0J-150000D01*
G01*
X169695000Y-140100000D01*
G75*
G02*
X169545000Y-140250000I-150000J0D01*
G01*
G37*
%TD*%
D15*
%TO.C,U2*%
X183521000Y-133175002D03*
X183521000Y-133825001D03*
X183521000Y-134475002D03*
X183521000Y-135125001D03*
X183521000Y-135775002D03*
X183521000Y-136425001D03*
X183521000Y-137075002D03*
X183521000Y-137725001D03*
X183521000Y-138375002D03*
X183521000Y-139025000D03*
X177679000Y-139024998D03*
X177679000Y-138374999D03*
X177679000Y-137724998D03*
X177679000Y-137074999D03*
X177679000Y-136424998D03*
X177679000Y-135774999D03*
X177679000Y-135125001D03*
X177679000Y-134474999D03*
X177679000Y-133825001D03*
X177679000Y-133175000D03*
%TD*%
%TO.C,R2*%
G36*
G01*
X175487500Y-135700000D02*
X175012500Y-135700000D01*
G75*
G02*
X174775000Y-135462500I0J237500D01*
G01*
X174775000Y-134887500D01*
G75*
G02*
X175012500Y-134650000I237500J0D01*
G01*
X175487500Y-134650000D01*
G75*
G02*
X175725000Y-134887500I0J-237500D01*
G01*
X175725000Y-135462500D01*
G75*
G02*
X175487500Y-135700000I-237500J0D01*
G01*
G37*
G36*
G01*
X175487500Y-137450000D02*
X175012500Y-137450000D01*
G75*
G02*
X174775000Y-137212500I0J237500D01*
G01*
X174775000Y-136637500D01*
G75*
G02*
X175012500Y-136400000I237500J0D01*
G01*
X175487500Y-136400000D01*
G75*
G02*
X175725000Y-136637500I0J-237500D01*
G01*
X175725000Y-137212500D01*
G75*
G02*
X175487500Y-137450000I-237500J0D01*
G01*
G37*
%TD*%
%TO.C,R1*%
G36*
G01*
X175562500Y-130875000D02*
X176037500Y-130875000D01*
G75*
G02*
X176275000Y-131112500I0J-237500D01*
G01*
X176275000Y-131687500D01*
G75*
G02*
X176037500Y-131925000I-237500J0D01*
G01*
X175562500Y-131925000D01*
G75*
G02*
X175325000Y-131687500I0J237500D01*
G01*
X175325000Y-131112500D01*
G75*
G02*
X175562500Y-130875000I237500J0D01*
G01*
G37*
G36*
G01*
X175562500Y-129125000D02*
X176037500Y-129125000D01*
G75*
G02*
X176275000Y-129362500I0J-237500D01*
G01*
X176275000Y-129937500D01*
G75*
G02*
X176037500Y-130175000I-237500J0D01*
G01*
X175562500Y-130175000D01*
G75*
G02*
X175325000Y-129937500I0J237500D01*
G01*
X175325000Y-129362500D01*
G75*
G02*
X175562500Y-129125000I237500J0D01*
G01*
G37*
%TD*%
%TO.C,C5*%
G36*
G01*
X164662500Y-140000000D02*
X165137500Y-140000000D01*
G75*
G02*
X165375000Y-140237500I0J-237500D01*
G01*
X165375000Y-140812500D01*
G75*
G02*
X165137500Y-141050000I-237500J0D01*
G01*
X164662500Y-141050000D01*
G75*
G02*
X164425000Y-140812500I0J237500D01*
G01*
X164425000Y-140237500D01*
G75*
G02*
X164662500Y-140000000I237500J0D01*
G01*
G37*
G36*
G01*
X164662500Y-138250000D02*
X165137500Y-138250000D01*
G75*
G02*
X165375000Y-138487500I0J-237500D01*
G01*
X165375000Y-139062500D01*
G75*
G02*
X165137500Y-139300000I-237500J0D01*
G01*
X164662500Y-139300000D01*
G75*
G02*
X164425000Y-139062500I0J237500D01*
G01*
X164425000Y-138487500D01*
G75*
G02*
X164662500Y-138250000I237500J0D01*
G01*
G37*
%TD*%
%TO.C,C4*%
G36*
G01*
X148200000Y-128762500D02*
X148200000Y-129237500D01*
G75*
G02*
X147962500Y-129475000I-237500J0D01*
G01*
X147387500Y-129475000D01*
G75*
G02*
X147150000Y-129237500I0J237500D01*
G01*
X147150000Y-128762500D01*
G75*
G02*
X147387500Y-128525000I237500J0D01*
G01*
X147962500Y-128525000D01*
G75*
G02*
X148200000Y-128762500I0J-237500D01*
G01*
G37*
G36*
G01*
X149950000Y-128762500D02*
X149950000Y-129237500D01*
G75*
G02*
X149712500Y-129475000I-237500J0D01*
G01*
X149137500Y-129475000D01*
G75*
G02*
X148900000Y-129237500I0J237500D01*
G01*
X148900000Y-128762500D01*
G75*
G02*
X149137500Y-128525000I237500J0D01*
G01*
X149712500Y-128525000D01*
G75*
G02*
X149950000Y-128762500I0J-237500D01*
G01*
G37*
%TD*%
%TO.C,C3*%
G36*
G01*
X141562500Y-139575000D02*
X142037500Y-139575000D01*
G75*
G02*
X142275000Y-139812500I0J-237500D01*
G01*
X142275000Y-140387500D01*
G75*
G02*
X142037500Y-140625000I-237500J0D01*
G01*
X141562500Y-140625000D01*
G75*
G02*
X141325000Y-140387500I0J237500D01*
G01*
X141325000Y-139812500D01*
G75*
G02*
X141562500Y-139575000I237500J0D01*
G01*
G37*
G36*
G01*
X141562500Y-137825000D02*
X142037500Y-137825000D01*
G75*
G02*
X142275000Y-138062500I0J-237500D01*
G01*
X142275000Y-138637500D01*
G75*
G02*
X142037500Y-138875000I-237500J0D01*
G01*
X141562500Y-138875000D01*
G75*
G02*
X141325000Y-138637500I0J237500D01*
G01*
X141325000Y-138062500D01*
G75*
G02*
X141562500Y-137825000I237500J0D01*
G01*
G37*
%TD*%
%TO.C,C2*%
G36*
G01*
X135862500Y-139575000D02*
X136337500Y-139575000D01*
G75*
G02*
X136575000Y-139812500I0J-237500D01*
G01*
X136575000Y-140387500D01*
G75*
G02*
X136337500Y-140625000I-237500J0D01*
G01*
X135862500Y-140625000D01*
G75*
G02*
X135625000Y-140387500I0J237500D01*
G01*
X135625000Y-139812500D01*
G75*
G02*
X135862500Y-139575000I237500J0D01*
G01*
G37*
G36*
G01*
X135862500Y-137825000D02*
X136337500Y-137825000D01*
G75*
G02*
X136575000Y-138062500I0J-237500D01*
G01*
X136575000Y-138637500D01*
G75*
G02*
X136337500Y-138875000I-237500J0D01*
G01*
X135862500Y-138875000D01*
G75*
G02*
X135625000Y-138637500I0J237500D01*
G01*
X135625000Y-138062500D01*
G75*
G02*
X135862500Y-137825000I237500J0D01*
G01*
G37*
%TD*%
%TO.C,C1*%
G36*
G01*
X138712500Y-139575000D02*
X139187500Y-139575000D01*
G75*
G02*
X139425000Y-139812500I0J-237500D01*
G01*
X139425000Y-140387500D01*
G75*
G02*
X139187500Y-140625000I-237500J0D01*
G01*
X138712500Y-140625000D01*
G75*
G02*
X138475000Y-140387500I0J237500D01*
G01*
X138475000Y-139812500D01*
G75*
G02*
X138712500Y-139575000I237500J0D01*
G01*
G37*
G36*
G01*
X138712500Y-137825000D02*
X139187500Y-137825000D01*
G75*
G02*
X139425000Y-138062500I0J-237500D01*
G01*
X139425000Y-138637500D01*
G75*
G02*
X139187500Y-138875000I-237500J0D01*
G01*
X138712500Y-138875000D01*
G75*
G02*
X138475000Y-138637500I0J237500D01*
G01*
X138475000Y-138062500D01*
G75*
G02*
X138712500Y-137825000I237500J0D01*
G01*
G37*
%TD*%
%TO.C,C6*%
G36*
G01*
X166362500Y-140000000D02*
X166837500Y-140000000D01*
G75*
G02*
X167075000Y-140237500I0J-237500D01*
G01*
X167075000Y-140812500D01*
G75*
G02*
X166837500Y-141050000I-237500J0D01*
G01*
X166362500Y-141050000D01*
G75*
G02*
X166125000Y-140812500I0J237500D01*
G01*
X166125000Y-140237500D01*
G75*
G02*
X166362500Y-140000000I237500J0D01*
G01*
G37*
G36*
G01*
X166362500Y-138250000D02*
X166837500Y-138250000D01*
G75*
G02*
X167075000Y-138487500I0J-237500D01*
G01*
X167075000Y-139062500D01*
G75*
G02*
X166837500Y-139300000I-237500J0D01*
G01*
X166362500Y-139300000D01*
G75*
G02*
X166125000Y-139062500I0J237500D01*
G01*
X166125000Y-138487500D01*
G75*
G02*
X166362500Y-138250000I237500J0D01*
G01*
G37*
%TD*%
M02*
