M48
; DRILL file {KiCad (5.1.6)-1} date 08/14/20 21:54:11
; FORMAT={3:3/ absolute / metric / suppress leading zeros}
; #@! TF.CreationDate,2020-08-14T21:54:11-04:00
; #@! TF.GenerationSoftware,Kicad,Pcbnew,(5.1.6)-1
FMAT,2
METRIC,TZ
T1C0.400
T2C0.500
%
G90
G05
T1
X153684Y-95698
X153806Y-98031
X153895Y-102380
X154146Y-104177
X154195Y-94702
X156602Y-95388
X157774Y-95372
X159727Y-82400
X165115Y-73001
X167979Y-102965
T2
X170600Y-112500
X171600Y-112500
X172600Y-112500
X173600Y-112500
X174600Y-112500
X175600Y-112500
X151500Y-112500
X152500Y-112500
X153500Y-112500
X159800Y-112500
X160800Y-112500
X161800Y-112500
X143700Y-112500
X144700Y-112500
X145700Y-112500
T0
M30
