%TF.GenerationSoftware,KiCad,Pcbnew,(5.1.6)-1*%
%TF.CreationDate,2020-08-14T21:54:29-04:00*%
%TF.ProjectId,CellLight,43656c6c-4c69-4676-9874-2e6b69636164,rev?*%
%TF.SameCoordinates,Original*%
%TF.FileFunction,Copper,L2,Bot*%
%TF.FilePolarity,Positive*%
%FSLAX46Y46*%
G04 Gerber Fmt 4.6, Leading zero omitted, Abs format (unit mm)*
G04 Created by KiCad (PCBNEW (5.1.6)-1) date 2020-08-14 21:54:29*
%MOMM*%
%LPD*%
G01*
G04 APERTURE LIST*
%TA.AperFunction,SMDPad,CuDef*%
%ADD10R,1.060000X0.650000*%
%TD*%
%TA.AperFunction,ComponentPad*%
%ADD11O,0.850000X0.850000*%
%TD*%
%TA.AperFunction,ComponentPad*%
%ADD12R,0.850000X0.850000*%
%TD*%
%TA.AperFunction,SMDPad,CuDef*%
%ADD13R,2.500000X1.800000*%
%TD*%
%TA.AperFunction,ViaPad*%
%ADD14C,0.800000*%
%TD*%
%TA.AperFunction,Conductor*%
%ADD15C,0.250000*%
%TD*%
%TA.AperFunction,Conductor*%
%ADD16C,0.400000*%
%TD*%
%TA.AperFunction,Conductor*%
%ADD17C,0.254000*%
%TD*%
G04 APERTURE END LIST*
D10*
%TO.P,U5,5*%
%TO.N,+3V3*%
X160600000Y-81450000D03*
%TO.P,U5,4*%
%TO.N,N/C*%
X160600000Y-83350000D03*
%TO.P,U5,3*%
%TO.N,+5V*%
X162800000Y-83350000D03*
%TO.P,U5,2*%
%TO.N,GND*%
X162800000Y-82400000D03*
%TO.P,U5,1*%
%TO.N,+5V*%
X162800000Y-81450000D03*
%TD*%
%TO.P,U4,5*%
%TO.N,Net-(R4-Pad1)*%
X170600000Y-74100000D03*
%TO.P,U4,6*%
%TO.N,Net-(C3-Pad2)*%
X170600000Y-75050000D03*
%TO.P,U4,4*%
%TO.N,Net-(R5-Pad1)*%
X170600000Y-73150000D03*
%TO.P,U4,3*%
%TO.N,+VDC*%
X168400000Y-73150000D03*
%TO.P,U4,2*%
%TO.N,Net-(C3-Pad1)*%
X168400000Y-74100000D03*
%TO.P,U4,1*%
%TO.N,GND*%
X168400000Y-75050000D03*
%TD*%
%TO.P,R6,2*%
%TO.N,+5V*%
%TA.AperFunction,SMDPad,CuDef*%
G36*
G01*
X168050000Y-76662500D02*
X168050000Y-77137500D01*
G75*
G02*
X167812500Y-77375000I-237500J0D01*
G01*
X167237500Y-77375000D01*
G75*
G02*
X167000000Y-77137500I0J237500D01*
G01*
X167000000Y-76662500D01*
G75*
G02*
X167237500Y-76425000I237500J0D01*
G01*
X167812500Y-76425000D01*
G75*
G02*
X168050000Y-76662500I0J-237500D01*
G01*
G37*
%TD.AperFunction*%
%TO.P,R6,1*%
%TO.N,Net-(R5-Pad1)*%
%TA.AperFunction,SMDPad,CuDef*%
G36*
G01*
X169800000Y-76662500D02*
X169800000Y-77137500D01*
G75*
G02*
X169562500Y-77375000I-237500J0D01*
G01*
X168987500Y-77375000D01*
G75*
G02*
X168750000Y-77137500I0J237500D01*
G01*
X168750000Y-76662500D01*
G75*
G02*
X168987500Y-76425000I237500J0D01*
G01*
X169562500Y-76425000D01*
G75*
G02*
X169800000Y-76662500I0J-237500D01*
G01*
G37*
%TD.AperFunction*%
%TD*%
%TO.P,R5,2*%
%TO.N,GND*%
%TA.AperFunction,SMDPad,CuDef*%
G36*
G01*
X172737500Y-71750000D02*
X172262500Y-71750000D01*
G75*
G02*
X172025000Y-71512500I0J237500D01*
G01*
X172025000Y-70937500D01*
G75*
G02*
X172262500Y-70700000I237500J0D01*
G01*
X172737500Y-70700000D01*
G75*
G02*
X172975000Y-70937500I0J-237500D01*
G01*
X172975000Y-71512500D01*
G75*
G02*
X172737500Y-71750000I-237500J0D01*
G01*
G37*
%TD.AperFunction*%
%TO.P,R5,1*%
%TO.N,Net-(R5-Pad1)*%
%TA.AperFunction,SMDPad,CuDef*%
G36*
G01*
X172737500Y-73500000D02*
X172262500Y-73500000D01*
G75*
G02*
X172025000Y-73262500I0J237500D01*
G01*
X172025000Y-72687500D01*
G75*
G02*
X172262500Y-72450000I237500J0D01*
G01*
X172737500Y-72450000D01*
G75*
G02*
X172975000Y-72687500I0J-237500D01*
G01*
X172975000Y-73262500D01*
G75*
G02*
X172737500Y-73500000I-237500J0D01*
G01*
G37*
%TD.AperFunction*%
%TD*%
%TO.P,R4,2*%
%TO.N,+VDC*%
%TA.AperFunction,SMDPad,CuDef*%
G36*
G01*
X174837500Y-72675000D02*
X174362500Y-72675000D01*
G75*
G02*
X174125000Y-72437500I0J237500D01*
G01*
X174125000Y-71862500D01*
G75*
G02*
X174362500Y-71625000I237500J0D01*
G01*
X174837500Y-71625000D01*
G75*
G02*
X175075000Y-71862500I0J-237500D01*
G01*
X175075000Y-72437500D01*
G75*
G02*
X174837500Y-72675000I-237500J0D01*
G01*
G37*
%TD.AperFunction*%
%TO.P,R4,1*%
%TO.N,Net-(R4-Pad1)*%
%TA.AperFunction,SMDPad,CuDef*%
G36*
G01*
X174837500Y-74425000D02*
X174362500Y-74425000D01*
G75*
G02*
X174125000Y-74187500I0J237500D01*
G01*
X174125000Y-73612500D01*
G75*
G02*
X174362500Y-73375000I237500J0D01*
G01*
X174837500Y-73375000D01*
G75*
G02*
X175075000Y-73612500I0J-237500D01*
G01*
X175075000Y-74187500D01*
G75*
G02*
X174837500Y-74425000I-237500J0D01*
G01*
G37*
%TD.AperFunction*%
%TD*%
%TO.P,L1,2*%
%TO.N,+5V*%
%TA.AperFunction,SMDPad,CuDef*%
G36*
G01*
X165150000Y-73862500D02*
X165150000Y-74337500D01*
G75*
G02*
X164912500Y-74575000I-237500J0D01*
G01*
X164337500Y-74575000D01*
G75*
G02*
X164100000Y-74337500I0J237500D01*
G01*
X164100000Y-73862500D01*
G75*
G02*
X164337500Y-73625000I237500J0D01*
G01*
X164912500Y-73625000D01*
G75*
G02*
X165150000Y-73862500I0J-237500D01*
G01*
G37*
%TD.AperFunction*%
%TO.P,L1,1*%
%TO.N,Net-(C3-Pad1)*%
%TA.AperFunction,SMDPad,CuDef*%
G36*
G01*
X166900000Y-73862500D02*
X166900000Y-74337500D01*
G75*
G02*
X166662500Y-74575000I-237500J0D01*
G01*
X166087500Y-74575000D01*
G75*
G02*
X165850000Y-74337500I0J237500D01*
G01*
X165850000Y-73862500D01*
G75*
G02*
X166087500Y-73625000I237500J0D01*
G01*
X166662500Y-73625000D01*
G75*
G02*
X166900000Y-73862500I0J-237500D01*
G01*
G37*
%TD.AperFunction*%
%TD*%
D11*
%TO.P,J4,6*%
%TO.N,N/C*%
X175600000Y-112500000D03*
%TO.P,J4,5*%
%TO.N,PGEC*%
X174600000Y-112500000D03*
%TO.P,J4,4*%
%TO.N,PGED*%
X173600000Y-112500000D03*
%TO.P,J4,3*%
%TO.N,GND*%
X172600000Y-112500000D03*
%TO.P,J4,2*%
%TO.N,+3V3*%
X171600000Y-112500000D03*
D12*
%TO.P,J4,1*%
%TO.N,RESET*%
X170600000Y-112500000D03*
%TD*%
D11*
%TO.P,J3,3*%
%TO.N,PRI_LO*%
X161800000Y-112500000D03*
%TO.P,J3,2*%
%TO.N,PORT3_IO*%
X160800000Y-112500000D03*
D12*
%TO.P,J3,1*%
%TO.N,PRI_HI*%
X159800000Y-112500000D03*
%TD*%
D11*
%TO.P,J2,3*%
%TO.N,PRI_LO*%
X153500000Y-112500000D03*
%TO.P,J2,2*%
%TO.N,PORT2_IO*%
X152500000Y-112500000D03*
D12*
%TO.P,J2,1*%
%TO.N,PRI_HI*%
X151500000Y-112500000D03*
%TD*%
D11*
%TO.P,J1,3*%
%TO.N,PRI_LO*%
X145700000Y-112500000D03*
%TO.P,J1,2*%
%TO.N,PORT1_IO*%
X144700000Y-112500000D03*
D12*
%TO.P,J1,1*%
%TO.N,PRI_HI*%
X143700000Y-112500000D03*
%TD*%
D13*
%TO.P,D4,2*%
%TO.N,PRI_LO*%
X153000000Y-77200000D03*
%TO.P,D4,1*%
%TO.N,+VDC*%
X157000000Y-77200000D03*
%TD*%
%TO.P,D3,2*%
%TO.N,PRI_HI*%
X153000000Y-70600000D03*
%TO.P,D3,1*%
%TO.N,+VDC*%
X157000000Y-70600000D03*
%TD*%
%TO.P,D2,2*%
%TO.N,GND*%
X149500000Y-77200000D03*
%TO.P,D2,1*%
%TO.N,PRI_LO*%
X145500000Y-77200000D03*
%TD*%
%TO.P,D1,2*%
%TO.N,GND*%
X145500000Y-70600000D03*
%TO.P,D1,1*%
%TO.N,PRI_HI*%
X149500000Y-70600000D03*
%TD*%
%TO.P,C11,2*%
%TO.N,GND*%
%TA.AperFunction,SMDPad,CuDef*%
G36*
G01*
X157962500Y-82750000D02*
X158437500Y-82750000D01*
G75*
G02*
X158675000Y-82987500I0J-237500D01*
G01*
X158675000Y-83562500D01*
G75*
G02*
X158437500Y-83800000I-237500J0D01*
G01*
X157962500Y-83800000D01*
G75*
G02*
X157725000Y-83562500I0J237500D01*
G01*
X157725000Y-82987500D01*
G75*
G02*
X157962500Y-82750000I237500J0D01*
G01*
G37*
%TD.AperFunction*%
%TO.P,C11,1*%
%TO.N,+3V3*%
%TA.AperFunction,SMDPad,CuDef*%
G36*
G01*
X157962500Y-81000000D02*
X158437500Y-81000000D01*
G75*
G02*
X158675000Y-81237500I0J-237500D01*
G01*
X158675000Y-81812500D01*
G75*
G02*
X158437500Y-82050000I-237500J0D01*
G01*
X157962500Y-82050000D01*
G75*
G02*
X157725000Y-81812500I0J237500D01*
G01*
X157725000Y-81237500D01*
G75*
G02*
X157962500Y-81000000I237500J0D01*
G01*
G37*
%TD.AperFunction*%
%TD*%
%TO.P,C10,2*%
%TO.N,GND*%
%TA.AperFunction,SMDPad,CuDef*%
G36*
G01*
X168750000Y-78937500D02*
X168750000Y-78462500D01*
G75*
G02*
X168987500Y-78225000I237500J0D01*
G01*
X169562500Y-78225000D01*
G75*
G02*
X169800000Y-78462500I0J-237500D01*
G01*
X169800000Y-78937500D01*
G75*
G02*
X169562500Y-79175000I-237500J0D01*
G01*
X168987500Y-79175000D01*
G75*
G02*
X168750000Y-78937500I0J237500D01*
G01*
G37*
%TD.AperFunction*%
%TO.P,C10,1*%
%TO.N,+5V*%
%TA.AperFunction,SMDPad,CuDef*%
G36*
G01*
X167000000Y-78937500D02*
X167000000Y-78462500D01*
G75*
G02*
X167237500Y-78225000I237500J0D01*
G01*
X167812500Y-78225000D01*
G75*
G02*
X168050000Y-78462500I0J-237500D01*
G01*
X168050000Y-78937500D01*
G75*
G02*
X167812500Y-79175000I-237500J0D01*
G01*
X167237500Y-79175000D01*
G75*
G02*
X167000000Y-78937500I0J237500D01*
G01*
G37*
%TD.AperFunction*%
%TD*%
%TO.P,C9,2*%
%TO.N,GND*%
%TA.AperFunction,SMDPad,CuDef*%
G36*
G01*
X160037500Y-69350000D02*
X159562500Y-69350000D01*
G75*
G02*
X159325000Y-69112500I0J237500D01*
G01*
X159325000Y-68537500D01*
G75*
G02*
X159562500Y-68300000I237500J0D01*
G01*
X160037500Y-68300000D01*
G75*
G02*
X160275000Y-68537500I0J-237500D01*
G01*
X160275000Y-69112500D01*
G75*
G02*
X160037500Y-69350000I-237500J0D01*
G01*
G37*
%TD.AperFunction*%
%TO.P,C9,1*%
%TO.N,+VDC*%
%TA.AperFunction,SMDPad,CuDef*%
G36*
G01*
X160037500Y-71100000D02*
X159562500Y-71100000D01*
G75*
G02*
X159325000Y-70862500I0J237500D01*
G01*
X159325000Y-70287500D01*
G75*
G02*
X159562500Y-70050000I237500J0D01*
G01*
X160037500Y-70050000D01*
G75*
G02*
X160275000Y-70287500I0J-237500D01*
G01*
X160275000Y-70862500D01*
G75*
G02*
X160037500Y-71100000I-237500J0D01*
G01*
G37*
%TD.AperFunction*%
%TD*%
%TO.P,C8,2*%
%TO.N,GND*%
%TA.AperFunction,SMDPad,CuDef*%
G36*
G01*
X162137500Y-69350000D02*
X161662500Y-69350000D01*
G75*
G02*
X161425000Y-69112500I0J237500D01*
G01*
X161425000Y-68537500D01*
G75*
G02*
X161662500Y-68300000I237500J0D01*
G01*
X162137500Y-68300000D01*
G75*
G02*
X162375000Y-68537500I0J-237500D01*
G01*
X162375000Y-69112500D01*
G75*
G02*
X162137500Y-69350000I-237500J0D01*
G01*
G37*
%TD.AperFunction*%
%TO.P,C8,1*%
%TO.N,+VDC*%
%TA.AperFunction,SMDPad,CuDef*%
G36*
G01*
X162137500Y-71100000D02*
X161662500Y-71100000D01*
G75*
G02*
X161425000Y-70862500I0J237500D01*
G01*
X161425000Y-70287500D01*
G75*
G02*
X161662500Y-70050000I237500J0D01*
G01*
X162137500Y-70050000D01*
G75*
G02*
X162375000Y-70287500I0J-237500D01*
G01*
X162375000Y-70862500D01*
G75*
G02*
X162137500Y-71100000I-237500J0D01*
G01*
G37*
%TD.AperFunction*%
%TD*%
%TO.P,C7,2*%
%TO.N,GND*%
%TA.AperFunction,SMDPad,CuDef*%
G36*
G01*
X164137500Y-69350000D02*
X163662500Y-69350000D01*
G75*
G02*
X163425000Y-69112500I0J237500D01*
G01*
X163425000Y-68537500D01*
G75*
G02*
X163662500Y-68300000I237500J0D01*
G01*
X164137500Y-68300000D01*
G75*
G02*
X164375000Y-68537500I0J-237500D01*
G01*
X164375000Y-69112500D01*
G75*
G02*
X164137500Y-69350000I-237500J0D01*
G01*
G37*
%TD.AperFunction*%
%TO.P,C7,1*%
%TO.N,+VDC*%
%TA.AperFunction,SMDPad,CuDef*%
G36*
G01*
X164137500Y-71100000D02*
X163662500Y-71100000D01*
G75*
G02*
X163425000Y-70862500I0J237500D01*
G01*
X163425000Y-70287500D01*
G75*
G02*
X163662500Y-70050000I237500J0D01*
G01*
X164137500Y-70050000D01*
G75*
G02*
X164375000Y-70287500I0J-237500D01*
G01*
X164375000Y-70862500D01*
G75*
G02*
X164137500Y-71100000I-237500J0D01*
G01*
G37*
%TD.AperFunction*%
%TD*%
%TO.P,C6,2*%
%TO.N,GND*%
%TA.AperFunction,SMDPad,CuDef*%
G36*
G01*
X168720000Y-82437500D02*
X168720000Y-81962500D01*
G75*
G02*
X168957500Y-81725000I237500J0D01*
G01*
X169532500Y-81725000D01*
G75*
G02*
X169770000Y-81962500I0J-237500D01*
G01*
X169770000Y-82437500D01*
G75*
G02*
X169532500Y-82675000I-237500J0D01*
G01*
X168957500Y-82675000D01*
G75*
G02*
X168720000Y-82437500I0J237500D01*
G01*
G37*
%TD.AperFunction*%
%TO.P,C6,1*%
%TO.N,+5V*%
%TA.AperFunction,SMDPad,CuDef*%
G36*
G01*
X166970000Y-82437500D02*
X166970000Y-81962500D01*
G75*
G02*
X167207500Y-81725000I237500J0D01*
G01*
X167782500Y-81725000D01*
G75*
G02*
X168020000Y-81962500I0J-237500D01*
G01*
X168020000Y-82437500D01*
G75*
G02*
X167782500Y-82675000I-237500J0D01*
G01*
X167207500Y-82675000D01*
G75*
G02*
X166970000Y-82437500I0J237500D01*
G01*
G37*
%TD.AperFunction*%
%TD*%
%TO.P,C5,2*%
%TO.N,GND*%
%TA.AperFunction,SMDPad,CuDef*%
G36*
G01*
X166137500Y-69350000D02*
X165662500Y-69350000D01*
G75*
G02*
X165425000Y-69112500I0J237500D01*
G01*
X165425000Y-68537500D01*
G75*
G02*
X165662500Y-68300000I237500J0D01*
G01*
X166137500Y-68300000D01*
G75*
G02*
X166375000Y-68537500I0J-237500D01*
G01*
X166375000Y-69112500D01*
G75*
G02*
X166137500Y-69350000I-237500J0D01*
G01*
G37*
%TD.AperFunction*%
%TO.P,C5,1*%
%TO.N,+VDC*%
%TA.AperFunction,SMDPad,CuDef*%
G36*
G01*
X166137500Y-71100000D02*
X165662500Y-71100000D01*
G75*
G02*
X165425000Y-70862500I0J237500D01*
G01*
X165425000Y-70287500D01*
G75*
G02*
X165662500Y-70050000I237500J0D01*
G01*
X166137500Y-70050000D01*
G75*
G02*
X166375000Y-70287500I0J-237500D01*
G01*
X166375000Y-70862500D01*
G75*
G02*
X166137500Y-71100000I-237500J0D01*
G01*
G37*
%TD.AperFunction*%
%TD*%
%TO.P,C4,2*%
%TO.N,GND*%
%TA.AperFunction,SMDPad,CuDef*%
G36*
G01*
X168720000Y-80687500D02*
X168720000Y-80212500D01*
G75*
G02*
X168957500Y-79975000I237500J0D01*
G01*
X169532500Y-79975000D01*
G75*
G02*
X169770000Y-80212500I0J-237500D01*
G01*
X169770000Y-80687500D01*
G75*
G02*
X169532500Y-80925000I-237500J0D01*
G01*
X168957500Y-80925000D01*
G75*
G02*
X168720000Y-80687500I0J237500D01*
G01*
G37*
%TD.AperFunction*%
%TO.P,C4,1*%
%TO.N,+5V*%
%TA.AperFunction,SMDPad,CuDef*%
G36*
G01*
X166970000Y-80687500D02*
X166970000Y-80212500D01*
G75*
G02*
X167207500Y-79975000I237500J0D01*
G01*
X167782500Y-79975000D01*
G75*
G02*
X168020000Y-80212500I0J-237500D01*
G01*
X168020000Y-80687500D01*
G75*
G02*
X167782500Y-80925000I-237500J0D01*
G01*
X167207500Y-80925000D01*
G75*
G02*
X166970000Y-80687500I0J237500D01*
G01*
G37*
%TD.AperFunction*%
%TD*%
%TO.P,C3,2*%
%TO.N,Net-(C3-Pad2)*%
%TA.AperFunction,SMDPad,CuDef*%
G36*
G01*
X172837500Y-75750000D02*
X172362500Y-75750000D01*
G75*
G02*
X172125000Y-75512500I0J237500D01*
G01*
X172125000Y-74937500D01*
G75*
G02*
X172362500Y-74700000I237500J0D01*
G01*
X172837500Y-74700000D01*
G75*
G02*
X173075000Y-74937500I0J-237500D01*
G01*
X173075000Y-75512500D01*
G75*
G02*
X172837500Y-75750000I-237500J0D01*
G01*
G37*
%TD.AperFunction*%
%TO.P,C3,1*%
%TO.N,Net-(C3-Pad1)*%
%TA.AperFunction,SMDPad,CuDef*%
G36*
G01*
X172837500Y-77500000D02*
X172362500Y-77500000D01*
G75*
G02*
X172125000Y-77262500I0J237500D01*
G01*
X172125000Y-76687500D01*
G75*
G02*
X172362500Y-76450000I237500J0D01*
G01*
X172837500Y-76450000D01*
G75*
G02*
X173075000Y-76687500I0J-237500D01*
G01*
X173075000Y-77262500D01*
G75*
G02*
X172837500Y-77500000I-237500J0D01*
G01*
G37*
%TD.AperFunction*%
%TD*%
D14*
%TO.N,+3V3*%
X153684500Y-95697900D03*
%TO.N,+5V*%
X165115200Y-73000700D03*
%TO.N,PORT1_IO*%
X153894600Y-102380200D03*
%TO.N,PORT2_IO*%
X154146100Y-104177000D03*
%TO.N,PORT3_IO*%
X153805900Y-98030600D03*
%TO.N,PGEC*%
X156601600Y-95387900D03*
%TO.N,PGED*%
X157774000Y-95372300D03*
%TO.N,RESET*%
X159726700Y-82400000D03*
%TO.N,FRAM_WP*%
X154195000Y-94701600D03*
X167978500Y-102965000D03*
%TD*%
D15*
%TO.N,GND*%
X167444600Y-84000400D02*
X162125100Y-84000400D01*
X162125100Y-84000400D02*
X161944700Y-83820000D01*
X161944700Y-83820000D02*
X161944700Y-82400000D01*
X169245000Y-82200000D02*
X167444600Y-84000400D01*
X172600000Y-112500000D02*
X172600000Y-89155800D01*
X172600000Y-89155800D02*
X167444600Y-84000400D01*
X169245000Y-80450000D02*
X169245000Y-82200000D01*
X158200000Y-83275000D02*
X157370800Y-82445800D01*
X157370800Y-82445800D02*
X157370800Y-81017700D01*
X157370800Y-81017700D02*
X157758900Y-80629600D01*
X157758900Y-80629600D02*
X161099800Y-80629600D01*
X161099800Y-80629600D02*
X161944700Y-81474500D01*
X161944700Y-81474500D02*
X161944700Y-82400000D01*
X162800000Y-82400000D02*
X161944700Y-82400000D01*
X149500000Y-77200000D02*
X149500000Y-75974700D01*
X146432700Y-71212600D02*
X146432700Y-72907400D01*
X146432700Y-72907400D02*
X149500000Y-75974700D01*
X159800000Y-68825000D02*
X148587100Y-68825000D01*
X148587100Y-68825000D02*
X146432700Y-70979400D01*
X146432700Y-70979400D02*
X146432700Y-71212600D01*
X175070200Y-73025000D02*
X173984200Y-73025000D01*
X173984200Y-73025000D02*
X172500000Y-71540800D01*
X169275000Y-78700000D02*
X172244200Y-78700000D01*
X172244200Y-78700000D02*
X175448300Y-75495900D01*
X175448300Y-75495900D02*
X175448300Y-73403100D01*
X175448300Y-73403100D02*
X175070200Y-73025000D01*
X165900000Y-68825000D02*
X172649100Y-68825000D01*
X172649100Y-68825000D02*
X175401300Y-71577200D01*
X175401300Y-71577200D02*
X175401300Y-72693900D01*
X175401300Y-72693900D02*
X175070200Y-73025000D01*
X163900000Y-68825000D02*
X165900000Y-68825000D01*
X145500000Y-71212600D02*
X146432700Y-71212600D01*
X145500000Y-70600000D02*
X145500000Y-71212600D01*
X169255300Y-75050000D02*
X169255300Y-72994400D01*
X169255300Y-72994400D02*
X170708900Y-71540800D01*
X170708900Y-71540800D02*
X172500000Y-71540800D01*
X172500000Y-71540800D02*
X172500000Y-71225000D01*
X169275000Y-78700000D02*
X169275000Y-80420000D01*
X169275000Y-80420000D02*
X169245000Y-80450000D01*
X168400000Y-75050000D02*
X169255300Y-75050000D01*
X161900000Y-68825000D02*
X163900000Y-68825000D01*
X161900000Y-68825000D02*
X159800000Y-68825000D01*
%TO.N,+3V3*%
X159004500Y-93179800D02*
X154679700Y-93179800D01*
X154679700Y-93179800D02*
X153469600Y-94389900D01*
X153469600Y-94389900D02*
X153469600Y-95483000D01*
X153469600Y-95483000D02*
X153684500Y-95697900D01*
X171600000Y-113250300D02*
X170005600Y-113250300D01*
X170005600Y-113250300D02*
X169575700Y-112820400D01*
X169575700Y-112820400D02*
X169575700Y-103499200D01*
X169575700Y-103499200D02*
X159256300Y-93179800D01*
X159256300Y-93179800D02*
X159004500Y-93179800D01*
X159004500Y-93179800D02*
X159004500Y-82731000D01*
X159004500Y-82731000D02*
X158954200Y-82680700D01*
X158954200Y-82680700D02*
X158954200Y-81674600D01*
X158954200Y-81674600D02*
X159520100Y-81674600D01*
X159520100Y-81674600D02*
X159744700Y-81450000D01*
X158200000Y-81525000D02*
X158349600Y-81674600D01*
X158349600Y-81674600D02*
X158954200Y-81674600D01*
X160600000Y-81450000D02*
X159744700Y-81450000D01*
X171600000Y-112500000D02*
X171600000Y-113250300D01*
%TO.N,Net-(C3-Pad2)*%
X170600000Y-75050000D02*
X171455300Y-75050000D01*
X172600000Y-75225000D02*
X171630300Y-75225000D01*
X171630300Y-75225000D02*
X171455300Y-75050000D01*
%TO.N,Net-(C3-Pad1)*%
X166375000Y-74100000D02*
X167544700Y-74100000D01*
X168400000Y-74100000D02*
X167544700Y-74100000D01*
X172600000Y-76975000D02*
X171798700Y-77776300D01*
X171798700Y-77776300D02*
X168772000Y-77776300D01*
X168772000Y-77776300D02*
X168400000Y-77404300D01*
X168400000Y-77404300D02*
X168400000Y-76413800D01*
X168400000Y-76413800D02*
X167544700Y-75558500D01*
X167544700Y-75558500D02*
X167544700Y-74100000D01*
D16*
%TO.N,+5V*%
X163730300Y-81450000D02*
X167495000Y-81450000D01*
X162800000Y-81450000D02*
X163730300Y-81450000D01*
X163730300Y-81450000D02*
X163730300Y-83350000D01*
X162800000Y-83350000D02*
X163730300Y-83350000D01*
X165115200Y-74100000D02*
X165115200Y-74490200D01*
X165115200Y-74490200D02*
X167525000Y-76900000D01*
X164625000Y-74100000D02*
X165115200Y-74100000D01*
X165115200Y-74100000D02*
X165115200Y-73000700D01*
X167495000Y-81450000D02*
X167495000Y-82200000D01*
X167495000Y-80450000D02*
X167495000Y-81450000D01*
X167525000Y-78700000D02*
X167525000Y-80420000D01*
X167525000Y-80420000D02*
X167495000Y-80450000D01*
X167525000Y-78700000D02*
X167525000Y-76900000D01*
%TO.N,+VDC*%
X165900000Y-70575000D02*
X168379000Y-73054000D01*
X168379000Y-73054000D02*
X168400000Y-73054000D01*
X163900000Y-70575000D02*
X165900000Y-70575000D01*
X168400000Y-73054000D02*
X168400000Y-73150000D01*
X174600000Y-72150000D02*
X174600000Y-71883300D01*
X174600000Y-71883300D02*
X172966800Y-70250100D01*
X172966800Y-70250100D02*
X171203900Y-70250100D01*
X171203900Y-70250100D02*
X168400000Y-73054000D01*
X157000000Y-70600000D02*
X158650300Y-70600000D01*
X158650300Y-70600000D02*
X158675300Y-70575000D01*
X158675300Y-70575000D02*
X159800000Y-70575000D01*
X157000000Y-75899700D02*
X157000000Y-70600000D01*
X157000000Y-77200000D02*
X157000000Y-75899700D01*
X161900000Y-70575000D02*
X163900000Y-70575000D01*
X159800000Y-70575000D02*
X161900000Y-70575000D01*
%TO.N,PRI_HI*%
X155967600Y-111379400D02*
X155967600Y-101548000D01*
X155967600Y-101548000D02*
X152869200Y-98449600D01*
X152869200Y-98449600D02*
X152869200Y-92275100D01*
X152869200Y-92275100D02*
X154650400Y-90493900D01*
X154650400Y-90493900D02*
X154650400Y-73550700D01*
X154650400Y-73550700D02*
X153000000Y-71900300D01*
X158974700Y-112500000D02*
X157088200Y-112500000D01*
X157088200Y-112500000D02*
X155967600Y-111379400D01*
X155967600Y-111379400D02*
X154021700Y-113325300D01*
X154021700Y-113325300D02*
X151500000Y-113325300D01*
X153000000Y-70600000D02*
X153000000Y-71900300D01*
X149500000Y-70600000D02*
X153000000Y-70600000D01*
X159800000Y-112500000D02*
X158974700Y-112500000D01*
X151500000Y-112500000D02*
X151500000Y-113325300D01*
%TO.N,PRI_LO*%
X145500000Y-77200000D02*
X145500000Y-78500300D01*
X153000000Y-77200000D02*
X153000000Y-78500300D01*
X152268800Y-78545600D02*
X152268800Y-99547000D01*
X152268800Y-99547000D02*
X154994700Y-102272900D01*
X154994700Y-102272900D02*
X154994700Y-110180000D01*
X154994700Y-110180000D02*
X153500000Y-111674700D01*
X153000000Y-78500300D02*
X152314100Y-78500300D01*
X152314100Y-78500300D02*
X152268800Y-78545600D01*
X145500000Y-78500300D02*
X152223500Y-78500300D01*
X152223500Y-78500300D02*
X152268800Y-78545600D01*
X153500000Y-112500000D02*
X153500000Y-111674700D01*
D15*
%TO.N,PORT1_IO*%
X144700000Y-112500000D02*
X144700000Y-111574800D01*
X144700000Y-111574800D02*
X153894600Y-102380200D01*
%TO.N,PORT2_IO*%
X152500000Y-112500000D02*
X152500000Y-105823100D01*
X152500000Y-105823100D02*
X154146100Y-104177000D01*
%TO.N,PORT3_IO*%
X160800000Y-112500000D02*
X160800000Y-106459500D01*
X160800000Y-106459500D02*
X156492900Y-102152400D01*
X156492900Y-102152400D02*
X156492900Y-100717600D01*
X156492900Y-100717600D02*
X153805900Y-98030600D01*
%TO.N,PGEC*%
X174600000Y-113250300D02*
X173668800Y-114181500D01*
X173668800Y-114181500D02*
X169649900Y-114181500D01*
X169649900Y-114181500D02*
X156943200Y-101474800D01*
X156943200Y-101474800D02*
X156943200Y-95729500D01*
X156943200Y-95729500D02*
X156601600Y-95387900D01*
X174600000Y-112500000D02*
X174600000Y-113250300D01*
%TO.N,PGED*%
X173600000Y-113250300D02*
X173149700Y-113700600D01*
X173149700Y-113700600D02*
X169819000Y-113700600D01*
X169819000Y-113700600D02*
X157774000Y-101655600D01*
X157774000Y-101655600D02*
X157774000Y-95372300D01*
X173600000Y-112500000D02*
X173600000Y-113250300D01*
%TO.N,RESET*%
X159726700Y-82400000D02*
X159726700Y-92934300D01*
X159726700Y-92934300D02*
X170600000Y-103807600D01*
X170600000Y-103807600D02*
X170600000Y-112500000D01*
%TO.N,Net-(R4-Pad1)*%
X174600000Y-73900000D02*
X174400000Y-74100000D01*
X174400000Y-74100000D02*
X170600000Y-74100000D01*
%TO.N,Net-(R5-Pad1)*%
X170600000Y-73150000D02*
X171455300Y-73150000D01*
X172500000Y-72975000D02*
X171630300Y-72975000D01*
X171630300Y-72975000D02*
X171455300Y-73150000D01*
X170600000Y-73150000D02*
X169744700Y-73150000D01*
X169744700Y-73150000D02*
X169744700Y-76430300D01*
X169744700Y-76430300D02*
X169275000Y-76900000D01*
%TO.N,FRAM_WP*%
X167978500Y-102965000D02*
X159649100Y-94635600D01*
X159649100Y-94635600D02*
X154261000Y-94635600D01*
X154261000Y-94635600D02*
X154195000Y-94701600D01*
%TD*%
D17*
%TO.N,GND*%
G36*
X185640000Y-115340000D02*
G01*
X136960000Y-115340000D01*
X136960000Y-112075000D01*
X142636928Y-112075000D01*
X142636928Y-112925000D01*
X142649188Y-113049482D01*
X142685498Y-113169180D01*
X142744463Y-113279494D01*
X142823815Y-113376185D01*
X142920506Y-113455537D01*
X143030820Y-113514502D01*
X143150518Y-113550812D01*
X143275000Y-113563072D01*
X144125000Y-113563072D01*
X144249482Y-113550812D01*
X144369180Y-113514502D01*
X144373603Y-113512138D01*
X144390809Y-113519265D01*
X144595599Y-113560000D01*
X144804401Y-113560000D01*
X145009191Y-113519265D01*
X145200000Y-113440229D01*
X145390809Y-113519265D01*
X145595599Y-113560000D01*
X145804401Y-113560000D01*
X146009191Y-113519265D01*
X146202098Y-113439360D01*
X146375711Y-113323356D01*
X146523356Y-113175711D01*
X146639360Y-113002098D01*
X146719265Y-112809191D01*
X146760000Y-112604401D01*
X146760000Y-112395599D01*
X146719265Y-112190809D01*
X146639360Y-111997902D01*
X146523356Y-111824289D01*
X146375711Y-111676644D01*
X146202098Y-111560640D01*
X146009191Y-111480735D01*
X145892147Y-111457454D01*
X151783876Y-105565725D01*
X151750998Y-105674115D01*
X151736324Y-105823100D01*
X151740001Y-105860432D01*
X151740000Y-111436928D01*
X151075000Y-111436928D01*
X150950518Y-111449188D01*
X150830820Y-111485498D01*
X150720506Y-111544463D01*
X150623815Y-111623815D01*
X150544463Y-111720506D01*
X150485498Y-111830820D01*
X150449188Y-111950518D01*
X150436928Y-112075000D01*
X150436928Y-112925000D01*
X150449188Y-113049482D01*
X150485498Y-113169180D01*
X150544463Y-113279494D01*
X150623815Y-113376185D01*
X150669679Y-113413824D01*
X150677082Y-113488989D01*
X150724828Y-113646387D01*
X150802364Y-113791446D01*
X150906709Y-113918591D01*
X151033854Y-114022936D01*
X151178913Y-114100472D01*
X151336311Y-114148218D01*
X151458981Y-114160300D01*
X151458982Y-114160300D01*
X151500000Y-114164340D01*
X151541019Y-114160300D01*
X153980682Y-114160300D01*
X154021700Y-114164340D01*
X154062718Y-114160300D01*
X154062719Y-114160300D01*
X154185389Y-114148218D01*
X154342787Y-114100472D01*
X154487846Y-114022936D01*
X154614991Y-113918591D01*
X154641146Y-113886721D01*
X155967600Y-112560268D01*
X156468763Y-113061432D01*
X156494909Y-113093291D01*
X156526768Y-113119437D01*
X156526770Y-113119439D01*
X156587380Y-113169180D01*
X156622054Y-113197636D01*
X156767113Y-113275172D01*
X156924511Y-113322918D01*
X157047181Y-113335000D01*
X157047182Y-113335000D01*
X157088200Y-113339040D01*
X157129218Y-113335000D01*
X158890015Y-113335000D01*
X158923815Y-113376185D01*
X159020506Y-113455537D01*
X159130820Y-113514502D01*
X159250518Y-113550812D01*
X159375000Y-113563072D01*
X160225000Y-113563072D01*
X160349482Y-113550812D01*
X160469180Y-113514502D01*
X160473603Y-113512138D01*
X160490809Y-113519265D01*
X160695599Y-113560000D01*
X160904401Y-113560000D01*
X161109191Y-113519265D01*
X161300000Y-113440229D01*
X161490809Y-113519265D01*
X161695599Y-113560000D01*
X161904401Y-113560000D01*
X162109191Y-113519265D01*
X162302098Y-113439360D01*
X162475711Y-113323356D01*
X162623356Y-113175711D01*
X162739360Y-113002098D01*
X162819265Y-112809191D01*
X162860000Y-112604401D01*
X162860000Y-112395599D01*
X162819265Y-112190809D01*
X162739360Y-111997902D01*
X162623356Y-111824289D01*
X162475711Y-111676644D01*
X162302098Y-111560640D01*
X162109191Y-111480735D01*
X161904401Y-111440000D01*
X161695599Y-111440000D01*
X161560000Y-111466972D01*
X161560000Y-107166402D01*
X169086105Y-114692508D01*
X169109899Y-114721501D01*
X169138892Y-114745295D01*
X169138896Y-114745299D01*
X169209585Y-114803311D01*
X169225624Y-114816474D01*
X169357653Y-114887046D01*
X169500914Y-114930503D01*
X169612567Y-114941500D01*
X169612576Y-114941500D01*
X169649899Y-114945176D01*
X169687222Y-114941500D01*
X173631478Y-114941500D01*
X173668800Y-114945176D01*
X173706122Y-114941500D01*
X173706133Y-114941500D01*
X173817786Y-114930503D01*
X173961047Y-114887046D01*
X174093076Y-114816474D01*
X174208801Y-114721501D01*
X174232603Y-114692498D01*
X175111003Y-113814099D01*
X175140001Y-113790301D01*
X175234974Y-113674576D01*
X175305546Y-113542547D01*
X175311368Y-113523354D01*
X175495599Y-113560000D01*
X175704401Y-113560000D01*
X175909191Y-113519265D01*
X176102098Y-113439360D01*
X176275711Y-113323356D01*
X176423356Y-113175711D01*
X176539360Y-113002098D01*
X176619265Y-112809191D01*
X176660000Y-112604401D01*
X176660000Y-112395599D01*
X176619265Y-112190809D01*
X176539360Y-111997902D01*
X176423356Y-111824289D01*
X176275711Y-111676644D01*
X176102098Y-111560640D01*
X175909191Y-111480735D01*
X175704401Y-111440000D01*
X175495599Y-111440000D01*
X175290809Y-111480735D01*
X175100000Y-111559771D01*
X174909191Y-111480735D01*
X174704401Y-111440000D01*
X174495599Y-111440000D01*
X174290809Y-111480735D01*
X174100000Y-111559771D01*
X173909191Y-111480735D01*
X173704401Y-111440000D01*
X173495599Y-111440000D01*
X173290809Y-111480735D01*
X173097902Y-111560640D01*
X173092882Y-111563994D01*
X172925250Y-111491128D01*
X172890062Y-111480460D01*
X172727000Y-111607743D01*
X172727000Y-111898587D01*
X172660640Y-111997902D01*
X172600000Y-112144299D01*
X172539360Y-111997902D01*
X172473000Y-111898587D01*
X172473000Y-111607743D01*
X172309938Y-111480460D01*
X172274750Y-111491128D01*
X172107118Y-111563994D01*
X172102098Y-111560640D01*
X171909191Y-111480735D01*
X171704401Y-111440000D01*
X171495599Y-111440000D01*
X171360000Y-111466972D01*
X171360000Y-103844922D01*
X171363676Y-103807599D01*
X171360000Y-103770276D01*
X171360000Y-103770267D01*
X171349003Y-103658614D01*
X171305546Y-103515353D01*
X171234974Y-103383324D01*
X171140001Y-103267599D01*
X171111004Y-103243802D01*
X160486700Y-92619499D01*
X160486700Y-84313072D01*
X161130000Y-84313072D01*
X161254482Y-84300812D01*
X161374180Y-84264502D01*
X161484494Y-84205537D01*
X161581185Y-84126185D01*
X161660537Y-84029494D01*
X161700000Y-83955665D01*
X161739463Y-84029494D01*
X161818815Y-84126185D01*
X161915506Y-84205537D01*
X162025820Y-84264502D01*
X162145518Y-84300812D01*
X162270000Y-84313072D01*
X163330000Y-84313072D01*
X163454482Y-84300812D01*
X163574180Y-84264502D01*
X163684494Y-84205537D01*
X163707350Y-84186780D01*
X163730300Y-84189040D01*
X163893989Y-84172918D01*
X164051387Y-84125172D01*
X164196446Y-84047636D01*
X164323591Y-83943291D01*
X164427936Y-83816146D01*
X164505472Y-83671087D01*
X164553218Y-83513689D01*
X164565300Y-83391019D01*
X164569340Y-83350000D01*
X164565300Y-83308981D01*
X164565300Y-82285000D01*
X166331928Y-82285000D01*
X166331928Y-82437500D01*
X166348752Y-82608316D01*
X166398577Y-82772567D01*
X166479488Y-82923942D01*
X166588377Y-83056623D01*
X166721058Y-83165512D01*
X166872433Y-83246423D01*
X167036684Y-83296248D01*
X167207500Y-83313072D01*
X167782500Y-83313072D01*
X167953316Y-83296248D01*
X168117567Y-83246423D01*
X168268942Y-83165512D01*
X168292839Y-83145901D01*
X168365506Y-83205537D01*
X168475820Y-83264502D01*
X168595518Y-83300812D01*
X168720000Y-83313072D01*
X168959250Y-83310000D01*
X169118000Y-83151250D01*
X169118000Y-82327000D01*
X169372000Y-82327000D01*
X169372000Y-83151250D01*
X169530750Y-83310000D01*
X169770000Y-83313072D01*
X169894482Y-83300812D01*
X170014180Y-83264502D01*
X170124494Y-83205537D01*
X170221185Y-83126185D01*
X170300537Y-83029494D01*
X170359502Y-82919180D01*
X170395812Y-82799482D01*
X170408072Y-82675000D01*
X170405000Y-82485750D01*
X170246250Y-82327000D01*
X169372000Y-82327000D01*
X169118000Y-82327000D01*
X169098000Y-82327000D01*
X169098000Y-82073000D01*
X169118000Y-82073000D01*
X169118000Y-80577000D01*
X169372000Y-80577000D01*
X169372000Y-82073000D01*
X170246250Y-82073000D01*
X170405000Y-81914250D01*
X170408072Y-81725000D01*
X170395812Y-81600518D01*
X170359502Y-81480820D01*
X170300537Y-81370506D01*
X170263191Y-81325000D01*
X170300537Y-81279494D01*
X170359502Y-81169180D01*
X170395812Y-81049482D01*
X170408072Y-80925000D01*
X170405000Y-80735750D01*
X170246250Y-80577000D01*
X169372000Y-80577000D01*
X169118000Y-80577000D01*
X169098000Y-80577000D01*
X169098000Y-80323000D01*
X169118000Y-80323000D01*
X169118000Y-79681250D01*
X169148000Y-79651250D01*
X169148000Y-79498750D01*
X169372000Y-79498750D01*
X169372000Y-80323000D01*
X170246250Y-80323000D01*
X170405000Y-80164250D01*
X170408072Y-79975000D01*
X170395812Y-79850518D01*
X170359502Y-79730820D01*
X170300537Y-79620506D01*
X170278191Y-79593278D01*
X170330537Y-79529494D01*
X170389502Y-79419180D01*
X170425812Y-79299482D01*
X170438072Y-79175000D01*
X170435000Y-78985750D01*
X170276250Y-78827000D01*
X169402000Y-78827000D01*
X169402000Y-79468750D01*
X169372000Y-79498750D01*
X169148000Y-79498750D01*
X169148000Y-78827000D01*
X169128000Y-78827000D01*
X169128000Y-78573000D01*
X169148000Y-78573000D01*
X169148000Y-78553000D01*
X169402000Y-78553000D01*
X169402000Y-78573000D01*
X170276250Y-78573000D01*
X170312950Y-78536300D01*
X171761378Y-78536300D01*
X171798700Y-78539976D01*
X171836022Y-78536300D01*
X171836033Y-78536300D01*
X171947686Y-78525303D01*
X172090947Y-78481846D01*
X172222976Y-78411274D01*
X172338701Y-78316301D01*
X172362503Y-78287298D01*
X172511729Y-78138072D01*
X172837500Y-78138072D01*
X173008316Y-78121248D01*
X173172567Y-78071423D01*
X173323942Y-77990512D01*
X173456623Y-77881623D01*
X173565512Y-77748942D01*
X173646423Y-77597567D01*
X173696248Y-77433316D01*
X173713072Y-77262500D01*
X173713072Y-76687500D01*
X173696248Y-76516684D01*
X173646423Y-76352433D01*
X173565512Y-76201058D01*
X173482575Y-76100000D01*
X173565512Y-75998942D01*
X173646423Y-75847567D01*
X173696248Y-75683316D01*
X173713072Y-75512500D01*
X173713072Y-74937500D01*
X173705439Y-74860000D01*
X173808417Y-74860000D01*
X173876058Y-74915512D01*
X174027433Y-74996423D01*
X174191684Y-75046248D01*
X174362500Y-75063072D01*
X174837500Y-75063072D01*
X175008316Y-75046248D01*
X175172567Y-74996423D01*
X175323942Y-74915512D01*
X175456623Y-74806623D01*
X175565512Y-74673942D01*
X175646423Y-74522567D01*
X175696248Y-74358316D01*
X175713072Y-74187500D01*
X175713072Y-73612500D01*
X175696248Y-73441684D01*
X175646423Y-73277433D01*
X175565512Y-73126058D01*
X175482575Y-73025000D01*
X175565512Y-72923942D01*
X175646423Y-72772567D01*
X175696248Y-72608316D01*
X175713072Y-72437500D01*
X175713072Y-71862500D01*
X175696248Y-71691684D01*
X175646423Y-71527433D01*
X175565512Y-71376058D01*
X175456623Y-71243377D01*
X175323942Y-71134488D01*
X175172567Y-71053577D01*
X175008316Y-71003752D01*
X174889631Y-70992062D01*
X173586246Y-69688679D01*
X173560091Y-69656809D01*
X173432946Y-69552464D01*
X173287887Y-69474928D01*
X173130489Y-69427182D01*
X173007819Y-69415100D01*
X173007818Y-69415100D01*
X172966800Y-69411060D01*
X172925782Y-69415100D01*
X171244907Y-69415100D01*
X171203899Y-69411061D01*
X171162891Y-69415100D01*
X171162881Y-69415100D01*
X171040211Y-69427182D01*
X170882813Y-69474928D01*
X170737754Y-69552464D01*
X170610609Y-69656809D01*
X170584459Y-69688673D01*
X168389500Y-71883633D01*
X167013072Y-70507205D01*
X167013072Y-70287500D01*
X166996248Y-70116684D01*
X166946423Y-69952433D01*
X166865512Y-69801058D01*
X166845901Y-69777161D01*
X166905537Y-69704494D01*
X166964502Y-69594180D01*
X167000812Y-69474482D01*
X167013072Y-69350000D01*
X167010000Y-69110750D01*
X166851250Y-68952000D01*
X166027000Y-68952000D01*
X166027000Y-68972000D01*
X165773000Y-68972000D01*
X165773000Y-68952000D01*
X164948750Y-68952000D01*
X164900000Y-69000750D01*
X164851250Y-68952000D01*
X164027000Y-68952000D01*
X164027000Y-68972000D01*
X163773000Y-68972000D01*
X163773000Y-68952000D01*
X162948750Y-68952000D01*
X162900000Y-69000750D01*
X162851250Y-68952000D01*
X162027000Y-68952000D01*
X162027000Y-68972000D01*
X161773000Y-68972000D01*
X161773000Y-68952000D01*
X160948750Y-68952000D01*
X160850000Y-69050750D01*
X160751250Y-68952000D01*
X159927000Y-68952000D01*
X159927000Y-68972000D01*
X159673000Y-68972000D01*
X159673000Y-68952000D01*
X158848750Y-68952000D01*
X158690000Y-69110750D01*
X158688362Y-69238292D01*
X158604494Y-69169463D01*
X158494180Y-69110498D01*
X158374482Y-69074188D01*
X158250000Y-69061928D01*
X155750000Y-69061928D01*
X155625518Y-69074188D01*
X155505820Y-69110498D01*
X155395506Y-69169463D01*
X155298815Y-69248815D01*
X155219463Y-69345506D01*
X155160498Y-69455820D01*
X155124188Y-69575518D01*
X155111928Y-69700000D01*
X155111928Y-71500000D01*
X155124188Y-71624482D01*
X155160498Y-71744180D01*
X155219463Y-71854494D01*
X155298815Y-71951185D01*
X155395506Y-72030537D01*
X155505820Y-72089502D01*
X155625518Y-72125812D01*
X155750000Y-72138072D01*
X156165001Y-72138072D01*
X156165000Y-75661928D01*
X155750000Y-75661928D01*
X155625518Y-75674188D01*
X155505820Y-75710498D01*
X155485400Y-75721413D01*
X155485400Y-73591718D01*
X155489440Y-73550699D01*
X155473318Y-73387011D01*
X155425572Y-73229613D01*
X155348036Y-73084554D01*
X155243691Y-72957409D01*
X155211826Y-72931259D01*
X154398956Y-72118388D01*
X154494180Y-72089502D01*
X154604494Y-72030537D01*
X154701185Y-71951185D01*
X154780537Y-71854494D01*
X154839502Y-71744180D01*
X154875812Y-71624482D01*
X154888072Y-71500000D01*
X154888072Y-69700000D01*
X154875812Y-69575518D01*
X154839502Y-69455820D01*
X154780537Y-69345506D01*
X154701185Y-69248815D01*
X154604494Y-69169463D01*
X154494180Y-69110498D01*
X154374482Y-69074188D01*
X154250000Y-69061928D01*
X151750000Y-69061928D01*
X151625518Y-69074188D01*
X151505820Y-69110498D01*
X151395506Y-69169463D01*
X151298815Y-69248815D01*
X151250000Y-69308296D01*
X151201185Y-69248815D01*
X151104494Y-69169463D01*
X150994180Y-69110498D01*
X150874482Y-69074188D01*
X150750000Y-69061928D01*
X148250000Y-69061928D01*
X148125518Y-69074188D01*
X148005820Y-69110498D01*
X147895506Y-69169463D01*
X147798815Y-69248815D01*
X147719463Y-69345506D01*
X147660498Y-69455820D01*
X147624188Y-69575518D01*
X147611928Y-69700000D01*
X147611928Y-71500000D01*
X147624188Y-71624482D01*
X147660498Y-71744180D01*
X147719463Y-71854494D01*
X147798815Y-71951185D01*
X147895506Y-72030537D01*
X148005820Y-72089502D01*
X148125518Y-72125812D01*
X148250000Y-72138072D01*
X150750000Y-72138072D01*
X150874482Y-72125812D01*
X150994180Y-72089502D01*
X151104494Y-72030537D01*
X151201185Y-71951185D01*
X151250000Y-71891704D01*
X151298815Y-71951185D01*
X151395506Y-72030537D01*
X151505820Y-72089502D01*
X151625518Y-72125812D01*
X151750000Y-72138072D01*
X152199555Y-72138072D01*
X152224828Y-72221386D01*
X152302364Y-72366445D01*
X152310051Y-72375812D01*
X152406710Y-72493591D01*
X152438574Y-72519741D01*
X153815401Y-73896569D01*
X153815401Y-75661928D01*
X151750000Y-75661928D01*
X151625518Y-75674188D01*
X151505820Y-75710498D01*
X151395506Y-75769463D01*
X151298815Y-75848815D01*
X151250000Y-75908296D01*
X151201185Y-75848815D01*
X151104494Y-75769463D01*
X150994180Y-75710498D01*
X150874482Y-75674188D01*
X150750000Y-75661928D01*
X149785750Y-75665000D01*
X149627000Y-75823750D01*
X149627000Y-77073000D01*
X149647000Y-77073000D01*
X149647000Y-77327000D01*
X149627000Y-77327000D01*
X149627000Y-77347000D01*
X149373000Y-77347000D01*
X149373000Y-77327000D01*
X147773750Y-77327000D01*
X147615000Y-77485750D01*
X147614102Y-77665300D01*
X147388072Y-77665300D01*
X147388072Y-76300000D01*
X147611928Y-76300000D01*
X147615000Y-76914250D01*
X147773750Y-77073000D01*
X149373000Y-77073000D01*
X149373000Y-75823750D01*
X149214250Y-75665000D01*
X148250000Y-75661928D01*
X148125518Y-75674188D01*
X148005820Y-75710498D01*
X147895506Y-75769463D01*
X147798815Y-75848815D01*
X147719463Y-75945506D01*
X147660498Y-76055820D01*
X147624188Y-76175518D01*
X147611928Y-76300000D01*
X147388072Y-76300000D01*
X147375812Y-76175518D01*
X147339502Y-76055820D01*
X147280537Y-75945506D01*
X147201185Y-75848815D01*
X147104494Y-75769463D01*
X146994180Y-75710498D01*
X146874482Y-75674188D01*
X146750000Y-75661928D01*
X144250000Y-75661928D01*
X144125518Y-75674188D01*
X144005820Y-75710498D01*
X143895506Y-75769463D01*
X143798815Y-75848815D01*
X143719463Y-75945506D01*
X143660498Y-76055820D01*
X143624188Y-76175518D01*
X143611928Y-76300000D01*
X143611928Y-78100000D01*
X143624188Y-78224482D01*
X143660498Y-78344180D01*
X143719463Y-78454494D01*
X143798815Y-78551185D01*
X143895506Y-78630537D01*
X144005820Y-78689502D01*
X144125518Y-78725812D01*
X144250000Y-78738072D01*
X144699555Y-78738072D01*
X144724828Y-78821387D01*
X144802364Y-78966446D01*
X144906709Y-79093591D01*
X145033854Y-79197936D01*
X145178913Y-79275472D01*
X145336311Y-79323218D01*
X145458981Y-79335300D01*
X145458982Y-79335300D01*
X145500000Y-79339340D01*
X145541019Y-79335300D01*
X151433800Y-79335300D01*
X151433801Y-99505971D01*
X151429760Y-99547000D01*
X151445882Y-99710688D01*
X151493628Y-99868086D01*
X151570581Y-100012054D01*
X151571165Y-100013146D01*
X151675510Y-100140291D01*
X151707374Y-100166441D01*
X153176010Y-101635079D01*
X153090663Y-101720426D01*
X152977395Y-101889944D01*
X152899374Y-102078302D01*
X152859600Y-102278261D01*
X152859600Y-102340398D01*
X144188998Y-111011001D01*
X144160000Y-111034799D01*
X144136202Y-111063797D01*
X144136201Y-111063798D01*
X144065026Y-111150524D01*
X143994454Y-111282554D01*
X143950998Y-111425815D01*
X143949903Y-111436928D01*
X143275000Y-111436928D01*
X143150518Y-111449188D01*
X143030820Y-111485498D01*
X142920506Y-111544463D01*
X142823815Y-111623815D01*
X142744463Y-111720506D01*
X142685498Y-111830820D01*
X142649188Y-111950518D01*
X142636928Y-112075000D01*
X136960000Y-112075000D01*
X136960000Y-71500000D01*
X143611928Y-71500000D01*
X143624188Y-71624482D01*
X143660498Y-71744180D01*
X143719463Y-71854494D01*
X143798815Y-71951185D01*
X143895506Y-72030537D01*
X144005820Y-72089502D01*
X144125518Y-72125812D01*
X144250000Y-72138072D01*
X145214250Y-72135000D01*
X145373000Y-71976250D01*
X145373000Y-70727000D01*
X145627000Y-70727000D01*
X145627000Y-71976250D01*
X145785750Y-72135000D01*
X146750000Y-72138072D01*
X146874482Y-72125812D01*
X146994180Y-72089502D01*
X147104494Y-72030537D01*
X147201185Y-71951185D01*
X147280537Y-71854494D01*
X147339502Y-71744180D01*
X147375812Y-71624482D01*
X147388072Y-71500000D01*
X147385000Y-70885750D01*
X147226250Y-70727000D01*
X145627000Y-70727000D01*
X145373000Y-70727000D01*
X143773750Y-70727000D01*
X143615000Y-70885750D01*
X143611928Y-71500000D01*
X136960000Y-71500000D01*
X136960000Y-69700000D01*
X143611928Y-69700000D01*
X143615000Y-70314250D01*
X143773750Y-70473000D01*
X145373000Y-70473000D01*
X145373000Y-69223750D01*
X145627000Y-69223750D01*
X145627000Y-70473000D01*
X147226250Y-70473000D01*
X147385000Y-70314250D01*
X147388072Y-69700000D01*
X147375812Y-69575518D01*
X147339502Y-69455820D01*
X147280537Y-69345506D01*
X147201185Y-69248815D01*
X147104494Y-69169463D01*
X146994180Y-69110498D01*
X146874482Y-69074188D01*
X146750000Y-69061928D01*
X145785750Y-69065000D01*
X145627000Y-69223750D01*
X145373000Y-69223750D01*
X145214250Y-69065000D01*
X144250000Y-69061928D01*
X144125518Y-69074188D01*
X144005820Y-69110498D01*
X143895506Y-69169463D01*
X143798815Y-69248815D01*
X143719463Y-69345506D01*
X143660498Y-69455820D01*
X143624188Y-69575518D01*
X143611928Y-69700000D01*
X136960000Y-69700000D01*
X136960000Y-68300000D01*
X158686928Y-68300000D01*
X158690000Y-68539250D01*
X158848750Y-68698000D01*
X159673000Y-68698000D01*
X159673000Y-67823750D01*
X159927000Y-67823750D01*
X159927000Y-68698000D01*
X160751250Y-68698000D01*
X160850000Y-68599250D01*
X160948750Y-68698000D01*
X161773000Y-68698000D01*
X161773000Y-67823750D01*
X162027000Y-67823750D01*
X162027000Y-68698000D01*
X162851250Y-68698000D01*
X162900000Y-68649250D01*
X162948750Y-68698000D01*
X163773000Y-68698000D01*
X163773000Y-67823750D01*
X164027000Y-67823750D01*
X164027000Y-68698000D01*
X164851250Y-68698000D01*
X164900000Y-68649250D01*
X164948750Y-68698000D01*
X165773000Y-68698000D01*
X165773000Y-67823750D01*
X166027000Y-67823750D01*
X166027000Y-68698000D01*
X166851250Y-68698000D01*
X167010000Y-68539250D01*
X167013072Y-68300000D01*
X167000812Y-68175518D01*
X166964502Y-68055820D01*
X166905537Y-67945506D01*
X166826185Y-67848815D01*
X166729494Y-67769463D01*
X166619180Y-67710498D01*
X166499482Y-67674188D01*
X166375000Y-67661928D01*
X166185750Y-67665000D01*
X166027000Y-67823750D01*
X165773000Y-67823750D01*
X165614250Y-67665000D01*
X165425000Y-67661928D01*
X165300518Y-67674188D01*
X165180820Y-67710498D01*
X165070506Y-67769463D01*
X164973815Y-67848815D01*
X164900000Y-67938759D01*
X164826185Y-67848815D01*
X164729494Y-67769463D01*
X164619180Y-67710498D01*
X164499482Y-67674188D01*
X164375000Y-67661928D01*
X164185750Y-67665000D01*
X164027000Y-67823750D01*
X163773000Y-67823750D01*
X163614250Y-67665000D01*
X163425000Y-67661928D01*
X163300518Y-67674188D01*
X163180820Y-67710498D01*
X163070506Y-67769463D01*
X162973815Y-67848815D01*
X162900000Y-67938759D01*
X162826185Y-67848815D01*
X162729494Y-67769463D01*
X162619180Y-67710498D01*
X162499482Y-67674188D01*
X162375000Y-67661928D01*
X162185750Y-67665000D01*
X162027000Y-67823750D01*
X161773000Y-67823750D01*
X161614250Y-67665000D01*
X161425000Y-67661928D01*
X161300518Y-67674188D01*
X161180820Y-67710498D01*
X161070506Y-67769463D01*
X160973815Y-67848815D01*
X160894463Y-67945506D01*
X160850000Y-68028689D01*
X160805537Y-67945506D01*
X160726185Y-67848815D01*
X160629494Y-67769463D01*
X160519180Y-67710498D01*
X160399482Y-67674188D01*
X160275000Y-67661928D01*
X160085750Y-67665000D01*
X159927000Y-67823750D01*
X159673000Y-67823750D01*
X159514250Y-67665000D01*
X159325000Y-67661928D01*
X159200518Y-67674188D01*
X159080820Y-67710498D01*
X158970506Y-67769463D01*
X158873815Y-67848815D01*
X158794463Y-67945506D01*
X158735498Y-68055820D01*
X158699188Y-68175518D01*
X158686928Y-68300000D01*
X136960000Y-68300000D01*
X136960000Y-66660000D01*
X185640001Y-66660000D01*
X185640000Y-115340000D01*
G37*
X185640000Y-115340000D02*
X136960000Y-115340000D01*
X136960000Y-112075000D01*
X142636928Y-112075000D01*
X142636928Y-112925000D01*
X142649188Y-113049482D01*
X142685498Y-113169180D01*
X142744463Y-113279494D01*
X142823815Y-113376185D01*
X142920506Y-113455537D01*
X143030820Y-113514502D01*
X143150518Y-113550812D01*
X143275000Y-113563072D01*
X144125000Y-113563072D01*
X144249482Y-113550812D01*
X144369180Y-113514502D01*
X144373603Y-113512138D01*
X144390809Y-113519265D01*
X144595599Y-113560000D01*
X144804401Y-113560000D01*
X145009191Y-113519265D01*
X145200000Y-113440229D01*
X145390809Y-113519265D01*
X145595599Y-113560000D01*
X145804401Y-113560000D01*
X146009191Y-113519265D01*
X146202098Y-113439360D01*
X146375711Y-113323356D01*
X146523356Y-113175711D01*
X146639360Y-113002098D01*
X146719265Y-112809191D01*
X146760000Y-112604401D01*
X146760000Y-112395599D01*
X146719265Y-112190809D01*
X146639360Y-111997902D01*
X146523356Y-111824289D01*
X146375711Y-111676644D01*
X146202098Y-111560640D01*
X146009191Y-111480735D01*
X145892147Y-111457454D01*
X151783876Y-105565725D01*
X151750998Y-105674115D01*
X151736324Y-105823100D01*
X151740001Y-105860432D01*
X151740000Y-111436928D01*
X151075000Y-111436928D01*
X150950518Y-111449188D01*
X150830820Y-111485498D01*
X150720506Y-111544463D01*
X150623815Y-111623815D01*
X150544463Y-111720506D01*
X150485498Y-111830820D01*
X150449188Y-111950518D01*
X150436928Y-112075000D01*
X150436928Y-112925000D01*
X150449188Y-113049482D01*
X150485498Y-113169180D01*
X150544463Y-113279494D01*
X150623815Y-113376185D01*
X150669679Y-113413824D01*
X150677082Y-113488989D01*
X150724828Y-113646387D01*
X150802364Y-113791446D01*
X150906709Y-113918591D01*
X151033854Y-114022936D01*
X151178913Y-114100472D01*
X151336311Y-114148218D01*
X151458981Y-114160300D01*
X151458982Y-114160300D01*
X151500000Y-114164340D01*
X151541019Y-114160300D01*
X153980682Y-114160300D01*
X154021700Y-114164340D01*
X154062718Y-114160300D01*
X154062719Y-114160300D01*
X154185389Y-114148218D01*
X154342787Y-114100472D01*
X154487846Y-114022936D01*
X154614991Y-113918591D01*
X154641146Y-113886721D01*
X155967600Y-112560268D01*
X156468763Y-113061432D01*
X156494909Y-113093291D01*
X156526768Y-113119437D01*
X156526770Y-113119439D01*
X156587380Y-113169180D01*
X156622054Y-113197636D01*
X156767113Y-113275172D01*
X156924511Y-113322918D01*
X157047181Y-113335000D01*
X157047182Y-113335000D01*
X157088200Y-113339040D01*
X157129218Y-113335000D01*
X158890015Y-113335000D01*
X158923815Y-113376185D01*
X159020506Y-113455537D01*
X159130820Y-113514502D01*
X159250518Y-113550812D01*
X159375000Y-113563072D01*
X160225000Y-113563072D01*
X160349482Y-113550812D01*
X160469180Y-113514502D01*
X160473603Y-113512138D01*
X160490809Y-113519265D01*
X160695599Y-113560000D01*
X160904401Y-113560000D01*
X161109191Y-113519265D01*
X161300000Y-113440229D01*
X161490809Y-113519265D01*
X161695599Y-113560000D01*
X161904401Y-113560000D01*
X162109191Y-113519265D01*
X162302098Y-113439360D01*
X162475711Y-113323356D01*
X162623356Y-113175711D01*
X162739360Y-113002098D01*
X162819265Y-112809191D01*
X162860000Y-112604401D01*
X162860000Y-112395599D01*
X162819265Y-112190809D01*
X162739360Y-111997902D01*
X162623356Y-111824289D01*
X162475711Y-111676644D01*
X162302098Y-111560640D01*
X162109191Y-111480735D01*
X161904401Y-111440000D01*
X161695599Y-111440000D01*
X161560000Y-111466972D01*
X161560000Y-107166402D01*
X169086105Y-114692508D01*
X169109899Y-114721501D01*
X169138892Y-114745295D01*
X169138896Y-114745299D01*
X169209585Y-114803311D01*
X169225624Y-114816474D01*
X169357653Y-114887046D01*
X169500914Y-114930503D01*
X169612567Y-114941500D01*
X169612576Y-114941500D01*
X169649899Y-114945176D01*
X169687222Y-114941500D01*
X173631478Y-114941500D01*
X173668800Y-114945176D01*
X173706122Y-114941500D01*
X173706133Y-114941500D01*
X173817786Y-114930503D01*
X173961047Y-114887046D01*
X174093076Y-114816474D01*
X174208801Y-114721501D01*
X174232603Y-114692498D01*
X175111003Y-113814099D01*
X175140001Y-113790301D01*
X175234974Y-113674576D01*
X175305546Y-113542547D01*
X175311368Y-113523354D01*
X175495599Y-113560000D01*
X175704401Y-113560000D01*
X175909191Y-113519265D01*
X176102098Y-113439360D01*
X176275711Y-113323356D01*
X176423356Y-113175711D01*
X176539360Y-113002098D01*
X176619265Y-112809191D01*
X176660000Y-112604401D01*
X176660000Y-112395599D01*
X176619265Y-112190809D01*
X176539360Y-111997902D01*
X176423356Y-111824289D01*
X176275711Y-111676644D01*
X176102098Y-111560640D01*
X175909191Y-111480735D01*
X175704401Y-111440000D01*
X175495599Y-111440000D01*
X175290809Y-111480735D01*
X175100000Y-111559771D01*
X174909191Y-111480735D01*
X174704401Y-111440000D01*
X174495599Y-111440000D01*
X174290809Y-111480735D01*
X174100000Y-111559771D01*
X173909191Y-111480735D01*
X173704401Y-111440000D01*
X173495599Y-111440000D01*
X173290809Y-111480735D01*
X173097902Y-111560640D01*
X173092882Y-111563994D01*
X172925250Y-111491128D01*
X172890062Y-111480460D01*
X172727000Y-111607743D01*
X172727000Y-111898587D01*
X172660640Y-111997902D01*
X172600000Y-112144299D01*
X172539360Y-111997902D01*
X172473000Y-111898587D01*
X172473000Y-111607743D01*
X172309938Y-111480460D01*
X172274750Y-111491128D01*
X172107118Y-111563994D01*
X172102098Y-111560640D01*
X171909191Y-111480735D01*
X171704401Y-111440000D01*
X171495599Y-111440000D01*
X171360000Y-111466972D01*
X171360000Y-103844922D01*
X171363676Y-103807599D01*
X171360000Y-103770276D01*
X171360000Y-103770267D01*
X171349003Y-103658614D01*
X171305546Y-103515353D01*
X171234974Y-103383324D01*
X171140001Y-103267599D01*
X171111004Y-103243802D01*
X160486700Y-92619499D01*
X160486700Y-84313072D01*
X161130000Y-84313072D01*
X161254482Y-84300812D01*
X161374180Y-84264502D01*
X161484494Y-84205537D01*
X161581185Y-84126185D01*
X161660537Y-84029494D01*
X161700000Y-83955665D01*
X161739463Y-84029494D01*
X161818815Y-84126185D01*
X161915506Y-84205537D01*
X162025820Y-84264502D01*
X162145518Y-84300812D01*
X162270000Y-84313072D01*
X163330000Y-84313072D01*
X163454482Y-84300812D01*
X163574180Y-84264502D01*
X163684494Y-84205537D01*
X163707350Y-84186780D01*
X163730300Y-84189040D01*
X163893989Y-84172918D01*
X164051387Y-84125172D01*
X164196446Y-84047636D01*
X164323591Y-83943291D01*
X164427936Y-83816146D01*
X164505472Y-83671087D01*
X164553218Y-83513689D01*
X164565300Y-83391019D01*
X164569340Y-83350000D01*
X164565300Y-83308981D01*
X164565300Y-82285000D01*
X166331928Y-82285000D01*
X166331928Y-82437500D01*
X166348752Y-82608316D01*
X166398577Y-82772567D01*
X166479488Y-82923942D01*
X166588377Y-83056623D01*
X166721058Y-83165512D01*
X166872433Y-83246423D01*
X167036684Y-83296248D01*
X167207500Y-83313072D01*
X167782500Y-83313072D01*
X167953316Y-83296248D01*
X168117567Y-83246423D01*
X168268942Y-83165512D01*
X168292839Y-83145901D01*
X168365506Y-83205537D01*
X168475820Y-83264502D01*
X168595518Y-83300812D01*
X168720000Y-83313072D01*
X168959250Y-83310000D01*
X169118000Y-83151250D01*
X169118000Y-82327000D01*
X169372000Y-82327000D01*
X169372000Y-83151250D01*
X169530750Y-83310000D01*
X169770000Y-83313072D01*
X169894482Y-83300812D01*
X170014180Y-83264502D01*
X170124494Y-83205537D01*
X170221185Y-83126185D01*
X170300537Y-83029494D01*
X170359502Y-82919180D01*
X170395812Y-82799482D01*
X170408072Y-82675000D01*
X170405000Y-82485750D01*
X170246250Y-82327000D01*
X169372000Y-82327000D01*
X169118000Y-82327000D01*
X169098000Y-82327000D01*
X169098000Y-82073000D01*
X169118000Y-82073000D01*
X169118000Y-80577000D01*
X169372000Y-80577000D01*
X169372000Y-82073000D01*
X170246250Y-82073000D01*
X170405000Y-81914250D01*
X170408072Y-81725000D01*
X170395812Y-81600518D01*
X170359502Y-81480820D01*
X170300537Y-81370506D01*
X170263191Y-81325000D01*
X170300537Y-81279494D01*
X170359502Y-81169180D01*
X170395812Y-81049482D01*
X170408072Y-80925000D01*
X170405000Y-80735750D01*
X170246250Y-80577000D01*
X169372000Y-80577000D01*
X169118000Y-80577000D01*
X169098000Y-80577000D01*
X169098000Y-80323000D01*
X169118000Y-80323000D01*
X169118000Y-79681250D01*
X169148000Y-79651250D01*
X169148000Y-79498750D01*
X169372000Y-79498750D01*
X169372000Y-80323000D01*
X170246250Y-80323000D01*
X170405000Y-80164250D01*
X170408072Y-79975000D01*
X170395812Y-79850518D01*
X170359502Y-79730820D01*
X170300537Y-79620506D01*
X170278191Y-79593278D01*
X170330537Y-79529494D01*
X170389502Y-79419180D01*
X170425812Y-79299482D01*
X170438072Y-79175000D01*
X170435000Y-78985750D01*
X170276250Y-78827000D01*
X169402000Y-78827000D01*
X169402000Y-79468750D01*
X169372000Y-79498750D01*
X169148000Y-79498750D01*
X169148000Y-78827000D01*
X169128000Y-78827000D01*
X169128000Y-78573000D01*
X169148000Y-78573000D01*
X169148000Y-78553000D01*
X169402000Y-78553000D01*
X169402000Y-78573000D01*
X170276250Y-78573000D01*
X170312950Y-78536300D01*
X171761378Y-78536300D01*
X171798700Y-78539976D01*
X171836022Y-78536300D01*
X171836033Y-78536300D01*
X171947686Y-78525303D01*
X172090947Y-78481846D01*
X172222976Y-78411274D01*
X172338701Y-78316301D01*
X172362503Y-78287298D01*
X172511729Y-78138072D01*
X172837500Y-78138072D01*
X173008316Y-78121248D01*
X173172567Y-78071423D01*
X173323942Y-77990512D01*
X173456623Y-77881623D01*
X173565512Y-77748942D01*
X173646423Y-77597567D01*
X173696248Y-77433316D01*
X173713072Y-77262500D01*
X173713072Y-76687500D01*
X173696248Y-76516684D01*
X173646423Y-76352433D01*
X173565512Y-76201058D01*
X173482575Y-76100000D01*
X173565512Y-75998942D01*
X173646423Y-75847567D01*
X173696248Y-75683316D01*
X173713072Y-75512500D01*
X173713072Y-74937500D01*
X173705439Y-74860000D01*
X173808417Y-74860000D01*
X173876058Y-74915512D01*
X174027433Y-74996423D01*
X174191684Y-75046248D01*
X174362500Y-75063072D01*
X174837500Y-75063072D01*
X175008316Y-75046248D01*
X175172567Y-74996423D01*
X175323942Y-74915512D01*
X175456623Y-74806623D01*
X175565512Y-74673942D01*
X175646423Y-74522567D01*
X175696248Y-74358316D01*
X175713072Y-74187500D01*
X175713072Y-73612500D01*
X175696248Y-73441684D01*
X175646423Y-73277433D01*
X175565512Y-73126058D01*
X175482575Y-73025000D01*
X175565512Y-72923942D01*
X175646423Y-72772567D01*
X175696248Y-72608316D01*
X175713072Y-72437500D01*
X175713072Y-71862500D01*
X175696248Y-71691684D01*
X175646423Y-71527433D01*
X175565512Y-71376058D01*
X175456623Y-71243377D01*
X175323942Y-71134488D01*
X175172567Y-71053577D01*
X175008316Y-71003752D01*
X174889631Y-70992062D01*
X173586246Y-69688679D01*
X173560091Y-69656809D01*
X173432946Y-69552464D01*
X173287887Y-69474928D01*
X173130489Y-69427182D01*
X173007819Y-69415100D01*
X173007818Y-69415100D01*
X172966800Y-69411060D01*
X172925782Y-69415100D01*
X171244907Y-69415100D01*
X171203899Y-69411061D01*
X171162891Y-69415100D01*
X171162881Y-69415100D01*
X171040211Y-69427182D01*
X170882813Y-69474928D01*
X170737754Y-69552464D01*
X170610609Y-69656809D01*
X170584459Y-69688673D01*
X168389500Y-71883633D01*
X167013072Y-70507205D01*
X167013072Y-70287500D01*
X166996248Y-70116684D01*
X166946423Y-69952433D01*
X166865512Y-69801058D01*
X166845901Y-69777161D01*
X166905537Y-69704494D01*
X166964502Y-69594180D01*
X167000812Y-69474482D01*
X167013072Y-69350000D01*
X167010000Y-69110750D01*
X166851250Y-68952000D01*
X166027000Y-68952000D01*
X166027000Y-68972000D01*
X165773000Y-68972000D01*
X165773000Y-68952000D01*
X164948750Y-68952000D01*
X164900000Y-69000750D01*
X164851250Y-68952000D01*
X164027000Y-68952000D01*
X164027000Y-68972000D01*
X163773000Y-68972000D01*
X163773000Y-68952000D01*
X162948750Y-68952000D01*
X162900000Y-69000750D01*
X162851250Y-68952000D01*
X162027000Y-68952000D01*
X162027000Y-68972000D01*
X161773000Y-68972000D01*
X161773000Y-68952000D01*
X160948750Y-68952000D01*
X160850000Y-69050750D01*
X160751250Y-68952000D01*
X159927000Y-68952000D01*
X159927000Y-68972000D01*
X159673000Y-68972000D01*
X159673000Y-68952000D01*
X158848750Y-68952000D01*
X158690000Y-69110750D01*
X158688362Y-69238292D01*
X158604494Y-69169463D01*
X158494180Y-69110498D01*
X158374482Y-69074188D01*
X158250000Y-69061928D01*
X155750000Y-69061928D01*
X155625518Y-69074188D01*
X155505820Y-69110498D01*
X155395506Y-69169463D01*
X155298815Y-69248815D01*
X155219463Y-69345506D01*
X155160498Y-69455820D01*
X155124188Y-69575518D01*
X155111928Y-69700000D01*
X155111928Y-71500000D01*
X155124188Y-71624482D01*
X155160498Y-71744180D01*
X155219463Y-71854494D01*
X155298815Y-71951185D01*
X155395506Y-72030537D01*
X155505820Y-72089502D01*
X155625518Y-72125812D01*
X155750000Y-72138072D01*
X156165001Y-72138072D01*
X156165000Y-75661928D01*
X155750000Y-75661928D01*
X155625518Y-75674188D01*
X155505820Y-75710498D01*
X155485400Y-75721413D01*
X155485400Y-73591718D01*
X155489440Y-73550699D01*
X155473318Y-73387011D01*
X155425572Y-73229613D01*
X155348036Y-73084554D01*
X155243691Y-72957409D01*
X155211826Y-72931259D01*
X154398956Y-72118388D01*
X154494180Y-72089502D01*
X154604494Y-72030537D01*
X154701185Y-71951185D01*
X154780537Y-71854494D01*
X154839502Y-71744180D01*
X154875812Y-71624482D01*
X154888072Y-71500000D01*
X154888072Y-69700000D01*
X154875812Y-69575518D01*
X154839502Y-69455820D01*
X154780537Y-69345506D01*
X154701185Y-69248815D01*
X154604494Y-69169463D01*
X154494180Y-69110498D01*
X154374482Y-69074188D01*
X154250000Y-69061928D01*
X151750000Y-69061928D01*
X151625518Y-69074188D01*
X151505820Y-69110498D01*
X151395506Y-69169463D01*
X151298815Y-69248815D01*
X151250000Y-69308296D01*
X151201185Y-69248815D01*
X151104494Y-69169463D01*
X150994180Y-69110498D01*
X150874482Y-69074188D01*
X150750000Y-69061928D01*
X148250000Y-69061928D01*
X148125518Y-69074188D01*
X148005820Y-69110498D01*
X147895506Y-69169463D01*
X147798815Y-69248815D01*
X147719463Y-69345506D01*
X147660498Y-69455820D01*
X147624188Y-69575518D01*
X147611928Y-69700000D01*
X147611928Y-71500000D01*
X147624188Y-71624482D01*
X147660498Y-71744180D01*
X147719463Y-71854494D01*
X147798815Y-71951185D01*
X147895506Y-72030537D01*
X148005820Y-72089502D01*
X148125518Y-72125812D01*
X148250000Y-72138072D01*
X150750000Y-72138072D01*
X150874482Y-72125812D01*
X150994180Y-72089502D01*
X151104494Y-72030537D01*
X151201185Y-71951185D01*
X151250000Y-71891704D01*
X151298815Y-71951185D01*
X151395506Y-72030537D01*
X151505820Y-72089502D01*
X151625518Y-72125812D01*
X151750000Y-72138072D01*
X152199555Y-72138072D01*
X152224828Y-72221386D01*
X152302364Y-72366445D01*
X152310051Y-72375812D01*
X152406710Y-72493591D01*
X152438574Y-72519741D01*
X153815401Y-73896569D01*
X153815401Y-75661928D01*
X151750000Y-75661928D01*
X151625518Y-75674188D01*
X151505820Y-75710498D01*
X151395506Y-75769463D01*
X151298815Y-75848815D01*
X151250000Y-75908296D01*
X151201185Y-75848815D01*
X151104494Y-75769463D01*
X150994180Y-75710498D01*
X150874482Y-75674188D01*
X150750000Y-75661928D01*
X149785750Y-75665000D01*
X149627000Y-75823750D01*
X149627000Y-77073000D01*
X149647000Y-77073000D01*
X149647000Y-77327000D01*
X149627000Y-77327000D01*
X149627000Y-77347000D01*
X149373000Y-77347000D01*
X149373000Y-77327000D01*
X147773750Y-77327000D01*
X147615000Y-77485750D01*
X147614102Y-77665300D01*
X147388072Y-77665300D01*
X147388072Y-76300000D01*
X147611928Y-76300000D01*
X147615000Y-76914250D01*
X147773750Y-77073000D01*
X149373000Y-77073000D01*
X149373000Y-75823750D01*
X149214250Y-75665000D01*
X148250000Y-75661928D01*
X148125518Y-75674188D01*
X148005820Y-75710498D01*
X147895506Y-75769463D01*
X147798815Y-75848815D01*
X147719463Y-75945506D01*
X147660498Y-76055820D01*
X147624188Y-76175518D01*
X147611928Y-76300000D01*
X147388072Y-76300000D01*
X147375812Y-76175518D01*
X147339502Y-76055820D01*
X147280537Y-75945506D01*
X147201185Y-75848815D01*
X147104494Y-75769463D01*
X146994180Y-75710498D01*
X146874482Y-75674188D01*
X146750000Y-75661928D01*
X144250000Y-75661928D01*
X144125518Y-75674188D01*
X144005820Y-75710498D01*
X143895506Y-75769463D01*
X143798815Y-75848815D01*
X143719463Y-75945506D01*
X143660498Y-76055820D01*
X143624188Y-76175518D01*
X143611928Y-76300000D01*
X143611928Y-78100000D01*
X143624188Y-78224482D01*
X143660498Y-78344180D01*
X143719463Y-78454494D01*
X143798815Y-78551185D01*
X143895506Y-78630537D01*
X144005820Y-78689502D01*
X144125518Y-78725812D01*
X144250000Y-78738072D01*
X144699555Y-78738072D01*
X144724828Y-78821387D01*
X144802364Y-78966446D01*
X144906709Y-79093591D01*
X145033854Y-79197936D01*
X145178913Y-79275472D01*
X145336311Y-79323218D01*
X145458981Y-79335300D01*
X145458982Y-79335300D01*
X145500000Y-79339340D01*
X145541019Y-79335300D01*
X151433800Y-79335300D01*
X151433801Y-99505971D01*
X151429760Y-99547000D01*
X151445882Y-99710688D01*
X151493628Y-99868086D01*
X151570581Y-100012054D01*
X151571165Y-100013146D01*
X151675510Y-100140291D01*
X151707374Y-100166441D01*
X153176010Y-101635079D01*
X153090663Y-101720426D01*
X152977395Y-101889944D01*
X152899374Y-102078302D01*
X152859600Y-102278261D01*
X152859600Y-102340398D01*
X144188998Y-111011001D01*
X144160000Y-111034799D01*
X144136202Y-111063797D01*
X144136201Y-111063798D01*
X144065026Y-111150524D01*
X143994454Y-111282554D01*
X143950998Y-111425815D01*
X143949903Y-111436928D01*
X143275000Y-111436928D01*
X143150518Y-111449188D01*
X143030820Y-111485498D01*
X142920506Y-111544463D01*
X142823815Y-111623815D01*
X142744463Y-111720506D01*
X142685498Y-111830820D01*
X142649188Y-111950518D01*
X142636928Y-112075000D01*
X136960000Y-112075000D01*
X136960000Y-71500000D01*
X143611928Y-71500000D01*
X143624188Y-71624482D01*
X143660498Y-71744180D01*
X143719463Y-71854494D01*
X143798815Y-71951185D01*
X143895506Y-72030537D01*
X144005820Y-72089502D01*
X144125518Y-72125812D01*
X144250000Y-72138072D01*
X145214250Y-72135000D01*
X145373000Y-71976250D01*
X145373000Y-70727000D01*
X145627000Y-70727000D01*
X145627000Y-71976250D01*
X145785750Y-72135000D01*
X146750000Y-72138072D01*
X146874482Y-72125812D01*
X146994180Y-72089502D01*
X147104494Y-72030537D01*
X147201185Y-71951185D01*
X147280537Y-71854494D01*
X147339502Y-71744180D01*
X147375812Y-71624482D01*
X147388072Y-71500000D01*
X147385000Y-70885750D01*
X147226250Y-70727000D01*
X145627000Y-70727000D01*
X145373000Y-70727000D01*
X143773750Y-70727000D01*
X143615000Y-70885750D01*
X143611928Y-71500000D01*
X136960000Y-71500000D01*
X136960000Y-69700000D01*
X143611928Y-69700000D01*
X143615000Y-70314250D01*
X143773750Y-70473000D01*
X145373000Y-70473000D01*
X145373000Y-69223750D01*
X145627000Y-69223750D01*
X145627000Y-70473000D01*
X147226250Y-70473000D01*
X147385000Y-70314250D01*
X147388072Y-69700000D01*
X147375812Y-69575518D01*
X147339502Y-69455820D01*
X147280537Y-69345506D01*
X147201185Y-69248815D01*
X147104494Y-69169463D01*
X146994180Y-69110498D01*
X146874482Y-69074188D01*
X146750000Y-69061928D01*
X145785750Y-69065000D01*
X145627000Y-69223750D01*
X145373000Y-69223750D01*
X145214250Y-69065000D01*
X144250000Y-69061928D01*
X144125518Y-69074188D01*
X144005820Y-69110498D01*
X143895506Y-69169463D01*
X143798815Y-69248815D01*
X143719463Y-69345506D01*
X143660498Y-69455820D01*
X143624188Y-69575518D01*
X143611928Y-69700000D01*
X136960000Y-69700000D01*
X136960000Y-68300000D01*
X158686928Y-68300000D01*
X158690000Y-68539250D01*
X158848750Y-68698000D01*
X159673000Y-68698000D01*
X159673000Y-67823750D01*
X159927000Y-67823750D01*
X159927000Y-68698000D01*
X160751250Y-68698000D01*
X160850000Y-68599250D01*
X160948750Y-68698000D01*
X161773000Y-68698000D01*
X161773000Y-67823750D01*
X162027000Y-67823750D01*
X162027000Y-68698000D01*
X162851250Y-68698000D01*
X162900000Y-68649250D01*
X162948750Y-68698000D01*
X163773000Y-68698000D01*
X163773000Y-67823750D01*
X164027000Y-67823750D01*
X164027000Y-68698000D01*
X164851250Y-68698000D01*
X164900000Y-68649250D01*
X164948750Y-68698000D01*
X165773000Y-68698000D01*
X165773000Y-67823750D01*
X166027000Y-67823750D01*
X166027000Y-68698000D01*
X166851250Y-68698000D01*
X167010000Y-68539250D01*
X167013072Y-68300000D01*
X167000812Y-68175518D01*
X166964502Y-68055820D01*
X166905537Y-67945506D01*
X166826185Y-67848815D01*
X166729494Y-67769463D01*
X166619180Y-67710498D01*
X166499482Y-67674188D01*
X166375000Y-67661928D01*
X166185750Y-67665000D01*
X166027000Y-67823750D01*
X165773000Y-67823750D01*
X165614250Y-67665000D01*
X165425000Y-67661928D01*
X165300518Y-67674188D01*
X165180820Y-67710498D01*
X165070506Y-67769463D01*
X164973815Y-67848815D01*
X164900000Y-67938759D01*
X164826185Y-67848815D01*
X164729494Y-67769463D01*
X164619180Y-67710498D01*
X164499482Y-67674188D01*
X164375000Y-67661928D01*
X164185750Y-67665000D01*
X164027000Y-67823750D01*
X163773000Y-67823750D01*
X163614250Y-67665000D01*
X163425000Y-67661928D01*
X163300518Y-67674188D01*
X163180820Y-67710498D01*
X163070506Y-67769463D01*
X162973815Y-67848815D01*
X162900000Y-67938759D01*
X162826185Y-67848815D01*
X162729494Y-67769463D01*
X162619180Y-67710498D01*
X162499482Y-67674188D01*
X162375000Y-67661928D01*
X162185750Y-67665000D01*
X162027000Y-67823750D01*
X161773000Y-67823750D01*
X161614250Y-67665000D01*
X161425000Y-67661928D01*
X161300518Y-67674188D01*
X161180820Y-67710498D01*
X161070506Y-67769463D01*
X160973815Y-67848815D01*
X160894463Y-67945506D01*
X160850000Y-68028689D01*
X160805537Y-67945506D01*
X160726185Y-67848815D01*
X160629494Y-67769463D01*
X160519180Y-67710498D01*
X160399482Y-67674188D01*
X160275000Y-67661928D01*
X160085750Y-67665000D01*
X159927000Y-67823750D01*
X159673000Y-67823750D01*
X159514250Y-67665000D01*
X159325000Y-67661928D01*
X159200518Y-67674188D01*
X159080820Y-67710498D01*
X158970506Y-67769463D01*
X158873815Y-67848815D01*
X158794463Y-67945506D01*
X158735498Y-68055820D01*
X158699188Y-68175518D01*
X158686928Y-68300000D01*
X136960000Y-68300000D01*
X136960000Y-66660000D01*
X185640001Y-66660000D01*
X185640000Y-115340000D01*
G36*
X161043377Y-71481623D02*
G01*
X161176058Y-71590512D01*
X161327433Y-71671423D01*
X161491684Y-71721248D01*
X161662500Y-71738072D01*
X162137500Y-71738072D01*
X162308316Y-71721248D01*
X162472567Y-71671423D01*
X162623942Y-71590512D01*
X162756623Y-71481623D01*
X162815403Y-71410000D01*
X162984597Y-71410000D01*
X163043377Y-71481623D01*
X163176058Y-71590512D01*
X163327433Y-71671423D01*
X163491684Y-71721248D01*
X163662500Y-71738072D01*
X164137500Y-71738072D01*
X164308316Y-71721248D01*
X164472567Y-71671423D01*
X164623942Y-71590512D01*
X164756623Y-71481623D01*
X164815403Y-71410000D01*
X164984597Y-71410000D01*
X165043377Y-71481623D01*
X165176058Y-71590512D01*
X165327433Y-71671423D01*
X165491684Y-71721248D01*
X165662500Y-71738072D01*
X165882205Y-71738072D01*
X167231928Y-73087796D01*
X167231928Y-73202593D01*
X167148942Y-73134488D01*
X166997567Y-73053577D01*
X166833316Y-73003752D01*
X166662500Y-72986928D01*
X166150200Y-72986928D01*
X166150200Y-72898761D01*
X166110426Y-72698802D01*
X166032405Y-72510444D01*
X165919137Y-72340926D01*
X165774974Y-72196763D01*
X165605456Y-72083495D01*
X165417098Y-72005474D01*
X165217139Y-71965700D01*
X165013261Y-71965700D01*
X164813302Y-72005474D01*
X164624944Y-72083495D01*
X164455426Y-72196763D01*
X164311263Y-72340926D01*
X164197995Y-72510444D01*
X164119974Y-72698802D01*
X164080200Y-72898761D01*
X164080200Y-73029987D01*
X164002433Y-73053577D01*
X163851058Y-73134488D01*
X163718377Y-73243377D01*
X163609488Y-73376058D01*
X163528577Y-73527433D01*
X163478752Y-73691684D01*
X163461928Y-73862500D01*
X163461928Y-74337500D01*
X163478752Y-74508316D01*
X163528577Y-74672567D01*
X163609488Y-74823942D01*
X163718377Y-74956623D01*
X163851058Y-75065512D01*
X164002433Y-75146423D01*
X164166684Y-75196248D01*
X164337500Y-75213072D01*
X164657205Y-75213072D01*
X166361928Y-76917797D01*
X166361928Y-77137500D01*
X166378752Y-77308316D01*
X166428577Y-77472567D01*
X166509488Y-77623942D01*
X166618377Y-77756623D01*
X166671232Y-77800000D01*
X166618377Y-77843377D01*
X166509488Y-77976058D01*
X166428577Y-78127433D01*
X166378752Y-78291684D01*
X166361928Y-78462500D01*
X166361928Y-78937500D01*
X166378752Y-79108316D01*
X166428577Y-79272567D01*
X166509488Y-79423942D01*
X166618377Y-79556623D01*
X166625769Y-79562690D01*
X166588377Y-79593377D01*
X166479488Y-79726058D01*
X166398577Y-79877433D01*
X166348752Y-80041684D01*
X166331928Y-80212500D01*
X166331928Y-80615000D01*
X163771318Y-80615000D01*
X163730300Y-80610960D01*
X163707350Y-80613220D01*
X163684494Y-80594463D01*
X163574180Y-80535498D01*
X163454482Y-80499188D01*
X163330000Y-80486928D01*
X162270000Y-80486928D01*
X162145518Y-80499188D01*
X162025820Y-80535498D01*
X161915506Y-80594463D01*
X161818815Y-80673815D01*
X161739463Y-80770506D01*
X161700000Y-80844335D01*
X161660537Y-80770506D01*
X161581185Y-80673815D01*
X161484494Y-80594463D01*
X161374180Y-80535498D01*
X161254482Y-80499188D01*
X161130000Y-80486928D01*
X160070000Y-80486928D01*
X159945518Y-80499188D01*
X159825820Y-80535498D01*
X159715506Y-80594463D01*
X159618815Y-80673815D01*
X159596577Y-80700912D01*
X159595714Y-80700997D01*
X159452453Y-80744454D01*
X159320424Y-80815026D01*
X159236512Y-80883891D01*
X159165512Y-80751058D01*
X159056623Y-80618377D01*
X158923942Y-80509488D01*
X158772567Y-80428577D01*
X158608316Y-80378752D01*
X158437500Y-80361928D01*
X157962500Y-80361928D01*
X157791684Y-80378752D01*
X157627433Y-80428577D01*
X157476058Y-80509488D01*
X157343377Y-80618377D01*
X157234488Y-80751058D01*
X157153577Y-80902433D01*
X157103752Y-81066684D01*
X157086928Y-81237500D01*
X157086928Y-81812500D01*
X157103752Y-81983316D01*
X157153577Y-82147567D01*
X157234488Y-82298942D01*
X157254099Y-82322839D01*
X157194463Y-82395506D01*
X157135498Y-82505820D01*
X157099188Y-82625518D01*
X157086928Y-82750000D01*
X157090000Y-82989250D01*
X157248750Y-83148000D01*
X158073000Y-83148000D01*
X158073000Y-83128000D01*
X158244501Y-83128000D01*
X158244500Y-92419800D01*
X154717023Y-92419800D01*
X154679700Y-92416124D01*
X154642377Y-92419800D01*
X154642367Y-92419800D01*
X154530714Y-92430797D01*
X154387453Y-92474254D01*
X154255424Y-92544826D01*
X154139699Y-92639799D01*
X154115901Y-92668797D01*
X153704200Y-93080498D01*
X153704200Y-92620967D01*
X155211828Y-91113340D01*
X155243691Y-91087191D01*
X155348036Y-90960046D01*
X155425572Y-90814987D01*
X155473318Y-90657589D01*
X155485400Y-90534919D01*
X155485400Y-90534918D01*
X155489440Y-90493901D01*
X155485400Y-90452882D01*
X155485400Y-83800000D01*
X157086928Y-83800000D01*
X157099188Y-83924482D01*
X157135498Y-84044180D01*
X157194463Y-84154494D01*
X157273815Y-84251185D01*
X157370506Y-84330537D01*
X157480820Y-84389502D01*
X157600518Y-84425812D01*
X157725000Y-84438072D01*
X157914250Y-84435000D01*
X158073000Y-84276250D01*
X158073000Y-83402000D01*
X157248750Y-83402000D01*
X157090000Y-83560750D01*
X157086928Y-83800000D01*
X155485400Y-83800000D01*
X155485400Y-78678587D01*
X155505820Y-78689502D01*
X155625518Y-78725812D01*
X155750000Y-78738072D01*
X158250000Y-78738072D01*
X158374482Y-78725812D01*
X158494180Y-78689502D01*
X158604494Y-78630537D01*
X158701185Y-78551185D01*
X158780537Y-78454494D01*
X158839502Y-78344180D01*
X158875812Y-78224482D01*
X158888072Y-78100000D01*
X158888072Y-76300000D01*
X158875812Y-76175518D01*
X158839502Y-76055820D01*
X158780537Y-75945506D01*
X158701185Y-75848815D01*
X158604494Y-75769463D01*
X158494180Y-75710498D01*
X158374482Y-75674188D01*
X158250000Y-75661928D01*
X157835000Y-75661928D01*
X157835000Y-72138072D01*
X158250000Y-72138072D01*
X158374482Y-72125812D01*
X158494180Y-72089502D01*
X158604494Y-72030537D01*
X158701185Y-71951185D01*
X158780537Y-71854494D01*
X158839502Y-71744180D01*
X158875812Y-71624482D01*
X158888072Y-71500000D01*
X158888072Y-71414234D01*
X158943377Y-71481623D01*
X159076058Y-71590512D01*
X159227433Y-71671423D01*
X159391684Y-71721248D01*
X159562500Y-71738072D01*
X160037500Y-71738072D01*
X160208316Y-71721248D01*
X160372567Y-71671423D01*
X160523942Y-71590512D01*
X160656623Y-71481623D01*
X160715403Y-71410000D01*
X160984597Y-71410000D01*
X161043377Y-71481623D01*
G37*
X161043377Y-71481623D02*
X161176058Y-71590512D01*
X161327433Y-71671423D01*
X161491684Y-71721248D01*
X161662500Y-71738072D01*
X162137500Y-71738072D01*
X162308316Y-71721248D01*
X162472567Y-71671423D01*
X162623942Y-71590512D01*
X162756623Y-71481623D01*
X162815403Y-71410000D01*
X162984597Y-71410000D01*
X163043377Y-71481623D01*
X163176058Y-71590512D01*
X163327433Y-71671423D01*
X163491684Y-71721248D01*
X163662500Y-71738072D01*
X164137500Y-71738072D01*
X164308316Y-71721248D01*
X164472567Y-71671423D01*
X164623942Y-71590512D01*
X164756623Y-71481623D01*
X164815403Y-71410000D01*
X164984597Y-71410000D01*
X165043377Y-71481623D01*
X165176058Y-71590512D01*
X165327433Y-71671423D01*
X165491684Y-71721248D01*
X165662500Y-71738072D01*
X165882205Y-71738072D01*
X167231928Y-73087796D01*
X167231928Y-73202593D01*
X167148942Y-73134488D01*
X166997567Y-73053577D01*
X166833316Y-73003752D01*
X166662500Y-72986928D01*
X166150200Y-72986928D01*
X166150200Y-72898761D01*
X166110426Y-72698802D01*
X166032405Y-72510444D01*
X165919137Y-72340926D01*
X165774974Y-72196763D01*
X165605456Y-72083495D01*
X165417098Y-72005474D01*
X165217139Y-71965700D01*
X165013261Y-71965700D01*
X164813302Y-72005474D01*
X164624944Y-72083495D01*
X164455426Y-72196763D01*
X164311263Y-72340926D01*
X164197995Y-72510444D01*
X164119974Y-72698802D01*
X164080200Y-72898761D01*
X164080200Y-73029987D01*
X164002433Y-73053577D01*
X163851058Y-73134488D01*
X163718377Y-73243377D01*
X163609488Y-73376058D01*
X163528577Y-73527433D01*
X163478752Y-73691684D01*
X163461928Y-73862500D01*
X163461928Y-74337500D01*
X163478752Y-74508316D01*
X163528577Y-74672567D01*
X163609488Y-74823942D01*
X163718377Y-74956623D01*
X163851058Y-75065512D01*
X164002433Y-75146423D01*
X164166684Y-75196248D01*
X164337500Y-75213072D01*
X164657205Y-75213072D01*
X166361928Y-76917797D01*
X166361928Y-77137500D01*
X166378752Y-77308316D01*
X166428577Y-77472567D01*
X166509488Y-77623942D01*
X166618377Y-77756623D01*
X166671232Y-77800000D01*
X166618377Y-77843377D01*
X166509488Y-77976058D01*
X166428577Y-78127433D01*
X166378752Y-78291684D01*
X166361928Y-78462500D01*
X166361928Y-78937500D01*
X166378752Y-79108316D01*
X166428577Y-79272567D01*
X166509488Y-79423942D01*
X166618377Y-79556623D01*
X166625769Y-79562690D01*
X166588377Y-79593377D01*
X166479488Y-79726058D01*
X166398577Y-79877433D01*
X166348752Y-80041684D01*
X166331928Y-80212500D01*
X166331928Y-80615000D01*
X163771318Y-80615000D01*
X163730300Y-80610960D01*
X163707350Y-80613220D01*
X163684494Y-80594463D01*
X163574180Y-80535498D01*
X163454482Y-80499188D01*
X163330000Y-80486928D01*
X162270000Y-80486928D01*
X162145518Y-80499188D01*
X162025820Y-80535498D01*
X161915506Y-80594463D01*
X161818815Y-80673815D01*
X161739463Y-80770506D01*
X161700000Y-80844335D01*
X161660537Y-80770506D01*
X161581185Y-80673815D01*
X161484494Y-80594463D01*
X161374180Y-80535498D01*
X161254482Y-80499188D01*
X161130000Y-80486928D01*
X160070000Y-80486928D01*
X159945518Y-80499188D01*
X159825820Y-80535498D01*
X159715506Y-80594463D01*
X159618815Y-80673815D01*
X159596577Y-80700912D01*
X159595714Y-80700997D01*
X159452453Y-80744454D01*
X159320424Y-80815026D01*
X159236512Y-80883891D01*
X159165512Y-80751058D01*
X159056623Y-80618377D01*
X158923942Y-80509488D01*
X158772567Y-80428577D01*
X158608316Y-80378752D01*
X158437500Y-80361928D01*
X157962500Y-80361928D01*
X157791684Y-80378752D01*
X157627433Y-80428577D01*
X157476058Y-80509488D01*
X157343377Y-80618377D01*
X157234488Y-80751058D01*
X157153577Y-80902433D01*
X157103752Y-81066684D01*
X157086928Y-81237500D01*
X157086928Y-81812500D01*
X157103752Y-81983316D01*
X157153577Y-82147567D01*
X157234488Y-82298942D01*
X157254099Y-82322839D01*
X157194463Y-82395506D01*
X157135498Y-82505820D01*
X157099188Y-82625518D01*
X157086928Y-82750000D01*
X157090000Y-82989250D01*
X157248750Y-83148000D01*
X158073000Y-83148000D01*
X158073000Y-83128000D01*
X158244501Y-83128000D01*
X158244500Y-92419800D01*
X154717023Y-92419800D01*
X154679700Y-92416124D01*
X154642377Y-92419800D01*
X154642367Y-92419800D01*
X154530714Y-92430797D01*
X154387453Y-92474254D01*
X154255424Y-92544826D01*
X154139699Y-92639799D01*
X154115901Y-92668797D01*
X153704200Y-93080498D01*
X153704200Y-92620967D01*
X155211828Y-91113340D01*
X155243691Y-91087191D01*
X155348036Y-90960046D01*
X155425572Y-90814987D01*
X155473318Y-90657589D01*
X155485400Y-90534919D01*
X155485400Y-90534918D01*
X155489440Y-90493901D01*
X155485400Y-90452882D01*
X155485400Y-83800000D01*
X157086928Y-83800000D01*
X157099188Y-83924482D01*
X157135498Y-84044180D01*
X157194463Y-84154494D01*
X157273815Y-84251185D01*
X157370506Y-84330537D01*
X157480820Y-84389502D01*
X157600518Y-84425812D01*
X157725000Y-84438072D01*
X157914250Y-84435000D01*
X158073000Y-84276250D01*
X158073000Y-83402000D01*
X157248750Y-83402000D01*
X157090000Y-83560750D01*
X157086928Y-83800000D01*
X155485400Y-83800000D01*
X155485400Y-78678587D01*
X155505820Y-78689502D01*
X155625518Y-78725812D01*
X155750000Y-78738072D01*
X158250000Y-78738072D01*
X158374482Y-78725812D01*
X158494180Y-78689502D01*
X158604494Y-78630537D01*
X158701185Y-78551185D01*
X158780537Y-78454494D01*
X158839502Y-78344180D01*
X158875812Y-78224482D01*
X158888072Y-78100000D01*
X158888072Y-76300000D01*
X158875812Y-76175518D01*
X158839502Y-76055820D01*
X158780537Y-75945506D01*
X158701185Y-75848815D01*
X158604494Y-75769463D01*
X158494180Y-75710498D01*
X158374482Y-75674188D01*
X158250000Y-75661928D01*
X157835000Y-75661928D01*
X157835000Y-72138072D01*
X158250000Y-72138072D01*
X158374482Y-72125812D01*
X158494180Y-72089502D01*
X158604494Y-72030537D01*
X158701185Y-71951185D01*
X158780537Y-71854494D01*
X158839502Y-71744180D01*
X158875812Y-71624482D01*
X158888072Y-71500000D01*
X158888072Y-71414234D01*
X158943377Y-71481623D01*
X159076058Y-71590512D01*
X159227433Y-71671423D01*
X159391684Y-71721248D01*
X159562500Y-71738072D01*
X160037500Y-71738072D01*
X160208316Y-71721248D01*
X160372567Y-71671423D01*
X160523942Y-71590512D01*
X160656623Y-71481623D01*
X160715403Y-71410000D01*
X160984597Y-71410000D01*
X161043377Y-71481623D01*
G36*
X161793750Y-82273000D02*
G01*
X161875859Y-82273000D01*
X161915506Y-82305537D01*
X162025820Y-82364502D01*
X162142841Y-82400000D01*
X162025820Y-82435498D01*
X161915506Y-82494463D01*
X161875859Y-82527000D01*
X161793750Y-82527000D01*
X161655897Y-82664853D01*
X161581185Y-82573815D01*
X161484494Y-82494463D01*
X161374180Y-82435498D01*
X161257159Y-82400000D01*
X161374180Y-82364502D01*
X161484494Y-82305537D01*
X161581185Y-82226185D01*
X161655897Y-82135147D01*
X161793750Y-82273000D01*
G37*
X161793750Y-82273000D02*
X161875859Y-82273000D01*
X161915506Y-82305537D01*
X162025820Y-82364502D01*
X162142841Y-82400000D01*
X162025820Y-82435498D01*
X161915506Y-82494463D01*
X161875859Y-82527000D01*
X161793750Y-82527000D01*
X161655897Y-82664853D01*
X161581185Y-82573815D01*
X161484494Y-82494463D01*
X161374180Y-82435498D01*
X161257159Y-82400000D01*
X161374180Y-82364502D01*
X161484494Y-82305537D01*
X161581185Y-82226185D01*
X161655897Y-82135147D01*
X161793750Y-82273000D01*
G36*
X168547000Y-75177000D02*
G01*
X168527000Y-75177000D01*
X168527000Y-75197000D01*
X168304700Y-75197000D01*
X168304700Y-75063072D01*
X168547000Y-75063072D01*
X168547000Y-75177000D01*
G37*
X168547000Y-75177000D02*
X168527000Y-75177000D01*
X168527000Y-75197000D01*
X168304700Y-75197000D01*
X168304700Y-75063072D01*
X168547000Y-75063072D01*
X168547000Y-75177000D01*
G36*
X172627000Y-71091167D02*
G01*
X172627000Y-71098000D01*
X172633833Y-71098000D01*
X172647000Y-71111167D01*
X172647000Y-71352000D01*
X172627000Y-71352000D01*
X172627000Y-71372000D01*
X172373000Y-71372000D01*
X172373000Y-71352000D01*
X172353000Y-71352000D01*
X172353000Y-71098000D01*
X172373000Y-71098000D01*
X172373000Y-71085100D01*
X172620933Y-71085100D01*
X172627000Y-71091167D01*
G37*
X172627000Y-71091167D02*
X172627000Y-71098000D01*
X172633833Y-71098000D01*
X172647000Y-71111167D01*
X172647000Y-71352000D01*
X172627000Y-71352000D01*
X172627000Y-71372000D01*
X172373000Y-71372000D01*
X172373000Y-71352000D01*
X172353000Y-71352000D01*
X172353000Y-71098000D01*
X172373000Y-71098000D01*
X172373000Y-71085100D01*
X172620933Y-71085100D01*
X172627000Y-71091167D01*
%TD*%
M02*
