%TF.GenerationSoftware,KiCad,Pcbnew,(5.1.6)-1*%
%TF.CreationDate,2020-08-14T21:54:29-04:00*%
%TF.ProjectId,CellLight,43656c6c-4c69-4676-9874-2e6b69636164,rev?*%
%TF.SameCoordinates,Original*%
%TF.FileFunction,Paste,Bot*%
%TF.FilePolarity,Positive*%
%FSLAX46Y46*%
G04 Gerber Fmt 4.6, Leading zero omitted, Abs format (unit mm)*
G04 Created by KiCad (PCBNEW (5.1.6)-1) date 2020-08-14 21:54:29*
%MOMM*%
%LPD*%
G01*
G04 APERTURE LIST*
%ADD10R,1.060000X0.650000*%
%ADD11R,2.500000X1.800000*%
G04 APERTURE END LIST*
D10*
%TO.C,U5*%
X160600000Y-81450000D03*
X160600000Y-83350000D03*
X162800000Y-83350000D03*
X162800000Y-82400000D03*
X162800000Y-81450000D03*
%TD*%
%TO.C,U4*%
X170600000Y-74100000D03*
X170600000Y-75050000D03*
X170600000Y-73150000D03*
X168400000Y-73150000D03*
X168400000Y-74100000D03*
X168400000Y-75050000D03*
%TD*%
%TO.C,R6*%
G36*
G01*
X168050000Y-76662500D02*
X168050000Y-77137500D01*
G75*
G02*
X167812500Y-77375000I-237500J0D01*
G01*
X167237500Y-77375000D01*
G75*
G02*
X167000000Y-77137500I0J237500D01*
G01*
X167000000Y-76662500D01*
G75*
G02*
X167237500Y-76425000I237500J0D01*
G01*
X167812500Y-76425000D01*
G75*
G02*
X168050000Y-76662500I0J-237500D01*
G01*
G37*
G36*
G01*
X169800000Y-76662500D02*
X169800000Y-77137500D01*
G75*
G02*
X169562500Y-77375000I-237500J0D01*
G01*
X168987500Y-77375000D01*
G75*
G02*
X168750000Y-77137500I0J237500D01*
G01*
X168750000Y-76662500D01*
G75*
G02*
X168987500Y-76425000I237500J0D01*
G01*
X169562500Y-76425000D01*
G75*
G02*
X169800000Y-76662500I0J-237500D01*
G01*
G37*
%TD*%
%TO.C,R5*%
G36*
G01*
X172737500Y-71750000D02*
X172262500Y-71750000D01*
G75*
G02*
X172025000Y-71512500I0J237500D01*
G01*
X172025000Y-70937500D01*
G75*
G02*
X172262500Y-70700000I237500J0D01*
G01*
X172737500Y-70700000D01*
G75*
G02*
X172975000Y-70937500I0J-237500D01*
G01*
X172975000Y-71512500D01*
G75*
G02*
X172737500Y-71750000I-237500J0D01*
G01*
G37*
G36*
G01*
X172737500Y-73500000D02*
X172262500Y-73500000D01*
G75*
G02*
X172025000Y-73262500I0J237500D01*
G01*
X172025000Y-72687500D01*
G75*
G02*
X172262500Y-72450000I237500J0D01*
G01*
X172737500Y-72450000D01*
G75*
G02*
X172975000Y-72687500I0J-237500D01*
G01*
X172975000Y-73262500D01*
G75*
G02*
X172737500Y-73500000I-237500J0D01*
G01*
G37*
%TD*%
%TO.C,R4*%
G36*
G01*
X174837500Y-72675000D02*
X174362500Y-72675000D01*
G75*
G02*
X174125000Y-72437500I0J237500D01*
G01*
X174125000Y-71862500D01*
G75*
G02*
X174362500Y-71625000I237500J0D01*
G01*
X174837500Y-71625000D01*
G75*
G02*
X175075000Y-71862500I0J-237500D01*
G01*
X175075000Y-72437500D01*
G75*
G02*
X174837500Y-72675000I-237500J0D01*
G01*
G37*
G36*
G01*
X174837500Y-74425000D02*
X174362500Y-74425000D01*
G75*
G02*
X174125000Y-74187500I0J237500D01*
G01*
X174125000Y-73612500D01*
G75*
G02*
X174362500Y-73375000I237500J0D01*
G01*
X174837500Y-73375000D01*
G75*
G02*
X175075000Y-73612500I0J-237500D01*
G01*
X175075000Y-74187500D01*
G75*
G02*
X174837500Y-74425000I-237500J0D01*
G01*
G37*
%TD*%
%TO.C,L1*%
G36*
G01*
X165150000Y-73862500D02*
X165150000Y-74337500D01*
G75*
G02*
X164912500Y-74575000I-237500J0D01*
G01*
X164337500Y-74575000D01*
G75*
G02*
X164100000Y-74337500I0J237500D01*
G01*
X164100000Y-73862500D01*
G75*
G02*
X164337500Y-73625000I237500J0D01*
G01*
X164912500Y-73625000D01*
G75*
G02*
X165150000Y-73862500I0J-237500D01*
G01*
G37*
G36*
G01*
X166900000Y-73862500D02*
X166900000Y-74337500D01*
G75*
G02*
X166662500Y-74575000I-237500J0D01*
G01*
X166087500Y-74575000D01*
G75*
G02*
X165850000Y-74337500I0J237500D01*
G01*
X165850000Y-73862500D01*
G75*
G02*
X166087500Y-73625000I237500J0D01*
G01*
X166662500Y-73625000D01*
G75*
G02*
X166900000Y-73862500I0J-237500D01*
G01*
G37*
%TD*%
D11*
%TO.C,D4*%
X153000000Y-77200000D03*
X157000000Y-77200000D03*
%TD*%
%TO.C,D3*%
X153000000Y-70600000D03*
X157000000Y-70600000D03*
%TD*%
%TO.C,D2*%
X149500000Y-77200000D03*
X145500000Y-77200000D03*
%TD*%
%TO.C,D1*%
X145500000Y-70600000D03*
X149500000Y-70600000D03*
%TD*%
%TO.C,C11*%
G36*
G01*
X157962500Y-82750000D02*
X158437500Y-82750000D01*
G75*
G02*
X158675000Y-82987500I0J-237500D01*
G01*
X158675000Y-83562500D01*
G75*
G02*
X158437500Y-83800000I-237500J0D01*
G01*
X157962500Y-83800000D01*
G75*
G02*
X157725000Y-83562500I0J237500D01*
G01*
X157725000Y-82987500D01*
G75*
G02*
X157962500Y-82750000I237500J0D01*
G01*
G37*
G36*
G01*
X157962500Y-81000000D02*
X158437500Y-81000000D01*
G75*
G02*
X158675000Y-81237500I0J-237500D01*
G01*
X158675000Y-81812500D01*
G75*
G02*
X158437500Y-82050000I-237500J0D01*
G01*
X157962500Y-82050000D01*
G75*
G02*
X157725000Y-81812500I0J237500D01*
G01*
X157725000Y-81237500D01*
G75*
G02*
X157962500Y-81000000I237500J0D01*
G01*
G37*
%TD*%
%TO.C,C10*%
G36*
G01*
X168750000Y-78937500D02*
X168750000Y-78462500D01*
G75*
G02*
X168987500Y-78225000I237500J0D01*
G01*
X169562500Y-78225000D01*
G75*
G02*
X169800000Y-78462500I0J-237500D01*
G01*
X169800000Y-78937500D01*
G75*
G02*
X169562500Y-79175000I-237500J0D01*
G01*
X168987500Y-79175000D01*
G75*
G02*
X168750000Y-78937500I0J237500D01*
G01*
G37*
G36*
G01*
X167000000Y-78937500D02*
X167000000Y-78462500D01*
G75*
G02*
X167237500Y-78225000I237500J0D01*
G01*
X167812500Y-78225000D01*
G75*
G02*
X168050000Y-78462500I0J-237500D01*
G01*
X168050000Y-78937500D01*
G75*
G02*
X167812500Y-79175000I-237500J0D01*
G01*
X167237500Y-79175000D01*
G75*
G02*
X167000000Y-78937500I0J237500D01*
G01*
G37*
%TD*%
%TO.C,C9*%
G36*
G01*
X160037500Y-69350000D02*
X159562500Y-69350000D01*
G75*
G02*
X159325000Y-69112500I0J237500D01*
G01*
X159325000Y-68537500D01*
G75*
G02*
X159562500Y-68300000I237500J0D01*
G01*
X160037500Y-68300000D01*
G75*
G02*
X160275000Y-68537500I0J-237500D01*
G01*
X160275000Y-69112500D01*
G75*
G02*
X160037500Y-69350000I-237500J0D01*
G01*
G37*
G36*
G01*
X160037500Y-71100000D02*
X159562500Y-71100000D01*
G75*
G02*
X159325000Y-70862500I0J237500D01*
G01*
X159325000Y-70287500D01*
G75*
G02*
X159562500Y-70050000I237500J0D01*
G01*
X160037500Y-70050000D01*
G75*
G02*
X160275000Y-70287500I0J-237500D01*
G01*
X160275000Y-70862500D01*
G75*
G02*
X160037500Y-71100000I-237500J0D01*
G01*
G37*
%TD*%
%TO.C,C8*%
G36*
G01*
X162137500Y-69350000D02*
X161662500Y-69350000D01*
G75*
G02*
X161425000Y-69112500I0J237500D01*
G01*
X161425000Y-68537500D01*
G75*
G02*
X161662500Y-68300000I237500J0D01*
G01*
X162137500Y-68300000D01*
G75*
G02*
X162375000Y-68537500I0J-237500D01*
G01*
X162375000Y-69112500D01*
G75*
G02*
X162137500Y-69350000I-237500J0D01*
G01*
G37*
G36*
G01*
X162137500Y-71100000D02*
X161662500Y-71100000D01*
G75*
G02*
X161425000Y-70862500I0J237500D01*
G01*
X161425000Y-70287500D01*
G75*
G02*
X161662500Y-70050000I237500J0D01*
G01*
X162137500Y-70050000D01*
G75*
G02*
X162375000Y-70287500I0J-237500D01*
G01*
X162375000Y-70862500D01*
G75*
G02*
X162137500Y-71100000I-237500J0D01*
G01*
G37*
%TD*%
%TO.C,C7*%
G36*
G01*
X164137500Y-69350000D02*
X163662500Y-69350000D01*
G75*
G02*
X163425000Y-69112500I0J237500D01*
G01*
X163425000Y-68537500D01*
G75*
G02*
X163662500Y-68300000I237500J0D01*
G01*
X164137500Y-68300000D01*
G75*
G02*
X164375000Y-68537500I0J-237500D01*
G01*
X164375000Y-69112500D01*
G75*
G02*
X164137500Y-69350000I-237500J0D01*
G01*
G37*
G36*
G01*
X164137500Y-71100000D02*
X163662500Y-71100000D01*
G75*
G02*
X163425000Y-70862500I0J237500D01*
G01*
X163425000Y-70287500D01*
G75*
G02*
X163662500Y-70050000I237500J0D01*
G01*
X164137500Y-70050000D01*
G75*
G02*
X164375000Y-70287500I0J-237500D01*
G01*
X164375000Y-70862500D01*
G75*
G02*
X164137500Y-71100000I-237500J0D01*
G01*
G37*
%TD*%
%TO.C,C6*%
G36*
G01*
X168720000Y-82437500D02*
X168720000Y-81962500D01*
G75*
G02*
X168957500Y-81725000I237500J0D01*
G01*
X169532500Y-81725000D01*
G75*
G02*
X169770000Y-81962500I0J-237500D01*
G01*
X169770000Y-82437500D01*
G75*
G02*
X169532500Y-82675000I-237500J0D01*
G01*
X168957500Y-82675000D01*
G75*
G02*
X168720000Y-82437500I0J237500D01*
G01*
G37*
G36*
G01*
X166970000Y-82437500D02*
X166970000Y-81962500D01*
G75*
G02*
X167207500Y-81725000I237500J0D01*
G01*
X167782500Y-81725000D01*
G75*
G02*
X168020000Y-81962500I0J-237500D01*
G01*
X168020000Y-82437500D01*
G75*
G02*
X167782500Y-82675000I-237500J0D01*
G01*
X167207500Y-82675000D01*
G75*
G02*
X166970000Y-82437500I0J237500D01*
G01*
G37*
%TD*%
%TO.C,C5*%
G36*
G01*
X166137500Y-69350000D02*
X165662500Y-69350000D01*
G75*
G02*
X165425000Y-69112500I0J237500D01*
G01*
X165425000Y-68537500D01*
G75*
G02*
X165662500Y-68300000I237500J0D01*
G01*
X166137500Y-68300000D01*
G75*
G02*
X166375000Y-68537500I0J-237500D01*
G01*
X166375000Y-69112500D01*
G75*
G02*
X166137500Y-69350000I-237500J0D01*
G01*
G37*
G36*
G01*
X166137500Y-71100000D02*
X165662500Y-71100000D01*
G75*
G02*
X165425000Y-70862500I0J237500D01*
G01*
X165425000Y-70287500D01*
G75*
G02*
X165662500Y-70050000I237500J0D01*
G01*
X166137500Y-70050000D01*
G75*
G02*
X166375000Y-70287500I0J-237500D01*
G01*
X166375000Y-70862500D01*
G75*
G02*
X166137500Y-71100000I-237500J0D01*
G01*
G37*
%TD*%
%TO.C,C4*%
G36*
G01*
X168720000Y-80687500D02*
X168720000Y-80212500D01*
G75*
G02*
X168957500Y-79975000I237500J0D01*
G01*
X169532500Y-79975000D01*
G75*
G02*
X169770000Y-80212500I0J-237500D01*
G01*
X169770000Y-80687500D01*
G75*
G02*
X169532500Y-80925000I-237500J0D01*
G01*
X168957500Y-80925000D01*
G75*
G02*
X168720000Y-80687500I0J237500D01*
G01*
G37*
G36*
G01*
X166970000Y-80687500D02*
X166970000Y-80212500D01*
G75*
G02*
X167207500Y-79975000I237500J0D01*
G01*
X167782500Y-79975000D01*
G75*
G02*
X168020000Y-80212500I0J-237500D01*
G01*
X168020000Y-80687500D01*
G75*
G02*
X167782500Y-80925000I-237500J0D01*
G01*
X167207500Y-80925000D01*
G75*
G02*
X166970000Y-80687500I0J237500D01*
G01*
G37*
%TD*%
%TO.C,C3*%
G36*
G01*
X172837500Y-75750000D02*
X172362500Y-75750000D01*
G75*
G02*
X172125000Y-75512500I0J237500D01*
G01*
X172125000Y-74937500D01*
G75*
G02*
X172362500Y-74700000I237500J0D01*
G01*
X172837500Y-74700000D01*
G75*
G02*
X173075000Y-74937500I0J-237500D01*
G01*
X173075000Y-75512500D01*
G75*
G02*
X172837500Y-75750000I-237500J0D01*
G01*
G37*
G36*
G01*
X172837500Y-77500000D02*
X172362500Y-77500000D01*
G75*
G02*
X172125000Y-77262500I0J237500D01*
G01*
X172125000Y-76687500D01*
G75*
G02*
X172362500Y-76450000I237500J0D01*
G01*
X172837500Y-76450000D01*
G75*
G02*
X173075000Y-76687500I0J-237500D01*
G01*
X173075000Y-77262500D01*
G75*
G02*
X172837500Y-77500000I-237500J0D01*
G01*
G37*
%TD*%
M02*
