%TF.GenerationSoftware,KiCad,Pcbnew,(5.1.6)-1*%
%TF.CreationDate,2020-08-14T21:54:29-04:00*%
%TF.ProjectId,CellLight,43656c6c-4c69-4676-9874-2e6b69636164,rev?*%
%TF.SameCoordinates,Original*%
%TF.FileFunction,Paste,Top*%
%TF.FilePolarity,Positive*%
%FSLAX46Y46*%
G04 Gerber Fmt 4.6, Leading zero omitted, Abs format (unit mm)*
G04 Created by KiCad (PCBNEW (5.1.6)-1) date 2020-08-14 21:54:29*
%MOMM*%
%LPD*%
G01*
G04 APERTURE LIST*
%ADD10R,1.900000X0.600000*%
%ADD11R,0.650000X0.400000*%
%ADD12R,1.700000X1.000000*%
%ADD13R,1.500000X1.000000*%
G04 APERTURE END LIST*
D10*
%TO.C,U1*%
X161305000Y-81745000D03*
X161305000Y-83015000D03*
X161305000Y-84285000D03*
X161305000Y-85555000D03*
X161305000Y-86825000D03*
X161305000Y-88095000D03*
X161305000Y-89365000D03*
X161305000Y-90635000D03*
X161305000Y-91905000D03*
X161305000Y-93175000D03*
X161305000Y-94445000D03*
X161305000Y-95715000D03*
X161305000Y-96985000D03*
X161305000Y-98255000D03*
X152095000Y-98255000D03*
X152095000Y-96985000D03*
X152095000Y-95715000D03*
X152095000Y-94445000D03*
X152095000Y-93175000D03*
X152095000Y-91905000D03*
X152095000Y-90635000D03*
X152095000Y-89365000D03*
X152095000Y-88095000D03*
X152095000Y-86825000D03*
X152095000Y-85555000D03*
X152095000Y-84285000D03*
X152095000Y-83015000D03*
X152095000Y-81745000D03*
%TD*%
D11*
%TO.C,U6*%
X171050000Y-84750000D03*
X171050000Y-86050000D03*
X169150000Y-85400000D03*
X171050000Y-85400000D03*
X169150000Y-86050000D03*
X169150000Y-84750000D03*
%TD*%
%TO.C,U3*%
G36*
G01*
X169600000Y-101845000D02*
X169600000Y-101545000D01*
G75*
G02*
X169750000Y-101395000I150000J0D01*
G01*
X171400000Y-101395000D01*
G75*
G02*
X171550000Y-101545000I0J-150000D01*
G01*
X171550000Y-101845000D01*
G75*
G02*
X171400000Y-101995000I-150000J0D01*
G01*
X169750000Y-101995000D01*
G75*
G02*
X169600000Y-101845000I0J150000D01*
G01*
G37*
G36*
G01*
X169600000Y-103115000D02*
X169600000Y-102815000D01*
G75*
G02*
X169750000Y-102665000I150000J0D01*
G01*
X171400000Y-102665000D01*
G75*
G02*
X171550000Y-102815000I0J-150000D01*
G01*
X171550000Y-103115000D01*
G75*
G02*
X171400000Y-103265000I-150000J0D01*
G01*
X169750000Y-103265000D01*
G75*
G02*
X169600000Y-103115000I0J150000D01*
G01*
G37*
G36*
G01*
X169600000Y-104385000D02*
X169600000Y-104085000D01*
G75*
G02*
X169750000Y-103935000I150000J0D01*
G01*
X171400000Y-103935000D01*
G75*
G02*
X171550000Y-104085000I0J-150000D01*
G01*
X171550000Y-104385000D01*
G75*
G02*
X171400000Y-104535000I-150000J0D01*
G01*
X169750000Y-104535000D01*
G75*
G02*
X169600000Y-104385000I0J150000D01*
G01*
G37*
G36*
G01*
X169600000Y-105655000D02*
X169600000Y-105355000D01*
G75*
G02*
X169750000Y-105205000I150000J0D01*
G01*
X171400000Y-105205000D01*
G75*
G02*
X171550000Y-105355000I0J-150000D01*
G01*
X171550000Y-105655000D01*
G75*
G02*
X171400000Y-105805000I-150000J0D01*
G01*
X169750000Y-105805000D01*
G75*
G02*
X169600000Y-105655000I0J150000D01*
G01*
G37*
G36*
G01*
X164650000Y-105655000D02*
X164650000Y-105355000D01*
G75*
G02*
X164800000Y-105205000I150000J0D01*
G01*
X166450000Y-105205000D01*
G75*
G02*
X166600000Y-105355000I0J-150000D01*
G01*
X166600000Y-105655000D01*
G75*
G02*
X166450000Y-105805000I-150000J0D01*
G01*
X164800000Y-105805000D01*
G75*
G02*
X164650000Y-105655000I0J150000D01*
G01*
G37*
G36*
G01*
X164650000Y-104385000D02*
X164650000Y-104085000D01*
G75*
G02*
X164800000Y-103935000I150000J0D01*
G01*
X166450000Y-103935000D01*
G75*
G02*
X166600000Y-104085000I0J-150000D01*
G01*
X166600000Y-104385000D01*
G75*
G02*
X166450000Y-104535000I-150000J0D01*
G01*
X164800000Y-104535000D01*
G75*
G02*
X164650000Y-104385000I0J150000D01*
G01*
G37*
G36*
G01*
X164650000Y-103115000D02*
X164650000Y-102815000D01*
G75*
G02*
X164800000Y-102665000I150000J0D01*
G01*
X166450000Y-102665000D01*
G75*
G02*
X166600000Y-102815000I0J-150000D01*
G01*
X166600000Y-103115000D01*
G75*
G02*
X166450000Y-103265000I-150000J0D01*
G01*
X164800000Y-103265000D01*
G75*
G02*
X164650000Y-103115000I0J150000D01*
G01*
G37*
G36*
G01*
X164650000Y-101845000D02*
X164650000Y-101545000D01*
G75*
G02*
X164800000Y-101395000I150000J0D01*
G01*
X166450000Y-101395000D01*
G75*
G02*
X166600000Y-101545000I0J-150000D01*
G01*
X166600000Y-101845000D01*
G75*
G02*
X166450000Y-101995000I-150000J0D01*
G01*
X164800000Y-101995000D01*
G75*
G02*
X164650000Y-101845000I0J150000D01*
G01*
G37*
%TD*%
%TO.C,U2*%
G36*
G01*
X157525000Y-102550000D02*
X157525000Y-102350000D01*
G75*
G02*
X157625000Y-102250000I100000J0D01*
G01*
X158900000Y-102250000D01*
G75*
G02*
X159000000Y-102350000I0J-100000D01*
G01*
X159000000Y-102550000D01*
G75*
G02*
X158900000Y-102650000I-100000J0D01*
G01*
X157625000Y-102650000D01*
G75*
G02*
X157525000Y-102550000I0J100000D01*
G01*
G37*
G36*
G01*
X157525000Y-103200000D02*
X157525000Y-103000000D01*
G75*
G02*
X157625000Y-102900000I100000J0D01*
G01*
X158900000Y-102900000D01*
G75*
G02*
X159000000Y-103000000I0J-100000D01*
G01*
X159000000Y-103200000D01*
G75*
G02*
X158900000Y-103300000I-100000J0D01*
G01*
X157625000Y-103300000D01*
G75*
G02*
X157525000Y-103200000I0J100000D01*
G01*
G37*
G36*
G01*
X157525000Y-103850000D02*
X157525000Y-103650000D01*
G75*
G02*
X157625000Y-103550000I100000J0D01*
G01*
X158900000Y-103550000D01*
G75*
G02*
X159000000Y-103650000I0J-100000D01*
G01*
X159000000Y-103850000D01*
G75*
G02*
X158900000Y-103950000I-100000J0D01*
G01*
X157625000Y-103950000D01*
G75*
G02*
X157525000Y-103850000I0J100000D01*
G01*
G37*
G36*
G01*
X157525000Y-104500000D02*
X157525000Y-104300000D01*
G75*
G02*
X157625000Y-104200000I100000J0D01*
G01*
X158900000Y-104200000D01*
G75*
G02*
X159000000Y-104300000I0J-100000D01*
G01*
X159000000Y-104500000D01*
G75*
G02*
X158900000Y-104600000I-100000J0D01*
G01*
X157625000Y-104600000D01*
G75*
G02*
X157525000Y-104500000I0J100000D01*
G01*
G37*
G36*
G01*
X157525000Y-105150000D02*
X157525000Y-104950000D01*
G75*
G02*
X157625000Y-104850000I100000J0D01*
G01*
X158900000Y-104850000D01*
G75*
G02*
X159000000Y-104950000I0J-100000D01*
G01*
X159000000Y-105150000D01*
G75*
G02*
X158900000Y-105250000I-100000J0D01*
G01*
X157625000Y-105250000D01*
G75*
G02*
X157525000Y-105150000I0J100000D01*
G01*
G37*
G36*
G01*
X157525000Y-105800000D02*
X157525000Y-105600000D01*
G75*
G02*
X157625000Y-105500000I100000J0D01*
G01*
X158900000Y-105500000D01*
G75*
G02*
X159000000Y-105600000I0J-100000D01*
G01*
X159000000Y-105800000D01*
G75*
G02*
X158900000Y-105900000I-100000J0D01*
G01*
X157625000Y-105900000D01*
G75*
G02*
X157525000Y-105800000I0J100000D01*
G01*
G37*
G36*
G01*
X157525000Y-106450000D02*
X157525000Y-106250000D01*
G75*
G02*
X157625000Y-106150000I100000J0D01*
G01*
X158900000Y-106150000D01*
G75*
G02*
X159000000Y-106250000I0J-100000D01*
G01*
X159000000Y-106450000D01*
G75*
G02*
X158900000Y-106550000I-100000J0D01*
G01*
X157625000Y-106550000D01*
G75*
G02*
X157525000Y-106450000I0J100000D01*
G01*
G37*
G36*
G01*
X151800000Y-106450000D02*
X151800000Y-106250000D01*
G75*
G02*
X151900000Y-106150000I100000J0D01*
G01*
X153175000Y-106150000D01*
G75*
G02*
X153275000Y-106250000I0J-100000D01*
G01*
X153275000Y-106450000D01*
G75*
G02*
X153175000Y-106550000I-100000J0D01*
G01*
X151900000Y-106550000D01*
G75*
G02*
X151800000Y-106450000I0J100000D01*
G01*
G37*
G36*
G01*
X151800000Y-105800000D02*
X151800000Y-105600000D01*
G75*
G02*
X151900000Y-105500000I100000J0D01*
G01*
X153175000Y-105500000D01*
G75*
G02*
X153275000Y-105600000I0J-100000D01*
G01*
X153275000Y-105800000D01*
G75*
G02*
X153175000Y-105900000I-100000J0D01*
G01*
X151900000Y-105900000D01*
G75*
G02*
X151800000Y-105800000I0J100000D01*
G01*
G37*
G36*
G01*
X151800000Y-105150000D02*
X151800000Y-104950000D01*
G75*
G02*
X151900000Y-104850000I100000J0D01*
G01*
X153175000Y-104850000D01*
G75*
G02*
X153275000Y-104950000I0J-100000D01*
G01*
X153275000Y-105150000D01*
G75*
G02*
X153175000Y-105250000I-100000J0D01*
G01*
X151900000Y-105250000D01*
G75*
G02*
X151800000Y-105150000I0J100000D01*
G01*
G37*
G36*
G01*
X151800000Y-104500000D02*
X151800000Y-104300000D01*
G75*
G02*
X151900000Y-104200000I100000J0D01*
G01*
X153175000Y-104200000D01*
G75*
G02*
X153275000Y-104300000I0J-100000D01*
G01*
X153275000Y-104500000D01*
G75*
G02*
X153175000Y-104600000I-100000J0D01*
G01*
X151900000Y-104600000D01*
G75*
G02*
X151800000Y-104500000I0J100000D01*
G01*
G37*
G36*
G01*
X151800000Y-103850000D02*
X151800000Y-103650000D01*
G75*
G02*
X151900000Y-103550000I100000J0D01*
G01*
X153175000Y-103550000D01*
G75*
G02*
X153275000Y-103650000I0J-100000D01*
G01*
X153275000Y-103850000D01*
G75*
G02*
X153175000Y-103950000I-100000J0D01*
G01*
X151900000Y-103950000D01*
G75*
G02*
X151800000Y-103850000I0J100000D01*
G01*
G37*
G36*
G01*
X151800000Y-103200000D02*
X151800000Y-103000000D01*
G75*
G02*
X151900000Y-102900000I100000J0D01*
G01*
X153175000Y-102900000D01*
G75*
G02*
X153275000Y-103000000I0J-100000D01*
G01*
X153275000Y-103200000D01*
G75*
G02*
X153175000Y-103300000I-100000J0D01*
G01*
X151900000Y-103300000D01*
G75*
G02*
X151800000Y-103200000I0J100000D01*
G01*
G37*
G36*
G01*
X151800000Y-102550000D02*
X151800000Y-102350000D01*
G75*
G02*
X151900000Y-102250000I100000J0D01*
G01*
X153175000Y-102250000D01*
G75*
G02*
X153275000Y-102350000I0J-100000D01*
G01*
X153275000Y-102550000D01*
G75*
G02*
X153175000Y-102650000I-100000J0D01*
G01*
X151900000Y-102650000D01*
G75*
G02*
X151800000Y-102550000I0J100000D01*
G01*
G37*
%TD*%
D12*
%TO.C,SW1*%
X159750000Y-78100000D03*
X153450000Y-78100000D03*
X159750000Y-74300000D03*
X153450000Y-74300000D03*
%TD*%
%TO.C,R7*%
G36*
G01*
X173962500Y-85250000D02*
X174437500Y-85250000D01*
G75*
G02*
X174675000Y-85487500I0J-237500D01*
G01*
X174675000Y-86062500D01*
G75*
G02*
X174437500Y-86300000I-237500J0D01*
G01*
X173962500Y-86300000D01*
G75*
G02*
X173725000Y-86062500I0J237500D01*
G01*
X173725000Y-85487500D01*
G75*
G02*
X173962500Y-85250000I237500J0D01*
G01*
G37*
G36*
G01*
X173962500Y-83500000D02*
X174437500Y-83500000D01*
G75*
G02*
X174675000Y-83737500I0J-237500D01*
G01*
X174675000Y-84312500D01*
G75*
G02*
X174437500Y-84550000I-237500J0D01*
G01*
X173962500Y-84550000D01*
G75*
G02*
X173725000Y-84312500I0J237500D01*
G01*
X173725000Y-83737500D01*
G75*
G02*
X173962500Y-83500000I237500J0D01*
G01*
G37*
%TD*%
%TO.C,R3*%
G36*
G01*
X166250000Y-98337500D02*
X166250000Y-97862500D01*
G75*
G02*
X166487500Y-97625000I237500J0D01*
G01*
X167062500Y-97625000D01*
G75*
G02*
X167300000Y-97862500I0J-237500D01*
G01*
X167300000Y-98337500D01*
G75*
G02*
X167062500Y-98575000I-237500J0D01*
G01*
X166487500Y-98575000D01*
G75*
G02*
X166250000Y-98337500I0J237500D01*
G01*
G37*
G36*
G01*
X164500000Y-98337500D02*
X164500000Y-97862500D01*
G75*
G02*
X164737500Y-97625000I237500J0D01*
G01*
X165312500Y-97625000D01*
G75*
G02*
X165550000Y-97862500I0J-237500D01*
G01*
X165550000Y-98337500D01*
G75*
G02*
X165312500Y-98575000I-237500J0D01*
G01*
X164737500Y-98575000D01*
G75*
G02*
X164500000Y-98337500I0J237500D01*
G01*
G37*
%TD*%
%TO.C,R2*%
G36*
G01*
X170750000Y-98337500D02*
X170750000Y-97862500D01*
G75*
G02*
X170987500Y-97625000I237500J0D01*
G01*
X171562500Y-97625000D01*
G75*
G02*
X171800000Y-97862500I0J-237500D01*
G01*
X171800000Y-98337500D01*
G75*
G02*
X171562500Y-98575000I-237500J0D01*
G01*
X170987500Y-98575000D01*
G75*
G02*
X170750000Y-98337500I0J237500D01*
G01*
G37*
G36*
G01*
X169000000Y-98337500D02*
X169000000Y-97862500D01*
G75*
G02*
X169237500Y-97625000I237500J0D01*
G01*
X169812500Y-97625000D01*
G75*
G02*
X170050000Y-97862500I0J-237500D01*
G01*
X170050000Y-98337500D01*
G75*
G02*
X169812500Y-98575000I-237500J0D01*
G01*
X169237500Y-98575000D01*
G75*
G02*
X169000000Y-98337500I0J237500D01*
G01*
G37*
%TD*%
%TO.C,R1*%
G36*
G01*
X149162500Y-78350000D02*
X149637500Y-78350000D01*
G75*
G02*
X149875000Y-78587500I0J-237500D01*
G01*
X149875000Y-79162500D01*
G75*
G02*
X149637500Y-79400000I-237500J0D01*
G01*
X149162500Y-79400000D01*
G75*
G02*
X148925000Y-79162500I0J237500D01*
G01*
X148925000Y-78587500D01*
G75*
G02*
X149162500Y-78350000I237500J0D01*
G01*
G37*
G36*
G01*
X149162500Y-76600000D02*
X149637500Y-76600000D01*
G75*
G02*
X149875000Y-76837500I0J-237500D01*
G01*
X149875000Y-77412500D01*
G75*
G02*
X149637500Y-77650000I-237500J0D01*
G01*
X149162500Y-77650000D01*
G75*
G02*
X148925000Y-77412500I0J237500D01*
G01*
X148925000Y-76837500D01*
G75*
G02*
X149162500Y-76600000I237500J0D01*
G01*
G37*
%TD*%
D13*
%TO.C,D10*%
X138850000Y-76900000D03*
X138850000Y-80100000D03*
X143750000Y-76900000D03*
X143750000Y-80100000D03*
%TD*%
%TO.C,D9*%
X138850000Y-89400000D03*
X138850000Y-92600000D03*
X143750000Y-89400000D03*
X143750000Y-92600000D03*
%TD*%
%TO.C,D8*%
X138850000Y-101900000D03*
X138850000Y-105100000D03*
X143750000Y-101900000D03*
X143750000Y-105100000D03*
%TD*%
%TO.C,D7*%
X178850000Y-101900000D03*
X178850000Y-105100000D03*
X183750000Y-101900000D03*
X183750000Y-105100000D03*
%TD*%
%TO.C,D6*%
X178850000Y-89400000D03*
X178850000Y-92600000D03*
X183750000Y-89400000D03*
X183750000Y-92600000D03*
%TD*%
%TO.C,D5*%
X178850000Y-76900000D03*
X178850000Y-80100000D03*
X183750000Y-76900000D03*
X183750000Y-80100000D03*
%TD*%
%TO.C,C2*%
G36*
G01*
X149037500Y-95650000D02*
X148562500Y-95650000D01*
G75*
G02*
X148325000Y-95412500I0J237500D01*
G01*
X148325000Y-94837500D01*
G75*
G02*
X148562500Y-94600000I237500J0D01*
G01*
X149037500Y-94600000D01*
G75*
G02*
X149275000Y-94837500I0J-237500D01*
G01*
X149275000Y-95412500D01*
G75*
G02*
X149037500Y-95650000I-237500J0D01*
G01*
G37*
G36*
G01*
X149037500Y-97400000D02*
X148562500Y-97400000D01*
G75*
G02*
X148325000Y-97162500I0J237500D01*
G01*
X148325000Y-96587500D01*
G75*
G02*
X148562500Y-96350000I237500J0D01*
G01*
X149037500Y-96350000D01*
G75*
G02*
X149275000Y-96587500I0J-237500D01*
G01*
X149275000Y-97162500D01*
G75*
G02*
X149037500Y-97400000I-237500J0D01*
G01*
G37*
%TD*%
%TO.C,C1*%
G36*
G01*
X165350000Y-91662500D02*
X165350000Y-92137500D01*
G75*
G02*
X165112500Y-92375000I-237500J0D01*
G01*
X164537500Y-92375000D01*
G75*
G02*
X164300000Y-92137500I0J237500D01*
G01*
X164300000Y-91662500D01*
G75*
G02*
X164537500Y-91425000I237500J0D01*
G01*
X165112500Y-91425000D01*
G75*
G02*
X165350000Y-91662500I0J-237500D01*
G01*
G37*
G36*
G01*
X167100000Y-91662500D02*
X167100000Y-92137500D01*
G75*
G02*
X166862500Y-92375000I-237500J0D01*
G01*
X166287500Y-92375000D01*
G75*
G02*
X166050000Y-92137500I0J237500D01*
G01*
X166050000Y-91662500D01*
G75*
G02*
X166287500Y-91425000I237500J0D01*
G01*
X166862500Y-91425000D01*
G75*
G02*
X167100000Y-91662500I0J-237500D01*
G01*
G37*
%TD*%
M02*
