%TF.GenerationSoftware,KiCad,Pcbnew,(5.1.6)-1*%
%TF.CreationDate,2020-08-14T21:54:29-04:00*%
%TF.ProjectId,CellLight,43656c6c-4c69-4676-9874-2e6b69636164,rev?*%
%TF.SameCoordinates,Original*%
%TF.FileFunction,Legend,Bot*%
%TF.FilePolarity,Positive*%
%FSLAX46Y46*%
G04 Gerber Fmt 4.6, Leading zero omitted, Abs format (unit mm)*
G04 Created by KiCad (PCBNEW (5.1.6)-1) date 2020-08-14 21:54:29*
%MOMM*%
%LPD*%
G01*
G04 APERTURE LIST*
%ADD10C,0.120000*%
%ADD11C,0.150000*%
G04 APERTURE END LIST*
D10*
%TO.C,U5*%
X160800000Y-80790000D02*
X163250000Y-80790000D01*
X162600000Y-84010000D02*
X160800000Y-84010000D01*
%TO.C,U4*%
X170400000Y-75710000D02*
X167950000Y-75710000D01*
X168600000Y-72490000D02*
X170400000Y-72490000D01*
%TO.C,R6*%
X168571267Y-77410000D02*
X168228733Y-77410000D01*
X168571267Y-76390000D02*
X168228733Y-76390000D01*
%TO.C,R5*%
X171990000Y-72271267D02*
X171990000Y-71928733D01*
X173010000Y-72271267D02*
X173010000Y-71928733D01*
%TO.C,R4*%
X174090000Y-73196267D02*
X174090000Y-72853733D01*
X175110000Y-73196267D02*
X175110000Y-72853733D01*
%TO.C,L1*%
X165671267Y-74610000D02*
X165328733Y-74610000D01*
X165671267Y-73590000D02*
X165328733Y-73590000D01*
%TO.C,D4*%
X158400000Y-75550000D02*
X153000000Y-75550000D01*
X158400000Y-78850000D02*
X153000000Y-78850000D01*
X158400000Y-75550000D02*
X158400000Y-78850000D01*
%TO.C,D3*%
X158400000Y-68950000D02*
X153000000Y-68950000D01*
X158400000Y-72250000D02*
X153000000Y-72250000D01*
X158400000Y-68950000D02*
X158400000Y-72250000D01*
%TO.C,D2*%
X144100000Y-78850000D02*
X149500000Y-78850000D01*
X144100000Y-75550000D02*
X149500000Y-75550000D01*
X144100000Y-78850000D02*
X144100000Y-75550000D01*
%TO.C,D1*%
X150900000Y-68950000D02*
X145500000Y-68950000D01*
X150900000Y-72250000D02*
X145500000Y-72250000D01*
X150900000Y-68950000D02*
X150900000Y-72250000D01*
%TO.C,C11*%
X158710000Y-82228733D02*
X158710000Y-82571267D01*
X157690000Y-82228733D02*
X157690000Y-82571267D01*
%TO.C,C10*%
X168228733Y-78190000D02*
X168571267Y-78190000D01*
X168228733Y-79210000D02*
X168571267Y-79210000D01*
%TO.C,C9*%
X159290000Y-69871267D02*
X159290000Y-69528733D01*
X160310000Y-69871267D02*
X160310000Y-69528733D01*
%TO.C,C8*%
X161390000Y-69871267D02*
X161390000Y-69528733D01*
X162410000Y-69871267D02*
X162410000Y-69528733D01*
%TO.C,C7*%
X163390000Y-69871267D02*
X163390000Y-69528733D01*
X164410000Y-69871267D02*
X164410000Y-69528733D01*
%TO.C,C6*%
X168198733Y-81690000D02*
X168541267Y-81690000D01*
X168198733Y-82710000D02*
X168541267Y-82710000D01*
%TO.C,C5*%
X165390000Y-69871267D02*
X165390000Y-69528733D01*
X166410000Y-69871267D02*
X166410000Y-69528733D01*
%TO.C,C4*%
X168198733Y-79940000D02*
X168541267Y-79940000D01*
X168198733Y-80960000D02*
X168541267Y-80960000D01*
%TO.C,C3*%
X172090000Y-76271267D02*
X172090000Y-75928733D01*
X173110000Y-76271267D02*
X173110000Y-75928733D01*
%TO.C,U5*%
D11*
X162461904Y-78952380D02*
X162461904Y-79761904D01*
X162414285Y-79857142D01*
X162366666Y-79904761D01*
X162271428Y-79952380D01*
X162080952Y-79952380D01*
X161985714Y-79904761D01*
X161938095Y-79857142D01*
X161890476Y-79761904D01*
X161890476Y-78952380D01*
X160938095Y-78952380D02*
X161414285Y-78952380D01*
X161461904Y-79428571D01*
X161414285Y-79380952D01*
X161319047Y-79333333D01*
X161080952Y-79333333D01*
X160985714Y-79380952D01*
X160938095Y-79428571D01*
X160890476Y-79523809D01*
X160890476Y-79761904D01*
X160938095Y-79857142D01*
X160985714Y-79904761D01*
X161080952Y-79952380D01*
X161319047Y-79952380D01*
X161414285Y-79904761D01*
X161461904Y-79857142D01*
%TO.C,U4*%
X170261904Y-71052380D02*
X170261904Y-71861904D01*
X170214285Y-71957142D01*
X170166666Y-72004761D01*
X170071428Y-72052380D01*
X169880952Y-72052380D01*
X169785714Y-72004761D01*
X169738095Y-71957142D01*
X169690476Y-71861904D01*
X169690476Y-71052380D01*
X168785714Y-71385714D02*
X168785714Y-72052380D01*
X169023809Y-71004761D02*
X169261904Y-71719047D01*
X168642857Y-71719047D01*
%TO.C,R6*%
X165866666Y-77352380D02*
X166200000Y-76876190D01*
X166438095Y-77352380D02*
X166438095Y-76352380D01*
X166057142Y-76352380D01*
X165961904Y-76400000D01*
X165914285Y-76447619D01*
X165866666Y-76542857D01*
X165866666Y-76685714D01*
X165914285Y-76780952D01*
X165961904Y-76828571D01*
X166057142Y-76876190D01*
X166438095Y-76876190D01*
X165009523Y-76352380D02*
X165200000Y-76352380D01*
X165295238Y-76400000D01*
X165342857Y-76447619D01*
X165438095Y-76590476D01*
X165485714Y-76780952D01*
X165485714Y-77161904D01*
X165438095Y-77257142D01*
X165390476Y-77304761D01*
X165295238Y-77352380D01*
X165104761Y-77352380D01*
X165009523Y-77304761D01*
X164961904Y-77257142D01*
X164914285Y-77161904D01*
X164914285Y-76923809D01*
X164961904Y-76828571D01*
X165009523Y-76780952D01*
X165104761Y-76733333D01*
X165295238Y-76733333D01*
X165390476Y-76780952D01*
X165438095Y-76828571D01*
X165485714Y-76923809D01*
%TO.C,R5*%
X172952380Y-69233333D02*
X172476190Y-68900000D01*
X172952380Y-68661904D02*
X171952380Y-68661904D01*
X171952380Y-69042857D01*
X172000000Y-69138095D01*
X172047619Y-69185714D01*
X172142857Y-69233333D01*
X172285714Y-69233333D01*
X172380952Y-69185714D01*
X172428571Y-69138095D01*
X172476190Y-69042857D01*
X172476190Y-68661904D01*
X171952380Y-70138095D02*
X171952380Y-69661904D01*
X172428571Y-69614285D01*
X172380952Y-69661904D01*
X172333333Y-69757142D01*
X172333333Y-69995238D01*
X172380952Y-70090476D01*
X172428571Y-70138095D01*
X172523809Y-70185714D01*
X172761904Y-70185714D01*
X172857142Y-70138095D01*
X172904761Y-70090476D01*
X172952380Y-69995238D01*
X172952380Y-69757142D01*
X172904761Y-69661904D01*
X172857142Y-69614285D01*
%TO.C,R4*%
X176482380Y-72858333D02*
X176006190Y-72525000D01*
X176482380Y-72286904D02*
X175482380Y-72286904D01*
X175482380Y-72667857D01*
X175530000Y-72763095D01*
X175577619Y-72810714D01*
X175672857Y-72858333D01*
X175815714Y-72858333D01*
X175910952Y-72810714D01*
X175958571Y-72763095D01*
X176006190Y-72667857D01*
X176006190Y-72286904D01*
X175815714Y-73715476D02*
X176482380Y-73715476D01*
X175434761Y-73477380D02*
X176149047Y-73239285D01*
X176149047Y-73858333D01*
%TO.C,L1*%
X165666666Y-73122380D02*
X166142857Y-73122380D01*
X166142857Y-72122380D01*
X164809523Y-73122380D02*
X165380952Y-73122380D01*
X165095238Y-73122380D02*
X165095238Y-72122380D01*
X165190476Y-72265238D01*
X165285714Y-72360476D01*
X165380952Y-72408095D01*
%TO.C,D4*%
X155738095Y-75152380D02*
X155738095Y-74152380D01*
X155500000Y-74152380D01*
X155357142Y-74200000D01*
X155261904Y-74295238D01*
X155214285Y-74390476D01*
X155166666Y-74580952D01*
X155166666Y-74723809D01*
X155214285Y-74914285D01*
X155261904Y-75009523D01*
X155357142Y-75104761D01*
X155500000Y-75152380D01*
X155738095Y-75152380D01*
X154309523Y-74485714D02*
X154309523Y-75152380D01*
X154547619Y-74104761D02*
X154785714Y-74819047D01*
X154166666Y-74819047D01*
%TO.C,D3*%
X155738095Y-68552380D02*
X155738095Y-67552380D01*
X155500000Y-67552380D01*
X155357142Y-67600000D01*
X155261904Y-67695238D01*
X155214285Y-67790476D01*
X155166666Y-67980952D01*
X155166666Y-68123809D01*
X155214285Y-68314285D01*
X155261904Y-68409523D01*
X155357142Y-68504761D01*
X155500000Y-68552380D01*
X155738095Y-68552380D01*
X154833333Y-67552380D02*
X154214285Y-67552380D01*
X154547619Y-67933333D01*
X154404761Y-67933333D01*
X154309523Y-67980952D01*
X154261904Y-68028571D01*
X154214285Y-68123809D01*
X154214285Y-68361904D01*
X154261904Y-68457142D01*
X154309523Y-68504761D01*
X154404761Y-68552380D01*
X154690476Y-68552380D01*
X154785714Y-68504761D01*
X154833333Y-68457142D01*
%TO.C,D2*%
X148238095Y-80152380D02*
X148238095Y-79152380D01*
X148000000Y-79152380D01*
X147857142Y-79200000D01*
X147761904Y-79295238D01*
X147714285Y-79390476D01*
X147666666Y-79580952D01*
X147666666Y-79723809D01*
X147714285Y-79914285D01*
X147761904Y-80009523D01*
X147857142Y-80104761D01*
X148000000Y-80152380D01*
X148238095Y-80152380D01*
X147285714Y-79247619D02*
X147238095Y-79200000D01*
X147142857Y-79152380D01*
X146904761Y-79152380D01*
X146809523Y-79200000D01*
X146761904Y-79247619D01*
X146714285Y-79342857D01*
X146714285Y-79438095D01*
X146761904Y-79580952D01*
X147333333Y-80152380D01*
X146714285Y-80152380D01*
%TO.C,D1*%
X148238095Y-68552380D02*
X148238095Y-67552380D01*
X148000000Y-67552380D01*
X147857142Y-67600000D01*
X147761904Y-67695238D01*
X147714285Y-67790476D01*
X147666666Y-67980952D01*
X147666666Y-68123809D01*
X147714285Y-68314285D01*
X147761904Y-68409523D01*
X147857142Y-68504761D01*
X148000000Y-68552380D01*
X148238095Y-68552380D01*
X146714285Y-68552380D02*
X147285714Y-68552380D01*
X147000000Y-68552380D02*
X147000000Y-67552380D01*
X147095238Y-67695238D01*
X147190476Y-67790476D01*
X147285714Y-67838095D01*
%TO.C,C11*%
X158567142Y-84957142D02*
X158614761Y-84909523D01*
X158662380Y-84766666D01*
X158662380Y-84671428D01*
X158614761Y-84528571D01*
X158519523Y-84433333D01*
X158424285Y-84385714D01*
X158233809Y-84338095D01*
X158090952Y-84338095D01*
X157900476Y-84385714D01*
X157805238Y-84433333D01*
X157710000Y-84528571D01*
X157662380Y-84671428D01*
X157662380Y-84766666D01*
X157710000Y-84909523D01*
X157757619Y-84957142D01*
X158662380Y-85909523D02*
X158662380Y-85338095D01*
X158662380Y-85623809D02*
X157662380Y-85623809D01*
X157805238Y-85528571D01*
X157900476Y-85433333D01*
X157948095Y-85338095D01*
X158662380Y-86861904D02*
X158662380Y-86290476D01*
X158662380Y-86576190D02*
X157662380Y-86576190D01*
X157805238Y-86480952D01*
X157900476Y-86385714D01*
X157948095Y-86290476D01*
%TO.C,C10*%
X165942857Y-79057142D02*
X165990476Y-79104761D01*
X166133333Y-79152380D01*
X166228571Y-79152380D01*
X166371428Y-79104761D01*
X166466666Y-79009523D01*
X166514285Y-78914285D01*
X166561904Y-78723809D01*
X166561904Y-78580952D01*
X166514285Y-78390476D01*
X166466666Y-78295238D01*
X166371428Y-78200000D01*
X166228571Y-78152380D01*
X166133333Y-78152380D01*
X165990476Y-78200000D01*
X165942857Y-78247619D01*
X164990476Y-79152380D02*
X165561904Y-79152380D01*
X165276190Y-79152380D02*
X165276190Y-78152380D01*
X165371428Y-78295238D01*
X165466666Y-78390476D01*
X165561904Y-78438095D01*
X164371428Y-78152380D02*
X164276190Y-78152380D01*
X164180952Y-78200000D01*
X164133333Y-78247619D01*
X164085714Y-78342857D01*
X164038095Y-78533333D01*
X164038095Y-78771428D01*
X164085714Y-78961904D01*
X164133333Y-79057142D01*
X164180952Y-79104761D01*
X164276190Y-79152380D01*
X164371428Y-79152380D01*
X164466666Y-79104761D01*
X164514285Y-79057142D01*
X164561904Y-78961904D01*
X164609523Y-78771428D01*
X164609523Y-78533333D01*
X164561904Y-78342857D01*
X164514285Y-78247619D01*
X164466666Y-78200000D01*
X164371428Y-78152380D01*
%TO.C,C9*%
X159966666Y-67757142D02*
X160014285Y-67804761D01*
X160157142Y-67852380D01*
X160252380Y-67852380D01*
X160395238Y-67804761D01*
X160490476Y-67709523D01*
X160538095Y-67614285D01*
X160585714Y-67423809D01*
X160585714Y-67280952D01*
X160538095Y-67090476D01*
X160490476Y-66995238D01*
X160395238Y-66900000D01*
X160252380Y-66852380D01*
X160157142Y-66852380D01*
X160014285Y-66900000D01*
X159966666Y-66947619D01*
X159490476Y-67852380D02*
X159300000Y-67852380D01*
X159204761Y-67804761D01*
X159157142Y-67757142D01*
X159061904Y-67614285D01*
X159014285Y-67423809D01*
X159014285Y-67042857D01*
X159061904Y-66947619D01*
X159109523Y-66900000D01*
X159204761Y-66852380D01*
X159395238Y-66852380D01*
X159490476Y-66900000D01*
X159538095Y-66947619D01*
X159585714Y-67042857D01*
X159585714Y-67280952D01*
X159538095Y-67376190D01*
X159490476Y-67423809D01*
X159395238Y-67471428D01*
X159204761Y-67471428D01*
X159109523Y-67423809D01*
X159061904Y-67376190D01*
X159014285Y-67280952D01*
%TO.C,C8*%
X162066666Y-67757142D02*
X162114285Y-67804761D01*
X162257142Y-67852380D01*
X162352380Y-67852380D01*
X162495238Y-67804761D01*
X162590476Y-67709523D01*
X162638095Y-67614285D01*
X162685714Y-67423809D01*
X162685714Y-67280952D01*
X162638095Y-67090476D01*
X162590476Y-66995238D01*
X162495238Y-66900000D01*
X162352380Y-66852380D01*
X162257142Y-66852380D01*
X162114285Y-66900000D01*
X162066666Y-66947619D01*
X161495238Y-67280952D02*
X161590476Y-67233333D01*
X161638095Y-67185714D01*
X161685714Y-67090476D01*
X161685714Y-67042857D01*
X161638095Y-66947619D01*
X161590476Y-66900000D01*
X161495238Y-66852380D01*
X161304761Y-66852380D01*
X161209523Y-66900000D01*
X161161904Y-66947619D01*
X161114285Y-67042857D01*
X161114285Y-67090476D01*
X161161904Y-67185714D01*
X161209523Y-67233333D01*
X161304761Y-67280952D01*
X161495238Y-67280952D01*
X161590476Y-67328571D01*
X161638095Y-67376190D01*
X161685714Y-67471428D01*
X161685714Y-67661904D01*
X161638095Y-67757142D01*
X161590476Y-67804761D01*
X161495238Y-67852380D01*
X161304761Y-67852380D01*
X161209523Y-67804761D01*
X161161904Y-67757142D01*
X161114285Y-67661904D01*
X161114285Y-67471428D01*
X161161904Y-67376190D01*
X161209523Y-67328571D01*
X161304761Y-67280952D01*
%TO.C,C7*%
X164066666Y-67757142D02*
X164114285Y-67804761D01*
X164257142Y-67852380D01*
X164352380Y-67852380D01*
X164495238Y-67804761D01*
X164590476Y-67709523D01*
X164638095Y-67614285D01*
X164685714Y-67423809D01*
X164685714Y-67280952D01*
X164638095Y-67090476D01*
X164590476Y-66995238D01*
X164495238Y-66900000D01*
X164352380Y-66852380D01*
X164257142Y-66852380D01*
X164114285Y-66900000D01*
X164066666Y-66947619D01*
X163733333Y-66852380D02*
X163066666Y-66852380D01*
X163495238Y-67852380D01*
%TO.C,C6*%
X165766666Y-82597142D02*
X165814285Y-82644761D01*
X165957142Y-82692380D01*
X166052380Y-82692380D01*
X166195238Y-82644761D01*
X166290476Y-82549523D01*
X166338095Y-82454285D01*
X166385714Y-82263809D01*
X166385714Y-82120952D01*
X166338095Y-81930476D01*
X166290476Y-81835238D01*
X166195238Y-81740000D01*
X166052380Y-81692380D01*
X165957142Y-81692380D01*
X165814285Y-81740000D01*
X165766666Y-81787619D01*
X164909523Y-81692380D02*
X165100000Y-81692380D01*
X165195238Y-81740000D01*
X165242857Y-81787619D01*
X165338095Y-81930476D01*
X165385714Y-82120952D01*
X165385714Y-82501904D01*
X165338095Y-82597142D01*
X165290476Y-82644761D01*
X165195238Y-82692380D01*
X165004761Y-82692380D01*
X164909523Y-82644761D01*
X164861904Y-82597142D01*
X164814285Y-82501904D01*
X164814285Y-82263809D01*
X164861904Y-82168571D01*
X164909523Y-82120952D01*
X165004761Y-82073333D01*
X165195238Y-82073333D01*
X165290476Y-82120952D01*
X165338095Y-82168571D01*
X165385714Y-82263809D01*
%TO.C,C5*%
X166066666Y-67757142D02*
X166114285Y-67804761D01*
X166257142Y-67852380D01*
X166352380Y-67852380D01*
X166495238Y-67804761D01*
X166590476Y-67709523D01*
X166638095Y-67614285D01*
X166685714Y-67423809D01*
X166685714Y-67280952D01*
X166638095Y-67090476D01*
X166590476Y-66995238D01*
X166495238Y-66900000D01*
X166352380Y-66852380D01*
X166257142Y-66852380D01*
X166114285Y-66900000D01*
X166066666Y-66947619D01*
X165161904Y-66852380D02*
X165638095Y-66852380D01*
X165685714Y-67328571D01*
X165638095Y-67280952D01*
X165542857Y-67233333D01*
X165304761Y-67233333D01*
X165209523Y-67280952D01*
X165161904Y-67328571D01*
X165114285Y-67423809D01*
X165114285Y-67661904D01*
X165161904Y-67757142D01*
X165209523Y-67804761D01*
X165304761Y-67852380D01*
X165542857Y-67852380D01*
X165638095Y-67804761D01*
X165685714Y-67757142D01*
%TO.C,C4*%
X165766666Y-80857142D02*
X165814285Y-80904761D01*
X165957142Y-80952380D01*
X166052380Y-80952380D01*
X166195238Y-80904761D01*
X166290476Y-80809523D01*
X166338095Y-80714285D01*
X166385714Y-80523809D01*
X166385714Y-80380952D01*
X166338095Y-80190476D01*
X166290476Y-80095238D01*
X166195238Y-80000000D01*
X166052380Y-79952380D01*
X165957142Y-79952380D01*
X165814285Y-80000000D01*
X165766666Y-80047619D01*
X164909523Y-80285714D02*
X164909523Y-80952380D01*
X165147619Y-79904761D02*
X165385714Y-80619047D01*
X164766666Y-80619047D01*
%TO.C,C3*%
X174387142Y-75933333D02*
X174434761Y-75885714D01*
X174482380Y-75742857D01*
X174482380Y-75647619D01*
X174434761Y-75504761D01*
X174339523Y-75409523D01*
X174244285Y-75361904D01*
X174053809Y-75314285D01*
X173910952Y-75314285D01*
X173720476Y-75361904D01*
X173625238Y-75409523D01*
X173530000Y-75504761D01*
X173482380Y-75647619D01*
X173482380Y-75742857D01*
X173530000Y-75885714D01*
X173577619Y-75933333D01*
X173482380Y-76266666D02*
X173482380Y-76885714D01*
X173863333Y-76552380D01*
X173863333Y-76695238D01*
X173910952Y-76790476D01*
X173958571Y-76838095D01*
X174053809Y-76885714D01*
X174291904Y-76885714D01*
X174387142Y-76838095D01*
X174434761Y-76790476D01*
X174482380Y-76695238D01*
X174482380Y-76409523D01*
X174434761Y-76314285D01*
X174387142Y-76266666D01*
%TD*%
M02*
