M48
; DRILL file {KiCad (5.1.6)-1} date 09/26/20 21:02:21
; FORMAT={-:-/ absolute / inch / decimal}
; #@! TF.CreationDate,2020-09-26T21:02:21-04:00
; #@! TF.GenerationSoftware,Kicad,Pcbnew,(5.1.6)-1
; #@! TF.FileFunction,Plated,1,2,PTH
FMAT,2
INCH
T1C0.0157
T2C0.0394
%
G90
G05
T1
X7.2831Y-3.8679
X7.2919Y-3.9447
X7.3847Y-4.0517
X7.4161Y-3.9453
X7.4874Y-4.0654
X7.6731Y-3.7966
X7.7777Y-4.8327
X7.8892Y-4.9376
X8.1824Y-4.4411
X8.2437Y-4.5896
X8.244Y-4.5236
X8.3515Y-4.3345
X8.3918Y-4.3338
X8.4241Y-4.3096
X8.4769Y-4.119
X8.4772Y-4.6976
X8.5283Y-4.1189
X8.616Y-4.1161
T2
X7.3902Y-4.9193
X7.4902Y-4.9193
X7.5902Y-4.9193
X8.8248Y-3.9173
X8.8248Y-4.0173
X7.3898Y-5.063
X7.4898Y-5.063
X7.5898Y-5.063
X7.3898Y-4.7756
X7.4898Y-4.7756
X7.5898Y-4.7756
X8.002Y-4.6437
X8.2902Y-4.9154
X8.3902Y-4.9154
X8.4902Y-4.9154
X8.5902Y-4.9154
X8.6902Y-4.9154
X8.7902Y-4.9154
T0
M30
