%TF.GenerationSoftware,KiCad,Pcbnew,(5.1.6)-1*%
%TF.CreationDate,2020-09-26T21:02:15-04:00*%
%TF.ProjectId,CellLight,43656c6c-4c69-4676-9874-2e6b69636164,rev?*%
%TF.SameCoordinates,Original*%
%TF.FileFunction,Soldermask,Top*%
%TF.FilePolarity,Negative*%
%FSLAX46Y46*%
G04 Gerber Fmt 4.6, Leading zero omitted, Abs format (unit mm)*
G04 Created by KiCad (PCBNEW (5.1.6)-1) date 2020-09-26 21:02:15*
%MOMM*%
%LPD*%
G01*
G04 APERTURE LIST*
%ADD10R,1.700000X1.700000*%
%ADD11R,0.650000X0.400000*%
%ADD12R,1.060000X0.650000*%
%ADD13R,0.650000X1.060000*%
%ADD14R,1.500000X0.550000*%
%ADD15R,0.550000X1.500000*%
%ADD16R,1.700000X1.000000*%
%ADD17O,1.700000X1.700000*%
%ADD18R,1.500000X1.000000*%
%ADD19R,1.800000X2.500000*%
G04 APERTURE END LIST*
D10*
%TO.C,J5*%
X203250000Y-117950000D03*
%TD*%
D11*
%TO.C,U6*%
X224200000Y-119750000D03*
X224200000Y-121050000D03*
X222300000Y-120400000D03*
X224200000Y-120400000D03*
X222300000Y-121050000D03*
X222300000Y-119750000D03*
%TD*%
D12*
%TO.C,U5*%
X206950000Y-98250000D03*
X206950000Y-100150000D03*
X204750000Y-100150000D03*
X204750000Y-99200000D03*
X204750000Y-98250000D03*
%TD*%
D13*
%TO.C,U4*%
X186800000Y-99100000D03*
X185850000Y-99100000D03*
X187750000Y-99100000D03*
X187750000Y-101300000D03*
X186800000Y-101300000D03*
X185850000Y-101300000D03*
%TD*%
%TO.C,U3*%
G36*
G01*
X218300000Y-99045000D02*
X218300000Y-98745000D01*
G75*
G02*
X218450000Y-98595000I150000J0D01*
G01*
X220100000Y-98595000D01*
G75*
G02*
X220250000Y-98745000I0J-150000D01*
G01*
X220250000Y-99045000D01*
G75*
G02*
X220100000Y-99195000I-150000J0D01*
G01*
X218450000Y-99195000D01*
G75*
G02*
X218300000Y-99045000I0J150000D01*
G01*
G37*
G36*
G01*
X218300000Y-100315000D02*
X218300000Y-100015000D01*
G75*
G02*
X218450000Y-99865000I150000J0D01*
G01*
X220100000Y-99865000D01*
G75*
G02*
X220250000Y-100015000I0J-150000D01*
G01*
X220250000Y-100315000D01*
G75*
G02*
X220100000Y-100465000I-150000J0D01*
G01*
X218450000Y-100465000D01*
G75*
G02*
X218300000Y-100315000I0J150000D01*
G01*
G37*
G36*
G01*
X218300000Y-101585000D02*
X218300000Y-101285000D01*
G75*
G02*
X218450000Y-101135000I150000J0D01*
G01*
X220100000Y-101135000D01*
G75*
G02*
X220250000Y-101285000I0J-150000D01*
G01*
X220250000Y-101585000D01*
G75*
G02*
X220100000Y-101735000I-150000J0D01*
G01*
X218450000Y-101735000D01*
G75*
G02*
X218300000Y-101585000I0J150000D01*
G01*
G37*
G36*
G01*
X218300000Y-102855000D02*
X218300000Y-102555000D01*
G75*
G02*
X218450000Y-102405000I150000J0D01*
G01*
X220100000Y-102405000D01*
G75*
G02*
X220250000Y-102555000I0J-150000D01*
G01*
X220250000Y-102855000D01*
G75*
G02*
X220100000Y-103005000I-150000J0D01*
G01*
X218450000Y-103005000D01*
G75*
G02*
X218300000Y-102855000I0J150000D01*
G01*
G37*
G36*
G01*
X213350000Y-102855000D02*
X213350000Y-102555000D01*
G75*
G02*
X213500000Y-102405000I150000J0D01*
G01*
X215150000Y-102405000D01*
G75*
G02*
X215300000Y-102555000I0J-150000D01*
G01*
X215300000Y-102855000D01*
G75*
G02*
X215150000Y-103005000I-150000J0D01*
G01*
X213500000Y-103005000D01*
G75*
G02*
X213350000Y-102855000I0J150000D01*
G01*
G37*
G36*
G01*
X213350000Y-101585000D02*
X213350000Y-101285000D01*
G75*
G02*
X213500000Y-101135000I150000J0D01*
G01*
X215150000Y-101135000D01*
G75*
G02*
X215300000Y-101285000I0J-150000D01*
G01*
X215300000Y-101585000D01*
G75*
G02*
X215150000Y-101735000I-150000J0D01*
G01*
X213500000Y-101735000D01*
G75*
G02*
X213350000Y-101585000I0J150000D01*
G01*
G37*
G36*
G01*
X213350000Y-100315000D02*
X213350000Y-100015000D01*
G75*
G02*
X213500000Y-99865000I150000J0D01*
G01*
X215150000Y-99865000D01*
G75*
G02*
X215300000Y-100015000I0J-150000D01*
G01*
X215300000Y-100315000D01*
G75*
G02*
X215150000Y-100465000I-150000J0D01*
G01*
X213500000Y-100465000D01*
G75*
G02*
X213350000Y-100315000I0J150000D01*
G01*
G37*
G36*
G01*
X213350000Y-99045000D02*
X213350000Y-98745000D01*
G75*
G02*
X213500000Y-98595000I150000J0D01*
G01*
X215150000Y-98595000D01*
G75*
G02*
X215300000Y-98745000I0J-150000D01*
G01*
X215300000Y-99045000D01*
G75*
G02*
X215150000Y-99195000I-150000J0D01*
G01*
X213500000Y-99195000D01*
G75*
G02*
X213350000Y-99045000I0J150000D01*
G01*
G37*
%TD*%
%TO.C,U2*%
G36*
G01*
X203925000Y-122850000D02*
X203925000Y-122650000D01*
G75*
G02*
X204025000Y-122550000I100000J0D01*
G01*
X205300000Y-122550000D01*
G75*
G02*
X205400000Y-122650000I0J-100000D01*
G01*
X205400000Y-122850000D01*
G75*
G02*
X205300000Y-122950000I-100000J0D01*
G01*
X204025000Y-122950000D01*
G75*
G02*
X203925000Y-122850000I0J100000D01*
G01*
G37*
G36*
G01*
X203925000Y-123500000D02*
X203925000Y-123300000D01*
G75*
G02*
X204025000Y-123200000I100000J0D01*
G01*
X205300000Y-123200000D01*
G75*
G02*
X205400000Y-123300000I0J-100000D01*
G01*
X205400000Y-123500000D01*
G75*
G02*
X205300000Y-123600000I-100000J0D01*
G01*
X204025000Y-123600000D01*
G75*
G02*
X203925000Y-123500000I0J100000D01*
G01*
G37*
G36*
G01*
X203925000Y-124150000D02*
X203925000Y-123950000D01*
G75*
G02*
X204025000Y-123850000I100000J0D01*
G01*
X205300000Y-123850000D01*
G75*
G02*
X205400000Y-123950000I0J-100000D01*
G01*
X205400000Y-124150000D01*
G75*
G02*
X205300000Y-124250000I-100000J0D01*
G01*
X204025000Y-124250000D01*
G75*
G02*
X203925000Y-124150000I0J100000D01*
G01*
G37*
G36*
G01*
X203925000Y-124800000D02*
X203925000Y-124600000D01*
G75*
G02*
X204025000Y-124500000I100000J0D01*
G01*
X205300000Y-124500000D01*
G75*
G02*
X205400000Y-124600000I0J-100000D01*
G01*
X205400000Y-124800000D01*
G75*
G02*
X205300000Y-124900000I-100000J0D01*
G01*
X204025000Y-124900000D01*
G75*
G02*
X203925000Y-124800000I0J100000D01*
G01*
G37*
G36*
G01*
X203925000Y-125450000D02*
X203925000Y-125250000D01*
G75*
G02*
X204025000Y-125150000I100000J0D01*
G01*
X205300000Y-125150000D01*
G75*
G02*
X205400000Y-125250000I0J-100000D01*
G01*
X205400000Y-125450000D01*
G75*
G02*
X205300000Y-125550000I-100000J0D01*
G01*
X204025000Y-125550000D01*
G75*
G02*
X203925000Y-125450000I0J100000D01*
G01*
G37*
G36*
G01*
X203925000Y-126100000D02*
X203925000Y-125900000D01*
G75*
G02*
X204025000Y-125800000I100000J0D01*
G01*
X205300000Y-125800000D01*
G75*
G02*
X205400000Y-125900000I0J-100000D01*
G01*
X205400000Y-126100000D01*
G75*
G02*
X205300000Y-126200000I-100000J0D01*
G01*
X204025000Y-126200000D01*
G75*
G02*
X203925000Y-126100000I0J100000D01*
G01*
G37*
G36*
G01*
X203925000Y-126750000D02*
X203925000Y-126550000D01*
G75*
G02*
X204025000Y-126450000I100000J0D01*
G01*
X205300000Y-126450000D01*
G75*
G02*
X205400000Y-126550000I0J-100000D01*
G01*
X205400000Y-126750000D01*
G75*
G02*
X205300000Y-126850000I-100000J0D01*
G01*
X204025000Y-126850000D01*
G75*
G02*
X203925000Y-126750000I0J100000D01*
G01*
G37*
G36*
G01*
X198200000Y-126750000D02*
X198200000Y-126550000D01*
G75*
G02*
X198300000Y-126450000I100000J0D01*
G01*
X199575000Y-126450000D01*
G75*
G02*
X199675000Y-126550000I0J-100000D01*
G01*
X199675000Y-126750000D01*
G75*
G02*
X199575000Y-126850000I-100000J0D01*
G01*
X198300000Y-126850000D01*
G75*
G02*
X198200000Y-126750000I0J100000D01*
G01*
G37*
G36*
G01*
X198200000Y-126100000D02*
X198200000Y-125900000D01*
G75*
G02*
X198300000Y-125800000I100000J0D01*
G01*
X199575000Y-125800000D01*
G75*
G02*
X199675000Y-125900000I0J-100000D01*
G01*
X199675000Y-126100000D01*
G75*
G02*
X199575000Y-126200000I-100000J0D01*
G01*
X198300000Y-126200000D01*
G75*
G02*
X198200000Y-126100000I0J100000D01*
G01*
G37*
G36*
G01*
X198200000Y-125450000D02*
X198200000Y-125250000D01*
G75*
G02*
X198300000Y-125150000I100000J0D01*
G01*
X199575000Y-125150000D01*
G75*
G02*
X199675000Y-125250000I0J-100000D01*
G01*
X199675000Y-125450000D01*
G75*
G02*
X199575000Y-125550000I-100000J0D01*
G01*
X198300000Y-125550000D01*
G75*
G02*
X198200000Y-125450000I0J100000D01*
G01*
G37*
G36*
G01*
X198200000Y-124800000D02*
X198200000Y-124600000D01*
G75*
G02*
X198300000Y-124500000I100000J0D01*
G01*
X199575000Y-124500000D01*
G75*
G02*
X199675000Y-124600000I0J-100000D01*
G01*
X199675000Y-124800000D01*
G75*
G02*
X199575000Y-124900000I-100000J0D01*
G01*
X198300000Y-124900000D01*
G75*
G02*
X198200000Y-124800000I0J100000D01*
G01*
G37*
G36*
G01*
X198200000Y-124150000D02*
X198200000Y-123950000D01*
G75*
G02*
X198300000Y-123850000I100000J0D01*
G01*
X199575000Y-123850000D01*
G75*
G02*
X199675000Y-123950000I0J-100000D01*
G01*
X199675000Y-124150000D01*
G75*
G02*
X199575000Y-124250000I-100000J0D01*
G01*
X198300000Y-124250000D01*
G75*
G02*
X198200000Y-124150000I0J100000D01*
G01*
G37*
G36*
G01*
X198200000Y-123500000D02*
X198200000Y-123300000D01*
G75*
G02*
X198300000Y-123200000I100000J0D01*
G01*
X199575000Y-123200000D01*
G75*
G02*
X199675000Y-123300000I0J-100000D01*
G01*
X199675000Y-123500000D01*
G75*
G02*
X199575000Y-123600000I-100000J0D01*
G01*
X198300000Y-123600000D01*
G75*
G02*
X198200000Y-123500000I0J100000D01*
G01*
G37*
G36*
G01*
X198200000Y-122850000D02*
X198200000Y-122650000D01*
G75*
G02*
X198300000Y-122550000I100000J0D01*
G01*
X199575000Y-122550000D01*
G75*
G02*
X199675000Y-122650000I0J-100000D01*
G01*
X199675000Y-122850000D01*
G75*
G02*
X199575000Y-122950000I-100000J0D01*
G01*
X198300000Y-122950000D01*
G75*
G02*
X198200000Y-122850000I0J100000D01*
G01*
G37*
%TD*%
D14*
%TO.C,U1*%
X222150000Y-107700000D03*
X222150000Y-108500000D03*
X222150000Y-109300000D03*
X222150000Y-110100000D03*
X222150000Y-110900000D03*
X222150000Y-111700000D03*
X222150000Y-112500000D03*
X222150000Y-113300000D03*
X222150000Y-114100000D03*
X222150000Y-114900000D03*
X222150000Y-115700000D03*
D15*
X220450000Y-117400000D03*
X219650000Y-117400000D03*
X218850000Y-117400000D03*
X218050000Y-117400000D03*
X217250000Y-117400000D03*
X216450000Y-117400000D03*
X215650000Y-117400000D03*
X214850000Y-117400000D03*
X214050000Y-117400000D03*
X213250000Y-117400000D03*
X212450000Y-117400000D03*
D14*
X210750000Y-115700000D03*
X210750000Y-114900000D03*
X210750000Y-114100000D03*
X210750000Y-113300000D03*
X210750000Y-112500000D03*
X210750000Y-111700000D03*
X210750000Y-110900000D03*
X210750000Y-110100000D03*
X210750000Y-109300000D03*
X210750000Y-108500000D03*
X210750000Y-107700000D03*
D15*
X212450000Y-106000000D03*
X213250000Y-106000000D03*
X214050000Y-106000000D03*
X214850000Y-106000000D03*
X215650000Y-106000000D03*
X216450000Y-106000000D03*
X217250000Y-106000000D03*
X218050000Y-106000000D03*
X218850000Y-106000000D03*
X219650000Y-106000000D03*
X220450000Y-106000000D03*
%TD*%
D16*
%TO.C,SW1*%
X206375000Y-112750000D03*
X200075000Y-112750000D03*
X206375000Y-108950000D03*
X200075000Y-108950000D03*
%TD*%
%TO.C,R7*%
G36*
G01*
X226700000Y-120812500D02*
X226700000Y-121287500D01*
G75*
G02*
X226462500Y-121525000I-237500J0D01*
G01*
X225887500Y-121525000D01*
G75*
G02*
X225650000Y-121287500I0J237500D01*
G01*
X225650000Y-120812500D01*
G75*
G02*
X225887500Y-120575000I237500J0D01*
G01*
X226462500Y-120575000D01*
G75*
G02*
X226700000Y-120812500I0J-237500D01*
G01*
G37*
G36*
G01*
X228450000Y-120812500D02*
X228450000Y-121287500D01*
G75*
G02*
X228212500Y-121525000I-237500J0D01*
G01*
X227637500Y-121525000D01*
G75*
G02*
X227400000Y-121287500I0J237500D01*
G01*
X227400000Y-120812500D01*
G75*
G02*
X227637500Y-120575000I237500J0D01*
G01*
X228212500Y-120575000D01*
G75*
G02*
X228450000Y-120812500I0J-237500D01*
G01*
G37*
%TD*%
%TO.C,R6*%
G36*
G01*
X186475000Y-97012500D02*
X186475000Y-97487500D01*
G75*
G02*
X186237500Y-97725000I-237500J0D01*
G01*
X185662500Y-97725000D01*
G75*
G02*
X185425000Y-97487500I0J237500D01*
G01*
X185425000Y-97012500D01*
G75*
G02*
X185662500Y-96775000I237500J0D01*
G01*
X186237500Y-96775000D01*
G75*
G02*
X186475000Y-97012500I0J-237500D01*
G01*
G37*
G36*
G01*
X188225000Y-97012500D02*
X188225000Y-97487500D01*
G75*
G02*
X187987500Y-97725000I-237500J0D01*
G01*
X187412500Y-97725000D01*
G75*
G02*
X187175000Y-97487500I0J237500D01*
G01*
X187175000Y-97012500D01*
G75*
G02*
X187412500Y-96775000I237500J0D01*
G01*
X187987500Y-96775000D01*
G75*
G02*
X188225000Y-97012500I0J-237500D01*
G01*
G37*
%TD*%
D17*
%TO.C,J6*%
X224150000Y-102040000D03*
D10*
X224150000Y-99500000D03*
%TD*%
D17*
%TO.C,J4*%
X223270000Y-124850000D03*
X220730000Y-124850000D03*
X218190000Y-124850000D03*
X215650000Y-124850000D03*
X213110000Y-124850000D03*
D10*
X210570000Y-124850000D03*
%TD*%
D17*
%TO.C,J3*%
X192780000Y-121300000D03*
X190240000Y-121300000D03*
D10*
X187700000Y-121300000D03*
%TD*%
D17*
%TO.C,J2*%
X192790000Y-124950000D03*
X190250000Y-124950000D03*
D10*
X187710000Y-124950000D03*
%TD*%
D17*
%TO.C,J1*%
X192780000Y-128600000D03*
X190240000Y-128600000D03*
D10*
X187700000Y-128600000D03*
%TD*%
D18*
%TO.C,D7*%
X234900000Y-116600000D03*
X234900000Y-119800000D03*
X239800000Y-116600000D03*
X239800000Y-119800000D03*
%TD*%
%TO.C,D6*%
X239800000Y-112625000D03*
X239800000Y-109425000D03*
X234900000Y-112625000D03*
X234900000Y-109425000D03*
%TD*%
%TO.C,D5*%
X234900000Y-102250000D03*
X234900000Y-105450000D03*
X239800000Y-102250000D03*
X239800000Y-105450000D03*
%TD*%
D19*
%TO.C,D4*%
X192500000Y-108850000D03*
X192500000Y-104850000D03*
%TD*%
%TO.C,D3*%
X185850000Y-104850000D03*
X185850000Y-108850000D03*
%TD*%
%TO.C,D2*%
X192500000Y-116400000D03*
X192500000Y-112400000D03*
%TD*%
%TO.C,D1*%
X185700000Y-116400000D03*
X185700000Y-112400000D03*
%TD*%
%TO.C,C11*%
G36*
G01*
X208512500Y-99525000D02*
X208987500Y-99525000D01*
G75*
G02*
X209225000Y-99762500I0J-237500D01*
G01*
X209225000Y-100337500D01*
G75*
G02*
X208987500Y-100575000I-237500J0D01*
G01*
X208512500Y-100575000D01*
G75*
G02*
X208275000Y-100337500I0J237500D01*
G01*
X208275000Y-99762500D01*
G75*
G02*
X208512500Y-99525000I237500J0D01*
G01*
G37*
G36*
G01*
X208512500Y-97775000D02*
X208987500Y-97775000D01*
G75*
G02*
X209225000Y-98012500I0J-237500D01*
G01*
X209225000Y-98587500D01*
G75*
G02*
X208987500Y-98825000I-237500J0D01*
G01*
X208512500Y-98825000D01*
G75*
G02*
X208275000Y-98587500I0J237500D01*
G01*
X208275000Y-98012500D01*
G75*
G02*
X208512500Y-97775000I237500J0D01*
G01*
G37*
%TD*%
M02*
