%TF.GenerationSoftware,KiCad,Pcbnew,(5.1.6)-1*%
%TF.CreationDate,2020-09-26T21:02:15-04:00*%
%TF.ProjectId,CellLight,43656c6c-4c69-4676-9874-2e6b69636164,rev?*%
%TF.SameCoordinates,Original*%
%TF.FileFunction,Soldermask,Bot*%
%TF.FilePolarity,Negative*%
%FSLAX46Y46*%
G04 Gerber Fmt 4.6, Leading zero omitted, Abs format (unit mm)*
G04 Created by KiCad (PCBNEW (5.1.6)-1) date 2020-09-26 21:02:15*
%MOMM*%
%LPD*%
G01*
G04 APERTURE LIST*
%ADD10R,1.700000X1.700000*%
%ADD11R,3.900000X2.200000*%
%ADD12O,1.700000X1.700000*%
G04 APERTURE END LIST*
D10*
%TO.C,J5*%
X203250000Y-117950000D03*
%TD*%
D11*
%TO.C,L1*%
X191150000Y-97450000D03*
X191150000Y-101250000D03*
%TD*%
%TO.C,R5*%
G36*
G01*
X187987500Y-97825000D02*
X187512500Y-97825000D01*
G75*
G02*
X187275000Y-97587500I0J237500D01*
G01*
X187275000Y-97012500D01*
G75*
G02*
X187512500Y-96775000I237500J0D01*
G01*
X187987500Y-96775000D01*
G75*
G02*
X188225000Y-97012500I0J-237500D01*
G01*
X188225000Y-97587500D01*
G75*
G02*
X187987500Y-97825000I-237500J0D01*
G01*
G37*
G36*
G01*
X187987500Y-99575000D02*
X187512500Y-99575000D01*
G75*
G02*
X187275000Y-99337500I0J237500D01*
G01*
X187275000Y-98762500D01*
G75*
G02*
X187512500Y-98525000I237500J0D01*
G01*
X187987500Y-98525000D01*
G75*
G02*
X188225000Y-98762500I0J-237500D01*
G01*
X188225000Y-99337500D01*
G75*
G02*
X187987500Y-99575000I-237500J0D01*
G01*
G37*
%TD*%
%TO.C,R4*%
G36*
G01*
X186137500Y-97825000D02*
X185662500Y-97825000D01*
G75*
G02*
X185425000Y-97587500I0J237500D01*
G01*
X185425000Y-97012500D01*
G75*
G02*
X185662500Y-96775000I237500J0D01*
G01*
X186137500Y-96775000D01*
G75*
G02*
X186375000Y-97012500I0J-237500D01*
G01*
X186375000Y-97587500D01*
G75*
G02*
X186137500Y-97825000I-237500J0D01*
G01*
G37*
G36*
G01*
X186137500Y-99575000D02*
X185662500Y-99575000D01*
G75*
G02*
X185425000Y-99337500I0J237500D01*
G01*
X185425000Y-98762500D01*
G75*
G02*
X185662500Y-98525000I237500J0D01*
G01*
X186137500Y-98525000D01*
G75*
G02*
X186375000Y-98762500I0J-237500D01*
G01*
X186375000Y-99337500D01*
G75*
G02*
X186137500Y-99575000I-237500J0D01*
G01*
G37*
%TD*%
%TO.C,R3*%
G36*
G01*
X219425000Y-109787500D02*
X219425000Y-109312500D01*
G75*
G02*
X219662500Y-109075000I237500J0D01*
G01*
X220237500Y-109075000D01*
G75*
G02*
X220475000Y-109312500I0J-237500D01*
G01*
X220475000Y-109787500D01*
G75*
G02*
X220237500Y-110025000I-237500J0D01*
G01*
X219662500Y-110025000D01*
G75*
G02*
X219425000Y-109787500I0J237500D01*
G01*
G37*
G36*
G01*
X217675000Y-109787500D02*
X217675000Y-109312500D01*
G75*
G02*
X217912500Y-109075000I237500J0D01*
G01*
X218487500Y-109075000D01*
G75*
G02*
X218725000Y-109312500I0J-237500D01*
G01*
X218725000Y-109787500D01*
G75*
G02*
X218487500Y-110025000I-237500J0D01*
G01*
X217912500Y-110025000D01*
G75*
G02*
X217675000Y-109787500I0J237500D01*
G01*
G37*
%TD*%
%TO.C,R2*%
G36*
G01*
X219425000Y-107887500D02*
X219425000Y-107412500D01*
G75*
G02*
X219662500Y-107175000I237500J0D01*
G01*
X220237500Y-107175000D01*
G75*
G02*
X220475000Y-107412500I0J-237500D01*
G01*
X220475000Y-107887500D01*
G75*
G02*
X220237500Y-108125000I-237500J0D01*
G01*
X219662500Y-108125000D01*
G75*
G02*
X219425000Y-107887500I0J237500D01*
G01*
G37*
G36*
G01*
X217675000Y-107887500D02*
X217675000Y-107412500D01*
G75*
G02*
X217912500Y-107175000I237500J0D01*
G01*
X218487500Y-107175000D01*
G75*
G02*
X218725000Y-107412500I0J-237500D01*
G01*
X218725000Y-107887500D01*
G75*
G02*
X218487500Y-108125000I-237500J0D01*
G01*
X217912500Y-108125000D01*
G75*
G02*
X217675000Y-107887500I0J237500D01*
G01*
G37*
%TD*%
%TO.C,R1*%
G36*
G01*
X203575000Y-111087500D02*
X203575000Y-110612500D01*
G75*
G02*
X203812500Y-110375000I237500J0D01*
G01*
X204387500Y-110375000D01*
G75*
G02*
X204625000Y-110612500I0J-237500D01*
G01*
X204625000Y-111087500D01*
G75*
G02*
X204387500Y-111325000I-237500J0D01*
G01*
X203812500Y-111325000D01*
G75*
G02*
X203575000Y-111087500I0J237500D01*
G01*
G37*
G36*
G01*
X201825000Y-111087500D02*
X201825000Y-110612500D01*
G75*
G02*
X202062500Y-110375000I237500J0D01*
G01*
X202637500Y-110375000D01*
G75*
G02*
X202875000Y-110612500I0J-237500D01*
G01*
X202875000Y-111087500D01*
G75*
G02*
X202637500Y-111325000I-237500J0D01*
G01*
X202062500Y-111325000D01*
G75*
G02*
X201825000Y-111087500I0J237500D01*
G01*
G37*
%TD*%
D12*
%TO.C,J6*%
X224150000Y-102040000D03*
D10*
X224150000Y-99500000D03*
%TD*%
D12*
%TO.C,J4*%
X223270000Y-124850000D03*
X220730000Y-124850000D03*
X218190000Y-124850000D03*
X215650000Y-124850000D03*
X213110000Y-124850000D03*
D10*
X210570000Y-124850000D03*
%TD*%
D12*
%TO.C,J3*%
X192780000Y-121300000D03*
X190240000Y-121300000D03*
D10*
X187700000Y-121300000D03*
%TD*%
D12*
%TO.C,J2*%
X192790000Y-124950000D03*
X190250000Y-124950000D03*
D10*
X187710000Y-124950000D03*
%TD*%
D12*
%TO.C,J1*%
X192780000Y-128600000D03*
X190240000Y-128600000D03*
D10*
X187700000Y-128600000D03*
%TD*%
%TO.C,C10*%
G36*
G01*
X204075000Y-100462500D02*
X204075000Y-100937500D01*
G75*
G02*
X203837500Y-101175000I-237500J0D01*
G01*
X203262500Y-101175000D01*
G75*
G02*
X203025000Y-100937500I0J237500D01*
G01*
X203025000Y-100462500D01*
G75*
G02*
X203262500Y-100225000I237500J0D01*
G01*
X203837500Y-100225000D01*
G75*
G02*
X204075000Y-100462500I0J-237500D01*
G01*
G37*
G36*
G01*
X205825000Y-100462500D02*
X205825000Y-100937500D01*
G75*
G02*
X205587500Y-101175000I-237500J0D01*
G01*
X205012500Y-101175000D01*
G75*
G02*
X204775000Y-100937500I0J237500D01*
G01*
X204775000Y-100462500D01*
G75*
G02*
X205012500Y-100225000I237500J0D01*
G01*
X205587500Y-100225000D01*
G75*
G02*
X205825000Y-100462500I0J-237500D01*
G01*
G37*
%TD*%
%TO.C,C9*%
G36*
G01*
X191662500Y-105625000D02*
X192137500Y-105625000D01*
G75*
G02*
X192375000Y-105862500I0J-237500D01*
G01*
X192375000Y-106437500D01*
G75*
G02*
X192137500Y-106675000I-237500J0D01*
G01*
X191662500Y-106675000D01*
G75*
G02*
X191425000Y-106437500I0J237500D01*
G01*
X191425000Y-105862500D01*
G75*
G02*
X191662500Y-105625000I237500J0D01*
G01*
G37*
G36*
G01*
X191662500Y-103875000D02*
X192137500Y-103875000D01*
G75*
G02*
X192375000Y-104112500I0J-237500D01*
G01*
X192375000Y-104687500D01*
G75*
G02*
X192137500Y-104925000I-237500J0D01*
G01*
X191662500Y-104925000D01*
G75*
G02*
X191425000Y-104687500I0J237500D01*
G01*
X191425000Y-104112500D01*
G75*
G02*
X191662500Y-103875000I237500J0D01*
G01*
G37*
%TD*%
%TO.C,C8*%
G36*
G01*
X189829500Y-105625000D02*
X190304500Y-105625000D01*
G75*
G02*
X190542000Y-105862500I0J-237500D01*
G01*
X190542000Y-106437500D01*
G75*
G02*
X190304500Y-106675000I-237500J0D01*
G01*
X189829500Y-106675000D01*
G75*
G02*
X189592000Y-106437500I0J237500D01*
G01*
X189592000Y-105862500D01*
G75*
G02*
X189829500Y-105625000I237500J0D01*
G01*
G37*
G36*
G01*
X189829500Y-103875000D02*
X190304500Y-103875000D01*
G75*
G02*
X190542000Y-104112500I0J-237500D01*
G01*
X190542000Y-104687500D01*
G75*
G02*
X190304500Y-104925000I-237500J0D01*
G01*
X189829500Y-104925000D01*
G75*
G02*
X189592000Y-104687500I0J237500D01*
G01*
X189592000Y-104112500D01*
G75*
G02*
X189829500Y-103875000I237500J0D01*
G01*
G37*
%TD*%
%TO.C,C7*%
G36*
G01*
X188012500Y-105625000D02*
X188487500Y-105625000D01*
G75*
G02*
X188725000Y-105862500I0J-237500D01*
G01*
X188725000Y-106437500D01*
G75*
G02*
X188487500Y-106675000I-237500J0D01*
G01*
X188012500Y-106675000D01*
G75*
G02*
X187775000Y-106437500I0J237500D01*
G01*
X187775000Y-105862500D01*
G75*
G02*
X188012500Y-105625000I237500J0D01*
G01*
G37*
G36*
G01*
X188012500Y-103875000D02*
X188487500Y-103875000D01*
G75*
G02*
X188725000Y-104112500I0J-237500D01*
G01*
X188725000Y-104687500D01*
G75*
G02*
X188487500Y-104925000I-237500J0D01*
G01*
X188012500Y-104925000D01*
G75*
G02*
X187775000Y-104687500I0J237500D01*
G01*
X187775000Y-104112500D01*
G75*
G02*
X188012500Y-103875000I237500J0D01*
G01*
G37*
%TD*%
%TO.C,C6*%
G36*
G01*
X204075000Y-98812500D02*
X204075000Y-99287500D01*
G75*
G02*
X203837500Y-99525000I-237500J0D01*
G01*
X203262500Y-99525000D01*
G75*
G02*
X203025000Y-99287500I0J237500D01*
G01*
X203025000Y-98812500D01*
G75*
G02*
X203262500Y-98575000I237500J0D01*
G01*
X203837500Y-98575000D01*
G75*
G02*
X204075000Y-98812500I0J-237500D01*
G01*
G37*
G36*
G01*
X205825000Y-98812500D02*
X205825000Y-99287500D01*
G75*
G02*
X205587500Y-99525000I-237500J0D01*
G01*
X205012500Y-99525000D01*
G75*
G02*
X204775000Y-99287500I0J237500D01*
G01*
X204775000Y-98812500D01*
G75*
G02*
X205012500Y-98575000I237500J0D01*
G01*
X205587500Y-98575000D01*
G75*
G02*
X205825000Y-98812500I0J-237500D01*
G01*
G37*
%TD*%
%TO.C,C5*%
G36*
G01*
X186162500Y-105625000D02*
X186637500Y-105625000D01*
G75*
G02*
X186875000Y-105862500I0J-237500D01*
G01*
X186875000Y-106437500D01*
G75*
G02*
X186637500Y-106675000I-237500J0D01*
G01*
X186162500Y-106675000D01*
G75*
G02*
X185925000Y-106437500I0J237500D01*
G01*
X185925000Y-105862500D01*
G75*
G02*
X186162500Y-105625000I237500J0D01*
G01*
G37*
G36*
G01*
X186162500Y-103875000D02*
X186637500Y-103875000D01*
G75*
G02*
X186875000Y-104112500I0J-237500D01*
G01*
X186875000Y-104687500D01*
G75*
G02*
X186637500Y-104925000I-237500J0D01*
G01*
X186162500Y-104925000D01*
G75*
G02*
X185925000Y-104687500I0J237500D01*
G01*
X185925000Y-104112500D01*
G75*
G02*
X186162500Y-103875000I237500J0D01*
G01*
G37*
%TD*%
%TO.C,C4*%
G36*
G01*
X204075000Y-97162500D02*
X204075000Y-97637500D01*
G75*
G02*
X203837500Y-97875000I-237500J0D01*
G01*
X203262500Y-97875000D01*
G75*
G02*
X203025000Y-97637500I0J237500D01*
G01*
X203025000Y-97162500D01*
G75*
G02*
X203262500Y-96925000I237500J0D01*
G01*
X203837500Y-96925000D01*
G75*
G02*
X204075000Y-97162500I0J-237500D01*
G01*
G37*
G36*
G01*
X205825000Y-97162500D02*
X205825000Y-97637500D01*
G75*
G02*
X205587500Y-97875000I-237500J0D01*
G01*
X205012500Y-97875000D01*
G75*
G02*
X204775000Y-97637500I0J237500D01*
G01*
X204775000Y-97162500D01*
G75*
G02*
X205012500Y-96925000I237500J0D01*
G01*
X205587500Y-96925000D01*
G75*
G02*
X205825000Y-97162500I0J-237500D01*
G01*
G37*
%TD*%
%TO.C,C3*%
G36*
G01*
X186475000Y-101062500D02*
X186475000Y-101537500D01*
G75*
G02*
X186237500Y-101775000I-237500J0D01*
G01*
X185662500Y-101775000D01*
G75*
G02*
X185425000Y-101537500I0J237500D01*
G01*
X185425000Y-101062500D01*
G75*
G02*
X185662500Y-100825000I237500J0D01*
G01*
X186237500Y-100825000D01*
G75*
G02*
X186475000Y-101062500I0J-237500D01*
G01*
G37*
G36*
G01*
X188225000Y-101062500D02*
X188225000Y-101537500D01*
G75*
G02*
X187987500Y-101775000I-237500J0D01*
G01*
X187412500Y-101775000D01*
G75*
G02*
X187175000Y-101537500I0J237500D01*
G01*
X187175000Y-101062500D01*
G75*
G02*
X187412500Y-100825000I237500J0D01*
G01*
X187987500Y-100825000D01*
G75*
G02*
X188225000Y-101062500I0J-237500D01*
G01*
G37*
%TD*%
%TO.C,C2*%
G36*
G01*
X215175000Y-115112500D02*
X215175000Y-115587500D01*
G75*
G02*
X214937500Y-115825000I-237500J0D01*
G01*
X214362500Y-115825000D01*
G75*
G02*
X214125000Y-115587500I0J237500D01*
G01*
X214125000Y-115112500D01*
G75*
G02*
X214362500Y-114875000I237500J0D01*
G01*
X214937500Y-114875000D01*
G75*
G02*
X215175000Y-115112500I0J-237500D01*
G01*
G37*
G36*
G01*
X216925000Y-115112500D02*
X216925000Y-115587500D01*
G75*
G02*
X216687500Y-115825000I-237500J0D01*
G01*
X216112500Y-115825000D01*
G75*
G02*
X215875000Y-115587500I0J237500D01*
G01*
X215875000Y-115112500D01*
G75*
G02*
X216112500Y-114875000I237500J0D01*
G01*
X216687500Y-114875000D01*
G75*
G02*
X216925000Y-115112500I0J-237500D01*
G01*
G37*
%TD*%
%TO.C,C1*%
G36*
G01*
X213925000Y-107887500D02*
X213925000Y-107412500D01*
G75*
G02*
X214162500Y-107175000I237500J0D01*
G01*
X214737500Y-107175000D01*
G75*
G02*
X214975000Y-107412500I0J-237500D01*
G01*
X214975000Y-107887500D01*
G75*
G02*
X214737500Y-108125000I-237500J0D01*
G01*
X214162500Y-108125000D01*
G75*
G02*
X213925000Y-107887500I0J237500D01*
G01*
G37*
G36*
G01*
X212175000Y-107887500D02*
X212175000Y-107412500D01*
G75*
G02*
X212412500Y-107175000I237500J0D01*
G01*
X212987500Y-107175000D01*
G75*
G02*
X213225000Y-107412500I0J-237500D01*
G01*
X213225000Y-107887500D01*
G75*
G02*
X212987500Y-108125000I-237500J0D01*
G01*
X212412500Y-108125000D01*
G75*
G02*
X212175000Y-107887500I0J237500D01*
G01*
G37*
%TD*%
M02*
