%TF.GenerationSoftware,KiCad,Pcbnew,(5.1.6)-1*%
%TF.CreationDate,2020-09-26T21:02:15-04:00*%
%TF.ProjectId,CellLight,43656c6c-4c69-4676-9874-2e6b69636164,rev?*%
%TF.SameCoordinates,Original*%
%TF.FileFunction,Copper,L1,Top*%
%TF.FilePolarity,Positive*%
%FSLAX46Y46*%
G04 Gerber Fmt 4.6, Leading zero omitted, Abs format (unit mm)*
G04 Created by KiCad (PCBNEW (5.1.6)-1) date 2020-09-26 21:02:15*
%MOMM*%
%LPD*%
G01*
G04 APERTURE LIST*
%TA.AperFunction,ComponentPad*%
%ADD10R,1.700000X1.700000*%
%TD*%
%TA.AperFunction,SMDPad,CuDef*%
%ADD11R,0.650000X0.400000*%
%TD*%
%TA.AperFunction,SMDPad,CuDef*%
%ADD12R,1.060000X0.650000*%
%TD*%
%TA.AperFunction,SMDPad,CuDef*%
%ADD13R,0.650000X1.060000*%
%TD*%
%TA.AperFunction,SMDPad,CuDef*%
%ADD14R,1.500000X0.550000*%
%TD*%
%TA.AperFunction,SMDPad,CuDef*%
%ADD15R,0.550000X1.500000*%
%TD*%
%TA.AperFunction,SMDPad,CuDef*%
%ADD16R,1.700000X1.000000*%
%TD*%
%TA.AperFunction,ComponentPad*%
%ADD17O,1.700000X1.700000*%
%TD*%
%TA.AperFunction,SMDPad,CuDef*%
%ADD18R,1.500000X1.000000*%
%TD*%
%TA.AperFunction,SMDPad,CuDef*%
%ADD19R,1.800000X2.500000*%
%TD*%
%TA.AperFunction,ViaPad*%
%ADD20C,0.800000*%
%TD*%
%TA.AperFunction,Conductor*%
%ADD21C,0.250000*%
%TD*%
%TA.AperFunction,Conductor*%
%ADD22C,0.254000*%
%TD*%
G04 APERTURE END LIST*
D10*
%TO.P,J5,1*%
%TO.N,IO_COM*%
X203250000Y-117950000D03*
%TD*%
D11*
%TO.P,U6,6*%
%TO.N,+5V*%
X224200000Y-119750000D03*
%TO.P,U6,4*%
%TO.N,Net-(R7-Pad2)*%
X224200000Y-121050000D03*
%TO.P,U6,2*%
%TO.N,GND*%
X222300000Y-120400000D03*
%TO.P,U6,5*%
%TO.N,+3V3*%
X224200000Y-120400000D03*
%TO.P,U6,3*%
%TO.N,PWM_OUT*%
X222300000Y-121050000D03*
%TO.P,U6,1*%
%TO.N,+3V3*%
X222300000Y-119750000D03*
%TD*%
D12*
%TO.P,U5,5*%
%TO.N,+3V3*%
X206950000Y-98250000D03*
%TO.P,U5,4*%
%TO.N,Net-(U5-Pad4)*%
X206950000Y-100150000D03*
%TO.P,U5,3*%
%TO.N,+5V*%
X204750000Y-100150000D03*
%TO.P,U5,2*%
%TO.N,GND*%
X204750000Y-99200000D03*
%TO.P,U5,1*%
%TO.N,+5V*%
X204750000Y-98250000D03*
%TD*%
D13*
%TO.P,U4,5*%
%TO.N,Net-(R4-Pad1)*%
X186800000Y-99100000D03*
%TO.P,U4,6*%
%TO.N,Net-(C3-Pad2)*%
X185850000Y-99100000D03*
%TO.P,U4,4*%
%TO.N,Net-(R5-Pad1)*%
X187750000Y-99100000D03*
%TO.P,U4,3*%
%TO.N,+VDC*%
X187750000Y-101300000D03*
%TO.P,U4,2*%
%TO.N,Net-(C3-Pad1)*%
X186800000Y-101300000D03*
%TO.P,U4,1*%
%TO.N,GND*%
X185850000Y-101300000D03*
%TD*%
%TO.P,U3,8*%
%TO.N,+3V3*%
%TA.AperFunction,SMDPad,CuDef*%
G36*
G01*
X218300000Y-99045000D02*
X218300000Y-98745000D01*
G75*
G02*
X218450000Y-98595000I150000J0D01*
G01*
X220100000Y-98595000D01*
G75*
G02*
X220250000Y-98745000I0J-150000D01*
G01*
X220250000Y-99045000D01*
G75*
G02*
X220100000Y-99195000I-150000J0D01*
G01*
X218450000Y-99195000D01*
G75*
G02*
X218300000Y-99045000I0J150000D01*
G01*
G37*
%TD.AperFunction*%
%TO.P,U3,7*%
%TO.N,FRAM_WP*%
%TA.AperFunction,SMDPad,CuDef*%
G36*
G01*
X218300000Y-100315000D02*
X218300000Y-100015000D01*
G75*
G02*
X218450000Y-99865000I150000J0D01*
G01*
X220100000Y-99865000D01*
G75*
G02*
X220250000Y-100015000I0J-150000D01*
G01*
X220250000Y-100315000D01*
G75*
G02*
X220100000Y-100465000I-150000J0D01*
G01*
X218450000Y-100465000D01*
G75*
G02*
X218300000Y-100315000I0J150000D01*
G01*
G37*
%TD.AperFunction*%
%TO.P,U3,6*%
%TO.N,SCL*%
%TA.AperFunction,SMDPad,CuDef*%
G36*
G01*
X218300000Y-101585000D02*
X218300000Y-101285000D01*
G75*
G02*
X218450000Y-101135000I150000J0D01*
G01*
X220100000Y-101135000D01*
G75*
G02*
X220250000Y-101285000I0J-150000D01*
G01*
X220250000Y-101585000D01*
G75*
G02*
X220100000Y-101735000I-150000J0D01*
G01*
X218450000Y-101735000D01*
G75*
G02*
X218300000Y-101585000I0J150000D01*
G01*
G37*
%TD.AperFunction*%
%TO.P,U3,5*%
%TO.N,SDA*%
%TA.AperFunction,SMDPad,CuDef*%
G36*
G01*
X218300000Y-102855000D02*
X218300000Y-102555000D01*
G75*
G02*
X218450000Y-102405000I150000J0D01*
G01*
X220100000Y-102405000D01*
G75*
G02*
X220250000Y-102555000I0J-150000D01*
G01*
X220250000Y-102855000D01*
G75*
G02*
X220100000Y-103005000I-150000J0D01*
G01*
X218450000Y-103005000D01*
G75*
G02*
X218300000Y-102855000I0J150000D01*
G01*
G37*
%TD.AperFunction*%
%TO.P,U3,4*%
%TO.N,GND*%
%TA.AperFunction,SMDPad,CuDef*%
G36*
G01*
X213350000Y-102855000D02*
X213350000Y-102555000D01*
G75*
G02*
X213500000Y-102405000I150000J0D01*
G01*
X215150000Y-102405000D01*
G75*
G02*
X215300000Y-102555000I0J-150000D01*
G01*
X215300000Y-102855000D01*
G75*
G02*
X215150000Y-103005000I-150000J0D01*
G01*
X213500000Y-103005000D01*
G75*
G02*
X213350000Y-102855000I0J150000D01*
G01*
G37*
%TD.AperFunction*%
%TO.P,U3,3*%
%TO.N,+3V3*%
%TA.AperFunction,SMDPad,CuDef*%
G36*
G01*
X213350000Y-101585000D02*
X213350000Y-101285000D01*
G75*
G02*
X213500000Y-101135000I150000J0D01*
G01*
X215150000Y-101135000D01*
G75*
G02*
X215300000Y-101285000I0J-150000D01*
G01*
X215300000Y-101585000D01*
G75*
G02*
X215150000Y-101735000I-150000J0D01*
G01*
X213500000Y-101735000D01*
G75*
G02*
X213350000Y-101585000I0J150000D01*
G01*
G37*
%TD.AperFunction*%
%TO.P,U3,2*%
%TA.AperFunction,SMDPad,CuDef*%
G36*
G01*
X213350000Y-100315000D02*
X213350000Y-100015000D01*
G75*
G02*
X213500000Y-99865000I150000J0D01*
G01*
X215150000Y-99865000D01*
G75*
G02*
X215300000Y-100015000I0J-150000D01*
G01*
X215300000Y-100315000D01*
G75*
G02*
X215150000Y-100465000I-150000J0D01*
G01*
X213500000Y-100465000D01*
G75*
G02*
X213350000Y-100315000I0J150000D01*
G01*
G37*
%TD.AperFunction*%
%TO.P,U3,1*%
%TA.AperFunction,SMDPad,CuDef*%
G36*
G01*
X213350000Y-99045000D02*
X213350000Y-98745000D01*
G75*
G02*
X213500000Y-98595000I150000J0D01*
G01*
X215150000Y-98595000D01*
G75*
G02*
X215300000Y-98745000I0J-150000D01*
G01*
X215300000Y-99045000D01*
G75*
G02*
X215150000Y-99195000I-150000J0D01*
G01*
X213500000Y-99195000D01*
G75*
G02*
X213350000Y-99045000I0J150000D01*
G01*
G37*
%TD.AperFunction*%
%TD*%
%TO.P,U2,14*%
%TO.N,+3V3*%
%TA.AperFunction,SMDPad,CuDef*%
G36*
G01*
X203925000Y-122850000D02*
X203925000Y-122650000D01*
G75*
G02*
X204025000Y-122550000I100000J0D01*
G01*
X205300000Y-122550000D01*
G75*
G02*
X205400000Y-122650000I0J-100000D01*
G01*
X205400000Y-122850000D01*
G75*
G02*
X205300000Y-122950000I-100000J0D01*
G01*
X204025000Y-122950000D01*
G75*
G02*
X203925000Y-122850000I0J100000D01*
G01*
G37*
%TD.AperFunction*%
%TO.P,U2,13*%
%TO.N,PORT1_SEL*%
%TA.AperFunction,SMDPad,CuDef*%
G36*
G01*
X203925000Y-123500000D02*
X203925000Y-123300000D01*
G75*
G02*
X204025000Y-123200000I100000J0D01*
G01*
X205300000Y-123200000D01*
G75*
G02*
X205400000Y-123300000I0J-100000D01*
G01*
X205400000Y-123500000D01*
G75*
G02*
X205300000Y-123600000I-100000J0D01*
G01*
X204025000Y-123600000D01*
G75*
G02*
X203925000Y-123500000I0J100000D01*
G01*
G37*
%TD.AperFunction*%
%TO.P,U2,12*%
%TO.N,Net-(U2-Pad12)*%
%TA.AperFunction,SMDPad,CuDef*%
G36*
G01*
X203925000Y-124150000D02*
X203925000Y-123950000D01*
G75*
G02*
X204025000Y-123850000I100000J0D01*
G01*
X205300000Y-123850000D01*
G75*
G02*
X205400000Y-123950000I0J-100000D01*
G01*
X205400000Y-124150000D01*
G75*
G02*
X205300000Y-124250000I-100000J0D01*
G01*
X204025000Y-124250000D01*
G75*
G02*
X203925000Y-124150000I0J100000D01*
G01*
G37*
%TD.AperFunction*%
%TO.P,U2,11*%
%TO.N,Net-(U2-Pad11)*%
%TA.AperFunction,SMDPad,CuDef*%
G36*
G01*
X203925000Y-124800000D02*
X203925000Y-124600000D01*
G75*
G02*
X204025000Y-124500000I100000J0D01*
G01*
X205300000Y-124500000D01*
G75*
G02*
X205400000Y-124600000I0J-100000D01*
G01*
X205400000Y-124800000D01*
G75*
G02*
X205300000Y-124900000I-100000J0D01*
G01*
X204025000Y-124900000D01*
G75*
G02*
X203925000Y-124800000I0J100000D01*
G01*
G37*
%TD.AperFunction*%
%TO.P,U2,10*%
%TO.N,Net-(U2-Pad10)*%
%TA.AperFunction,SMDPad,CuDef*%
G36*
G01*
X203925000Y-125450000D02*
X203925000Y-125250000D01*
G75*
G02*
X204025000Y-125150000I100000J0D01*
G01*
X205300000Y-125150000D01*
G75*
G02*
X205400000Y-125250000I0J-100000D01*
G01*
X205400000Y-125450000D01*
G75*
G02*
X205300000Y-125550000I-100000J0D01*
G01*
X204025000Y-125550000D01*
G75*
G02*
X203925000Y-125450000I0J100000D01*
G01*
G37*
%TD.AperFunction*%
%TO.P,U2,9*%
%TO.N,IO_COM*%
%TA.AperFunction,SMDPad,CuDef*%
G36*
G01*
X203925000Y-126100000D02*
X203925000Y-125900000D01*
G75*
G02*
X204025000Y-125800000I100000J0D01*
G01*
X205300000Y-125800000D01*
G75*
G02*
X205400000Y-125900000I0J-100000D01*
G01*
X205400000Y-126100000D01*
G75*
G02*
X205300000Y-126200000I-100000J0D01*
G01*
X204025000Y-126200000D01*
G75*
G02*
X203925000Y-126100000I0J100000D01*
G01*
G37*
%TD.AperFunction*%
%TO.P,U2,8*%
%TO.N,PORT3_IO*%
%TA.AperFunction,SMDPad,CuDef*%
G36*
G01*
X203925000Y-126750000D02*
X203925000Y-126550000D01*
G75*
G02*
X204025000Y-126450000I100000J0D01*
G01*
X205300000Y-126450000D01*
G75*
G02*
X205400000Y-126550000I0J-100000D01*
G01*
X205400000Y-126750000D01*
G75*
G02*
X205300000Y-126850000I-100000J0D01*
G01*
X204025000Y-126850000D01*
G75*
G02*
X203925000Y-126750000I0J100000D01*
G01*
G37*
%TD.AperFunction*%
%TO.P,U2,7*%
%TO.N,GND*%
%TA.AperFunction,SMDPad,CuDef*%
G36*
G01*
X198200000Y-126750000D02*
X198200000Y-126550000D01*
G75*
G02*
X198300000Y-126450000I100000J0D01*
G01*
X199575000Y-126450000D01*
G75*
G02*
X199675000Y-126550000I0J-100000D01*
G01*
X199675000Y-126750000D01*
G75*
G02*
X199575000Y-126850000I-100000J0D01*
G01*
X198300000Y-126850000D01*
G75*
G02*
X198200000Y-126750000I0J100000D01*
G01*
G37*
%TD.AperFunction*%
%TO.P,U2,6*%
%TO.N,PORT3_SEL*%
%TA.AperFunction,SMDPad,CuDef*%
G36*
G01*
X198200000Y-126100000D02*
X198200000Y-125900000D01*
G75*
G02*
X198300000Y-125800000I100000J0D01*
G01*
X199575000Y-125800000D01*
G75*
G02*
X199675000Y-125900000I0J-100000D01*
G01*
X199675000Y-126100000D01*
G75*
G02*
X199575000Y-126200000I-100000J0D01*
G01*
X198300000Y-126200000D01*
G75*
G02*
X198200000Y-126100000I0J100000D01*
G01*
G37*
%TD.AperFunction*%
%TO.P,U2,5*%
%TO.N,PORT2_SEL*%
%TA.AperFunction,SMDPad,CuDef*%
G36*
G01*
X198200000Y-125450000D02*
X198200000Y-125250000D01*
G75*
G02*
X198300000Y-125150000I100000J0D01*
G01*
X199575000Y-125150000D01*
G75*
G02*
X199675000Y-125250000I0J-100000D01*
G01*
X199675000Y-125450000D01*
G75*
G02*
X199575000Y-125550000I-100000J0D01*
G01*
X198300000Y-125550000D01*
G75*
G02*
X198200000Y-125450000I0J100000D01*
G01*
G37*
%TD.AperFunction*%
%TO.P,U2,4*%
%TO.N,IO_COM*%
%TA.AperFunction,SMDPad,CuDef*%
G36*
G01*
X198200000Y-124800000D02*
X198200000Y-124600000D01*
G75*
G02*
X198300000Y-124500000I100000J0D01*
G01*
X199575000Y-124500000D01*
G75*
G02*
X199675000Y-124600000I0J-100000D01*
G01*
X199675000Y-124800000D01*
G75*
G02*
X199575000Y-124900000I-100000J0D01*
G01*
X198300000Y-124900000D01*
G75*
G02*
X198200000Y-124800000I0J100000D01*
G01*
G37*
%TD.AperFunction*%
%TO.P,U2,3*%
%TO.N,PORT2_IO*%
%TA.AperFunction,SMDPad,CuDef*%
G36*
G01*
X198200000Y-124150000D02*
X198200000Y-123950000D01*
G75*
G02*
X198300000Y-123850000I100000J0D01*
G01*
X199575000Y-123850000D01*
G75*
G02*
X199675000Y-123950000I0J-100000D01*
G01*
X199675000Y-124150000D01*
G75*
G02*
X199575000Y-124250000I-100000J0D01*
G01*
X198300000Y-124250000D01*
G75*
G02*
X198200000Y-124150000I0J100000D01*
G01*
G37*
%TD.AperFunction*%
%TO.P,U2,2*%
%TO.N,IO_COM*%
%TA.AperFunction,SMDPad,CuDef*%
G36*
G01*
X198200000Y-123500000D02*
X198200000Y-123300000D01*
G75*
G02*
X198300000Y-123200000I100000J0D01*
G01*
X199575000Y-123200000D01*
G75*
G02*
X199675000Y-123300000I0J-100000D01*
G01*
X199675000Y-123500000D01*
G75*
G02*
X199575000Y-123600000I-100000J0D01*
G01*
X198300000Y-123600000D01*
G75*
G02*
X198200000Y-123500000I0J100000D01*
G01*
G37*
%TD.AperFunction*%
%TO.P,U2,1*%
%TO.N,PORT1_IO*%
%TA.AperFunction,SMDPad,CuDef*%
G36*
G01*
X198200000Y-122850000D02*
X198200000Y-122650000D01*
G75*
G02*
X198300000Y-122550000I100000J0D01*
G01*
X199575000Y-122550000D01*
G75*
G02*
X199675000Y-122650000I0J-100000D01*
G01*
X199675000Y-122850000D01*
G75*
G02*
X199575000Y-122950000I-100000J0D01*
G01*
X198300000Y-122950000D01*
G75*
G02*
X198200000Y-122850000I0J100000D01*
G01*
G37*
%TD.AperFunction*%
%TD*%
D14*
%TO.P,U1,44*%
%TO.N,SCL*%
X222150000Y-107700000D03*
%TO.P,U1,43*%
%TO.N,PORT1_IO*%
X222150000Y-108500000D03*
%TO.P,U1,42*%
%TO.N,PORT2_IO*%
X222150000Y-109300000D03*
%TO.P,U1,41*%
%TO.N,PORT3_IO*%
X222150000Y-110100000D03*
%TO.P,U1,40*%
%TO.N,+3V3*%
X222150000Y-110900000D03*
%TO.P,U1,39*%
%TO.N,GND*%
X222150000Y-111700000D03*
%TO.P,U1,38*%
%TO.N,Net-(U1-Pad38)*%
X222150000Y-112500000D03*
%TO.P,U1,37*%
%TO.N,Net-(U1-Pad37)*%
X222150000Y-113300000D03*
%TO.P,U1,36*%
%TO.N,Net-(U1-Pad36)*%
X222150000Y-114100000D03*
%TO.P,U1,35*%
%TO.N,Net-(U1-Pad35)*%
X222150000Y-114900000D03*
%TO.P,U1,34*%
%TO.N,Net-(U1-Pad34)*%
X222150000Y-115700000D03*
D15*
%TO.P,U1,33*%
%TO.N,Net-(U1-Pad33)*%
X220450000Y-117400000D03*
%TO.P,U1,32*%
%TO.N,PWM_OUT*%
X219650000Y-117400000D03*
%TO.P,U1,31*%
%TO.N,Net-(U1-Pad31)*%
X218850000Y-117400000D03*
%TO.P,U1,30*%
%TO.N,Net-(U1-Pad30)*%
X218050000Y-117400000D03*
%TO.P,U1,29*%
%TO.N,GND*%
X217250000Y-117400000D03*
%TO.P,U1,28*%
%TO.N,+3V3*%
X216450000Y-117400000D03*
%TO.P,U1,27*%
%TO.N,Net-(U1-Pad27)*%
X215650000Y-117400000D03*
%TO.P,U1,26*%
%TO.N,IO_COM*%
X214850000Y-117400000D03*
%TO.P,U1,25*%
X214050000Y-117400000D03*
%TO.P,U1,24*%
%TO.N,Net-(U1-Pad24)*%
X213250000Y-117400000D03*
%TO.P,U1,23*%
%TO.N,Net-(U1-Pad23)*%
X212450000Y-117400000D03*
D14*
%TO.P,U1,22*%
%TO.N,PGEC*%
X210750000Y-115700000D03*
%TO.P,U1,21*%
%TO.N,PGED*%
X210750000Y-114900000D03*
%TO.P,U1,20*%
%TO.N,Net-(U1-Pad20)*%
X210750000Y-114100000D03*
%TO.P,U1,19*%
%TO.N,Net-(U1-Pad19)*%
X210750000Y-113300000D03*
%TO.P,U1,18*%
%TO.N,RESET*%
X210750000Y-112500000D03*
%TO.P,U1,17*%
%TO.N,Net-(U1-Pad17)*%
X210750000Y-111700000D03*
%TO.P,U1,16*%
%TO.N,Net-(U1-Pad16)*%
X210750000Y-110900000D03*
%TO.P,U1,15*%
%TO.N,Net-(U1-Pad15)*%
X210750000Y-110100000D03*
%TO.P,U1,14*%
%TO.N,Net-(U1-Pad14)*%
X210750000Y-109300000D03*
%TO.P,U1,13*%
%TO.N,Net-(U1-Pad13)*%
X210750000Y-108500000D03*
%TO.P,U1,12*%
%TO.N,Net-(U1-Pad12)*%
X210750000Y-107700000D03*
D15*
%TO.P,U1,11*%
%TO.N,Net-(U1-Pad11)*%
X212450000Y-106000000D03*
%TO.P,U1,10*%
%TO.N,Net-(U1-Pad10)*%
X213250000Y-106000000D03*
%TO.P,U1,9*%
%TO.N,FRAM_WP*%
X214050000Y-106000000D03*
%TO.P,U1,8*%
%TO.N,Net-(U1-Pad8)*%
X214850000Y-106000000D03*
%TO.P,U1,7*%
%TO.N,Net-(C1-Pad2)*%
X215650000Y-106000000D03*
%TO.P,U1,6*%
%TO.N,GND*%
X216450000Y-106000000D03*
%TO.P,U1,5*%
%TO.N,Net-(U1-Pad5)*%
X217250000Y-106000000D03*
%TO.P,U1,4*%
%TO.N,PORT3_SEL*%
X218050000Y-106000000D03*
%TO.P,U1,3*%
%TO.N,PORT2_SEL*%
X218850000Y-106000000D03*
%TO.P,U1,2*%
%TO.N,PORT1_SEL*%
X219650000Y-106000000D03*
%TO.P,U1,1*%
%TO.N,SDA*%
X220450000Y-106000000D03*
%TD*%
D16*
%TO.P,SW1,2*%
%TO.N,RESET*%
X206375000Y-112750000D03*
X200075000Y-112750000D03*
%TO.P,SW1,1*%
%TO.N,GND*%
X206375000Y-108950000D03*
X200075000Y-108950000D03*
%TD*%
%TO.P,R7,2*%
%TO.N,Net-(R7-Pad2)*%
%TA.AperFunction,SMDPad,CuDef*%
G36*
G01*
X226700000Y-120812500D02*
X226700000Y-121287500D01*
G75*
G02*
X226462500Y-121525000I-237500J0D01*
G01*
X225887500Y-121525000D01*
G75*
G02*
X225650000Y-121287500I0J237500D01*
G01*
X225650000Y-120812500D01*
G75*
G02*
X225887500Y-120575000I237500J0D01*
G01*
X226462500Y-120575000D01*
G75*
G02*
X226700000Y-120812500I0J-237500D01*
G01*
G37*
%TD.AperFunction*%
%TO.P,R7,1*%
%TO.N,Net-(D10-Pad4)*%
%TA.AperFunction,SMDPad,CuDef*%
G36*
G01*
X228450000Y-120812500D02*
X228450000Y-121287500D01*
G75*
G02*
X228212500Y-121525000I-237500J0D01*
G01*
X227637500Y-121525000D01*
G75*
G02*
X227400000Y-121287500I0J237500D01*
G01*
X227400000Y-120812500D01*
G75*
G02*
X227637500Y-120575000I237500J0D01*
G01*
X228212500Y-120575000D01*
G75*
G02*
X228450000Y-120812500I0J-237500D01*
G01*
G37*
%TD.AperFunction*%
%TD*%
%TO.P,R6,2*%
%TO.N,+5V*%
%TA.AperFunction,SMDPad,CuDef*%
G36*
G01*
X186475000Y-97012500D02*
X186475000Y-97487500D01*
G75*
G02*
X186237500Y-97725000I-237500J0D01*
G01*
X185662500Y-97725000D01*
G75*
G02*
X185425000Y-97487500I0J237500D01*
G01*
X185425000Y-97012500D01*
G75*
G02*
X185662500Y-96775000I237500J0D01*
G01*
X186237500Y-96775000D01*
G75*
G02*
X186475000Y-97012500I0J-237500D01*
G01*
G37*
%TD.AperFunction*%
%TO.P,R6,1*%
%TO.N,Net-(R5-Pad1)*%
%TA.AperFunction,SMDPad,CuDef*%
G36*
G01*
X188225000Y-97012500D02*
X188225000Y-97487500D01*
G75*
G02*
X187987500Y-97725000I-237500J0D01*
G01*
X187412500Y-97725000D01*
G75*
G02*
X187175000Y-97487500I0J237500D01*
G01*
X187175000Y-97012500D01*
G75*
G02*
X187412500Y-96775000I237500J0D01*
G01*
X187987500Y-96775000D01*
G75*
G02*
X188225000Y-97012500I0J-237500D01*
G01*
G37*
%TD.AperFunction*%
%TD*%
D17*
%TO.P,J6,2*%
%TO.N,SDA*%
X224150000Y-102040000D03*
D10*
%TO.P,J6,1*%
%TO.N,SCL*%
X224150000Y-99500000D03*
%TD*%
D17*
%TO.P,J4,6*%
%TO.N,Net-(J4-Pad6)*%
X223270000Y-124850000D03*
%TO.P,J4,5*%
%TO.N,PGEC*%
X220730000Y-124850000D03*
%TO.P,J4,4*%
%TO.N,PGED*%
X218190000Y-124850000D03*
%TO.P,J4,3*%
%TO.N,GND*%
X215650000Y-124850000D03*
%TO.P,J4,2*%
%TO.N,+3V3*%
X213110000Y-124850000D03*
D10*
%TO.P,J4,1*%
%TO.N,RESET*%
X210570000Y-124850000D03*
%TD*%
D17*
%TO.P,J3,3*%
%TO.N,PORT3_IO*%
X192780000Y-121300000D03*
%TO.P,J3,2*%
%TO.N,PRI_LO*%
X190240000Y-121300000D03*
D10*
%TO.P,J3,1*%
%TO.N,PRI_HI*%
X187700000Y-121300000D03*
%TD*%
D17*
%TO.P,J2,3*%
%TO.N,PORT2_IO*%
X192790000Y-124950000D03*
%TO.P,J2,2*%
%TO.N,PRI_LO*%
X190250000Y-124950000D03*
D10*
%TO.P,J2,1*%
%TO.N,PRI_HI*%
X187710000Y-124950000D03*
%TD*%
D17*
%TO.P,J1,3*%
%TO.N,PORT1_IO*%
X192780000Y-128600000D03*
%TO.P,J1,2*%
%TO.N,PRI_LO*%
X190240000Y-128600000D03*
D10*
%TO.P,J1,1*%
%TO.N,PRI_HI*%
X187700000Y-128600000D03*
%TD*%
D18*
%TO.P,D7,3*%
%TO.N,GND*%
X234900000Y-116600000D03*
%TO.P,D7,4*%
%TO.N,Net-(D10-Pad4)*%
X234900000Y-119800000D03*
%TO.P,D7,2*%
%TO.N,Net-(D7-Pad2)*%
X239800000Y-116600000D03*
%TO.P,D7,1*%
%TO.N,+5V*%
X239800000Y-119800000D03*
%TD*%
%TO.P,D6,1*%
%TO.N,+5V*%
X239800000Y-112625000D03*
%TO.P,D6,2*%
%TO.N,Net-(D6-Pad2)*%
X239800000Y-109425000D03*
%TO.P,D6,4*%
%TO.N,Net-(D10-Pad4)*%
X234900000Y-112625000D03*
%TO.P,D6,3*%
%TO.N,GND*%
X234900000Y-109425000D03*
%TD*%
%TO.P,D5,3*%
%TO.N,GND*%
X234900000Y-102250000D03*
%TO.P,D5,4*%
%TO.N,Net-(D10-Pad4)*%
X234900000Y-105450000D03*
%TO.P,D5,2*%
%TO.N,Net-(D5-Pad2)*%
X239800000Y-102250000D03*
%TO.P,D5,1*%
%TO.N,+5V*%
X239800000Y-105450000D03*
%TD*%
D19*
%TO.P,D4,2*%
%TO.N,PRI_LO*%
X192500000Y-108850000D03*
%TO.P,D4,1*%
%TO.N,+VDC*%
X192500000Y-104850000D03*
%TD*%
%TO.P,D3,1*%
%TO.N,+VDC*%
X185850000Y-104850000D03*
%TO.P,D3,2*%
%TO.N,PRI_HI*%
X185850000Y-108850000D03*
%TD*%
%TO.P,D2,2*%
%TO.N,GND*%
X192500000Y-116400000D03*
%TO.P,D2,1*%
%TO.N,PRI_LO*%
X192500000Y-112400000D03*
%TD*%
%TO.P,D1,2*%
%TO.N,GND*%
X185700000Y-116400000D03*
%TO.P,D1,1*%
%TO.N,PRI_HI*%
X185700000Y-112400000D03*
%TD*%
%TO.P,C11,2*%
%TO.N,GND*%
%TA.AperFunction,SMDPad,CuDef*%
G36*
G01*
X208512500Y-99525000D02*
X208987500Y-99525000D01*
G75*
G02*
X209225000Y-99762500I0J-237500D01*
G01*
X209225000Y-100337500D01*
G75*
G02*
X208987500Y-100575000I-237500J0D01*
G01*
X208512500Y-100575000D01*
G75*
G02*
X208275000Y-100337500I0J237500D01*
G01*
X208275000Y-99762500D01*
G75*
G02*
X208512500Y-99525000I237500J0D01*
G01*
G37*
%TD.AperFunction*%
%TO.P,C11,1*%
%TO.N,+3V3*%
%TA.AperFunction,SMDPad,CuDef*%
G36*
G01*
X208512500Y-97775000D02*
X208987500Y-97775000D01*
G75*
G02*
X209225000Y-98012500I0J-237500D01*
G01*
X209225000Y-98587500D01*
G75*
G02*
X208987500Y-98825000I-237500J0D01*
G01*
X208512500Y-98825000D01*
G75*
G02*
X208275000Y-98587500I0J237500D01*
G01*
X208275000Y-98012500D01*
G75*
G02*
X208512500Y-97775000I237500J0D01*
G01*
G37*
%TD.AperFunction*%
%TD*%
D20*
%TO.N,Net-(C1-Pad2)*%
X215314100Y-104622000D03*
%TO.N,GND*%
X216618800Y-104620400D03*
%TO.N,Net-(C3-Pad2)*%
X185214200Y-100194800D03*
%TO.N,Net-(C3-Pad1)*%
X187572300Y-102913800D03*
%TO.N,+5V*%
X194895600Y-96434600D03*
%TO.N,+VDC*%
X190180200Y-103262100D03*
%TO.N,PORT1_IO*%
X197552900Y-122750000D03*
X213151700Y-110078300D03*
%TO.N,PORT2_IO*%
X213971600Y-109464700D03*
%TO.N,PGEC*%
X209389700Y-116577000D03*
%TO.N,PGED*%
X209397100Y-114900000D03*
%TO.N,RESET*%
X207832600Y-112802900D03*
%TO.N,Net-(R4-Pad1)*%
X184990100Y-98244700D03*
%TO.N,Net-(R5-Pad1)*%
X188369500Y-100209500D03*
%TO.N,PORT2_SEL*%
X200384900Y-125414900D03*
X212128600Y-110095600D03*
%TO.N,PORT1_SEL*%
X215321400Y-119320100D03*
X218846000Y-104548700D03*
%TD*%
D21*
%TO.N,Net-(C1-Pad2)*%
X215650000Y-106000000D02*
X215650000Y-104924700D01*
X215650000Y-104924700D02*
X215616800Y-104924700D01*
X215616800Y-104924700D02*
X215314100Y-104622000D01*
%TO.N,GND*%
X189026600Y-116400000D02*
X189026600Y-125443200D01*
X189026600Y-125443200D02*
X190233400Y-126650000D01*
X190233400Y-126650000D02*
X198937500Y-126650000D01*
X198937500Y-126650000D02*
X199955500Y-127668000D01*
X199955500Y-127668000D02*
X212024000Y-127668000D01*
X212024000Y-127668000D02*
X214474700Y-125217300D01*
X214474700Y-125217300D02*
X214474700Y-124850000D01*
X215650000Y-124850000D02*
X214474700Y-124850000D01*
X211405000Y-102705000D02*
X207550300Y-106559700D01*
X207550300Y-106559700D02*
X207550300Y-108950000D01*
X216450000Y-106000000D02*
X216450000Y-104789200D01*
X216450000Y-104789200D02*
X216618800Y-104620400D01*
X206375000Y-108950000D02*
X207550300Y-108950000D01*
X200075000Y-108950000D02*
X206375000Y-108950000D01*
X211405000Y-102705000D02*
X214325000Y-102705000D01*
X208750000Y-100050000D02*
X211405000Y-102705000D01*
X189026600Y-116400000D02*
X189874900Y-116400000D01*
X185700000Y-116400000D02*
X189026600Y-116400000D01*
X189874900Y-116400000D02*
X192500000Y-116400000D01*
X189874900Y-116400000D02*
X189874900Y-107237500D01*
X189874900Y-107237500D02*
X197187200Y-107237500D01*
X197187200Y-107237500D02*
X198899700Y-108950000D01*
X185850000Y-102155300D02*
X184587200Y-103418100D01*
X184587200Y-103418100D02*
X184587200Y-106200100D01*
X184587200Y-106200100D02*
X185624600Y-107237500D01*
X185624600Y-107237500D02*
X189874900Y-107237500D01*
X200075000Y-108950000D02*
X198899700Y-108950000D01*
X185850000Y-101300000D02*
X185850000Y-102155300D01*
X220900700Y-116324700D02*
X221074700Y-116150700D01*
X221074700Y-116150700D02*
X221074700Y-111700000D01*
X217250000Y-116324700D02*
X220900700Y-116324700D01*
X220900700Y-116324700D02*
X221649700Y-117073700D01*
X221649700Y-117073700D02*
X221649700Y-120400000D01*
X217250000Y-117400000D02*
X217250000Y-116324700D01*
X222300000Y-120400000D02*
X221649700Y-120400000D01*
X222150000Y-111700000D02*
X221074700Y-111700000D01*
X231549700Y-111700000D02*
X222150000Y-111700000D01*
X206055600Y-99200000D02*
X207900000Y-99200000D01*
X207900000Y-99200000D02*
X208750000Y-100050000D01*
X206055600Y-99200000D02*
X206055600Y-97799700D01*
X206055600Y-97799700D02*
X206437100Y-97418200D01*
X206437100Y-97418200D02*
X228992900Y-97418200D01*
X228992900Y-97418200D02*
X233824700Y-102250000D01*
X234900000Y-116600000D02*
X233824700Y-116600000D01*
X233824700Y-109425000D02*
X231549700Y-111700000D01*
X233824700Y-116600000D02*
X233824700Y-113975000D01*
X233824700Y-113975000D02*
X231549700Y-111700000D01*
X233824700Y-102250000D02*
X233824700Y-109425000D01*
X234900000Y-109425000D02*
X233824700Y-109425000D01*
X204750000Y-99200000D02*
X206055600Y-99200000D01*
X234900000Y-102250000D02*
X233824700Y-102250000D01*
%TO.N,+3V3*%
X213110000Y-122750000D02*
X214260500Y-121599500D01*
X214260500Y-121599500D02*
X216450000Y-121599500D01*
X213110000Y-123674700D02*
X213110000Y-122750000D01*
X213110000Y-122750000D02*
X204662500Y-122750000D01*
X213110000Y-124850000D02*
X213110000Y-123674700D01*
X216450000Y-121599500D02*
X222776700Y-121599500D01*
X222776700Y-121599500D02*
X223549700Y-120826500D01*
X223549700Y-120826500D02*
X223549700Y-120400000D01*
X216450000Y-121599500D02*
X216450000Y-118475300D01*
X216450000Y-117400000D02*
X216450000Y-118475300D01*
X206950000Y-98250000D02*
X207805300Y-98250000D01*
X208750000Y-98300000D02*
X207855300Y-98300000D01*
X207855300Y-98300000D02*
X207805300Y-98250000D01*
X214325000Y-98895000D02*
X213730000Y-98300000D01*
X213730000Y-98300000D02*
X208750000Y-98300000D01*
X222784500Y-119750000D02*
X222899700Y-119750000D01*
X222899700Y-119750000D02*
X223549700Y-120400000D01*
X221074700Y-110900000D02*
X216450000Y-115524700D01*
X216450000Y-115524700D02*
X216450000Y-116324700D01*
X224200000Y-120400000D02*
X223549700Y-120400000D01*
X222300000Y-119750000D02*
X222784500Y-119750000D01*
X216450000Y-117400000D02*
X216450000Y-116324700D01*
X222150000Y-110900000D02*
X221074700Y-110900000D01*
X222150000Y-110900000D02*
X223225300Y-110900000D01*
X223225300Y-110900000D02*
X225817500Y-108307800D01*
X225817500Y-108307800D02*
X225817500Y-98994200D01*
X225817500Y-98994200D02*
X225147900Y-98324600D01*
X225147900Y-98324600D02*
X219845400Y-98324600D01*
X219845400Y-98324600D02*
X219275000Y-98895000D01*
X219275000Y-98895000D02*
X214325000Y-98895000D01*
X214325000Y-100165000D02*
X214325000Y-98895000D01*
X214325000Y-100165000D02*
X214325000Y-101435000D01*
%TO.N,Net-(C3-Pad2)*%
X185850000Y-99100000D02*
X185850000Y-99955300D01*
X185850000Y-99955300D02*
X185453700Y-99955300D01*
X185453700Y-99955300D02*
X185214200Y-100194800D01*
%TO.N,Net-(C3-Pad1)*%
X186800000Y-101300000D02*
X186800000Y-102155300D01*
X186800000Y-102155300D02*
X186813800Y-102155300D01*
X186813800Y-102155300D02*
X187572300Y-102913800D01*
%TO.N,+5V*%
X238724700Y-105450000D02*
X238724700Y-112625000D01*
X205605300Y-98250000D02*
X205605300Y-97599700D01*
X205605300Y-97599700D02*
X206237700Y-96967300D01*
X206237700Y-96967300D02*
X231345800Y-96967300D01*
X231345800Y-96967300D02*
X238724700Y-104346200D01*
X238724700Y-104346200D02*
X238724700Y-105450000D01*
X239800000Y-112625000D02*
X238724700Y-112625000D01*
X238724700Y-112625000D02*
X238724700Y-119800000D01*
X238724700Y-119800000D02*
X236624900Y-121899800D01*
X236624900Y-121899800D02*
X227437900Y-121899800D01*
X227437900Y-121899800D02*
X227050000Y-121511900D01*
X227050000Y-121511900D02*
X227050000Y-120590900D01*
X227050000Y-120590900D02*
X226209100Y-119750000D01*
X226209100Y-119750000D02*
X224200000Y-119750000D01*
X239800000Y-119800000D02*
X238724700Y-119800000D01*
X194895600Y-96434600D02*
X202079300Y-96434600D01*
X202079300Y-96434600D02*
X203894700Y-98250000D01*
X185950000Y-97250000D02*
X186765400Y-96434600D01*
X186765400Y-96434600D02*
X194895600Y-96434600D01*
X204750000Y-98250000D02*
X205605300Y-98250000D01*
X204750000Y-98250000D02*
X203894700Y-98250000D01*
X203894700Y-98250000D02*
X203894700Y-100150000D01*
X204750000Y-100150000D02*
X203894700Y-100150000D01*
X239800000Y-105450000D02*
X238724700Y-105450000D01*
%TO.N,+VDC*%
X190180200Y-103262100D02*
X191274700Y-104356600D01*
X191274700Y-104356600D02*
X191274700Y-104850000D01*
X188815000Y-103110300D02*
X190028400Y-103110300D01*
X190028400Y-103110300D02*
X190180200Y-103262100D01*
X187075300Y-104850000D02*
X188815000Y-103110300D01*
X188815000Y-103110300D02*
X187860000Y-102155300D01*
X187860000Y-102155300D02*
X187750000Y-102155300D01*
X192500000Y-104850000D02*
X191274700Y-104850000D01*
X185850000Y-104850000D02*
X187075300Y-104850000D01*
X187750000Y-101300000D02*
X187750000Y-102155300D01*
%TO.N,PRI_HI*%
X185700000Y-112400000D02*
X184474700Y-112400000D01*
X184474700Y-112400000D02*
X184474700Y-117854300D01*
X184474700Y-117854300D02*
X186745100Y-120124700D01*
X186745100Y-120124700D02*
X187700000Y-120124700D01*
X185850000Y-110425300D02*
X185700000Y-110575300D01*
X185700000Y-110575300D02*
X185700000Y-112400000D01*
X187700000Y-121300000D02*
X187700000Y-120124700D01*
X185850000Y-108850000D02*
X185850000Y-110425300D01*
%TO.N,PRI_LO*%
X192500000Y-112400000D02*
X193725300Y-112400000D01*
X193725300Y-112400000D02*
X193725300Y-117814700D01*
X193725300Y-117814700D02*
X191415300Y-120124700D01*
X191415300Y-120124700D02*
X190240000Y-120124700D01*
X192500000Y-108850000D02*
X192500000Y-112400000D01*
X190240000Y-121300000D02*
X190240000Y-120124700D01*
%TO.N,Net-(D10-Pad4)*%
X235919000Y-112625000D02*
X235975300Y-112568700D01*
X235975300Y-112568700D02*
X235975300Y-105450000D01*
X235862700Y-112625000D02*
X235919000Y-112625000D01*
X235919000Y-112625000D02*
X235975300Y-112681300D01*
X235975300Y-112681300D02*
X235975300Y-119800000D01*
X234900000Y-119800000D02*
X235975300Y-119800000D01*
X227925000Y-121050000D02*
X229175000Y-119800000D01*
X229175000Y-119800000D02*
X234900000Y-119800000D01*
X234900000Y-112625000D02*
X235862700Y-112625000D01*
X234900000Y-105450000D02*
X235975300Y-105450000D01*
%TO.N,PORT1_IO*%
X222150000Y-108500000D02*
X218097600Y-108500000D01*
X218097600Y-108500000D02*
X217858200Y-108739400D01*
X217858200Y-108739400D02*
X213671200Y-108739400D01*
X213671200Y-108739400D02*
X213151800Y-109258800D01*
X213151800Y-109258800D02*
X213151800Y-110078300D01*
X213151800Y-110078300D02*
X213151700Y-110078300D01*
X197552900Y-122750000D02*
X198937500Y-122750000D01*
%TO.N,PORT2_IO*%
X222150000Y-109300000D02*
X221074700Y-109300000D01*
X213971600Y-109464700D02*
X220910000Y-109464700D01*
X220910000Y-109464700D02*
X221074700Y-109300000D01*
X192790000Y-124950000D02*
X193965300Y-124950000D01*
X193965300Y-124950000D02*
X194865300Y-124050000D01*
X194865300Y-124050000D02*
X198937500Y-124050000D01*
%TO.N,PORT3_IO*%
X198838100Y-121300000D02*
X198838100Y-120142900D01*
X198838100Y-120142900D02*
X202239500Y-116741500D01*
X202239500Y-116741500D02*
X208528500Y-116741500D01*
X208528500Y-116741500D02*
X209089300Y-117302300D01*
X209089300Y-117302300D02*
X210633500Y-117302300D01*
X210633500Y-117302300D02*
X217835800Y-110100000D01*
X217835800Y-110100000D02*
X222150000Y-110100000D01*
X198838100Y-121300000D02*
X200480200Y-122942100D01*
X200480200Y-122942100D02*
X200480200Y-123198600D01*
X200480200Y-123198600D02*
X203931600Y-126650000D01*
X203931600Y-126650000D02*
X204662500Y-126650000D01*
X192780000Y-121300000D02*
X198838100Y-121300000D01*
%TO.N,PGEC*%
X210750000Y-115700000D02*
X209674700Y-115700000D01*
X209389700Y-116577000D02*
X209674700Y-116292000D01*
X209674700Y-116292000D02*
X209674700Y-115700000D01*
%TO.N,PGED*%
X210750000Y-114900000D02*
X209397100Y-114900000D01*
%TO.N,RESET*%
X210750000Y-112500000D02*
X208135500Y-112500000D01*
X208135500Y-112500000D02*
X207832600Y-112802900D01*
X200075000Y-112750000D02*
X206375000Y-112750000D01*
X206375000Y-112750000D02*
X207550300Y-112750000D01*
X207832600Y-112802900D02*
X207603200Y-112802900D01*
X207603200Y-112802900D02*
X207550300Y-112750000D01*
%TO.N,IO_COM*%
X203250000Y-117950000D02*
X203250000Y-119125300D01*
X204662500Y-126000000D02*
X203918500Y-126000000D01*
X203918500Y-126000000D02*
X203082000Y-125163500D01*
X203082000Y-125163500D02*
X203082000Y-119293300D01*
X203082000Y-119293300D02*
X203250000Y-119125300D01*
X200029800Y-124378000D02*
X200373800Y-124378000D01*
X200373800Y-124378000D02*
X203180400Y-127184600D01*
X203180400Y-127184600D02*
X205485800Y-127184600D01*
X205485800Y-127184600D02*
X205754800Y-126915600D01*
X205754800Y-126915600D02*
X205754800Y-126394800D01*
X205754800Y-126394800D02*
X205360000Y-126000000D01*
X205360000Y-126000000D02*
X204662500Y-126000000D01*
X203250000Y-117950000D02*
X204425300Y-117950000D01*
X214050000Y-118475300D02*
X204950600Y-118475300D01*
X204950600Y-118475300D02*
X204425300Y-117950000D01*
X214050000Y-118362700D02*
X214050000Y-118475300D01*
X214050000Y-118475300D02*
X214850000Y-118475300D01*
X200029800Y-124378000D02*
X199707800Y-124700000D01*
X199707800Y-124700000D02*
X198937500Y-124700000D01*
X198937500Y-123400000D02*
X199635000Y-123400000D01*
X199635000Y-123400000D02*
X200029800Y-123794800D01*
X200029800Y-123794800D02*
X200029800Y-124378000D01*
X214050000Y-117400000D02*
X214050000Y-118362700D01*
X214850000Y-117400000D02*
X214850000Y-118475300D01*
%TO.N,SDA*%
X220450000Y-102705000D02*
X219275000Y-102705000D01*
X222974700Y-102040000D02*
X222309700Y-102705000D01*
X222309700Y-102705000D02*
X220450000Y-102705000D01*
X220450000Y-104924700D02*
X220450000Y-102705000D01*
X220450000Y-106000000D02*
X220450000Y-104924700D01*
X224150000Y-102040000D02*
X222974700Y-102040000D01*
%TO.N,SCL*%
X224150000Y-100675300D02*
X224517400Y-100675300D01*
X224517400Y-100675300D02*
X225325300Y-101483200D01*
X225325300Y-101483200D02*
X225325300Y-105600000D01*
X225325300Y-105600000D02*
X223225300Y-107700000D01*
X224150000Y-99500000D02*
X224150000Y-100675300D01*
X222150000Y-107700000D02*
X223225300Y-107700000D01*
X224150000Y-99500000D02*
X222974700Y-99500000D01*
X222974700Y-99500000D02*
X221039700Y-101435000D01*
X221039700Y-101435000D02*
X219275000Y-101435000D01*
%TO.N,Net-(R4-Pad1)*%
X184990100Y-98244700D02*
X186800000Y-98244700D01*
X186800000Y-99100000D02*
X186800000Y-98244700D01*
%TO.N,Net-(R5-Pad1)*%
X187700000Y-97250000D02*
X187750000Y-97300000D01*
X187750000Y-97300000D02*
X187750000Y-99100000D01*
X187750000Y-99955300D02*
X188115300Y-99955300D01*
X188115300Y-99955300D02*
X188369500Y-100209500D01*
X187750000Y-99100000D02*
X187750000Y-99955300D01*
%TO.N,Net-(R7-Pad2)*%
X226175000Y-121050000D02*
X224200000Y-121050000D01*
%TO.N,PWM_OUT*%
X222300000Y-121050000D02*
X221649700Y-121050000D01*
X219650000Y-117400000D02*
X219650000Y-119050300D01*
X219650000Y-119050300D02*
X221649700Y-121050000D01*
%TO.N,FRAM_WP*%
X219275000Y-100165000D02*
X218689700Y-100165000D01*
X218689700Y-100165000D02*
X214050000Y-104804700D01*
X214050000Y-104804700D02*
X214050000Y-104924700D01*
X214050000Y-106000000D02*
X214050000Y-104924700D01*
%TO.N,PORT3_SEL*%
X218050000Y-106000000D02*
X218050000Y-107075300D01*
X218050000Y-107075300D02*
X209844900Y-107075300D01*
X209844900Y-107075300D02*
X208771700Y-108148500D01*
X208771700Y-108148500D02*
X208771700Y-108400500D01*
X208771700Y-108400500D02*
X206322200Y-110850000D01*
X206322200Y-110850000D02*
X200163300Y-110850000D01*
X200163300Y-110850000D02*
X195483000Y-115530300D01*
X195483000Y-115530300D02*
X195483000Y-116709500D01*
X195483000Y-116709500D02*
X191598700Y-120593800D01*
X191598700Y-120593800D02*
X191598700Y-125508100D01*
X191598700Y-125508100D02*
X192216000Y-126125400D01*
X192216000Y-126125400D02*
X195474600Y-126125400D01*
X195474600Y-126125400D02*
X195600000Y-126000000D01*
X195600000Y-126000000D02*
X198937500Y-126000000D01*
%TO.N,PORT2_SEL*%
X218850000Y-107075300D02*
X217636200Y-108289100D01*
X217636200Y-108289100D02*
X213484600Y-108289100D01*
X213484600Y-108289100D02*
X212128600Y-109645100D01*
X212128600Y-109645100D02*
X212128600Y-110095600D01*
X218850000Y-106000000D02*
X218850000Y-107075300D01*
X200384900Y-125414900D02*
X199002400Y-125414900D01*
X199002400Y-125414900D02*
X198937500Y-125350000D01*
%TO.N,PORT1_SEL*%
X219650000Y-104924700D02*
X219222000Y-104924700D01*
X219222000Y-104924700D02*
X218846000Y-104548700D01*
X219650000Y-106000000D02*
X219650000Y-104924700D01*
X215321400Y-119320100D02*
X206746500Y-119320100D01*
X206746500Y-119320100D02*
X203591000Y-122475600D01*
X203591000Y-122475600D02*
X203591000Y-123050700D01*
X203591000Y-123050700D02*
X203940300Y-123400000D01*
X203940300Y-123400000D02*
X204662500Y-123400000D01*
%TD*%
D22*
%TO.N,GND*%
G36*
X245765000Y-130715000D02*
G01*
X182135000Y-130715000D01*
X182135000Y-127750000D01*
X186211928Y-127750000D01*
X186211928Y-129450000D01*
X186224188Y-129574482D01*
X186260498Y-129694180D01*
X186319463Y-129804494D01*
X186398815Y-129901185D01*
X186495506Y-129980537D01*
X186605820Y-130039502D01*
X186725518Y-130075812D01*
X186850000Y-130088072D01*
X188550000Y-130088072D01*
X188674482Y-130075812D01*
X188794180Y-130039502D01*
X188904494Y-129980537D01*
X189001185Y-129901185D01*
X189080537Y-129804494D01*
X189139502Y-129694180D01*
X189161513Y-129621620D01*
X189293368Y-129753475D01*
X189536589Y-129915990D01*
X189806842Y-130027932D01*
X190093740Y-130085000D01*
X190386260Y-130085000D01*
X190673158Y-130027932D01*
X190943411Y-129915990D01*
X191186632Y-129753475D01*
X191393475Y-129546632D01*
X191510000Y-129372240D01*
X191626525Y-129546632D01*
X191833368Y-129753475D01*
X192076589Y-129915990D01*
X192346842Y-130027932D01*
X192633740Y-130085000D01*
X192926260Y-130085000D01*
X193213158Y-130027932D01*
X193483411Y-129915990D01*
X193726632Y-129753475D01*
X193933475Y-129546632D01*
X194095990Y-129303411D01*
X194207932Y-129033158D01*
X194265000Y-128746260D01*
X194265000Y-128453740D01*
X194207932Y-128166842D01*
X194095990Y-127896589D01*
X193933475Y-127653368D01*
X193726632Y-127446525D01*
X193483411Y-127284010D01*
X193213158Y-127172068D01*
X192926260Y-127115000D01*
X192633740Y-127115000D01*
X192346842Y-127172068D01*
X192076589Y-127284010D01*
X191833368Y-127446525D01*
X191626525Y-127653368D01*
X191510000Y-127827760D01*
X191393475Y-127653368D01*
X191186632Y-127446525D01*
X190943411Y-127284010D01*
X190673158Y-127172068D01*
X190386260Y-127115000D01*
X190093740Y-127115000D01*
X189806842Y-127172068D01*
X189536589Y-127284010D01*
X189293368Y-127446525D01*
X189161513Y-127578380D01*
X189139502Y-127505820D01*
X189080537Y-127395506D01*
X189001185Y-127298815D01*
X188904494Y-127219463D01*
X188794180Y-127160498D01*
X188674482Y-127124188D01*
X188550000Y-127111928D01*
X186850000Y-127111928D01*
X186725518Y-127124188D01*
X186605820Y-127160498D01*
X186495506Y-127219463D01*
X186398815Y-127298815D01*
X186319463Y-127395506D01*
X186260498Y-127505820D01*
X186224188Y-127625518D01*
X186211928Y-127750000D01*
X182135000Y-127750000D01*
X182135000Y-112400000D01*
X183711023Y-112400000D01*
X183714700Y-112437333D01*
X183714701Y-117816968D01*
X183711024Y-117854300D01*
X183714701Y-117891633D01*
X183725698Y-118003286D01*
X183735310Y-118034974D01*
X183769154Y-118146546D01*
X183839726Y-118278576D01*
X183894038Y-118344754D01*
X183934700Y-118394301D01*
X183963698Y-118418099D01*
X186181305Y-120635708D01*
X186205099Y-120664701D01*
X186211928Y-120670305D01*
X186211928Y-122150000D01*
X186224188Y-122274482D01*
X186260498Y-122394180D01*
X186319463Y-122504494D01*
X186398815Y-122601185D01*
X186495506Y-122680537D01*
X186605820Y-122739502D01*
X186725518Y-122775812D01*
X186850000Y-122788072D01*
X188550000Y-122788072D01*
X188674482Y-122775812D01*
X188794180Y-122739502D01*
X188904494Y-122680537D01*
X189001185Y-122601185D01*
X189080537Y-122504494D01*
X189139502Y-122394180D01*
X189161513Y-122321620D01*
X189293368Y-122453475D01*
X189536589Y-122615990D01*
X189806842Y-122727932D01*
X190093740Y-122785000D01*
X190386260Y-122785000D01*
X190673158Y-122727932D01*
X190838700Y-122659362D01*
X190838701Y-123586496D01*
X190683158Y-123522068D01*
X190396260Y-123465000D01*
X190103740Y-123465000D01*
X189816842Y-123522068D01*
X189546589Y-123634010D01*
X189303368Y-123796525D01*
X189171513Y-123928380D01*
X189149502Y-123855820D01*
X189090537Y-123745506D01*
X189011185Y-123648815D01*
X188914494Y-123569463D01*
X188804180Y-123510498D01*
X188684482Y-123474188D01*
X188560000Y-123461928D01*
X186860000Y-123461928D01*
X186735518Y-123474188D01*
X186615820Y-123510498D01*
X186505506Y-123569463D01*
X186408815Y-123648815D01*
X186329463Y-123745506D01*
X186270498Y-123855820D01*
X186234188Y-123975518D01*
X186221928Y-124100000D01*
X186221928Y-125800000D01*
X186234188Y-125924482D01*
X186270498Y-126044180D01*
X186329463Y-126154494D01*
X186408815Y-126251185D01*
X186505506Y-126330537D01*
X186615820Y-126389502D01*
X186735518Y-126425812D01*
X186860000Y-126438072D01*
X188560000Y-126438072D01*
X188684482Y-126425812D01*
X188804180Y-126389502D01*
X188914494Y-126330537D01*
X189011185Y-126251185D01*
X189090537Y-126154494D01*
X189149502Y-126044180D01*
X189171513Y-125971620D01*
X189303368Y-126103475D01*
X189546589Y-126265990D01*
X189816842Y-126377932D01*
X190103740Y-126435000D01*
X190396260Y-126435000D01*
X190683158Y-126377932D01*
X190953411Y-126265990D01*
X191150259Y-126134460D01*
X191652200Y-126636402D01*
X191675999Y-126665401D01*
X191704997Y-126689199D01*
X191791723Y-126760374D01*
X191901546Y-126819076D01*
X191923753Y-126830946D01*
X192067014Y-126874403D01*
X192178667Y-126885400D01*
X192178676Y-126885400D01*
X192215999Y-126889076D01*
X192253322Y-126885400D01*
X195437278Y-126885400D01*
X195474600Y-126889076D01*
X195511922Y-126885400D01*
X195511933Y-126885400D01*
X195623586Y-126874403D01*
X195766847Y-126830946D01*
X195898876Y-126760374D01*
X195899332Y-126760000D01*
X197565000Y-126760000D01*
X197565000Y-126777002D01*
X197669748Y-126777002D01*
X197565000Y-126881750D01*
X197576132Y-126983883D01*
X197614239Y-127103021D01*
X197674856Y-127212436D01*
X197755654Y-127307922D01*
X197853529Y-127385811D01*
X197964718Y-127443109D01*
X198084948Y-127477614D01*
X198209600Y-127488000D01*
X198651750Y-127485000D01*
X198810500Y-127326250D01*
X198810500Y-126838072D01*
X199064500Y-126838072D01*
X199064500Y-127326250D01*
X199223250Y-127485000D01*
X199665400Y-127488000D01*
X199790052Y-127477614D01*
X199910282Y-127443109D01*
X200021471Y-127385811D01*
X200119346Y-127307922D01*
X200200144Y-127212436D01*
X200260761Y-127103021D01*
X200298868Y-126983883D01*
X200310000Y-126881750D01*
X200151250Y-126723000D01*
X199967622Y-126723000D01*
X199985051Y-126713684D01*
X200096896Y-126621896D01*
X200133741Y-126577000D01*
X200151250Y-126577000D01*
X200279115Y-126449135D01*
X200282961Y-126449900D01*
X200486839Y-126449900D01*
X200686798Y-126410126D01*
X200875156Y-126332105D01*
X201044674Y-126218837D01*
X201092255Y-126171256D01*
X202616601Y-127695603D01*
X202640399Y-127724601D01*
X202756124Y-127819574D01*
X202888153Y-127890146D01*
X203031414Y-127933603D01*
X203143067Y-127944600D01*
X203143075Y-127944600D01*
X203180400Y-127948276D01*
X203217725Y-127944600D01*
X205448478Y-127944600D01*
X205485800Y-127948276D01*
X205523122Y-127944600D01*
X205523133Y-127944600D01*
X205634786Y-127933603D01*
X205778047Y-127890146D01*
X205910076Y-127819574D01*
X206025801Y-127724601D01*
X206049603Y-127695598D01*
X206265803Y-127479399D01*
X206294801Y-127455601D01*
X206389774Y-127339876D01*
X206460346Y-127207847D01*
X206503803Y-127064586D01*
X206514800Y-126952933D01*
X206514800Y-126952924D01*
X206518476Y-126915601D01*
X206514800Y-126878278D01*
X206514800Y-126432133D01*
X206518477Y-126394800D01*
X206503803Y-126245814D01*
X206460346Y-126102553D01*
X206439570Y-126063684D01*
X206389774Y-125970524D01*
X206294801Y-125854799D01*
X206265797Y-125830996D01*
X206024330Y-125589529D01*
X206038072Y-125450000D01*
X206038072Y-125250000D01*
X206023890Y-125106009D01*
X205999316Y-125025000D01*
X206023890Y-124943991D01*
X206038072Y-124800000D01*
X206038072Y-124600000D01*
X206023890Y-124456009D01*
X205999316Y-124375000D01*
X206023890Y-124293991D01*
X206038072Y-124150000D01*
X206038072Y-123950000D01*
X206023890Y-123806009D01*
X205999316Y-123725000D01*
X206023890Y-123643991D01*
X206037087Y-123510000D01*
X209316111Y-123510000D01*
X209268815Y-123548815D01*
X209189463Y-123645506D01*
X209130498Y-123755820D01*
X209094188Y-123875518D01*
X209081928Y-124000000D01*
X209081928Y-125700000D01*
X209094188Y-125824482D01*
X209130498Y-125944180D01*
X209189463Y-126054494D01*
X209268815Y-126151185D01*
X209365506Y-126230537D01*
X209475820Y-126289502D01*
X209595518Y-126325812D01*
X209720000Y-126338072D01*
X211420000Y-126338072D01*
X211544482Y-126325812D01*
X211664180Y-126289502D01*
X211774494Y-126230537D01*
X211871185Y-126151185D01*
X211950537Y-126054494D01*
X212009502Y-125944180D01*
X212031513Y-125871620D01*
X212163368Y-126003475D01*
X212406589Y-126165990D01*
X212676842Y-126277932D01*
X212963740Y-126335000D01*
X213256260Y-126335000D01*
X213543158Y-126277932D01*
X213813411Y-126165990D01*
X214056632Y-126003475D01*
X214263475Y-125796632D01*
X214385195Y-125614466D01*
X214454822Y-125731355D01*
X214649731Y-125947588D01*
X214883080Y-126121641D01*
X215145901Y-126246825D01*
X215293110Y-126291476D01*
X215523000Y-126170155D01*
X215523000Y-124977000D01*
X215503000Y-124977000D01*
X215503000Y-124723000D01*
X215523000Y-124723000D01*
X215523000Y-123529845D01*
X215777000Y-123529845D01*
X215777000Y-124723000D01*
X215797000Y-124723000D01*
X215797000Y-124977000D01*
X215777000Y-124977000D01*
X215777000Y-126170155D01*
X216006890Y-126291476D01*
X216154099Y-126246825D01*
X216416920Y-126121641D01*
X216650269Y-125947588D01*
X216845178Y-125731355D01*
X216914805Y-125614466D01*
X217036525Y-125796632D01*
X217243368Y-126003475D01*
X217486589Y-126165990D01*
X217756842Y-126277932D01*
X218043740Y-126335000D01*
X218336260Y-126335000D01*
X218623158Y-126277932D01*
X218893411Y-126165990D01*
X219136632Y-126003475D01*
X219343475Y-125796632D01*
X219460000Y-125622240D01*
X219576525Y-125796632D01*
X219783368Y-126003475D01*
X220026589Y-126165990D01*
X220296842Y-126277932D01*
X220583740Y-126335000D01*
X220876260Y-126335000D01*
X221163158Y-126277932D01*
X221433411Y-126165990D01*
X221676632Y-126003475D01*
X221883475Y-125796632D01*
X222000000Y-125622240D01*
X222116525Y-125796632D01*
X222323368Y-126003475D01*
X222566589Y-126165990D01*
X222836842Y-126277932D01*
X223123740Y-126335000D01*
X223416260Y-126335000D01*
X223703158Y-126277932D01*
X223973411Y-126165990D01*
X224216632Y-126003475D01*
X224423475Y-125796632D01*
X224585990Y-125553411D01*
X224697932Y-125283158D01*
X224755000Y-124996260D01*
X224755000Y-124703740D01*
X224697932Y-124416842D01*
X224585990Y-124146589D01*
X224423475Y-123903368D01*
X224216632Y-123696525D01*
X223973411Y-123534010D01*
X223703158Y-123422068D01*
X223416260Y-123365000D01*
X223123740Y-123365000D01*
X222836842Y-123422068D01*
X222566589Y-123534010D01*
X222323368Y-123696525D01*
X222116525Y-123903368D01*
X222000000Y-124077760D01*
X221883475Y-123903368D01*
X221676632Y-123696525D01*
X221433411Y-123534010D01*
X221163158Y-123422068D01*
X220876260Y-123365000D01*
X220583740Y-123365000D01*
X220296842Y-123422068D01*
X220026589Y-123534010D01*
X219783368Y-123696525D01*
X219576525Y-123903368D01*
X219460000Y-124077760D01*
X219343475Y-123903368D01*
X219136632Y-123696525D01*
X218893411Y-123534010D01*
X218623158Y-123422068D01*
X218336260Y-123365000D01*
X218043740Y-123365000D01*
X217756842Y-123422068D01*
X217486589Y-123534010D01*
X217243368Y-123696525D01*
X217036525Y-123903368D01*
X216914805Y-124085534D01*
X216845178Y-123968645D01*
X216650269Y-123752412D01*
X216416920Y-123578359D01*
X216154099Y-123453175D01*
X216006890Y-123408524D01*
X215777000Y-123529845D01*
X215523000Y-123529845D01*
X215293110Y-123408524D01*
X215145901Y-123453175D01*
X214883080Y-123578359D01*
X214649731Y-123752412D01*
X214454822Y-123968645D01*
X214385195Y-124085534D01*
X214263475Y-123903368D01*
X214056632Y-123696525D01*
X213870000Y-123571822D01*
X213870000Y-123064801D01*
X214575302Y-122359500D01*
X216412667Y-122359500D01*
X216450000Y-122363177D01*
X216487333Y-122359500D01*
X222739378Y-122359500D01*
X222776700Y-122363176D01*
X222814022Y-122359500D01*
X222814033Y-122359500D01*
X222925686Y-122348503D01*
X223068947Y-122305046D01*
X223200976Y-122234474D01*
X223316701Y-122139501D01*
X223340503Y-122110498D01*
X223618229Y-121832772D01*
X223630820Y-121839502D01*
X223750518Y-121875812D01*
X223875000Y-121888072D01*
X224525000Y-121888072D01*
X224649482Y-121875812D01*
X224769180Y-121839502D01*
X224824373Y-121810000D01*
X225189080Y-121810000D01*
X225268377Y-121906623D01*
X225401058Y-122015512D01*
X225552433Y-122096423D01*
X225716684Y-122146248D01*
X225887500Y-122163072D01*
X226462500Y-122163072D01*
X226611678Y-122148379D01*
X226874100Y-122410802D01*
X226897899Y-122439801D01*
X227013624Y-122534774D01*
X227145653Y-122605346D01*
X227288914Y-122648803D01*
X227400567Y-122659800D01*
X227400576Y-122659800D01*
X227437899Y-122663476D01*
X227475222Y-122659800D01*
X236587578Y-122659800D01*
X236624900Y-122663476D01*
X236662222Y-122659800D01*
X236662233Y-122659800D01*
X236773886Y-122648803D01*
X236917147Y-122605346D01*
X237049176Y-122534774D01*
X237164901Y-122439801D01*
X237188704Y-122410797D01*
X238743377Y-120856125D01*
X238805820Y-120889502D01*
X238925518Y-120925812D01*
X239050000Y-120938072D01*
X240550000Y-120938072D01*
X240674482Y-120925812D01*
X240794180Y-120889502D01*
X240904494Y-120830537D01*
X241001185Y-120751185D01*
X241080537Y-120654494D01*
X241139502Y-120544180D01*
X241175812Y-120424482D01*
X241188072Y-120300000D01*
X241188072Y-119300000D01*
X241175812Y-119175518D01*
X241139502Y-119055820D01*
X241080537Y-118945506D01*
X241001185Y-118848815D01*
X240904494Y-118769463D01*
X240794180Y-118710498D01*
X240674482Y-118674188D01*
X240550000Y-118661928D01*
X239484700Y-118661928D01*
X239484700Y-117738072D01*
X240550000Y-117738072D01*
X240674482Y-117725812D01*
X240794180Y-117689502D01*
X240904494Y-117630537D01*
X241001185Y-117551185D01*
X241080537Y-117454494D01*
X241139502Y-117344180D01*
X241175812Y-117224482D01*
X241188072Y-117100000D01*
X241188072Y-116100000D01*
X241175812Y-115975518D01*
X241139502Y-115855820D01*
X241080537Y-115745506D01*
X241001185Y-115648815D01*
X240904494Y-115569463D01*
X240794180Y-115510498D01*
X240674482Y-115474188D01*
X240550000Y-115461928D01*
X239484700Y-115461928D01*
X239484700Y-113763072D01*
X240550000Y-113763072D01*
X240674482Y-113750812D01*
X240794180Y-113714502D01*
X240904494Y-113655537D01*
X241001185Y-113576185D01*
X241080537Y-113479494D01*
X241139502Y-113369180D01*
X241175812Y-113249482D01*
X241188072Y-113125000D01*
X241188072Y-112125000D01*
X241175812Y-112000518D01*
X241139502Y-111880820D01*
X241080537Y-111770506D01*
X241001185Y-111673815D01*
X240904494Y-111594463D01*
X240794180Y-111535498D01*
X240674482Y-111499188D01*
X240550000Y-111486928D01*
X239484700Y-111486928D01*
X239484700Y-110563072D01*
X240550000Y-110563072D01*
X240674482Y-110550812D01*
X240794180Y-110514502D01*
X240904494Y-110455537D01*
X241001185Y-110376185D01*
X241080537Y-110279494D01*
X241139502Y-110169180D01*
X241175812Y-110049482D01*
X241188072Y-109925000D01*
X241188072Y-108925000D01*
X241175812Y-108800518D01*
X241139502Y-108680820D01*
X241080537Y-108570506D01*
X241001185Y-108473815D01*
X240904494Y-108394463D01*
X240794180Y-108335498D01*
X240674482Y-108299188D01*
X240550000Y-108286928D01*
X239484700Y-108286928D01*
X239484700Y-106588072D01*
X240550000Y-106588072D01*
X240674482Y-106575812D01*
X240794180Y-106539502D01*
X240904494Y-106480537D01*
X241001185Y-106401185D01*
X241080537Y-106304494D01*
X241139502Y-106194180D01*
X241175812Y-106074482D01*
X241188072Y-105950000D01*
X241188072Y-104950000D01*
X241175812Y-104825518D01*
X241139502Y-104705820D01*
X241080537Y-104595506D01*
X241001185Y-104498815D01*
X240904494Y-104419463D01*
X240794180Y-104360498D01*
X240674482Y-104324188D01*
X240550000Y-104311928D01*
X239485001Y-104311928D01*
X239484700Y-104308876D01*
X239484700Y-104308867D01*
X239473703Y-104197214D01*
X239430246Y-104053953D01*
X239359674Y-103921924D01*
X239320324Y-103873976D01*
X239288499Y-103835196D01*
X239288495Y-103835192D01*
X239264701Y-103806199D01*
X239235709Y-103782406D01*
X238777859Y-103324556D01*
X238805820Y-103339502D01*
X238925518Y-103375812D01*
X239050000Y-103388072D01*
X240550000Y-103388072D01*
X240674482Y-103375812D01*
X240794180Y-103339502D01*
X240904494Y-103280537D01*
X241001185Y-103201185D01*
X241080537Y-103104494D01*
X241139502Y-102994180D01*
X241175812Y-102874482D01*
X241188072Y-102750000D01*
X241188072Y-101750000D01*
X241175812Y-101625518D01*
X241139502Y-101505820D01*
X241080537Y-101395506D01*
X241001185Y-101298815D01*
X240904494Y-101219463D01*
X240794180Y-101160498D01*
X240674482Y-101124188D01*
X240550000Y-101111928D01*
X239050000Y-101111928D01*
X238925518Y-101124188D01*
X238805820Y-101160498D01*
X238695506Y-101219463D01*
X238598815Y-101298815D01*
X238519463Y-101395506D01*
X238460498Y-101505820D01*
X238424188Y-101625518D01*
X238411928Y-101750000D01*
X238411928Y-102750000D01*
X238424188Y-102874482D01*
X238460498Y-102994180D01*
X238475444Y-103022141D01*
X231909604Y-96456303D01*
X231885801Y-96427299D01*
X231770076Y-96332326D01*
X231638047Y-96261754D01*
X231494786Y-96218297D01*
X231383133Y-96207300D01*
X231383122Y-96207300D01*
X231345800Y-96203624D01*
X231308478Y-96207300D01*
X206275025Y-96207300D01*
X206237700Y-96203624D01*
X206200375Y-96207300D01*
X206200367Y-96207300D01*
X206088714Y-96218297D01*
X205945453Y-96261754D01*
X205813424Y-96332326D01*
X205697699Y-96427299D01*
X205673900Y-96456298D01*
X205094298Y-97035901D01*
X205065300Y-97059699D01*
X205041502Y-97088697D01*
X205041501Y-97088698D01*
X204970326Y-97175424D01*
X204936591Y-97238537D01*
X204910725Y-97286928D01*
X204220000Y-97286928D01*
X204095518Y-97299188D01*
X204036571Y-97317069D01*
X202643104Y-95923603D01*
X202619301Y-95894599D01*
X202503576Y-95799626D01*
X202371547Y-95729054D01*
X202228286Y-95685597D01*
X202116633Y-95674600D01*
X202116622Y-95674600D01*
X202079300Y-95670924D01*
X202041978Y-95674600D01*
X195599311Y-95674600D01*
X195555374Y-95630663D01*
X195385856Y-95517395D01*
X195197498Y-95439374D01*
X194997539Y-95399600D01*
X194793661Y-95399600D01*
X194593702Y-95439374D01*
X194405344Y-95517395D01*
X194235826Y-95630663D01*
X194191889Y-95674600D01*
X186802725Y-95674600D01*
X186765400Y-95670924D01*
X186728075Y-95674600D01*
X186728067Y-95674600D01*
X186616414Y-95685597D01*
X186473153Y-95729054D01*
X186341124Y-95799626D01*
X186225399Y-95894599D01*
X186201601Y-95923598D01*
X185988270Y-96136928D01*
X185662500Y-96136928D01*
X185491684Y-96153752D01*
X185327433Y-96203577D01*
X185176058Y-96284488D01*
X185043377Y-96393377D01*
X184934488Y-96526058D01*
X184853577Y-96677433D01*
X184803752Y-96841684D01*
X184786928Y-97012500D01*
X184786928Y-97229836D01*
X184688202Y-97249474D01*
X184499844Y-97327495D01*
X184330326Y-97440763D01*
X184186163Y-97584926D01*
X184072895Y-97754444D01*
X183994874Y-97942802D01*
X183955100Y-98142761D01*
X183955100Y-98346639D01*
X183994874Y-98546598D01*
X184072895Y-98734956D01*
X184186163Y-98904474D01*
X184330326Y-99048637D01*
X184499844Y-99161905D01*
X184688202Y-99239926D01*
X184773786Y-99256950D01*
X184723944Y-99277595D01*
X184554426Y-99390863D01*
X184410263Y-99535026D01*
X184296995Y-99704544D01*
X184218974Y-99892902D01*
X184179200Y-100092861D01*
X184179200Y-100296739D01*
X184218974Y-100496698D01*
X184296995Y-100685056D01*
X184410263Y-100854574D01*
X184554426Y-100998737D01*
X184723944Y-101112005D01*
X184912302Y-101190026D01*
X185112261Y-101229800D01*
X185316139Y-101229800D01*
X185516098Y-101190026D01*
X185557202Y-101173000D01*
X185723000Y-101173000D01*
X185723000Y-101153000D01*
X185836928Y-101153000D01*
X185836928Y-101830000D01*
X185849188Y-101954482D01*
X185885498Y-102074180D01*
X185944463Y-102184494D01*
X185977000Y-102224141D01*
X185977000Y-102306250D01*
X186084072Y-102413322D01*
X186094454Y-102447547D01*
X186165026Y-102579576D01*
X186259999Y-102695301D01*
X186365959Y-102782260D01*
X186537300Y-102953601D01*
X186537300Y-102961928D01*
X184950000Y-102961928D01*
X184825518Y-102974188D01*
X184705820Y-103010498D01*
X184595506Y-103069463D01*
X184498815Y-103148815D01*
X184419463Y-103245506D01*
X184360498Y-103355820D01*
X184324188Y-103475518D01*
X184311928Y-103600000D01*
X184311928Y-106100000D01*
X184324188Y-106224482D01*
X184360498Y-106344180D01*
X184419463Y-106454494D01*
X184498815Y-106551185D01*
X184595506Y-106630537D01*
X184705820Y-106689502D01*
X184825518Y-106725812D01*
X184950000Y-106738072D01*
X186750000Y-106738072D01*
X186874482Y-106725812D01*
X186994180Y-106689502D01*
X187104494Y-106630537D01*
X187201185Y-106551185D01*
X187280537Y-106454494D01*
X187339502Y-106344180D01*
X187375812Y-106224482D01*
X187388072Y-106100000D01*
X187388072Y-105544575D01*
X187499576Y-105484974D01*
X187615301Y-105390001D01*
X187639104Y-105360997D01*
X189129802Y-103870300D01*
X189341802Y-103870300D01*
X189376263Y-103921874D01*
X189520426Y-104066037D01*
X189689944Y-104179305D01*
X189878302Y-104257326D01*
X190078261Y-104297100D01*
X190140399Y-104297100D01*
X190514700Y-104671402D01*
X190514700Y-104812667D01*
X190511023Y-104850000D01*
X190525697Y-104998986D01*
X190569154Y-105142247D01*
X190639726Y-105274276D01*
X190734699Y-105390001D01*
X190850424Y-105484974D01*
X190961928Y-105544575D01*
X190961928Y-106100000D01*
X190974188Y-106224482D01*
X191010498Y-106344180D01*
X191069463Y-106454494D01*
X191148815Y-106551185D01*
X191245506Y-106630537D01*
X191355820Y-106689502D01*
X191475518Y-106725812D01*
X191600000Y-106738072D01*
X193400000Y-106738072D01*
X193524482Y-106725812D01*
X193644180Y-106689502D01*
X193754494Y-106630537D01*
X193851185Y-106551185D01*
X193930537Y-106454494D01*
X193989502Y-106344180D01*
X194025812Y-106224482D01*
X194038072Y-106100000D01*
X194038072Y-103600000D01*
X194025812Y-103475518D01*
X193989502Y-103355820D01*
X193930537Y-103245506D01*
X193851185Y-103148815D01*
X193754494Y-103069463D01*
X193644180Y-103010498D01*
X193524482Y-102974188D01*
X193400000Y-102961928D01*
X191600000Y-102961928D01*
X191475518Y-102974188D01*
X191355820Y-103010498D01*
X191245506Y-103069463D01*
X191203944Y-103103572D01*
X191175426Y-102960202D01*
X191097405Y-102771844D01*
X190984137Y-102602326D01*
X190839974Y-102458163D01*
X190670456Y-102344895D01*
X190482098Y-102266874D01*
X190282139Y-102227100D01*
X190078261Y-102227100D01*
X189878302Y-102266874D01*
X189689944Y-102344895D01*
X189681855Y-102350300D01*
X189129802Y-102350300D01*
X188703786Y-101924285D01*
X188713072Y-101830000D01*
X188713072Y-101187464D01*
X188859756Y-101126705D01*
X189029274Y-101013437D01*
X189173437Y-100869274D01*
X189286705Y-100699756D01*
X189364726Y-100511398D01*
X189404500Y-100311439D01*
X189404500Y-100107561D01*
X189364726Y-99907602D01*
X189286705Y-99719244D01*
X189173437Y-99549726D01*
X189029274Y-99405563D01*
X188859756Y-99292295D01*
X188713072Y-99231536D01*
X188713072Y-98570000D01*
X188700812Y-98445518D01*
X188664502Y-98325820D01*
X188605537Y-98215506D01*
X188552579Y-98150976D01*
X188606623Y-98106623D01*
X188715512Y-97973942D01*
X188796423Y-97822567D01*
X188846248Y-97658316D01*
X188863072Y-97487500D01*
X188863072Y-97194600D01*
X194191889Y-97194600D01*
X194235826Y-97238537D01*
X194405344Y-97351805D01*
X194593702Y-97429826D01*
X194793661Y-97469600D01*
X194997539Y-97469600D01*
X195197498Y-97429826D01*
X195385856Y-97351805D01*
X195555374Y-97238537D01*
X195599311Y-97194600D01*
X201764499Y-97194600D01*
X203134700Y-98564802D01*
X203134701Y-100112657D01*
X203131023Y-100150000D01*
X203145697Y-100298986D01*
X203189154Y-100442247D01*
X203259726Y-100574276D01*
X203354699Y-100690001D01*
X203470424Y-100784974D01*
X203602453Y-100855546D01*
X203745714Y-100899003D01*
X203746577Y-100899088D01*
X203768815Y-100926185D01*
X203865506Y-101005537D01*
X203975820Y-101064502D01*
X204095518Y-101100812D01*
X204220000Y-101113072D01*
X205280000Y-101113072D01*
X205404482Y-101100812D01*
X205524180Y-101064502D01*
X205634494Y-101005537D01*
X205731185Y-100926185D01*
X205810537Y-100829494D01*
X205850000Y-100755665D01*
X205889463Y-100829494D01*
X205968815Y-100926185D01*
X206065506Y-101005537D01*
X206175820Y-101064502D01*
X206295518Y-101100812D01*
X206420000Y-101113072D01*
X207480000Y-101113072D01*
X207604482Y-101100812D01*
X207724180Y-101064502D01*
X207815293Y-101015800D01*
X207823815Y-101026185D01*
X207920506Y-101105537D01*
X208030820Y-101164502D01*
X208150518Y-101200812D01*
X208275000Y-101213072D01*
X208464250Y-101210000D01*
X208623000Y-101051250D01*
X208623000Y-100177000D01*
X208877000Y-100177000D01*
X208877000Y-101051250D01*
X209035750Y-101210000D01*
X209225000Y-101213072D01*
X209349482Y-101200812D01*
X209469180Y-101164502D01*
X209579494Y-101105537D01*
X209676185Y-101026185D01*
X209755537Y-100929494D01*
X209814502Y-100819180D01*
X209850812Y-100699482D01*
X209863072Y-100575000D01*
X209860000Y-100335750D01*
X209701250Y-100177000D01*
X208877000Y-100177000D01*
X208623000Y-100177000D01*
X208603000Y-100177000D01*
X208603000Y-99923000D01*
X208623000Y-99923000D01*
X208623000Y-99903000D01*
X208877000Y-99903000D01*
X208877000Y-99923000D01*
X209701250Y-99923000D01*
X209860000Y-99764250D01*
X209863072Y-99525000D01*
X209850812Y-99400518D01*
X209814502Y-99280820D01*
X209755537Y-99170506D01*
X209695901Y-99097839D01*
X209715512Y-99073942D01*
X209722964Y-99060000D01*
X212713405Y-99060000D01*
X212727071Y-99198745D01*
X212771916Y-99346582D01*
X212844742Y-99482829D01*
X212883454Y-99530000D01*
X212844742Y-99577171D01*
X212771916Y-99713418D01*
X212727071Y-99861255D01*
X212711928Y-100015000D01*
X212711928Y-100315000D01*
X212727071Y-100468745D01*
X212771916Y-100616582D01*
X212844742Y-100752829D01*
X212883454Y-100800000D01*
X212844742Y-100847171D01*
X212771916Y-100983418D01*
X212727071Y-101131255D01*
X212711928Y-101285000D01*
X212711928Y-101585000D01*
X212727071Y-101738745D01*
X212771916Y-101886582D01*
X212843730Y-102020936D01*
X212819463Y-102050506D01*
X212760498Y-102160820D01*
X212724188Y-102280518D01*
X212711928Y-102405000D01*
X212715000Y-102419250D01*
X212873750Y-102578000D01*
X214198000Y-102578000D01*
X214198000Y-102558000D01*
X214452000Y-102558000D01*
X214452000Y-102578000D01*
X214472000Y-102578000D01*
X214472000Y-102832000D01*
X214452000Y-102832000D01*
X214452000Y-102852000D01*
X214198000Y-102852000D01*
X214198000Y-102832000D01*
X212873750Y-102832000D01*
X212715000Y-102990750D01*
X212711928Y-103005000D01*
X212724188Y-103129482D01*
X212760498Y-103249180D01*
X212819463Y-103359494D01*
X212898815Y-103456185D01*
X212995506Y-103535537D01*
X213105820Y-103594502D01*
X213225518Y-103630812D01*
X213350000Y-103643072D01*
X214039250Y-103640000D01*
X214197998Y-103481252D01*
X214197998Y-103581901D01*
X213539003Y-104240896D01*
X213509999Y-104264699D01*
X213461178Y-104324188D01*
X213415026Y-104380424D01*
X213379568Y-104446761D01*
X213344454Y-104512454D01*
X213314279Y-104611928D01*
X212975000Y-104611928D01*
X212850518Y-104624188D01*
X212850000Y-104624345D01*
X212849482Y-104624188D01*
X212725000Y-104611928D01*
X212175000Y-104611928D01*
X212050518Y-104624188D01*
X211930820Y-104660498D01*
X211820506Y-104719463D01*
X211723815Y-104798815D01*
X211644463Y-104895506D01*
X211585498Y-105005820D01*
X211549188Y-105125518D01*
X211536928Y-105250000D01*
X211536928Y-106315300D01*
X209882222Y-106315300D01*
X209844900Y-106311624D01*
X209807577Y-106315300D01*
X209807567Y-106315300D01*
X209695914Y-106326297D01*
X209572687Y-106363677D01*
X209552653Y-106369754D01*
X209420623Y-106440326D01*
X209336983Y-106508968D01*
X209304899Y-106535299D01*
X209281101Y-106564297D01*
X208260702Y-107584696D01*
X208231699Y-107608499D01*
X208178907Y-107672827D01*
X208136726Y-107724224D01*
X208113434Y-107767800D01*
X208066154Y-107856254D01*
X208022697Y-107999515D01*
X208014483Y-108082915D01*
X207832441Y-108264957D01*
X207814502Y-108205820D01*
X207755537Y-108095506D01*
X207676185Y-107998815D01*
X207579494Y-107919463D01*
X207469180Y-107860498D01*
X207349482Y-107824188D01*
X207225000Y-107811928D01*
X206660750Y-107815000D01*
X206502000Y-107973750D01*
X206502000Y-108823000D01*
X206522000Y-108823000D01*
X206522000Y-109077000D01*
X206502000Y-109077000D01*
X206502000Y-109097000D01*
X206248000Y-109097000D01*
X206248000Y-109077000D01*
X205048750Y-109077000D01*
X204890000Y-109235750D01*
X204886928Y-109450000D01*
X204899188Y-109574482D01*
X204935498Y-109694180D01*
X204994463Y-109804494D01*
X205073815Y-109901185D01*
X205170506Y-109980537D01*
X205280820Y-110039502D01*
X205400518Y-110075812D01*
X205525000Y-110088072D01*
X206011978Y-110085421D01*
X206007399Y-110090000D01*
X200200625Y-110090000D01*
X200163300Y-110086324D01*
X200125975Y-110090000D01*
X200125967Y-110090000D01*
X200014314Y-110100997D01*
X199871053Y-110144454D01*
X199739024Y-110215026D01*
X199623299Y-110309999D01*
X199599501Y-110338997D01*
X194972003Y-114966496D01*
X194942999Y-114990299D01*
X194914096Y-115025518D01*
X194848026Y-115106024D01*
X194801939Y-115192247D01*
X194777454Y-115238054D01*
X194733997Y-115381315D01*
X194723000Y-115492968D01*
X194723000Y-115492978D01*
X194719324Y-115530300D01*
X194723000Y-115567623D01*
X194723001Y-116394697D01*
X194485300Y-116632398D01*
X194485300Y-112437333D01*
X194488977Y-112400000D01*
X194474303Y-112251014D01*
X194430846Y-112107753D01*
X194360274Y-111975724D01*
X194265301Y-111859999D01*
X194149576Y-111765026D01*
X194038072Y-111705425D01*
X194038072Y-111150000D01*
X194025812Y-111025518D01*
X193989502Y-110905820D01*
X193930537Y-110795506D01*
X193851185Y-110698815D01*
X193761241Y-110625000D01*
X193851185Y-110551185D01*
X193930537Y-110454494D01*
X193989502Y-110344180D01*
X194025812Y-110224482D01*
X194038072Y-110100000D01*
X194038072Y-109450000D01*
X198586928Y-109450000D01*
X198599188Y-109574482D01*
X198635498Y-109694180D01*
X198694463Y-109804494D01*
X198773815Y-109901185D01*
X198870506Y-109980537D01*
X198980820Y-110039502D01*
X199100518Y-110075812D01*
X199225000Y-110088072D01*
X199789250Y-110085000D01*
X199948000Y-109926250D01*
X199948000Y-109077000D01*
X200202000Y-109077000D01*
X200202000Y-109926250D01*
X200360750Y-110085000D01*
X200925000Y-110088072D01*
X201049482Y-110075812D01*
X201169180Y-110039502D01*
X201279494Y-109980537D01*
X201376185Y-109901185D01*
X201455537Y-109804494D01*
X201514502Y-109694180D01*
X201550812Y-109574482D01*
X201563072Y-109450000D01*
X201560000Y-109235750D01*
X201401250Y-109077000D01*
X200202000Y-109077000D01*
X199948000Y-109077000D01*
X198748750Y-109077000D01*
X198590000Y-109235750D01*
X198586928Y-109450000D01*
X194038072Y-109450000D01*
X194038072Y-108450000D01*
X198586928Y-108450000D01*
X198590000Y-108664250D01*
X198748750Y-108823000D01*
X199948000Y-108823000D01*
X199948000Y-107973750D01*
X200202000Y-107973750D01*
X200202000Y-108823000D01*
X201401250Y-108823000D01*
X201560000Y-108664250D01*
X201563072Y-108450000D01*
X204886928Y-108450000D01*
X204890000Y-108664250D01*
X205048750Y-108823000D01*
X206248000Y-108823000D01*
X206248000Y-107973750D01*
X206089250Y-107815000D01*
X205525000Y-107811928D01*
X205400518Y-107824188D01*
X205280820Y-107860498D01*
X205170506Y-107919463D01*
X205073815Y-107998815D01*
X204994463Y-108095506D01*
X204935498Y-108205820D01*
X204899188Y-108325518D01*
X204886928Y-108450000D01*
X201563072Y-108450000D01*
X201550812Y-108325518D01*
X201514502Y-108205820D01*
X201455537Y-108095506D01*
X201376185Y-107998815D01*
X201279494Y-107919463D01*
X201169180Y-107860498D01*
X201049482Y-107824188D01*
X200925000Y-107811928D01*
X200360750Y-107815000D01*
X200202000Y-107973750D01*
X199948000Y-107973750D01*
X199789250Y-107815000D01*
X199225000Y-107811928D01*
X199100518Y-107824188D01*
X198980820Y-107860498D01*
X198870506Y-107919463D01*
X198773815Y-107998815D01*
X198694463Y-108095506D01*
X198635498Y-108205820D01*
X198599188Y-108325518D01*
X198586928Y-108450000D01*
X194038072Y-108450000D01*
X194038072Y-107600000D01*
X194025812Y-107475518D01*
X193989502Y-107355820D01*
X193930537Y-107245506D01*
X193851185Y-107148815D01*
X193754494Y-107069463D01*
X193644180Y-107010498D01*
X193524482Y-106974188D01*
X193400000Y-106961928D01*
X191600000Y-106961928D01*
X191475518Y-106974188D01*
X191355820Y-107010498D01*
X191245506Y-107069463D01*
X191148815Y-107148815D01*
X191069463Y-107245506D01*
X191010498Y-107355820D01*
X190974188Y-107475518D01*
X190961928Y-107600000D01*
X190961928Y-110100000D01*
X190974188Y-110224482D01*
X191010498Y-110344180D01*
X191069463Y-110454494D01*
X191148815Y-110551185D01*
X191238759Y-110625000D01*
X191148815Y-110698815D01*
X191069463Y-110795506D01*
X191010498Y-110905820D01*
X190974188Y-111025518D01*
X190961928Y-111150000D01*
X190961928Y-113650000D01*
X190974188Y-113774482D01*
X191010498Y-113894180D01*
X191069463Y-114004494D01*
X191148815Y-114101185D01*
X191245506Y-114180537D01*
X191355820Y-114239502D01*
X191475518Y-114275812D01*
X191600000Y-114288072D01*
X192965300Y-114288072D01*
X192965300Y-114514102D01*
X192785750Y-114515000D01*
X192627000Y-114673750D01*
X192627000Y-116273000D01*
X192647000Y-116273000D01*
X192647000Y-116527000D01*
X192627000Y-116527000D01*
X192627000Y-116547000D01*
X192373000Y-116547000D01*
X192373000Y-116527000D01*
X191123750Y-116527000D01*
X190965000Y-116685750D01*
X190961928Y-117650000D01*
X190974188Y-117774482D01*
X191010498Y-117894180D01*
X191069463Y-118004494D01*
X191148815Y-118101185D01*
X191245506Y-118180537D01*
X191355820Y-118239502D01*
X191475518Y-118275812D01*
X191600000Y-118288072D01*
X192180027Y-118285171D01*
X191100499Y-119364700D01*
X190277333Y-119364700D01*
X190240000Y-119361023D01*
X190202667Y-119364700D01*
X190091014Y-119375697D01*
X189947753Y-119419154D01*
X189815724Y-119489726D01*
X189699999Y-119584699D01*
X189605026Y-119700424D01*
X189534454Y-119832453D01*
X189490997Y-119975714D01*
X189486911Y-120017204D01*
X189293368Y-120146525D01*
X189161513Y-120278380D01*
X189139502Y-120205820D01*
X189080537Y-120095506D01*
X189001185Y-119998815D01*
X188904494Y-119919463D01*
X188794180Y-119860498D01*
X188674482Y-119824188D01*
X188550000Y-119811928D01*
X188394575Y-119811928D01*
X188334974Y-119700424D01*
X188240001Y-119584699D01*
X188124276Y-119489726D01*
X187992247Y-119419154D01*
X187848986Y-119375697D01*
X187737333Y-119364700D01*
X187700000Y-119361023D01*
X187662667Y-119364700D01*
X187059903Y-119364700D01*
X185827002Y-118131800D01*
X185827002Y-118126252D01*
X185985750Y-118285000D01*
X186600000Y-118288072D01*
X186724482Y-118275812D01*
X186844180Y-118239502D01*
X186954494Y-118180537D01*
X187051185Y-118101185D01*
X187130537Y-118004494D01*
X187189502Y-117894180D01*
X187225812Y-117774482D01*
X187238072Y-117650000D01*
X187235000Y-116685750D01*
X187076250Y-116527000D01*
X185827000Y-116527000D01*
X185827000Y-116547000D01*
X185573000Y-116547000D01*
X185573000Y-116527000D01*
X185553000Y-116527000D01*
X185553000Y-116273000D01*
X185573000Y-116273000D01*
X185573000Y-114673750D01*
X185827000Y-114673750D01*
X185827000Y-116273000D01*
X187076250Y-116273000D01*
X187235000Y-116114250D01*
X187238072Y-115150000D01*
X190961928Y-115150000D01*
X190965000Y-116114250D01*
X191123750Y-116273000D01*
X192373000Y-116273000D01*
X192373000Y-114673750D01*
X192214250Y-114515000D01*
X191600000Y-114511928D01*
X191475518Y-114524188D01*
X191355820Y-114560498D01*
X191245506Y-114619463D01*
X191148815Y-114698815D01*
X191069463Y-114795506D01*
X191010498Y-114905820D01*
X190974188Y-115025518D01*
X190961928Y-115150000D01*
X187238072Y-115150000D01*
X187225812Y-115025518D01*
X187189502Y-114905820D01*
X187130537Y-114795506D01*
X187051185Y-114698815D01*
X186954494Y-114619463D01*
X186844180Y-114560498D01*
X186724482Y-114524188D01*
X186600000Y-114511928D01*
X185985750Y-114515000D01*
X185827000Y-114673750D01*
X185573000Y-114673750D01*
X185414250Y-114515000D01*
X185234700Y-114514102D01*
X185234700Y-114288072D01*
X186600000Y-114288072D01*
X186724482Y-114275812D01*
X186844180Y-114239502D01*
X186954494Y-114180537D01*
X187051185Y-114101185D01*
X187130537Y-114004494D01*
X187189502Y-113894180D01*
X187225812Y-113774482D01*
X187238072Y-113650000D01*
X187238072Y-111150000D01*
X187225812Y-111025518D01*
X187189502Y-110905820D01*
X187130537Y-110795506D01*
X187051185Y-110698815D01*
X187021829Y-110674723D01*
X187104494Y-110630537D01*
X187201185Y-110551185D01*
X187280537Y-110454494D01*
X187339502Y-110344180D01*
X187375812Y-110224482D01*
X187388072Y-110100000D01*
X187388072Y-107600000D01*
X187375812Y-107475518D01*
X187339502Y-107355820D01*
X187280537Y-107245506D01*
X187201185Y-107148815D01*
X187104494Y-107069463D01*
X186994180Y-107010498D01*
X186874482Y-106974188D01*
X186750000Y-106961928D01*
X184950000Y-106961928D01*
X184825518Y-106974188D01*
X184705820Y-107010498D01*
X184595506Y-107069463D01*
X184498815Y-107148815D01*
X184419463Y-107245506D01*
X184360498Y-107355820D01*
X184324188Y-107475518D01*
X184311928Y-107600000D01*
X184311928Y-110100000D01*
X184324188Y-110224482D01*
X184360498Y-110344180D01*
X184419463Y-110454494D01*
X184498815Y-110551185D01*
X184528171Y-110575277D01*
X184445506Y-110619463D01*
X184348815Y-110698815D01*
X184269463Y-110795506D01*
X184210498Y-110905820D01*
X184174188Y-111025518D01*
X184161928Y-111150000D01*
X184161928Y-111705425D01*
X184050424Y-111765026D01*
X183934699Y-111859999D01*
X183839726Y-111975724D01*
X183769154Y-112107753D01*
X183725697Y-112251014D01*
X183711023Y-112400000D01*
X182135000Y-112400000D01*
X182135000Y-101830000D01*
X184886928Y-101830000D01*
X184899188Y-101954482D01*
X184935498Y-102074180D01*
X184994463Y-102184494D01*
X185073815Y-102281185D01*
X185170506Y-102360537D01*
X185280820Y-102419502D01*
X185400518Y-102455812D01*
X185525000Y-102468072D01*
X185564250Y-102465000D01*
X185723000Y-102306250D01*
X185723000Y-101427000D01*
X185048750Y-101427000D01*
X184890000Y-101585750D01*
X184886928Y-101830000D01*
X182135000Y-101830000D01*
X182135000Y-94085000D01*
X245765001Y-94085000D01*
X245765000Y-130715000D01*
G37*
X245765000Y-130715000D02*
X182135000Y-130715000D01*
X182135000Y-127750000D01*
X186211928Y-127750000D01*
X186211928Y-129450000D01*
X186224188Y-129574482D01*
X186260498Y-129694180D01*
X186319463Y-129804494D01*
X186398815Y-129901185D01*
X186495506Y-129980537D01*
X186605820Y-130039502D01*
X186725518Y-130075812D01*
X186850000Y-130088072D01*
X188550000Y-130088072D01*
X188674482Y-130075812D01*
X188794180Y-130039502D01*
X188904494Y-129980537D01*
X189001185Y-129901185D01*
X189080537Y-129804494D01*
X189139502Y-129694180D01*
X189161513Y-129621620D01*
X189293368Y-129753475D01*
X189536589Y-129915990D01*
X189806842Y-130027932D01*
X190093740Y-130085000D01*
X190386260Y-130085000D01*
X190673158Y-130027932D01*
X190943411Y-129915990D01*
X191186632Y-129753475D01*
X191393475Y-129546632D01*
X191510000Y-129372240D01*
X191626525Y-129546632D01*
X191833368Y-129753475D01*
X192076589Y-129915990D01*
X192346842Y-130027932D01*
X192633740Y-130085000D01*
X192926260Y-130085000D01*
X193213158Y-130027932D01*
X193483411Y-129915990D01*
X193726632Y-129753475D01*
X193933475Y-129546632D01*
X194095990Y-129303411D01*
X194207932Y-129033158D01*
X194265000Y-128746260D01*
X194265000Y-128453740D01*
X194207932Y-128166842D01*
X194095990Y-127896589D01*
X193933475Y-127653368D01*
X193726632Y-127446525D01*
X193483411Y-127284010D01*
X193213158Y-127172068D01*
X192926260Y-127115000D01*
X192633740Y-127115000D01*
X192346842Y-127172068D01*
X192076589Y-127284010D01*
X191833368Y-127446525D01*
X191626525Y-127653368D01*
X191510000Y-127827760D01*
X191393475Y-127653368D01*
X191186632Y-127446525D01*
X190943411Y-127284010D01*
X190673158Y-127172068D01*
X190386260Y-127115000D01*
X190093740Y-127115000D01*
X189806842Y-127172068D01*
X189536589Y-127284010D01*
X189293368Y-127446525D01*
X189161513Y-127578380D01*
X189139502Y-127505820D01*
X189080537Y-127395506D01*
X189001185Y-127298815D01*
X188904494Y-127219463D01*
X188794180Y-127160498D01*
X188674482Y-127124188D01*
X188550000Y-127111928D01*
X186850000Y-127111928D01*
X186725518Y-127124188D01*
X186605820Y-127160498D01*
X186495506Y-127219463D01*
X186398815Y-127298815D01*
X186319463Y-127395506D01*
X186260498Y-127505820D01*
X186224188Y-127625518D01*
X186211928Y-127750000D01*
X182135000Y-127750000D01*
X182135000Y-112400000D01*
X183711023Y-112400000D01*
X183714700Y-112437333D01*
X183714701Y-117816968D01*
X183711024Y-117854300D01*
X183714701Y-117891633D01*
X183725698Y-118003286D01*
X183735310Y-118034974D01*
X183769154Y-118146546D01*
X183839726Y-118278576D01*
X183894038Y-118344754D01*
X183934700Y-118394301D01*
X183963698Y-118418099D01*
X186181305Y-120635708D01*
X186205099Y-120664701D01*
X186211928Y-120670305D01*
X186211928Y-122150000D01*
X186224188Y-122274482D01*
X186260498Y-122394180D01*
X186319463Y-122504494D01*
X186398815Y-122601185D01*
X186495506Y-122680537D01*
X186605820Y-122739502D01*
X186725518Y-122775812D01*
X186850000Y-122788072D01*
X188550000Y-122788072D01*
X188674482Y-122775812D01*
X188794180Y-122739502D01*
X188904494Y-122680537D01*
X189001185Y-122601185D01*
X189080537Y-122504494D01*
X189139502Y-122394180D01*
X189161513Y-122321620D01*
X189293368Y-122453475D01*
X189536589Y-122615990D01*
X189806842Y-122727932D01*
X190093740Y-122785000D01*
X190386260Y-122785000D01*
X190673158Y-122727932D01*
X190838700Y-122659362D01*
X190838701Y-123586496D01*
X190683158Y-123522068D01*
X190396260Y-123465000D01*
X190103740Y-123465000D01*
X189816842Y-123522068D01*
X189546589Y-123634010D01*
X189303368Y-123796525D01*
X189171513Y-123928380D01*
X189149502Y-123855820D01*
X189090537Y-123745506D01*
X189011185Y-123648815D01*
X188914494Y-123569463D01*
X188804180Y-123510498D01*
X188684482Y-123474188D01*
X188560000Y-123461928D01*
X186860000Y-123461928D01*
X186735518Y-123474188D01*
X186615820Y-123510498D01*
X186505506Y-123569463D01*
X186408815Y-123648815D01*
X186329463Y-123745506D01*
X186270498Y-123855820D01*
X186234188Y-123975518D01*
X186221928Y-124100000D01*
X186221928Y-125800000D01*
X186234188Y-125924482D01*
X186270498Y-126044180D01*
X186329463Y-126154494D01*
X186408815Y-126251185D01*
X186505506Y-126330537D01*
X186615820Y-126389502D01*
X186735518Y-126425812D01*
X186860000Y-126438072D01*
X188560000Y-126438072D01*
X188684482Y-126425812D01*
X188804180Y-126389502D01*
X188914494Y-126330537D01*
X189011185Y-126251185D01*
X189090537Y-126154494D01*
X189149502Y-126044180D01*
X189171513Y-125971620D01*
X189303368Y-126103475D01*
X189546589Y-126265990D01*
X189816842Y-126377932D01*
X190103740Y-126435000D01*
X190396260Y-126435000D01*
X190683158Y-126377932D01*
X190953411Y-126265990D01*
X191150259Y-126134460D01*
X191652200Y-126636402D01*
X191675999Y-126665401D01*
X191704997Y-126689199D01*
X191791723Y-126760374D01*
X191901546Y-126819076D01*
X191923753Y-126830946D01*
X192067014Y-126874403D01*
X192178667Y-126885400D01*
X192178676Y-126885400D01*
X192215999Y-126889076D01*
X192253322Y-126885400D01*
X195437278Y-126885400D01*
X195474600Y-126889076D01*
X195511922Y-126885400D01*
X195511933Y-126885400D01*
X195623586Y-126874403D01*
X195766847Y-126830946D01*
X195898876Y-126760374D01*
X195899332Y-126760000D01*
X197565000Y-126760000D01*
X197565000Y-126777002D01*
X197669748Y-126777002D01*
X197565000Y-126881750D01*
X197576132Y-126983883D01*
X197614239Y-127103021D01*
X197674856Y-127212436D01*
X197755654Y-127307922D01*
X197853529Y-127385811D01*
X197964718Y-127443109D01*
X198084948Y-127477614D01*
X198209600Y-127488000D01*
X198651750Y-127485000D01*
X198810500Y-127326250D01*
X198810500Y-126838072D01*
X199064500Y-126838072D01*
X199064500Y-127326250D01*
X199223250Y-127485000D01*
X199665400Y-127488000D01*
X199790052Y-127477614D01*
X199910282Y-127443109D01*
X200021471Y-127385811D01*
X200119346Y-127307922D01*
X200200144Y-127212436D01*
X200260761Y-127103021D01*
X200298868Y-126983883D01*
X200310000Y-126881750D01*
X200151250Y-126723000D01*
X199967622Y-126723000D01*
X199985051Y-126713684D01*
X200096896Y-126621896D01*
X200133741Y-126577000D01*
X200151250Y-126577000D01*
X200279115Y-126449135D01*
X200282961Y-126449900D01*
X200486839Y-126449900D01*
X200686798Y-126410126D01*
X200875156Y-126332105D01*
X201044674Y-126218837D01*
X201092255Y-126171256D01*
X202616601Y-127695603D01*
X202640399Y-127724601D01*
X202756124Y-127819574D01*
X202888153Y-127890146D01*
X203031414Y-127933603D01*
X203143067Y-127944600D01*
X203143075Y-127944600D01*
X203180400Y-127948276D01*
X203217725Y-127944600D01*
X205448478Y-127944600D01*
X205485800Y-127948276D01*
X205523122Y-127944600D01*
X205523133Y-127944600D01*
X205634786Y-127933603D01*
X205778047Y-127890146D01*
X205910076Y-127819574D01*
X206025801Y-127724601D01*
X206049603Y-127695598D01*
X206265803Y-127479399D01*
X206294801Y-127455601D01*
X206389774Y-127339876D01*
X206460346Y-127207847D01*
X206503803Y-127064586D01*
X206514800Y-126952933D01*
X206514800Y-126952924D01*
X206518476Y-126915601D01*
X206514800Y-126878278D01*
X206514800Y-126432133D01*
X206518477Y-126394800D01*
X206503803Y-126245814D01*
X206460346Y-126102553D01*
X206439570Y-126063684D01*
X206389774Y-125970524D01*
X206294801Y-125854799D01*
X206265797Y-125830996D01*
X206024330Y-125589529D01*
X206038072Y-125450000D01*
X206038072Y-125250000D01*
X206023890Y-125106009D01*
X205999316Y-125025000D01*
X206023890Y-124943991D01*
X206038072Y-124800000D01*
X206038072Y-124600000D01*
X206023890Y-124456009D01*
X205999316Y-124375000D01*
X206023890Y-124293991D01*
X206038072Y-124150000D01*
X206038072Y-123950000D01*
X206023890Y-123806009D01*
X205999316Y-123725000D01*
X206023890Y-123643991D01*
X206037087Y-123510000D01*
X209316111Y-123510000D01*
X209268815Y-123548815D01*
X209189463Y-123645506D01*
X209130498Y-123755820D01*
X209094188Y-123875518D01*
X209081928Y-124000000D01*
X209081928Y-125700000D01*
X209094188Y-125824482D01*
X209130498Y-125944180D01*
X209189463Y-126054494D01*
X209268815Y-126151185D01*
X209365506Y-126230537D01*
X209475820Y-126289502D01*
X209595518Y-126325812D01*
X209720000Y-126338072D01*
X211420000Y-126338072D01*
X211544482Y-126325812D01*
X211664180Y-126289502D01*
X211774494Y-126230537D01*
X211871185Y-126151185D01*
X211950537Y-126054494D01*
X212009502Y-125944180D01*
X212031513Y-125871620D01*
X212163368Y-126003475D01*
X212406589Y-126165990D01*
X212676842Y-126277932D01*
X212963740Y-126335000D01*
X213256260Y-126335000D01*
X213543158Y-126277932D01*
X213813411Y-126165990D01*
X214056632Y-126003475D01*
X214263475Y-125796632D01*
X214385195Y-125614466D01*
X214454822Y-125731355D01*
X214649731Y-125947588D01*
X214883080Y-126121641D01*
X215145901Y-126246825D01*
X215293110Y-126291476D01*
X215523000Y-126170155D01*
X215523000Y-124977000D01*
X215503000Y-124977000D01*
X215503000Y-124723000D01*
X215523000Y-124723000D01*
X215523000Y-123529845D01*
X215777000Y-123529845D01*
X215777000Y-124723000D01*
X215797000Y-124723000D01*
X215797000Y-124977000D01*
X215777000Y-124977000D01*
X215777000Y-126170155D01*
X216006890Y-126291476D01*
X216154099Y-126246825D01*
X216416920Y-126121641D01*
X216650269Y-125947588D01*
X216845178Y-125731355D01*
X216914805Y-125614466D01*
X217036525Y-125796632D01*
X217243368Y-126003475D01*
X217486589Y-126165990D01*
X217756842Y-126277932D01*
X218043740Y-126335000D01*
X218336260Y-126335000D01*
X218623158Y-126277932D01*
X218893411Y-126165990D01*
X219136632Y-126003475D01*
X219343475Y-125796632D01*
X219460000Y-125622240D01*
X219576525Y-125796632D01*
X219783368Y-126003475D01*
X220026589Y-126165990D01*
X220296842Y-126277932D01*
X220583740Y-126335000D01*
X220876260Y-126335000D01*
X221163158Y-126277932D01*
X221433411Y-126165990D01*
X221676632Y-126003475D01*
X221883475Y-125796632D01*
X222000000Y-125622240D01*
X222116525Y-125796632D01*
X222323368Y-126003475D01*
X222566589Y-126165990D01*
X222836842Y-126277932D01*
X223123740Y-126335000D01*
X223416260Y-126335000D01*
X223703158Y-126277932D01*
X223973411Y-126165990D01*
X224216632Y-126003475D01*
X224423475Y-125796632D01*
X224585990Y-125553411D01*
X224697932Y-125283158D01*
X224755000Y-124996260D01*
X224755000Y-124703740D01*
X224697932Y-124416842D01*
X224585990Y-124146589D01*
X224423475Y-123903368D01*
X224216632Y-123696525D01*
X223973411Y-123534010D01*
X223703158Y-123422068D01*
X223416260Y-123365000D01*
X223123740Y-123365000D01*
X222836842Y-123422068D01*
X222566589Y-123534010D01*
X222323368Y-123696525D01*
X222116525Y-123903368D01*
X222000000Y-124077760D01*
X221883475Y-123903368D01*
X221676632Y-123696525D01*
X221433411Y-123534010D01*
X221163158Y-123422068D01*
X220876260Y-123365000D01*
X220583740Y-123365000D01*
X220296842Y-123422068D01*
X220026589Y-123534010D01*
X219783368Y-123696525D01*
X219576525Y-123903368D01*
X219460000Y-124077760D01*
X219343475Y-123903368D01*
X219136632Y-123696525D01*
X218893411Y-123534010D01*
X218623158Y-123422068D01*
X218336260Y-123365000D01*
X218043740Y-123365000D01*
X217756842Y-123422068D01*
X217486589Y-123534010D01*
X217243368Y-123696525D01*
X217036525Y-123903368D01*
X216914805Y-124085534D01*
X216845178Y-123968645D01*
X216650269Y-123752412D01*
X216416920Y-123578359D01*
X216154099Y-123453175D01*
X216006890Y-123408524D01*
X215777000Y-123529845D01*
X215523000Y-123529845D01*
X215293110Y-123408524D01*
X215145901Y-123453175D01*
X214883080Y-123578359D01*
X214649731Y-123752412D01*
X214454822Y-123968645D01*
X214385195Y-124085534D01*
X214263475Y-123903368D01*
X214056632Y-123696525D01*
X213870000Y-123571822D01*
X213870000Y-123064801D01*
X214575302Y-122359500D01*
X216412667Y-122359500D01*
X216450000Y-122363177D01*
X216487333Y-122359500D01*
X222739378Y-122359500D01*
X222776700Y-122363176D01*
X222814022Y-122359500D01*
X222814033Y-122359500D01*
X222925686Y-122348503D01*
X223068947Y-122305046D01*
X223200976Y-122234474D01*
X223316701Y-122139501D01*
X223340503Y-122110498D01*
X223618229Y-121832772D01*
X223630820Y-121839502D01*
X223750518Y-121875812D01*
X223875000Y-121888072D01*
X224525000Y-121888072D01*
X224649482Y-121875812D01*
X224769180Y-121839502D01*
X224824373Y-121810000D01*
X225189080Y-121810000D01*
X225268377Y-121906623D01*
X225401058Y-122015512D01*
X225552433Y-122096423D01*
X225716684Y-122146248D01*
X225887500Y-122163072D01*
X226462500Y-122163072D01*
X226611678Y-122148379D01*
X226874100Y-122410802D01*
X226897899Y-122439801D01*
X227013624Y-122534774D01*
X227145653Y-122605346D01*
X227288914Y-122648803D01*
X227400567Y-122659800D01*
X227400576Y-122659800D01*
X227437899Y-122663476D01*
X227475222Y-122659800D01*
X236587578Y-122659800D01*
X236624900Y-122663476D01*
X236662222Y-122659800D01*
X236662233Y-122659800D01*
X236773886Y-122648803D01*
X236917147Y-122605346D01*
X237049176Y-122534774D01*
X237164901Y-122439801D01*
X237188704Y-122410797D01*
X238743377Y-120856125D01*
X238805820Y-120889502D01*
X238925518Y-120925812D01*
X239050000Y-120938072D01*
X240550000Y-120938072D01*
X240674482Y-120925812D01*
X240794180Y-120889502D01*
X240904494Y-120830537D01*
X241001185Y-120751185D01*
X241080537Y-120654494D01*
X241139502Y-120544180D01*
X241175812Y-120424482D01*
X241188072Y-120300000D01*
X241188072Y-119300000D01*
X241175812Y-119175518D01*
X241139502Y-119055820D01*
X241080537Y-118945506D01*
X241001185Y-118848815D01*
X240904494Y-118769463D01*
X240794180Y-118710498D01*
X240674482Y-118674188D01*
X240550000Y-118661928D01*
X239484700Y-118661928D01*
X239484700Y-117738072D01*
X240550000Y-117738072D01*
X240674482Y-117725812D01*
X240794180Y-117689502D01*
X240904494Y-117630537D01*
X241001185Y-117551185D01*
X241080537Y-117454494D01*
X241139502Y-117344180D01*
X241175812Y-117224482D01*
X241188072Y-117100000D01*
X241188072Y-116100000D01*
X241175812Y-115975518D01*
X241139502Y-115855820D01*
X241080537Y-115745506D01*
X241001185Y-115648815D01*
X240904494Y-115569463D01*
X240794180Y-115510498D01*
X240674482Y-115474188D01*
X240550000Y-115461928D01*
X239484700Y-115461928D01*
X239484700Y-113763072D01*
X240550000Y-113763072D01*
X240674482Y-113750812D01*
X240794180Y-113714502D01*
X240904494Y-113655537D01*
X241001185Y-113576185D01*
X241080537Y-113479494D01*
X241139502Y-113369180D01*
X241175812Y-113249482D01*
X241188072Y-113125000D01*
X241188072Y-112125000D01*
X241175812Y-112000518D01*
X241139502Y-111880820D01*
X241080537Y-111770506D01*
X241001185Y-111673815D01*
X240904494Y-111594463D01*
X240794180Y-111535498D01*
X240674482Y-111499188D01*
X240550000Y-111486928D01*
X239484700Y-111486928D01*
X239484700Y-110563072D01*
X240550000Y-110563072D01*
X240674482Y-110550812D01*
X240794180Y-110514502D01*
X240904494Y-110455537D01*
X241001185Y-110376185D01*
X241080537Y-110279494D01*
X241139502Y-110169180D01*
X241175812Y-110049482D01*
X241188072Y-109925000D01*
X241188072Y-108925000D01*
X241175812Y-108800518D01*
X241139502Y-108680820D01*
X241080537Y-108570506D01*
X241001185Y-108473815D01*
X240904494Y-108394463D01*
X240794180Y-108335498D01*
X240674482Y-108299188D01*
X240550000Y-108286928D01*
X239484700Y-108286928D01*
X239484700Y-106588072D01*
X240550000Y-106588072D01*
X240674482Y-106575812D01*
X240794180Y-106539502D01*
X240904494Y-106480537D01*
X241001185Y-106401185D01*
X241080537Y-106304494D01*
X241139502Y-106194180D01*
X241175812Y-106074482D01*
X241188072Y-105950000D01*
X241188072Y-104950000D01*
X241175812Y-104825518D01*
X241139502Y-104705820D01*
X241080537Y-104595506D01*
X241001185Y-104498815D01*
X240904494Y-104419463D01*
X240794180Y-104360498D01*
X240674482Y-104324188D01*
X240550000Y-104311928D01*
X239485001Y-104311928D01*
X239484700Y-104308876D01*
X239484700Y-104308867D01*
X239473703Y-104197214D01*
X239430246Y-104053953D01*
X239359674Y-103921924D01*
X239320324Y-103873976D01*
X239288499Y-103835196D01*
X239288495Y-103835192D01*
X239264701Y-103806199D01*
X239235709Y-103782406D01*
X238777859Y-103324556D01*
X238805820Y-103339502D01*
X238925518Y-103375812D01*
X239050000Y-103388072D01*
X240550000Y-103388072D01*
X240674482Y-103375812D01*
X240794180Y-103339502D01*
X240904494Y-103280537D01*
X241001185Y-103201185D01*
X241080537Y-103104494D01*
X241139502Y-102994180D01*
X241175812Y-102874482D01*
X241188072Y-102750000D01*
X241188072Y-101750000D01*
X241175812Y-101625518D01*
X241139502Y-101505820D01*
X241080537Y-101395506D01*
X241001185Y-101298815D01*
X240904494Y-101219463D01*
X240794180Y-101160498D01*
X240674482Y-101124188D01*
X240550000Y-101111928D01*
X239050000Y-101111928D01*
X238925518Y-101124188D01*
X238805820Y-101160498D01*
X238695506Y-101219463D01*
X238598815Y-101298815D01*
X238519463Y-101395506D01*
X238460498Y-101505820D01*
X238424188Y-101625518D01*
X238411928Y-101750000D01*
X238411928Y-102750000D01*
X238424188Y-102874482D01*
X238460498Y-102994180D01*
X238475444Y-103022141D01*
X231909604Y-96456303D01*
X231885801Y-96427299D01*
X231770076Y-96332326D01*
X231638047Y-96261754D01*
X231494786Y-96218297D01*
X231383133Y-96207300D01*
X231383122Y-96207300D01*
X231345800Y-96203624D01*
X231308478Y-96207300D01*
X206275025Y-96207300D01*
X206237700Y-96203624D01*
X206200375Y-96207300D01*
X206200367Y-96207300D01*
X206088714Y-96218297D01*
X205945453Y-96261754D01*
X205813424Y-96332326D01*
X205697699Y-96427299D01*
X205673900Y-96456298D01*
X205094298Y-97035901D01*
X205065300Y-97059699D01*
X205041502Y-97088697D01*
X205041501Y-97088698D01*
X204970326Y-97175424D01*
X204936591Y-97238537D01*
X204910725Y-97286928D01*
X204220000Y-97286928D01*
X204095518Y-97299188D01*
X204036571Y-97317069D01*
X202643104Y-95923603D01*
X202619301Y-95894599D01*
X202503576Y-95799626D01*
X202371547Y-95729054D01*
X202228286Y-95685597D01*
X202116633Y-95674600D01*
X202116622Y-95674600D01*
X202079300Y-95670924D01*
X202041978Y-95674600D01*
X195599311Y-95674600D01*
X195555374Y-95630663D01*
X195385856Y-95517395D01*
X195197498Y-95439374D01*
X194997539Y-95399600D01*
X194793661Y-95399600D01*
X194593702Y-95439374D01*
X194405344Y-95517395D01*
X194235826Y-95630663D01*
X194191889Y-95674600D01*
X186802725Y-95674600D01*
X186765400Y-95670924D01*
X186728075Y-95674600D01*
X186728067Y-95674600D01*
X186616414Y-95685597D01*
X186473153Y-95729054D01*
X186341124Y-95799626D01*
X186225399Y-95894599D01*
X186201601Y-95923598D01*
X185988270Y-96136928D01*
X185662500Y-96136928D01*
X185491684Y-96153752D01*
X185327433Y-96203577D01*
X185176058Y-96284488D01*
X185043377Y-96393377D01*
X184934488Y-96526058D01*
X184853577Y-96677433D01*
X184803752Y-96841684D01*
X184786928Y-97012500D01*
X184786928Y-97229836D01*
X184688202Y-97249474D01*
X184499844Y-97327495D01*
X184330326Y-97440763D01*
X184186163Y-97584926D01*
X184072895Y-97754444D01*
X183994874Y-97942802D01*
X183955100Y-98142761D01*
X183955100Y-98346639D01*
X183994874Y-98546598D01*
X184072895Y-98734956D01*
X184186163Y-98904474D01*
X184330326Y-99048637D01*
X184499844Y-99161905D01*
X184688202Y-99239926D01*
X184773786Y-99256950D01*
X184723944Y-99277595D01*
X184554426Y-99390863D01*
X184410263Y-99535026D01*
X184296995Y-99704544D01*
X184218974Y-99892902D01*
X184179200Y-100092861D01*
X184179200Y-100296739D01*
X184218974Y-100496698D01*
X184296995Y-100685056D01*
X184410263Y-100854574D01*
X184554426Y-100998737D01*
X184723944Y-101112005D01*
X184912302Y-101190026D01*
X185112261Y-101229800D01*
X185316139Y-101229800D01*
X185516098Y-101190026D01*
X185557202Y-101173000D01*
X185723000Y-101173000D01*
X185723000Y-101153000D01*
X185836928Y-101153000D01*
X185836928Y-101830000D01*
X185849188Y-101954482D01*
X185885498Y-102074180D01*
X185944463Y-102184494D01*
X185977000Y-102224141D01*
X185977000Y-102306250D01*
X186084072Y-102413322D01*
X186094454Y-102447547D01*
X186165026Y-102579576D01*
X186259999Y-102695301D01*
X186365959Y-102782260D01*
X186537300Y-102953601D01*
X186537300Y-102961928D01*
X184950000Y-102961928D01*
X184825518Y-102974188D01*
X184705820Y-103010498D01*
X184595506Y-103069463D01*
X184498815Y-103148815D01*
X184419463Y-103245506D01*
X184360498Y-103355820D01*
X184324188Y-103475518D01*
X184311928Y-103600000D01*
X184311928Y-106100000D01*
X184324188Y-106224482D01*
X184360498Y-106344180D01*
X184419463Y-106454494D01*
X184498815Y-106551185D01*
X184595506Y-106630537D01*
X184705820Y-106689502D01*
X184825518Y-106725812D01*
X184950000Y-106738072D01*
X186750000Y-106738072D01*
X186874482Y-106725812D01*
X186994180Y-106689502D01*
X187104494Y-106630537D01*
X187201185Y-106551185D01*
X187280537Y-106454494D01*
X187339502Y-106344180D01*
X187375812Y-106224482D01*
X187388072Y-106100000D01*
X187388072Y-105544575D01*
X187499576Y-105484974D01*
X187615301Y-105390001D01*
X187639104Y-105360997D01*
X189129802Y-103870300D01*
X189341802Y-103870300D01*
X189376263Y-103921874D01*
X189520426Y-104066037D01*
X189689944Y-104179305D01*
X189878302Y-104257326D01*
X190078261Y-104297100D01*
X190140399Y-104297100D01*
X190514700Y-104671402D01*
X190514700Y-104812667D01*
X190511023Y-104850000D01*
X190525697Y-104998986D01*
X190569154Y-105142247D01*
X190639726Y-105274276D01*
X190734699Y-105390001D01*
X190850424Y-105484974D01*
X190961928Y-105544575D01*
X190961928Y-106100000D01*
X190974188Y-106224482D01*
X191010498Y-106344180D01*
X191069463Y-106454494D01*
X191148815Y-106551185D01*
X191245506Y-106630537D01*
X191355820Y-106689502D01*
X191475518Y-106725812D01*
X191600000Y-106738072D01*
X193400000Y-106738072D01*
X193524482Y-106725812D01*
X193644180Y-106689502D01*
X193754494Y-106630537D01*
X193851185Y-106551185D01*
X193930537Y-106454494D01*
X193989502Y-106344180D01*
X194025812Y-106224482D01*
X194038072Y-106100000D01*
X194038072Y-103600000D01*
X194025812Y-103475518D01*
X193989502Y-103355820D01*
X193930537Y-103245506D01*
X193851185Y-103148815D01*
X193754494Y-103069463D01*
X193644180Y-103010498D01*
X193524482Y-102974188D01*
X193400000Y-102961928D01*
X191600000Y-102961928D01*
X191475518Y-102974188D01*
X191355820Y-103010498D01*
X191245506Y-103069463D01*
X191203944Y-103103572D01*
X191175426Y-102960202D01*
X191097405Y-102771844D01*
X190984137Y-102602326D01*
X190839974Y-102458163D01*
X190670456Y-102344895D01*
X190482098Y-102266874D01*
X190282139Y-102227100D01*
X190078261Y-102227100D01*
X189878302Y-102266874D01*
X189689944Y-102344895D01*
X189681855Y-102350300D01*
X189129802Y-102350300D01*
X188703786Y-101924285D01*
X188713072Y-101830000D01*
X188713072Y-101187464D01*
X188859756Y-101126705D01*
X189029274Y-101013437D01*
X189173437Y-100869274D01*
X189286705Y-100699756D01*
X189364726Y-100511398D01*
X189404500Y-100311439D01*
X189404500Y-100107561D01*
X189364726Y-99907602D01*
X189286705Y-99719244D01*
X189173437Y-99549726D01*
X189029274Y-99405563D01*
X188859756Y-99292295D01*
X188713072Y-99231536D01*
X188713072Y-98570000D01*
X188700812Y-98445518D01*
X188664502Y-98325820D01*
X188605537Y-98215506D01*
X188552579Y-98150976D01*
X188606623Y-98106623D01*
X188715512Y-97973942D01*
X188796423Y-97822567D01*
X188846248Y-97658316D01*
X188863072Y-97487500D01*
X188863072Y-97194600D01*
X194191889Y-97194600D01*
X194235826Y-97238537D01*
X194405344Y-97351805D01*
X194593702Y-97429826D01*
X194793661Y-97469600D01*
X194997539Y-97469600D01*
X195197498Y-97429826D01*
X195385856Y-97351805D01*
X195555374Y-97238537D01*
X195599311Y-97194600D01*
X201764499Y-97194600D01*
X203134700Y-98564802D01*
X203134701Y-100112657D01*
X203131023Y-100150000D01*
X203145697Y-100298986D01*
X203189154Y-100442247D01*
X203259726Y-100574276D01*
X203354699Y-100690001D01*
X203470424Y-100784974D01*
X203602453Y-100855546D01*
X203745714Y-100899003D01*
X203746577Y-100899088D01*
X203768815Y-100926185D01*
X203865506Y-101005537D01*
X203975820Y-101064502D01*
X204095518Y-101100812D01*
X204220000Y-101113072D01*
X205280000Y-101113072D01*
X205404482Y-101100812D01*
X205524180Y-101064502D01*
X205634494Y-101005537D01*
X205731185Y-100926185D01*
X205810537Y-100829494D01*
X205850000Y-100755665D01*
X205889463Y-100829494D01*
X205968815Y-100926185D01*
X206065506Y-101005537D01*
X206175820Y-101064502D01*
X206295518Y-101100812D01*
X206420000Y-101113072D01*
X207480000Y-101113072D01*
X207604482Y-101100812D01*
X207724180Y-101064502D01*
X207815293Y-101015800D01*
X207823815Y-101026185D01*
X207920506Y-101105537D01*
X208030820Y-101164502D01*
X208150518Y-101200812D01*
X208275000Y-101213072D01*
X208464250Y-101210000D01*
X208623000Y-101051250D01*
X208623000Y-100177000D01*
X208877000Y-100177000D01*
X208877000Y-101051250D01*
X209035750Y-101210000D01*
X209225000Y-101213072D01*
X209349482Y-101200812D01*
X209469180Y-101164502D01*
X209579494Y-101105537D01*
X209676185Y-101026185D01*
X209755537Y-100929494D01*
X209814502Y-100819180D01*
X209850812Y-100699482D01*
X209863072Y-100575000D01*
X209860000Y-100335750D01*
X209701250Y-100177000D01*
X208877000Y-100177000D01*
X208623000Y-100177000D01*
X208603000Y-100177000D01*
X208603000Y-99923000D01*
X208623000Y-99923000D01*
X208623000Y-99903000D01*
X208877000Y-99903000D01*
X208877000Y-99923000D01*
X209701250Y-99923000D01*
X209860000Y-99764250D01*
X209863072Y-99525000D01*
X209850812Y-99400518D01*
X209814502Y-99280820D01*
X209755537Y-99170506D01*
X209695901Y-99097839D01*
X209715512Y-99073942D01*
X209722964Y-99060000D01*
X212713405Y-99060000D01*
X212727071Y-99198745D01*
X212771916Y-99346582D01*
X212844742Y-99482829D01*
X212883454Y-99530000D01*
X212844742Y-99577171D01*
X212771916Y-99713418D01*
X212727071Y-99861255D01*
X212711928Y-100015000D01*
X212711928Y-100315000D01*
X212727071Y-100468745D01*
X212771916Y-100616582D01*
X212844742Y-100752829D01*
X212883454Y-100800000D01*
X212844742Y-100847171D01*
X212771916Y-100983418D01*
X212727071Y-101131255D01*
X212711928Y-101285000D01*
X212711928Y-101585000D01*
X212727071Y-101738745D01*
X212771916Y-101886582D01*
X212843730Y-102020936D01*
X212819463Y-102050506D01*
X212760498Y-102160820D01*
X212724188Y-102280518D01*
X212711928Y-102405000D01*
X212715000Y-102419250D01*
X212873750Y-102578000D01*
X214198000Y-102578000D01*
X214198000Y-102558000D01*
X214452000Y-102558000D01*
X214452000Y-102578000D01*
X214472000Y-102578000D01*
X214472000Y-102832000D01*
X214452000Y-102832000D01*
X214452000Y-102852000D01*
X214198000Y-102852000D01*
X214198000Y-102832000D01*
X212873750Y-102832000D01*
X212715000Y-102990750D01*
X212711928Y-103005000D01*
X212724188Y-103129482D01*
X212760498Y-103249180D01*
X212819463Y-103359494D01*
X212898815Y-103456185D01*
X212995506Y-103535537D01*
X213105820Y-103594502D01*
X213225518Y-103630812D01*
X213350000Y-103643072D01*
X214039250Y-103640000D01*
X214197998Y-103481252D01*
X214197998Y-103581901D01*
X213539003Y-104240896D01*
X213509999Y-104264699D01*
X213461178Y-104324188D01*
X213415026Y-104380424D01*
X213379568Y-104446761D01*
X213344454Y-104512454D01*
X213314279Y-104611928D01*
X212975000Y-104611928D01*
X212850518Y-104624188D01*
X212850000Y-104624345D01*
X212849482Y-104624188D01*
X212725000Y-104611928D01*
X212175000Y-104611928D01*
X212050518Y-104624188D01*
X211930820Y-104660498D01*
X211820506Y-104719463D01*
X211723815Y-104798815D01*
X211644463Y-104895506D01*
X211585498Y-105005820D01*
X211549188Y-105125518D01*
X211536928Y-105250000D01*
X211536928Y-106315300D01*
X209882222Y-106315300D01*
X209844900Y-106311624D01*
X209807577Y-106315300D01*
X209807567Y-106315300D01*
X209695914Y-106326297D01*
X209572687Y-106363677D01*
X209552653Y-106369754D01*
X209420623Y-106440326D01*
X209336983Y-106508968D01*
X209304899Y-106535299D01*
X209281101Y-106564297D01*
X208260702Y-107584696D01*
X208231699Y-107608499D01*
X208178907Y-107672827D01*
X208136726Y-107724224D01*
X208113434Y-107767800D01*
X208066154Y-107856254D01*
X208022697Y-107999515D01*
X208014483Y-108082915D01*
X207832441Y-108264957D01*
X207814502Y-108205820D01*
X207755537Y-108095506D01*
X207676185Y-107998815D01*
X207579494Y-107919463D01*
X207469180Y-107860498D01*
X207349482Y-107824188D01*
X207225000Y-107811928D01*
X206660750Y-107815000D01*
X206502000Y-107973750D01*
X206502000Y-108823000D01*
X206522000Y-108823000D01*
X206522000Y-109077000D01*
X206502000Y-109077000D01*
X206502000Y-109097000D01*
X206248000Y-109097000D01*
X206248000Y-109077000D01*
X205048750Y-109077000D01*
X204890000Y-109235750D01*
X204886928Y-109450000D01*
X204899188Y-109574482D01*
X204935498Y-109694180D01*
X204994463Y-109804494D01*
X205073815Y-109901185D01*
X205170506Y-109980537D01*
X205280820Y-110039502D01*
X205400518Y-110075812D01*
X205525000Y-110088072D01*
X206011978Y-110085421D01*
X206007399Y-110090000D01*
X200200625Y-110090000D01*
X200163300Y-110086324D01*
X200125975Y-110090000D01*
X200125967Y-110090000D01*
X200014314Y-110100997D01*
X199871053Y-110144454D01*
X199739024Y-110215026D01*
X199623299Y-110309999D01*
X199599501Y-110338997D01*
X194972003Y-114966496D01*
X194942999Y-114990299D01*
X194914096Y-115025518D01*
X194848026Y-115106024D01*
X194801939Y-115192247D01*
X194777454Y-115238054D01*
X194733997Y-115381315D01*
X194723000Y-115492968D01*
X194723000Y-115492978D01*
X194719324Y-115530300D01*
X194723000Y-115567623D01*
X194723001Y-116394697D01*
X194485300Y-116632398D01*
X194485300Y-112437333D01*
X194488977Y-112400000D01*
X194474303Y-112251014D01*
X194430846Y-112107753D01*
X194360274Y-111975724D01*
X194265301Y-111859999D01*
X194149576Y-111765026D01*
X194038072Y-111705425D01*
X194038072Y-111150000D01*
X194025812Y-111025518D01*
X193989502Y-110905820D01*
X193930537Y-110795506D01*
X193851185Y-110698815D01*
X193761241Y-110625000D01*
X193851185Y-110551185D01*
X193930537Y-110454494D01*
X193989502Y-110344180D01*
X194025812Y-110224482D01*
X194038072Y-110100000D01*
X194038072Y-109450000D01*
X198586928Y-109450000D01*
X198599188Y-109574482D01*
X198635498Y-109694180D01*
X198694463Y-109804494D01*
X198773815Y-109901185D01*
X198870506Y-109980537D01*
X198980820Y-110039502D01*
X199100518Y-110075812D01*
X199225000Y-110088072D01*
X199789250Y-110085000D01*
X199948000Y-109926250D01*
X199948000Y-109077000D01*
X200202000Y-109077000D01*
X200202000Y-109926250D01*
X200360750Y-110085000D01*
X200925000Y-110088072D01*
X201049482Y-110075812D01*
X201169180Y-110039502D01*
X201279494Y-109980537D01*
X201376185Y-109901185D01*
X201455537Y-109804494D01*
X201514502Y-109694180D01*
X201550812Y-109574482D01*
X201563072Y-109450000D01*
X201560000Y-109235750D01*
X201401250Y-109077000D01*
X200202000Y-109077000D01*
X199948000Y-109077000D01*
X198748750Y-109077000D01*
X198590000Y-109235750D01*
X198586928Y-109450000D01*
X194038072Y-109450000D01*
X194038072Y-108450000D01*
X198586928Y-108450000D01*
X198590000Y-108664250D01*
X198748750Y-108823000D01*
X199948000Y-108823000D01*
X199948000Y-107973750D01*
X200202000Y-107973750D01*
X200202000Y-108823000D01*
X201401250Y-108823000D01*
X201560000Y-108664250D01*
X201563072Y-108450000D01*
X204886928Y-108450000D01*
X204890000Y-108664250D01*
X205048750Y-108823000D01*
X206248000Y-108823000D01*
X206248000Y-107973750D01*
X206089250Y-107815000D01*
X205525000Y-107811928D01*
X205400518Y-107824188D01*
X205280820Y-107860498D01*
X205170506Y-107919463D01*
X205073815Y-107998815D01*
X204994463Y-108095506D01*
X204935498Y-108205820D01*
X204899188Y-108325518D01*
X204886928Y-108450000D01*
X201563072Y-108450000D01*
X201550812Y-108325518D01*
X201514502Y-108205820D01*
X201455537Y-108095506D01*
X201376185Y-107998815D01*
X201279494Y-107919463D01*
X201169180Y-107860498D01*
X201049482Y-107824188D01*
X200925000Y-107811928D01*
X200360750Y-107815000D01*
X200202000Y-107973750D01*
X199948000Y-107973750D01*
X199789250Y-107815000D01*
X199225000Y-107811928D01*
X199100518Y-107824188D01*
X198980820Y-107860498D01*
X198870506Y-107919463D01*
X198773815Y-107998815D01*
X198694463Y-108095506D01*
X198635498Y-108205820D01*
X198599188Y-108325518D01*
X198586928Y-108450000D01*
X194038072Y-108450000D01*
X194038072Y-107600000D01*
X194025812Y-107475518D01*
X193989502Y-107355820D01*
X193930537Y-107245506D01*
X193851185Y-107148815D01*
X193754494Y-107069463D01*
X193644180Y-107010498D01*
X193524482Y-106974188D01*
X193400000Y-106961928D01*
X191600000Y-106961928D01*
X191475518Y-106974188D01*
X191355820Y-107010498D01*
X191245506Y-107069463D01*
X191148815Y-107148815D01*
X191069463Y-107245506D01*
X191010498Y-107355820D01*
X190974188Y-107475518D01*
X190961928Y-107600000D01*
X190961928Y-110100000D01*
X190974188Y-110224482D01*
X191010498Y-110344180D01*
X191069463Y-110454494D01*
X191148815Y-110551185D01*
X191238759Y-110625000D01*
X191148815Y-110698815D01*
X191069463Y-110795506D01*
X191010498Y-110905820D01*
X190974188Y-111025518D01*
X190961928Y-111150000D01*
X190961928Y-113650000D01*
X190974188Y-113774482D01*
X191010498Y-113894180D01*
X191069463Y-114004494D01*
X191148815Y-114101185D01*
X191245506Y-114180537D01*
X191355820Y-114239502D01*
X191475518Y-114275812D01*
X191600000Y-114288072D01*
X192965300Y-114288072D01*
X192965300Y-114514102D01*
X192785750Y-114515000D01*
X192627000Y-114673750D01*
X192627000Y-116273000D01*
X192647000Y-116273000D01*
X192647000Y-116527000D01*
X192627000Y-116527000D01*
X192627000Y-116547000D01*
X192373000Y-116547000D01*
X192373000Y-116527000D01*
X191123750Y-116527000D01*
X190965000Y-116685750D01*
X190961928Y-117650000D01*
X190974188Y-117774482D01*
X191010498Y-117894180D01*
X191069463Y-118004494D01*
X191148815Y-118101185D01*
X191245506Y-118180537D01*
X191355820Y-118239502D01*
X191475518Y-118275812D01*
X191600000Y-118288072D01*
X192180027Y-118285171D01*
X191100499Y-119364700D01*
X190277333Y-119364700D01*
X190240000Y-119361023D01*
X190202667Y-119364700D01*
X190091014Y-119375697D01*
X189947753Y-119419154D01*
X189815724Y-119489726D01*
X189699999Y-119584699D01*
X189605026Y-119700424D01*
X189534454Y-119832453D01*
X189490997Y-119975714D01*
X189486911Y-120017204D01*
X189293368Y-120146525D01*
X189161513Y-120278380D01*
X189139502Y-120205820D01*
X189080537Y-120095506D01*
X189001185Y-119998815D01*
X188904494Y-119919463D01*
X188794180Y-119860498D01*
X188674482Y-119824188D01*
X188550000Y-119811928D01*
X188394575Y-119811928D01*
X188334974Y-119700424D01*
X188240001Y-119584699D01*
X188124276Y-119489726D01*
X187992247Y-119419154D01*
X187848986Y-119375697D01*
X187737333Y-119364700D01*
X187700000Y-119361023D01*
X187662667Y-119364700D01*
X187059903Y-119364700D01*
X185827002Y-118131800D01*
X185827002Y-118126252D01*
X185985750Y-118285000D01*
X186600000Y-118288072D01*
X186724482Y-118275812D01*
X186844180Y-118239502D01*
X186954494Y-118180537D01*
X187051185Y-118101185D01*
X187130537Y-118004494D01*
X187189502Y-117894180D01*
X187225812Y-117774482D01*
X187238072Y-117650000D01*
X187235000Y-116685750D01*
X187076250Y-116527000D01*
X185827000Y-116527000D01*
X185827000Y-116547000D01*
X185573000Y-116547000D01*
X185573000Y-116527000D01*
X185553000Y-116527000D01*
X185553000Y-116273000D01*
X185573000Y-116273000D01*
X185573000Y-114673750D01*
X185827000Y-114673750D01*
X185827000Y-116273000D01*
X187076250Y-116273000D01*
X187235000Y-116114250D01*
X187238072Y-115150000D01*
X190961928Y-115150000D01*
X190965000Y-116114250D01*
X191123750Y-116273000D01*
X192373000Y-116273000D01*
X192373000Y-114673750D01*
X192214250Y-114515000D01*
X191600000Y-114511928D01*
X191475518Y-114524188D01*
X191355820Y-114560498D01*
X191245506Y-114619463D01*
X191148815Y-114698815D01*
X191069463Y-114795506D01*
X191010498Y-114905820D01*
X190974188Y-115025518D01*
X190961928Y-115150000D01*
X187238072Y-115150000D01*
X187225812Y-115025518D01*
X187189502Y-114905820D01*
X187130537Y-114795506D01*
X187051185Y-114698815D01*
X186954494Y-114619463D01*
X186844180Y-114560498D01*
X186724482Y-114524188D01*
X186600000Y-114511928D01*
X185985750Y-114515000D01*
X185827000Y-114673750D01*
X185573000Y-114673750D01*
X185414250Y-114515000D01*
X185234700Y-114514102D01*
X185234700Y-114288072D01*
X186600000Y-114288072D01*
X186724482Y-114275812D01*
X186844180Y-114239502D01*
X186954494Y-114180537D01*
X187051185Y-114101185D01*
X187130537Y-114004494D01*
X187189502Y-113894180D01*
X187225812Y-113774482D01*
X187238072Y-113650000D01*
X187238072Y-111150000D01*
X187225812Y-111025518D01*
X187189502Y-110905820D01*
X187130537Y-110795506D01*
X187051185Y-110698815D01*
X187021829Y-110674723D01*
X187104494Y-110630537D01*
X187201185Y-110551185D01*
X187280537Y-110454494D01*
X187339502Y-110344180D01*
X187375812Y-110224482D01*
X187388072Y-110100000D01*
X187388072Y-107600000D01*
X187375812Y-107475518D01*
X187339502Y-107355820D01*
X187280537Y-107245506D01*
X187201185Y-107148815D01*
X187104494Y-107069463D01*
X186994180Y-107010498D01*
X186874482Y-106974188D01*
X186750000Y-106961928D01*
X184950000Y-106961928D01*
X184825518Y-106974188D01*
X184705820Y-107010498D01*
X184595506Y-107069463D01*
X184498815Y-107148815D01*
X184419463Y-107245506D01*
X184360498Y-107355820D01*
X184324188Y-107475518D01*
X184311928Y-107600000D01*
X184311928Y-110100000D01*
X184324188Y-110224482D01*
X184360498Y-110344180D01*
X184419463Y-110454494D01*
X184498815Y-110551185D01*
X184528171Y-110575277D01*
X184445506Y-110619463D01*
X184348815Y-110698815D01*
X184269463Y-110795506D01*
X184210498Y-110905820D01*
X184174188Y-111025518D01*
X184161928Y-111150000D01*
X184161928Y-111705425D01*
X184050424Y-111765026D01*
X183934699Y-111859999D01*
X183839726Y-111975724D01*
X183769154Y-112107753D01*
X183725697Y-112251014D01*
X183711023Y-112400000D01*
X182135000Y-112400000D01*
X182135000Y-101830000D01*
X184886928Y-101830000D01*
X184899188Y-101954482D01*
X184935498Y-102074180D01*
X184994463Y-102184494D01*
X185073815Y-102281185D01*
X185170506Y-102360537D01*
X185280820Y-102419502D01*
X185400518Y-102455812D01*
X185525000Y-102468072D01*
X185564250Y-102465000D01*
X185723000Y-102306250D01*
X185723000Y-101427000D01*
X185048750Y-101427000D01*
X184890000Y-101585750D01*
X184886928Y-101830000D01*
X182135000Y-101830000D01*
X182135000Y-94085000D01*
X245765001Y-94085000D01*
X245765000Y-130715000D01*
G36*
X234417395Y-101113697D02*
G01*
X234150000Y-101111928D01*
X234025518Y-101124188D01*
X233905820Y-101160498D01*
X233795506Y-101219463D01*
X233698815Y-101298815D01*
X233619463Y-101395506D01*
X233560498Y-101505820D01*
X233524188Y-101625518D01*
X233511928Y-101750000D01*
X233515000Y-101964250D01*
X233673750Y-102123000D01*
X234773000Y-102123000D01*
X234773000Y-102103000D01*
X235027000Y-102103000D01*
X235027000Y-102123000D01*
X235047000Y-102123000D01*
X235047000Y-102377000D01*
X235027000Y-102377000D01*
X235027000Y-103226250D01*
X235185750Y-103385000D01*
X235650000Y-103388072D01*
X235774482Y-103375812D01*
X235894180Y-103339502D01*
X236004494Y-103280537D01*
X236101185Y-103201185D01*
X236180537Y-103104494D01*
X236239502Y-102994180D01*
X236253089Y-102949391D01*
X237964700Y-104661003D01*
X237964701Y-105412658D01*
X237961023Y-105450000D01*
X237964700Y-105487333D01*
X237964701Y-112587657D01*
X237961023Y-112625000D01*
X237964700Y-112662333D01*
X237964701Y-119485197D01*
X236310099Y-121139800D01*
X229088072Y-121139800D01*
X229088072Y-120961730D01*
X229489802Y-120560000D01*
X233568954Y-120560000D01*
X233619463Y-120654494D01*
X233698815Y-120751185D01*
X233795506Y-120830537D01*
X233905820Y-120889502D01*
X234025518Y-120925812D01*
X234150000Y-120938072D01*
X235650000Y-120938072D01*
X235774482Y-120925812D01*
X235894180Y-120889502D01*
X236004494Y-120830537D01*
X236101185Y-120751185D01*
X236180537Y-120654494D01*
X236239502Y-120544180D01*
X236249567Y-120511000D01*
X236267547Y-120505546D01*
X236399576Y-120434974D01*
X236515301Y-120340001D01*
X236610274Y-120224276D01*
X236680846Y-120092247D01*
X236724303Y-119948986D01*
X236738977Y-119800000D01*
X236735300Y-119762667D01*
X236735300Y-112718622D01*
X236738976Y-112681299D01*
X236735300Y-112643977D01*
X236735300Y-112643967D01*
X236733432Y-112625000D01*
X236735300Y-112606033D01*
X236735300Y-112606023D01*
X236738976Y-112568701D01*
X236735300Y-112531378D01*
X236735300Y-105487333D01*
X236738977Y-105450000D01*
X236724303Y-105301014D01*
X236680846Y-105157753D01*
X236610274Y-105025724D01*
X236515301Y-104909999D01*
X236399576Y-104815026D01*
X236267547Y-104744454D01*
X236249567Y-104739000D01*
X236239502Y-104705820D01*
X236180537Y-104595506D01*
X236101185Y-104498815D01*
X236004494Y-104419463D01*
X235894180Y-104360498D01*
X235774482Y-104324188D01*
X235650000Y-104311928D01*
X234150000Y-104311928D01*
X234025518Y-104324188D01*
X233905820Y-104360498D01*
X233795506Y-104419463D01*
X233698815Y-104498815D01*
X233619463Y-104595506D01*
X233560498Y-104705820D01*
X233524188Y-104825518D01*
X233511928Y-104950000D01*
X233511928Y-105950000D01*
X233524188Y-106074482D01*
X233560498Y-106194180D01*
X233619463Y-106304494D01*
X233698815Y-106401185D01*
X233795506Y-106480537D01*
X233905820Y-106539502D01*
X234025518Y-106575812D01*
X234150000Y-106588072D01*
X235215301Y-106588072D01*
X235215301Y-108289804D01*
X235185750Y-108290000D01*
X235027000Y-108448750D01*
X235027000Y-109298000D01*
X235047000Y-109298000D01*
X235047000Y-109552000D01*
X235027000Y-109552000D01*
X235027000Y-110401250D01*
X235185750Y-110560000D01*
X235215300Y-110560196D01*
X235215300Y-111486928D01*
X234150000Y-111486928D01*
X234025518Y-111499188D01*
X233905820Y-111535498D01*
X233795506Y-111594463D01*
X233698815Y-111673815D01*
X233619463Y-111770506D01*
X233560498Y-111880820D01*
X233524188Y-112000518D01*
X233511928Y-112125000D01*
X233511928Y-113125000D01*
X233524188Y-113249482D01*
X233560498Y-113369180D01*
X233619463Y-113479494D01*
X233698815Y-113576185D01*
X233795506Y-113655537D01*
X233905820Y-113714502D01*
X234025518Y-113750812D01*
X234150000Y-113763072D01*
X235215300Y-113763072D01*
X235215300Y-115464804D01*
X235185750Y-115465000D01*
X235027000Y-115623750D01*
X235027000Y-116473000D01*
X235047000Y-116473000D01*
X235047000Y-116727000D01*
X235027000Y-116727000D01*
X235027000Y-117576250D01*
X235185750Y-117735000D01*
X235215301Y-117735196D01*
X235215301Y-118661928D01*
X234150000Y-118661928D01*
X234025518Y-118674188D01*
X233905820Y-118710498D01*
X233795506Y-118769463D01*
X233698815Y-118848815D01*
X233619463Y-118945506D01*
X233568954Y-119040000D01*
X229212323Y-119040000D01*
X229175000Y-119036324D01*
X229137677Y-119040000D01*
X229137667Y-119040000D01*
X229026014Y-119050997D01*
X228882753Y-119094454D01*
X228750723Y-119165026D01*
X228708979Y-119199285D01*
X228634999Y-119259999D01*
X228611201Y-119288997D01*
X227963271Y-119936928D01*
X227637500Y-119936928D01*
X227485774Y-119951872D01*
X226772903Y-119239002D01*
X226749101Y-119209999D01*
X226633376Y-119115026D01*
X226501347Y-119044454D01*
X226358086Y-119000997D01*
X226246433Y-118990000D01*
X226246422Y-118990000D01*
X226209100Y-118986324D01*
X226171778Y-118990000D01*
X224824373Y-118990000D01*
X224769180Y-118960498D01*
X224649482Y-118924188D01*
X224525000Y-118911928D01*
X223875000Y-118911928D01*
X223750518Y-118924188D01*
X223630820Y-118960498D01*
X223520506Y-119019463D01*
X223423815Y-119098815D01*
X223375685Y-119157462D01*
X223323976Y-119115026D01*
X223191947Y-119044454D01*
X223048686Y-119000997D01*
X222937033Y-118990000D01*
X222937022Y-118990000D01*
X222921516Y-118988473D01*
X222869180Y-118960498D01*
X222749482Y-118924188D01*
X222625000Y-118911928D01*
X221975000Y-118911928D01*
X221850518Y-118924188D01*
X221730820Y-118960498D01*
X221620506Y-119019463D01*
X221523815Y-119098815D01*
X221444463Y-119195506D01*
X221385498Y-119305820D01*
X221349188Y-119425518D01*
X221336928Y-119550000D01*
X221336928Y-119662426D01*
X220462573Y-118788072D01*
X220725000Y-118788072D01*
X220849482Y-118775812D01*
X220969180Y-118739502D01*
X221079494Y-118680537D01*
X221176185Y-118601185D01*
X221255537Y-118504494D01*
X221314502Y-118394180D01*
X221350812Y-118274482D01*
X221363072Y-118150000D01*
X221363072Y-117100000D01*
X233511928Y-117100000D01*
X233524188Y-117224482D01*
X233560498Y-117344180D01*
X233619463Y-117454494D01*
X233698815Y-117551185D01*
X233795506Y-117630537D01*
X233905820Y-117689502D01*
X234025518Y-117725812D01*
X234150000Y-117738072D01*
X234614250Y-117735000D01*
X234773000Y-117576250D01*
X234773000Y-116727000D01*
X233673750Y-116727000D01*
X233515000Y-116885750D01*
X233511928Y-117100000D01*
X221363072Y-117100000D01*
X221363072Y-116650000D01*
X221359038Y-116609038D01*
X221400000Y-116613072D01*
X222900000Y-116613072D01*
X223024482Y-116600812D01*
X223144180Y-116564502D01*
X223254494Y-116505537D01*
X223351185Y-116426185D01*
X223430537Y-116329494D01*
X223489502Y-116219180D01*
X223525654Y-116100000D01*
X233511928Y-116100000D01*
X233515000Y-116314250D01*
X233673750Y-116473000D01*
X234773000Y-116473000D01*
X234773000Y-115623750D01*
X234614250Y-115465000D01*
X234150000Y-115461928D01*
X234025518Y-115474188D01*
X233905820Y-115510498D01*
X233795506Y-115569463D01*
X233698815Y-115648815D01*
X233619463Y-115745506D01*
X233560498Y-115855820D01*
X233524188Y-115975518D01*
X233511928Y-116100000D01*
X223525654Y-116100000D01*
X223525812Y-116099482D01*
X223538072Y-115975000D01*
X223538072Y-115425000D01*
X223525812Y-115300518D01*
X223525655Y-115300000D01*
X223525812Y-115299482D01*
X223538072Y-115175000D01*
X223538072Y-114625000D01*
X223525812Y-114500518D01*
X223525655Y-114500000D01*
X223525812Y-114499482D01*
X223538072Y-114375000D01*
X223538072Y-113825000D01*
X223525812Y-113700518D01*
X223525655Y-113700000D01*
X223525812Y-113699482D01*
X223538072Y-113575000D01*
X223538072Y-113025000D01*
X223525812Y-112900518D01*
X223525655Y-112900000D01*
X223525812Y-112899482D01*
X223538072Y-112775000D01*
X223538072Y-112225000D01*
X223525812Y-112100518D01*
X223525454Y-112099337D01*
X223535000Y-111985750D01*
X223442917Y-111893667D01*
X223430537Y-111870506D01*
X223351185Y-111773815D01*
X223261241Y-111700000D01*
X223316439Y-111654701D01*
X223374286Y-111649003D01*
X223517547Y-111605546D01*
X223649576Y-111534974D01*
X223765301Y-111440001D01*
X223789104Y-111410997D01*
X225275102Y-109925000D01*
X233511928Y-109925000D01*
X233524188Y-110049482D01*
X233560498Y-110169180D01*
X233619463Y-110279494D01*
X233698815Y-110376185D01*
X233795506Y-110455537D01*
X233905820Y-110514502D01*
X234025518Y-110550812D01*
X234150000Y-110563072D01*
X234614250Y-110560000D01*
X234773000Y-110401250D01*
X234773000Y-109552000D01*
X233673750Y-109552000D01*
X233515000Y-109710750D01*
X233511928Y-109925000D01*
X225275102Y-109925000D01*
X226275102Y-108925000D01*
X233511928Y-108925000D01*
X233515000Y-109139250D01*
X233673750Y-109298000D01*
X234773000Y-109298000D01*
X234773000Y-108448750D01*
X234614250Y-108290000D01*
X234150000Y-108286928D01*
X234025518Y-108299188D01*
X233905820Y-108335498D01*
X233795506Y-108394463D01*
X233698815Y-108473815D01*
X233619463Y-108570506D01*
X233560498Y-108680820D01*
X233524188Y-108800518D01*
X233511928Y-108925000D01*
X226275102Y-108925000D01*
X226328509Y-108871594D01*
X226357501Y-108847801D01*
X226381295Y-108818808D01*
X226381299Y-108818804D01*
X226452473Y-108732077D01*
X226452474Y-108732076D01*
X226523046Y-108600047D01*
X226566503Y-108456786D01*
X226577500Y-108345133D01*
X226577500Y-108345124D01*
X226581176Y-108307801D01*
X226577500Y-108270478D01*
X226577500Y-102750000D01*
X233511928Y-102750000D01*
X233524188Y-102874482D01*
X233560498Y-102994180D01*
X233619463Y-103104494D01*
X233698815Y-103201185D01*
X233795506Y-103280537D01*
X233905820Y-103339502D01*
X234025518Y-103375812D01*
X234150000Y-103388072D01*
X234614250Y-103385000D01*
X234773000Y-103226250D01*
X234773000Y-102377000D01*
X233673750Y-102377000D01*
X233515000Y-102535750D01*
X233511928Y-102750000D01*
X226577500Y-102750000D01*
X226577500Y-99031522D01*
X226581176Y-98994199D01*
X226577500Y-98956876D01*
X226577500Y-98956867D01*
X226566503Y-98845214D01*
X226523046Y-98701953D01*
X226452474Y-98569924D01*
X226429759Y-98542246D01*
X226381299Y-98483196D01*
X226381295Y-98483192D01*
X226357501Y-98454199D01*
X226328508Y-98430405D01*
X225711703Y-97813602D01*
X225687901Y-97784599D01*
X225618082Y-97727300D01*
X231030999Y-97727300D01*
X234417395Y-101113697D01*
G37*
X234417395Y-101113697D02*
X234150000Y-101111928D01*
X234025518Y-101124188D01*
X233905820Y-101160498D01*
X233795506Y-101219463D01*
X233698815Y-101298815D01*
X233619463Y-101395506D01*
X233560498Y-101505820D01*
X233524188Y-101625518D01*
X233511928Y-101750000D01*
X233515000Y-101964250D01*
X233673750Y-102123000D01*
X234773000Y-102123000D01*
X234773000Y-102103000D01*
X235027000Y-102103000D01*
X235027000Y-102123000D01*
X235047000Y-102123000D01*
X235047000Y-102377000D01*
X235027000Y-102377000D01*
X235027000Y-103226250D01*
X235185750Y-103385000D01*
X235650000Y-103388072D01*
X235774482Y-103375812D01*
X235894180Y-103339502D01*
X236004494Y-103280537D01*
X236101185Y-103201185D01*
X236180537Y-103104494D01*
X236239502Y-102994180D01*
X236253089Y-102949391D01*
X237964700Y-104661003D01*
X237964701Y-105412658D01*
X237961023Y-105450000D01*
X237964700Y-105487333D01*
X237964701Y-112587657D01*
X237961023Y-112625000D01*
X237964700Y-112662333D01*
X237964701Y-119485197D01*
X236310099Y-121139800D01*
X229088072Y-121139800D01*
X229088072Y-120961730D01*
X229489802Y-120560000D01*
X233568954Y-120560000D01*
X233619463Y-120654494D01*
X233698815Y-120751185D01*
X233795506Y-120830537D01*
X233905820Y-120889502D01*
X234025518Y-120925812D01*
X234150000Y-120938072D01*
X235650000Y-120938072D01*
X235774482Y-120925812D01*
X235894180Y-120889502D01*
X236004494Y-120830537D01*
X236101185Y-120751185D01*
X236180537Y-120654494D01*
X236239502Y-120544180D01*
X236249567Y-120511000D01*
X236267547Y-120505546D01*
X236399576Y-120434974D01*
X236515301Y-120340001D01*
X236610274Y-120224276D01*
X236680846Y-120092247D01*
X236724303Y-119948986D01*
X236738977Y-119800000D01*
X236735300Y-119762667D01*
X236735300Y-112718622D01*
X236738976Y-112681299D01*
X236735300Y-112643977D01*
X236735300Y-112643967D01*
X236733432Y-112625000D01*
X236735300Y-112606033D01*
X236735300Y-112606023D01*
X236738976Y-112568701D01*
X236735300Y-112531378D01*
X236735300Y-105487333D01*
X236738977Y-105450000D01*
X236724303Y-105301014D01*
X236680846Y-105157753D01*
X236610274Y-105025724D01*
X236515301Y-104909999D01*
X236399576Y-104815026D01*
X236267547Y-104744454D01*
X236249567Y-104739000D01*
X236239502Y-104705820D01*
X236180537Y-104595506D01*
X236101185Y-104498815D01*
X236004494Y-104419463D01*
X235894180Y-104360498D01*
X235774482Y-104324188D01*
X235650000Y-104311928D01*
X234150000Y-104311928D01*
X234025518Y-104324188D01*
X233905820Y-104360498D01*
X233795506Y-104419463D01*
X233698815Y-104498815D01*
X233619463Y-104595506D01*
X233560498Y-104705820D01*
X233524188Y-104825518D01*
X233511928Y-104950000D01*
X233511928Y-105950000D01*
X233524188Y-106074482D01*
X233560498Y-106194180D01*
X233619463Y-106304494D01*
X233698815Y-106401185D01*
X233795506Y-106480537D01*
X233905820Y-106539502D01*
X234025518Y-106575812D01*
X234150000Y-106588072D01*
X235215301Y-106588072D01*
X235215301Y-108289804D01*
X235185750Y-108290000D01*
X235027000Y-108448750D01*
X235027000Y-109298000D01*
X235047000Y-109298000D01*
X235047000Y-109552000D01*
X235027000Y-109552000D01*
X235027000Y-110401250D01*
X235185750Y-110560000D01*
X235215300Y-110560196D01*
X235215300Y-111486928D01*
X234150000Y-111486928D01*
X234025518Y-111499188D01*
X233905820Y-111535498D01*
X233795506Y-111594463D01*
X233698815Y-111673815D01*
X233619463Y-111770506D01*
X233560498Y-111880820D01*
X233524188Y-112000518D01*
X233511928Y-112125000D01*
X233511928Y-113125000D01*
X233524188Y-113249482D01*
X233560498Y-113369180D01*
X233619463Y-113479494D01*
X233698815Y-113576185D01*
X233795506Y-113655537D01*
X233905820Y-113714502D01*
X234025518Y-113750812D01*
X234150000Y-113763072D01*
X235215300Y-113763072D01*
X235215300Y-115464804D01*
X235185750Y-115465000D01*
X235027000Y-115623750D01*
X235027000Y-116473000D01*
X235047000Y-116473000D01*
X235047000Y-116727000D01*
X235027000Y-116727000D01*
X235027000Y-117576250D01*
X235185750Y-117735000D01*
X235215301Y-117735196D01*
X235215301Y-118661928D01*
X234150000Y-118661928D01*
X234025518Y-118674188D01*
X233905820Y-118710498D01*
X233795506Y-118769463D01*
X233698815Y-118848815D01*
X233619463Y-118945506D01*
X233568954Y-119040000D01*
X229212323Y-119040000D01*
X229175000Y-119036324D01*
X229137677Y-119040000D01*
X229137667Y-119040000D01*
X229026014Y-119050997D01*
X228882753Y-119094454D01*
X228750723Y-119165026D01*
X228708979Y-119199285D01*
X228634999Y-119259999D01*
X228611201Y-119288997D01*
X227963271Y-119936928D01*
X227637500Y-119936928D01*
X227485774Y-119951872D01*
X226772903Y-119239002D01*
X226749101Y-119209999D01*
X226633376Y-119115026D01*
X226501347Y-119044454D01*
X226358086Y-119000997D01*
X226246433Y-118990000D01*
X226246422Y-118990000D01*
X226209100Y-118986324D01*
X226171778Y-118990000D01*
X224824373Y-118990000D01*
X224769180Y-118960498D01*
X224649482Y-118924188D01*
X224525000Y-118911928D01*
X223875000Y-118911928D01*
X223750518Y-118924188D01*
X223630820Y-118960498D01*
X223520506Y-119019463D01*
X223423815Y-119098815D01*
X223375685Y-119157462D01*
X223323976Y-119115026D01*
X223191947Y-119044454D01*
X223048686Y-119000997D01*
X222937033Y-118990000D01*
X222937022Y-118990000D01*
X222921516Y-118988473D01*
X222869180Y-118960498D01*
X222749482Y-118924188D01*
X222625000Y-118911928D01*
X221975000Y-118911928D01*
X221850518Y-118924188D01*
X221730820Y-118960498D01*
X221620506Y-119019463D01*
X221523815Y-119098815D01*
X221444463Y-119195506D01*
X221385498Y-119305820D01*
X221349188Y-119425518D01*
X221336928Y-119550000D01*
X221336928Y-119662426D01*
X220462573Y-118788072D01*
X220725000Y-118788072D01*
X220849482Y-118775812D01*
X220969180Y-118739502D01*
X221079494Y-118680537D01*
X221176185Y-118601185D01*
X221255537Y-118504494D01*
X221314502Y-118394180D01*
X221350812Y-118274482D01*
X221363072Y-118150000D01*
X221363072Y-117100000D01*
X233511928Y-117100000D01*
X233524188Y-117224482D01*
X233560498Y-117344180D01*
X233619463Y-117454494D01*
X233698815Y-117551185D01*
X233795506Y-117630537D01*
X233905820Y-117689502D01*
X234025518Y-117725812D01*
X234150000Y-117738072D01*
X234614250Y-117735000D01*
X234773000Y-117576250D01*
X234773000Y-116727000D01*
X233673750Y-116727000D01*
X233515000Y-116885750D01*
X233511928Y-117100000D01*
X221363072Y-117100000D01*
X221363072Y-116650000D01*
X221359038Y-116609038D01*
X221400000Y-116613072D01*
X222900000Y-116613072D01*
X223024482Y-116600812D01*
X223144180Y-116564502D01*
X223254494Y-116505537D01*
X223351185Y-116426185D01*
X223430537Y-116329494D01*
X223489502Y-116219180D01*
X223525654Y-116100000D01*
X233511928Y-116100000D01*
X233515000Y-116314250D01*
X233673750Y-116473000D01*
X234773000Y-116473000D01*
X234773000Y-115623750D01*
X234614250Y-115465000D01*
X234150000Y-115461928D01*
X234025518Y-115474188D01*
X233905820Y-115510498D01*
X233795506Y-115569463D01*
X233698815Y-115648815D01*
X233619463Y-115745506D01*
X233560498Y-115855820D01*
X233524188Y-115975518D01*
X233511928Y-116100000D01*
X223525654Y-116100000D01*
X223525812Y-116099482D01*
X223538072Y-115975000D01*
X223538072Y-115425000D01*
X223525812Y-115300518D01*
X223525655Y-115300000D01*
X223525812Y-115299482D01*
X223538072Y-115175000D01*
X223538072Y-114625000D01*
X223525812Y-114500518D01*
X223525655Y-114500000D01*
X223525812Y-114499482D01*
X223538072Y-114375000D01*
X223538072Y-113825000D01*
X223525812Y-113700518D01*
X223525655Y-113700000D01*
X223525812Y-113699482D01*
X223538072Y-113575000D01*
X223538072Y-113025000D01*
X223525812Y-112900518D01*
X223525655Y-112900000D01*
X223525812Y-112899482D01*
X223538072Y-112775000D01*
X223538072Y-112225000D01*
X223525812Y-112100518D01*
X223525454Y-112099337D01*
X223535000Y-111985750D01*
X223442917Y-111893667D01*
X223430537Y-111870506D01*
X223351185Y-111773815D01*
X223261241Y-111700000D01*
X223316439Y-111654701D01*
X223374286Y-111649003D01*
X223517547Y-111605546D01*
X223649576Y-111534974D01*
X223765301Y-111440001D01*
X223789104Y-111410997D01*
X225275102Y-109925000D01*
X233511928Y-109925000D01*
X233524188Y-110049482D01*
X233560498Y-110169180D01*
X233619463Y-110279494D01*
X233698815Y-110376185D01*
X233795506Y-110455537D01*
X233905820Y-110514502D01*
X234025518Y-110550812D01*
X234150000Y-110563072D01*
X234614250Y-110560000D01*
X234773000Y-110401250D01*
X234773000Y-109552000D01*
X233673750Y-109552000D01*
X233515000Y-109710750D01*
X233511928Y-109925000D01*
X225275102Y-109925000D01*
X226275102Y-108925000D01*
X233511928Y-108925000D01*
X233515000Y-109139250D01*
X233673750Y-109298000D01*
X234773000Y-109298000D01*
X234773000Y-108448750D01*
X234614250Y-108290000D01*
X234150000Y-108286928D01*
X234025518Y-108299188D01*
X233905820Y-108335498D01*
X233795506Y-108394463D01*
X233698815Y-108473815D01*
X233619463Y-108570506D01*
X233560498Y-108680820D01*
X233524188Y-108800518D01*
X233511928Y-108925000D01*
X226275102Y-108925000D01*
X226328509Y-108871594D01*
X226357501Y-108847801D01*
X226381295Y-108818808D01*
X226381299Y-108818804D01*
X226452473Y-108732077D01*
X226452474Y-108732076D01*
X226523046Y-108600047D01*
X226566503Y-108456786D01*
X226577500Y-108345133D01*
X226577500Y-108345124D01*
X226581176Y-108307801D01*
X226577500Y-108270478D01*
X226577500Y-102750000D01*
X233511928Y-102750000D01*
X233524188Y-102874482D01*
X233560498Y-102994180D01*
X233619463Y-103104494D01*
X233698815Y-103201185D01*
X233795506Y-103280537D01*
X233905820Y-103339502D01*
X234025518Y-103375812D01*
X234150000Y-103388072D01*
X234614250Y-103385000D01*
X234773000Y-103226250D01*
X234773000Y-102377000D01*
X233673750Y-102377000D01*
X233515000Y-102535750D01*
X233511928Y-102750000D01*
X226577500Y-102750000D01*
X226577500Y-99031522D01*
X226581176Y-98994199D01*
X226577500Y-98956876D01*
X226577500Y-98956867D01*
X226566503Y-98845214D01*
X226523046Y-98701953D01*
X226452474Y-98569924D01*
X226429759Y-98542246D01*
X226381299Y-98483196D01*
X226381295Y-98483192D01*
X226357501Y-98454199D01*
X226328508Y-98430405D01*
X225711703Y-97813602D01*
X225687901Y-97784599D01*
X225618082Y-97727300D01*
X231030999Y-97727300D01*
X234417395Y-101113697D01*
G36*
X220761928Y-112775000D02*
G01*
X220774188Y-112899482D01*
X220774345Y-112900000D01*
X220774188Y-112900518D01*
X220761928Y-113025000D01*
X220761928Y-113575000D01*
X220774188Y-113699482D01*
X220774345Y-113700000D01*
X220774188Y-113700518D01*
X220761928Y-113825000D01*
X220761928Y-114375000D01*
X220774188Y-114499482D01*
X220774345Y-114500000D01*
X220774188Y-114500518D01*
X220761928Y-114625000D01*
X220761928Y-115175000D01*
X220774188Y-115299482D01*
X220774345Y-115300000D01*
X220774188Y-115300518D01*
X220761928Y-115425000D01*
X220761928Y-115975000D01*
X220765962Y-116015962D01*
X220725000Y-116011928D01*
X220175000Y-116011928D01*
X220050518Y-116024188D01*
X220050000Y-116024345D01*
X220049482Y-116024188D01*
X219925000Y-116011928D01*
X219375000Y-116011928D01*
X219250518Y-116024188D01*
X219250000Y-116024345D01*
X219249482Y-116024188D01*
X219125000Y-116011928D01*
X218575000Y-116011928D01*
X218450518Y-116024188D01*
X218450000Y-116024345D01*
X218449482Y-116024188D01*
X218325000Y-116011928D01*
X217775000Y-116011928D01*
X217650518Y-116024188D01*
X217649337Y-116024546D01*
X217535750Y-116015000D01*
X217443667Y-116107083D01*
X217420506Y-116119463D01*
X217323815Y-116198815D01*
X217250000Y-116288759D01*
X217210000Y-116240019D01*
X217210000Y-115839501D01*
X220761928Y-112287575D01*
X220761928Y-112775000D01*
G37*
X220761928Y-112775000D02*
X220774188Y-112899482D01*
X220774345Y-112900000D01*
X220774188Y-112900518D01*
X220761928Y-113025000D01*
X220761928Y-113575000D01*
X220774188Y-113699482D01*
X220774345Y-113700000D01*
X220774188Y-113700518D01*
X220761928Y-113825000D01*
X220761928Y-114375000D01*
X220774188Y-114499482D01*
X220774345Y-114500000D01*
X220774188Y-114500518D01*
X220761928Y-114625000D01*
X220761928Y-115175000D01*
X220774188Y-115299482D01*
X220774345Y-115300000D01*
X220774188Y-115300518D01*
X220761928Y-115425000D01*
X220761928Y-115975000D01*
X220765962Y-116015962D01*
X220725000Y-116011928D01*
X220175000Y-116011928D01*
X220050518Y-116024188D01*
X220050000Y-116024345D01*
X220049482Y-116024188D01*
X219925000Y-116011928D01*
X219375000Y-116011928D01*
X219250518Y-116024188D01*
X219250000Y-116024345D01*
X219249482Y-116024188D01*
X219125000Y-116011928D01*
X218575000Y-116011928D01*
X218450518Y-116024188D01*
X218450000Y-116024345D01*
X218449482Y-116024188D01*
X218325000Y-116011928D01*
X217775000Y-116011928D01*
X217650518Y-116024188D01*
X217649337Y-116024546D01*
X217535750Y-116015000D01*
X217443667Y-116107083D01*
X217420506Y-116119463D01*
X217323815Y-116198815D01*
X217250000Y-116288759D01*
X217210000Y-116240019D01*
X217210000Y-115839501D01*
X220761928Y-112287575D01*
X220761928Y-112775000D01*
G36*
X217721916Y-102253418D02*
G01*
X217677071Y-102401255D01*
X217661928Y-102555000D01*
X217661928Y-102855000D01*
X217677071Y-103008745D01*
X217721916Y-103156582D01*
X217794742Y-103292829D01*
X217892749Y-103412251D01*
X218012171Y-103510258D01*
X218148418Y-103583084D01*
X218296255Y-103627929D01*
X218352753Y-103633494D01*
X218186226Y-103744763D01*
X218042063Y-103888926D01*
X217928795Y-104058444D01*
X217850774Y-104246802D01*
X217811000Y-104446761D01*
X217811000Y-104611928D01*
X217775000Y-104611928D01*
X217650518Y-104624188D01*
X217650000Y-104624345D01*
X217649482Y-104624188D01*
X217525000Y-104611928D01*
X216975000Y-104611928D01*
X216850518Y-104624188D01*
X216849337Y-104624546D01*
X216735750Y-104615000D01*
X216643667Y-104707083D01*
X216620506Y-104719463D01*
X216523815Y-104798815D01*
X216450000Y-104888759D01*
X216404701Y-104833561D01*
X216399003Y-104775714D01*
X216355546Y-104632453D01*
X216349100Y-104620394D01*
X216349100Y-104520061D01*
X216309326Y-104320102D01*
X216231305Y-104131744D01*
X216118037Y-103962226D01*
X216042656Y-103886845D01*
X217774545Y-102154957D01*
X217721916Y-102253418D01*
G37*
X217721916Y-102253418D02*
X217677071Y-102401255D01*
X217661928Y-102555000D01*
X217661928Y-102855000D01*
X217677071Y-103008745D01*
X217721916Y-103156582D01*
X217794742Y-103292829D01*
X217892749Y-103412251D01*
X218012171Y-103510258D01*
X218148418Y-103583084D01*
X218296255Y-103627929D01*
X218352753Y-103633494D01*
X218186226Y-103744763D01*
X218042063Y-103888926D01*
X217928795Y-104058444D01*
X217850774Y-104246802D01*
X217811000Y-104446761D01*
X217811000Y-104611928D01*
X217775000Y-104611928D01*
X217650518Y-104624188D01*
X217650000Y-104624345D01*
X217649482Y-104624188D01*
X217525000Y-104611928D01*
X216975000Y-104611928D01*
X216850518Y-104624188D01*
X216849337Y-104624546D01*
X216735750Y-104615000D01*
X216643667Y-104707083D01*
X216620506Y-104719463D01*
X216523815Y-104798815D01*
X216450000Y-104888759D01*
X216404701Y-104833561D01*
X216399003Y-104775714D01*
X216355546Y-104632453D01*
X216349100Y-104620394D01*
X216349100Y-104520061D01*
X216309326Y-104320102D01*
X216231305Y-104131744D01*
X216118037Y-103962226D01*
X216042656Y-103886845D01*
X217774545Y-102154957D01*
X217721916Y-102253418D01*
G36*
X205968815Y-99026185D02*
G01*
X206065506Y-99105537D01*
X206175820Y-99164502D01*
X206292841Y-99200000D01*
X206175820Y-99235498D01*
X206065506Y-99294463D01*
X205968815Y-99373815D01*
X205894103Y-99464853D01*
X205756250Y-99327000D01*
X205674141Y-99327000D01*
X205634494Y-99294463D01*
X205524180Y-99235498D01*
X205407159Y-99200000D01*
X205524180Y-99164502D01*
X205634494Y-99105537D01*
X205674141Y-99073000D01*
X205756250Y-99073000D01*
X205863322Y-98965928D01*
X205897547Y-98955546D01*
X205906789Y-98950606D01*
X205968815Y-99026185D01*
G37*
X205968815Y-99026185D02*
X206065506Y-99105537D01*
X206175820Y-99164502D01*
X206292841Y-99200000D01*
X206175820Y-99235498D01*
X206065506Y-99294463D01*
X205968815Y-99373815D01*
X205894103Y-99464853D01*
X205756250Y-99327000D01*
X205674141Y-99327000D01*
X205634494Y-99294463D01*
X205524180Y-99235498D01*
X205407159Y-99200000D01*
X205524180Y-99164502D01*
X205634494Y-99105537D01*
X205674141Y-99073000D01*
X205756250Y-99073000D01*
X205863322Y-98965928D01*
X205897547Y-98955546D01*
X205906789Y-98950606D01*
X205968815Y-99026185D01*
%TD*%
M02*
