%TF.GenerationSoftware,KiCad,Pcbnew,(5.1.6)-1*%
%TF.CreationDate,2020-08-14T21:54:29-04:00*%
%TF.ProjectId,CellLight,43656c6c-4c69-4676-9874-2e6b69636164,rev?*%
%TF.SameCoordinates,Original*%
%TF.FileFunction,Legend,Top*%
%TF.FilePolarity,Positive*%
%FSLAX46Y46*%
G04 Gerber Fmt 4.6, Leading zero omitted, Abs format (unit mm)*
G04 Created by KiCad (PCBNEW (5.1.6)-1) date 2020-08-14 21:54:29*
%MOMM*%
%LPD*%
G01*
G04 APERTURE LIST*
%ADD10C,0.127000*%
%ADD11C,0.200000*%
%ADD12C,0.120000*%
%ADD13C,0.015000*%
%ADD14C,0.150000*%
G04 APERTURE END LIST*
D10*
%TO.C,U1*%
X152950000Y-98950000D02*
X160450000Y-98950000D01*
X152950000Y-81050000D02*
X160450000Y-81050000D01*
D11*
X150295000Y-81145000D02*
G75*
G03*
X150295000Y-81145000I-100000J0D01*
G01*
D12*
%TO.C,U6*%
X169400000Y-86560000D02*
X170800000Y-86560000D01*
X170800000Y-84240000D02*
X168900000Y-84240000D01*
%TO.C,U3*%
X168100000Y-101040000D02*
X164650000Y-101040000D01*
X168100000Y-101040000D02*
X170050000Y-101040000D01*
X168100000Y-106160000D02*
X166150000Y-106160000D01*
X168100000Y-106160000D02*
X170050000Y-106160000D01*
%TO.C,U2*%
X155400000Y-101790000D02*
X151800000Y-101790000D01*
X155400000Y-101790000D02*
X157600000Y-101790000D01*
X155400000Y-107010000D02*
X153200000Y-107010000D01*
X155400000Y-107010000D02*
X157600000Y-107010000D01*
%TO.C,SW1*%
X155350000Y-73450000D02*
X157850000Y-73450000D01*
X153850000Y-75200000D02*
X153850000Y-77200000D01*
X155350000Y-78950000D02*
X157850000Y-78950000D01*
X159350000Y-75200000D02*
X159350000Y-77200000D01*
X154900000Y-73900000D02*
X155350000Y-73450000D01*
X158300000Y-73900000D02*
X157850000Y-73450000D01*
X158300000Y-78500000D02*
X157850000Y-78950000D01*
X154900000Y-78500000D02*
X155350000Y-78950000D01*
%TO.C,R7*%
X173690000Y-84728733D02*
X173690000Y-85071267D01*
X174710000Y-84728733D02*
X174710000Y-85071267D01*
%TO.C,R3*%
X165728733Y-98610000D02*
X166071267Y-98610000D01*
X165728733Y-97590000D02*
X166071267Y-97590000D01*
%TO.C,R2*%
X170228733Y-98610000D02*
X170571267Y-98610000D01*
X170228733Y-97590000D02*
X170571267Y-97590000D01*
%TO.C,R1*%
X148890000Y-77828733D02*
X148890000Y-78171267D01*
X149910000Y-77828733D02*
X149910000Y-78171267D01*
%TO.C,J4*%
X169915000Y-113195000D02*
X169915000Y-112500000D01*
X170600000Y-113195000D02*
X169915000Y-113195000D01*
X171285000Y-111891724D02*
X171285000Y-111805000D01*
X171285000Y-113195000D02*
X171285000Y-113108276D01*
X171285000Y-111805000D02*
X176160000Y-111805000D01*
X171285000Y-113195000D02*
X176160000Y-113195000D01*
X176160000Y-112105507D02*
X176160000Y-111805000D01*
X176160000Y-113195000D02*
X176160000Y-112894493D01*
%TO.C,J3*%
X159115000Y-113195000D02*
X159115000Y-112500000D01*
X159800000Y-113195000D02*
X159115000Y-113195000D01*
X160485000Y-111891724D02*
X160485000Y-111805000D01*
X160485000Y-113195000D02*
X160485000Y-113108276D01*
X160485000Y-111805000D02*
X162360000Y-111805000D01*
X160485000Y-113195000D02*
X162360000Y-113195000D01*
X162360000Y-112105507D02*
X162360000Y-111805000D01*
X162360000Y-113195000D02*
X162360000Y-112894493D01*
%TO.C,J2*%
X150815000Y-113195000D02*
X150815000Y-112500000D01*
X151500000Y-113195000D02*
X150815000Y-113195000D01*
X152185000Y-111891724D02*
X152185000Y-111805000D01*
X152185000Y-113195000D02*
X152185000Y-113108276D01*
X152185000Y-111805000D02*
X154060000Y-111805000D01*
X152185000Y-113195000D02*
X154060000Y-113195000D01*
X154060000Y-112105507D02*
X154060000Y-111805000D01*
X154060000Y-113195000D02*
X154060000Y-112894493D01*
%TO.C,J1*%
X143015000Y-113195000D02*
X143015000Y-112500000D01*
X143700000Y-113195000D02*
X143015000Y-113195000D01*
X144385000Y-111891724D02*
X144385000Y-111805000D01*
X144385000Y-113195000D02*
X144385000Y-113108276D01*
X144385000Y-111805000D02*
X146260000Y-111805000D01*
X144385000Y-113195000D02*
X146260000Y-113195000D01*
X146260000Y-112105507D02*
X146260000Y-111805000D01*
X146260000Y-113195000D02*
X146260000Y-112894493D01*
%TO.C,D10*%
X144950000Y-81250000D02*
X144950000Y-80100000D01*
X137650000Y-81250000D02*
X144950000Y-81250000D01*
X137650000Y-75750000D02*
X144950000Y-75750000D01*
%TO.C,D9*%
X144950000Y-93750000D02*
X144950000Y-92600000D01*
X137650000Y-93750000D02*
X144950000Y-93750000D01*
X137650000Y-88250000D02*
X144950000Y-88250000D01*
%TO.C,D8*%
X144950000Y-106250000D02*
X144950000Y-105100000D01*
X137650000Y-106250000D02*
X144950000Y-106250000D01*
X137650000Y-100750000D02*
X144950000Y-100750000D01*
%TO.C,D7*%
X184950000Y-106250000D02*
X184950000Y-105100000D01*
X177650000Y-106250000D02*
X184950000Y-106250000D01*
X177650000Y-100750000D02*
X184950000Y-100750000D01*
%TO.C,D6*%
X184950000Y-93750000D02*
X184950000Y-92600000D01*
X177650000Y-93750000D02*
X184950000Y-93750000D01*
X177650000Y-88250000D02*
X184950000Y-88250000D01*
%TO.C,D5*%
X184950000Y-81250000D02*
X184950000Y-80100000D01*
X177650000Y-81250000D02*
X184950000Y-81250000D01*
X177650000Y-75750000D02*
X184950000Y-75750000D01*
%TO.C,C2*%
X149310000Y-96171267D02*
X149310000Y-95828733D01*
X148290000Y-96171267D02*
X148290000Y-95828733D01*
%TO.C,C1*%
X165871267Y-91390000D02*
X165528733Y-91390000D01*
X165871267Y-92410000D02*
X165528733Y-92410000D01*
%TO.C,U1*%
D13*
X153463095Y-79690380D02*
X153463095Y-80499904D01*
X153510714Y-80595142D01*
X153558333Y-80642761D01*
X153653571Y-80690380D01*
X153844047Y-80690380D01*
X153939285Y-80642761D01*
X153986904Y-80595142D01*
X154034523Y-80499904D01*
X154034523Y-79690380D01*
X155034523Y-80690380D02*
X154463095Y-80690380D01*
X154748809Y-80690380D02*
X154748809Y-79690380D01*
X154653571Y-79833238D01*
X154558333Y-79928476D01*
X154463095Y-79976095D01*
%TO.C,U6*%
D14*
X169338095Y-82852380D02*
X169338095Y-83661904D01*
X169385714Y-83757142D01*
X169433333Y-83804761D01*
X169528571Y-83852380D01*
X169719047Y-83852380D01*
X169814285Y-83804761D01*
X169861904Y-83757142D01*
X169909523Y-83661904D01*
X169909523Y-82852380D01*
X170814285Y-82852380D02*
X170623809Y-82852380D01*
X170528571Y-82900000D01*
X170480952Y-82947619D01*
X170385714Y-83090476D01*
X170338095Y-83280952D01*
X170338095Y-83661904D01*
X170385714Y-83757142D01*
X170433333Y-83804761D01*
X170528571Y-83852380D01*
X170719047Y-83852380D01*
X170814285Y-83804761D01*
X170861904Y-83757142D01*
X170909523Y-83661904D01*
X170909523Y-83423809D01*
X170861904Y-83328571D01*
X170814285Y-83280952D01*
X170719047Y-83233333D01*
X170528571Y-83233333D01*
X170433333Y-83280952D01*
X170385714Y-83328571D01*
X170338095Y-83423809D01*
%TO.C,U3*%
X167338095Y-99652380D02*
X167338095Y-100461904D01*
X167385714Y-100557142D01*
X167433333Y-100604761D01*
X167528571Y-100652380D01*
X167719047Y-100652380D01*
X167814285Y-100604761D01*
X167861904Y-100557142D01*
X167909523Y-100461904D01*
X167909523Y-99652380D01*
X168290476Y-99652380D02*
X168909523Y-99652380D01*
X168576190Y-100033333D01*
X168719047Y-100033333D01*
X168814285Y-100080952D01*
X168861904Y-100128571D01*
X168909523Y-100223809D01*
X168909523Y-100461904D01*
X168861904Y-100557142D01*
X168814285Y-100604761D01*
X168719047Y-100652380D01*
X168433333Y-100652380D01*
X168338095Y-100604761D01*
X168290476Y-100557142D01*
%TO.C,U2*%
X154638095Y-100402380D02*
X154638095Y-101211904D01*
X154685714Y-101307142D01*
X154733333Y-101354761D01*
X154828571Y-101402380D01*
X155019047Y-101402380D01*
X155114285Y-101354761D01*
X155161904Y-101307142D01*
X155209523Y-101211904D01*
X155209523Y-100402380D01*
X155638095Y-100497619D02*
X155685714Y-100450000D01*
X155780952Y-100402380D01*
X156019047Y-100402380D01*
X156114285Y-100450000D01*
X156161904Y-100497619D01*
X156209523Y-100592857D01*
X156209523Y-100688095D01*
X156161904Y-100830952D01*
X155590476Y-101402380D01*
X156209523Y-101402380D01*
%TO.C,SW1*%
X155266666Y-72854761D02*
X155409523Y-72902380D01*
X155647619Y-72902380D01*
X155742857Y-72854761D01*
X155790476Y-72807142D01*
X155838095Y-72711904D01*
X155838095Y-72616666D01*
X155790476Y-72521428D01*
X155742857Y-72473809D01*
X155647619Y-72426190D01*
X155457142Y-72378571D01*
X155361904Y-72330952D01*
X155314285Y-72283333D01*
X155266666Y-72188095D01*
X155266666Y-72092857D01*
X155314285Y-71997619D01*
X155361904Y-71950000D01*
X155457142Y-71902380D01*
X155695238Y-71902380D01*
X155838095Y-71950000D01*
X156171428Y-71902380D02*
X156409523Y-72902380D01*
X156600000Y-72188095D01*
X156790476Y-72902380D01*
X157028571Y-71902380D01*
X157933333Y-72902380D02*
X157361904Y-72902380D01*
X157647619Y-72902380D02*
X157647619Y-71902380D01*
X157552380Y-72045238D01*
X157457142Y-72140476D01*
X157361904Y-72188095D01*
%TO.C,R7*%
X176082380Y-85066666D02*
X175606190Y-85400000D01*
X176082380Y-85638095D02*
X175082380Y-85638095D01*
X175082380Y-85257142D01*
X175130000Y-85161904D01*
X175177619Y-85114285D01*
X175272857Y-85066666D01*
X175415714Y-85066666D01*
X175510952Y-85114285D01*
X175558571Y-85161904D01*
X175606190Y-85257142D01*
X175606190Y-85638095D01*
X175082380Y-84733333D02*
X175082380Y-84066666D01*
X176082380Y-84495238D01*
%TO.C,R3*%
X165733333Y-97122380D02*
X165400000Y-96646190D01*
X165161904Y-97122380D02*
X165161904Y-96122380D01*
X165542857Y-96122380D01*
X165638095Y-96170000D01*
X165685714Y-96217619D01*
X165733333Y-96312857D01*
X165733333Y-96455714D01*
X165685714Y-96550952D01*
X165638095Y-96598571D01*
X165542857Y-96646190D01*
X165161904Y-96646190D01*
X166066666Y-96122380D02*
X166685714Y-96122380D01*
X166352380Y-96503333D01*
X166495238Y-96503333D01*
X166590476Y-96550952D01*
X166638095Y-96598571D01*
X166685714Y-96693809D01*
X166685714Y-96931904D01*
X166638095Y-97027142D01*
X166590476Y-97074761D01*
X166495238Y-97122380D01*
X166209523Y-97122380D01*
X166114285Y-97074761D01*
X166066666Y-97027142D01*
%TO.C,R2*%
X170233333Y-97122380D02*
X169900000Y-96646190D01*
X169661904Y-97122380D02*
X169661904Y-96122380D01*
X170042857Y-96122380D01*
X170138095Y-96170000D01*
X170185714Y-96217619D01*
X170233333Y-96312857D01*
X170233333Y-96455714D01*
X170185714Y-96550952D01*
X170138095Y-96598571D01*
X170042857Y-96646190D01*
X169661904Y-96646190D01*
X170614285Y-96217619D02*
X170661904Y-96170000D01*
X170757142Y-96122380D01*
X170995238Y-96122380D01*
X171090476Y-96170000D01*
X171138095Y-96217619D01*
X171185714Y-96312857D01*
X171185714Y-96408095D01*
X171138095Y-96550952D01*
X170566666Y-97122380D01*
X171185714Y-97122380D01*
%TO.C,R1*%
X151282380Y-78166666D02*
X150806190Y-78500000D01*
X151282380Y-78738095D02*
X150282380Y-78738095D01*
X150282380Y-78357142D01*
X150330000Y-78261904D01*
X150377619Y-78214285D01*
X150472857Y-78166666D01*
X150615714Y-78166666D01*
X150710952Y-78214285D01*
X150758571Y-78261904D01*
X150806190Y-78357142D01*
X150806190Y-78738095D01*
X151282380Y-77214285D02*
X151282380Y-77785714D01*
X151282380Y-77500000D02*
X150282380Y-77500000D01*
X150425238Y-77595238D01*
X150520476Y-77690476D01*
X150568095Y-77785714D01*
%TO.C,J4*%
X168492380Y-112833333D02*
X169206666Y-112833333D01*
X169349523Y-112880952D01*
X169444761Y-112976190D01*
X169492380Y-113119047D01*
X169492380Y-113214285D01*
X168825714Y-111928571D02*
X169492380Y-111928571D01*
X168444761Y-112166666D02*
X169159047Y-112404761D01*
X169159047Y-111785714D01*
%TO.C,J3*%
X157692380Y-112833333D02*
X158406666Y-112833333D01*
X158549523Y-112880952D01*
X158644761Y-112976190D01*
X158692380Y-113119047D01*
X158692380Y-113214285D01*
X157692380Y-112452380D02*
X157692380Y-111833333D01*
X158073333Y-112166666D01*
X158073333Y-112023809D01*
X158120952Y-111928571D01*
X158168571Y-111880952D01*
X158263809Y-111833333D01*
X158501904Y-111833333D01*
X158597142Y-111880952D01*
X158644761Y-111928571D01*
X158692380Y-112023809D01*
X158692380Y-112309523D01*
X158644761Y-112404761D01*
X158597142Y-112452380D01*
%TO.C,J2*%
X149392380Y-112833333D02*
X150106666Y-112833333D01*
X150249523Y-112880952D01*
X150344761Y-112976190D01*
X150392380Y-113119047D01*
X150392380Y-113214285D01*
X149487619Y-112404761D02*
X149440000Y-112357142D01*
X149392380Y-112261904D01*
X149392380Y-112023809D01*
X149440000Y-111928571D01*
X149487619Y-111880952D01*
X149582857Y-111833333D01*
X149678095Y-111833333D01*
X149820952Y-111880952D01*
X150392380Y-112452380D01*
X150392380Y-111833333D01*
%TO.C,J1*%
X141592380Y-112833333D02*
X142306666Y-112833333D01*
X142449523Y-112880952D01*
X142544761Y-112976190D01*
X142592380Y-113119047D01*
X142592380Y-113214285D01*
X142592380Y-111833333D02*
X142592380Y-112404761D01*
X142592380Y-112119047D02*
X141592380Y-112119047D01*
X141735238Y-112214285D01*
X141830476Y-112309523D01*
X141878095Y-112404761D01*
%TO.C,D10*%
X140085714Y-75452380D02*
X140085714Y-74452380D01*
X140323809Y-74452380D01*
X140466666Y-74500000D01*
X140561904Y-74595238D01*
X140609523Y-74690476D01*
X140657142Y-74880952D01*
X140657142Y-75023809D01*
X140609523Y-75214285D01*
X140561904Y-75309523D01*
X140466666Y-75404761D01*
X140323809Y-75452380D01*
X140085714Y-75452380D01*
X141609523Y-75452380D02*
X141038095Y-75452380D01*
X141323809Y-75452380D02*
X141323809Y-74452380D01*
X141228571Y-74595238D01*
X141133333Y-74690476D01*
X141038095Y-74738095D01*
X142228571Y-74452380D02*
X142323809Y-74452380D01*
X142419047Y-74500000D01*
X142466666Y-74547619D01*
X142514285Y-74642857D01*
X142561904Y-74833333D01*
X142561904Y-75071428D01*
X142514285Y-75261904D01*
X142466666Y-75357142D01*
X142419047Y-75404761D01*
X142323809Y-75452380D01*
X142228571Y-75452380D01*
X142133333Y-75404761D01*
X142085714Y-75357142D01*
X142038095Y-75261904D01*
X141990476Y-75071428D01*
X141990476Y-74833333D01*
X142038095Y-74642857D01*
X142085714Y-74547619D01*
X142133333Y-74500000D01*
X142228571Y-74452380D01*
X137435714Y-77352380D02*
X136864285Y-77352380D01*
X137150000Y-77352380D02*
X137150000Y-76352380D01*
X137054761Y-76495238D01*
X136959523Y-76590476D01*
X136864285Y-76638095D01*
%TO.C,D9*%
X140561904Y-87952380D02*
X140561904Y-86952380D01*
X140800000Y-86952380D01*
X140942857Y-87000000D01*
X141038095Y-87095238D01*
X141085714Y-87190476D01*
X141133333Y-87380952D01*
X141133333Y-87523809D01*
X141085714Y-87714285D01*
X141038095Y-87809523D01*
X140942857Y-87904761D01*
X140800000Y-87952380D01*
X140561904Y-87952380D01*
X141609523Y-87952380D02*
X141800000Y-87952380D01*
X141895238Y-87904761D01*
X141942857Y-87857142D01*
X142038095Y-87714285D01*
X142085714Y-87523809D01*
X142085714Y-87142857D01*
X142038095Y-87047619D01*
X141990476Y-87000000D01*
X141895238Y-86952380D01*
X141704761Y-86952380D01*
X141609523Y-87000000D01*
X141561904Y-87047619D01*
X141514285Y-87142857D01*
X141514285Y-87380952D01*
X141561904Y-87476190D01*
X141609523Y-87523809D01*
X141704761Y-87571428D01*
X141895238Y-87571428D01*
X141990476Y-87523809D01*
X142038095Y-87476190D01*
X142085714Y-87380952D01*
X137435714Y-89852380D02*
X136864285Y-89852380D01*
X137150000Y-89852380D02*
X137150000Y-88852380D01*
X137054761Y-88995238D01*
X136959523Y-89090476D01*
X136864285Y-89138095D01*
%TO.C,D8*%
X140561904Y-100452380D02*
X140561904Y-99452380D01*
X140800000Y-99452380D01*
X140942857Y-99500000D01*
X141038095Y-99595238D01*
X141085714Y-99690476D01*
X141133333Y-99880952D01*
X141133333Y-100023809D01*
X141085714Y-100214285D01*
X141038095Y-100309523D01*
X140942857Y-100404761D01*
X140800000Y-100452380D01*
X140561904Y-100452380D01*
X141704761Y-99880952D02*
X141609523Y-99833333D01*
X141561904Y-99785714D01*
X141514285Y-99690476D01*
X141514285Y-99642857D01*
X141561904Y-99547619D01*
X141609523Y-99500000D01*
X141704761Y-99452380D01*
X141895238Y-99452380D01*
X141990476Y-99500000D01*
X142038095Y-99547619D01*
X142085714Y-99642857D01*
X142085714Y-99690476D01*
X142038095Y-99785714D01*
X141990476Y-99833333D01*
X141895238Y-99880952D01*
X141704761Y-99880952D01*
X141609523Y-99928571D01*
X141561904Y-99976190D01*
X141514285Y-100071428D01*
X141514285Y-100261904D01*
X141561904Y-100357142D01*
X141609523Y-100404761D01*
X141704761Y-100452380D01*
X141895238Y-100452380D01*
X141990476Y-100404761D01*
X142038095Y-100357142D01*
X142085714Y-100261904D01*
X142085714Y-100071428D01*
X142038095Y-99976190D01*
X141990476Y-99928571D01*
X141895238Y-99880952D01*
X137435714Y-102352380D02*
X136864285Y-102352380D01*
X137150000Y-102352380D02*
X137150000Y-101352380D01*
X137054761Y-101495238D01*
X136959523Y-101590476D01*
X136864285Y-101638095D01*
%TO.C,D7*%
X180561904Y-100452380D02*
X180561904Y-99452380D01*
X180800000Y-99452380D01*
X180942857Y-99500000D01*
X181038095Y-99595238D01*
X181085714Y-99690476D01*
X181133333Y-99880952D01*
X181133333Y-100023809D01*
X181085714Y-100214285D01*
X181038095Y-100309523D01*
X180942857Y-100404761D01*
X180800000Y-100452380D01*
X180561904Y-100452380D01*
X181466666Y-99452380D02*
X182133333Y-99452380D01*
X181704761Y-100452380D01*
X177435714Y-102352380D02*
X176864285Y-102352380D01*
X177150000Y-102352380D02*
X177150000Y-101352380D01*
X177054761Y-101495238D01*
X176959523Y-101590476D01*
X176864285Y-101638095D01*
%TO.C,D6*%
X180561904Y-87952380D02*
X180561904Y-86952380D01*
X180800000Y-86952380D01*
X180942857Y-87000000D01*
X181038095Y-87095238D01*
X181085714Y-87190476D01*
X181133333Y-87380952D01*
X181133333Y-87523809D01*
X181085714Y-87714285D01*
X181038095Y-87809523D01*
X180942857Y-87904761D01*
X180800000Y-87952380D01*
X180561904Y-87952380D01*
X181990476Y-86952380D02*
X181800000Y-86952380D01*
X181704761Y-87000000D01*
X181657142Y-87047619D01*
X181561904Y-87190476D01*
X181514285Y-87380952D01*
X181514285Y-87761904D01*
X181561904Y-87857142D01*
X181609523Y-87904761D01*
X181704761Y-87952380D01*
X181895238Y-87952380D01*
X181990476Y-87904761D01*
X182038095Y-87857142D01*
X182085714Y-87761904D01*
X182085714Y-87523809D01*
X182038095Y-87428571D01*
X181990476Y-87380952D01*
X181895238Y-87333333D01*
X181704761Y-87333333D01*
X181609523Y-87380952D01*
X181561904Y-87428571D01*
X181514285Y-87523809D01*
X177435714Y-89852380D02*
X176864285Y-89852380D01*
X177150000Y-89852380D02*
X177150000Y-88852380D01*
X177054761Y-88995238D01*
X176959523Y-89090476D01*
X176864285Y-89138095D01*
%TO.C,D5*%
X180561904Y-75452380D02*
X180561904Y-74452380D01*
X180800000Y-74452380D01*
X180942857Y-74500000D01*
X181038095Y-74595238D01*
X181085714Y-74690476D01*
X181133333Y-74880952D01*
X181133333Y-75023809D01*
X181085714Y-75214285D01*
X181038095Y-75309523D01*
X180942857Y-75404761D01*
X180800000Y-75452380D01*
X180561904Y-75452380D01*
X182038095Y-74452380D02*
X181561904Y-74452380D01*
X181514285Y-74928571D01*
X181561904Y-74880952D01*
X181657142Y-74833333D01*
X181895238Y-74833333D01*
X181990476Y-74880952D01*
X182038095Y-74928571D01*
X182085714Y-75023809D01*
X182085714Y-75261904D01*
X182038095Y-75357142D01*
X181990476Y-75404761D01*
X181895238Y-75452380D01*
X181657142Y-75452380D01*
X181561904Y-75404761D01*
X181514285Y-75357142D01*
X177435714Y-77352380D02*
X176864285Y-77352380D01*
X177150000Y-77352380D02*
X177150000Y-76352380D01*
X177054761Y-76495238D01*
X176959523Y-76590476D01*
X176864285Y-76638095D01*
%TO.C,C2*%
X147727142Y-96166666D02*
X147774761Y-96214285D01*
X147822380Y-96357142D01*
X147822380Y-96452380D01*
X147774761Y-96595238D01*
X147679523Y-96690476D01*
X147584285Y-96738095D01*
X147393809Y-96785714D01*
X147250952Y-96785714D01*
X147060476Y-96738095D01*
X146965238Y-96690476D01*
X146870000Y-96595238D01*
X146822380Y-96452380D01*
X146822380Y-96357142D01*
X146870000Y-96214285D01*
X146917619Y-96166666D01*
X146917619Y-95785714D02*
X146870000Y-95738095D01*
X146822380Y-95642857D01*
X146822380Y-95404761D01*
X146870000Y-95309523D01*
X146917619Y-95261904D01*
X147012857Y-95214285D01*
X147108095Y-95214285D01*
X147250952Y-95261904D01*
X147822380Y-95833333D01*
X147822380Y-95214285D01*
%TO.C,C1*%
X165533333Y-93687142D02*
X165485714Y-93734761D01*
X165342857Y-93782380D01*
X165247619Y-93782380D01*
X165104761Y-93734761D01*
X165009523Y-93639523D01*
X164961904Y-93544285D01*
X164914285Y-93353809D01*
X164914285Y-93210952D01*
X164961904Y-93020476D01*
X165009523Y-92925238D01*
X165104761Y-92830000D01*
X165247619Y-92782380D01*
X165342857Y-92782380D01*
X165485714Y-92830000D01*
X165533333Y-92877619D01*
X166485714Y-93782380D02*
X165914285Y-93782380D01*
X166200000Y-93782380D02*
X166200000Y-92782380D01*
X166104761Y-92925238D01*
X166009523Y-93020476D01*
X165914285Y-93068095D01*
%TD*%
M02*
