%TF.GenerationSoftware,KiCad,Pcbnew,(5.1.6)-1*%
%TF.CreationDate,2020-08-14T21:54:29-04:00*%
%TF.ProjectId,CellLight,43656c6c-4c69-4676-9874-2e6b69636164,rev?*%
%TF.SameCoordinates,Original*%
%TF.FileFunction,Soldermask,Bot*%
%TF.FilePolarity,Negative*%
%FSLAX46Y46*%
G04 Gerber Fmt 4.6, Leading zero omitted, Abs format (unit mm)*
G04 Created by KiCad (PCBNEW (5.1.6)-1) date 2020-08-14 21:54:29*
%MOMM*%
%LPD*%
G01*
G04 APERTURE LIST*
%ADD10R,1.160000X0.750000*%
%ADD11O,0.950000X0.950000*%
%ADD12R,0.950000X0.950000*%
%ADD13R,2.600000X1.900000*%
G04 APERTURE END LIST*
D10*
%TO.C,U5*%
X160600000Y-81450000D03*
X160600000Y-83350000D03*
X162800000Y-83350000D03*
X162800000Y-82400000D03*
X162800000Y-81450000D03*
%TD*%
%TO.C,U4*%
X170600000Y-74100000D03*
X170600000Y-75050000D03*
X170600000Y-73150000D03*
X168400000Y-73150000D03*
X168400000Y-74100000D03*
X168400000Y-75050000D03*
%TD*%
%TO.C,R6*%
G36*
G01*
X168100000Y-76637500D02*
X168100000Y-77162500D01*
G75*
G02*
X167837500Y-77425000I-262500J0D01*
G01*
X167212500Y-77425000D01*
G75*
G02*
X166950000Y-77162500I0J262500D01*
G01*
X166950000Y-76637500D01*
G75*
G02*
X167212500Y-76375000I262500J0D01*
G01*
X167837500Y-76375000D01*
G75*
G02*
X168100000Y-76637500I0J-262500D01*
G01*
G37*
G36*
G01*
X169850000Y-76637500D02*
X169850000Y-77162500D01*
G75*
G02*
X169587500Y-77425000I-262500J0D01*
G01*
X168962500Y-77425000D01*
G75*
G02*
X168700000Y-77162500I0J262500D01*
G01*
X168700000Y-76637500D01*
G75*
G02*
X168962500Y-76375000I262500J0D01*
G01*
X169587500Y-76375000D01*
G75*
G02*
X169850000Y-76637500I0J-262500D01*
G01*
G37*
%TD*%
%TO.C,R5*%
G36*
G01*
X172762500Y-71800000D02*
X172237500Y-71800000D01*
G75*
G02*
X171975000Y-71537500I0J262500D01*
G01*
X171975000Y-70912500D01*
G75*
G02*
X172237500Y-70650000I262500J0D01*
G01*
X172762500Y-70650000D01*
G75*
G02*
X173025000Y-70912500I0J-262500D01*
G01*
X173025000Y-71537500D01*
G75*
G02*
X172762500Y-71800000I-262500J0D01*
G01*
G37*
G36*
G01*
X172762500Y-73550000D02*
X172237500Y-73550000D01*
G75*
G02*
X171975000Y-73287500I0J262500D01*
G01*
X171975000Y-72662500D01*
G75*
G02*
X172237500Y-72400000I262500J0D01*
G01*
X172762500Y-72400000D01*
G75*
G02*
X173025000Y-72662500I0J-262500D01*
G01*
X173025000Y-73287500D01*
G75*
G02*
X172762500Y-73550000I-262500J0D01*
G01*
G37*
%TD*%
%TO.C,R4*%
G36*
G01*
X174862500Y-72725000D02*
X174337500Y-72725000D01*
G75*
G02*
X174075000Y-72462500I0J262500D01*
G01*
X174075000Y-71837500D01*
G75*
G02*
X174337500Y-71575000I262500J0D01*
G01*
X174862500Y-71575000D01*
G75*
G02*
X175125000Y-71837500I0J-262500D01*
G01*
X175125000Y-72462500D01*
G75*
G02*
X174862500Y-72725000I-262500J0D01*
G01*
G37*
G36*
G01*
X174862500Y-74475000D02*
X174337500Y-74475000D01*
G75*
G02*
X174075000Y-74212500I0J262500D01*
G01*
X174075000Y-73587500D01*
G75*
G02*
X174337500Y-73325000I262500J0D01*
G01*
X174862500Y-73325000D01*
G75*
G02*
X175125000Y-73587500I0J-262500D01*
G01*
X175125000Y-74212500D01*
G75*
G02*
X174862500Y-74475000I-262500J0D01*
G01*
G37*
%TD*%
%TO.C,L1*%
G36*
G01*
X165200000Y-73837500D02*
X165200000Y-74362500D01*
G75*
G02*
X164937500Y-74625000I-262500J0D01*
G01*
X164312500Y-74625000D01*
G75*
G02*
X164050000Y-74362500I0J262500D01*
G01*
X164050000Y-73837500D01*
G75*
G02*
X164312500Y-73575000I262500J0D01*
G01*
X164937500Y-73575000D01*
G75*
G02*
X165200000Y-73837500I0J-262500D01*
G01*
G37*
G36*
G01*
X166950000Y-73837500D02*
X166950000Y-74362500D01*
G75*
G02*
X166687500Y-74625000I-262500J0D01*
G01*
X166062500Y-74625000D01*
G75*
G02*
X165800000Y-74362500I0J262500D01*
G01*
X165800000Y-73837500D01*
G75*
G02*
X166062500Y-73575000I262500J0D01*
G01*
X166687500Y-73575000D01*
G75*
G02*
X166950000Y-73837500I0J-262500D01*
G01*
G37*
%TD*%
D11*
%TO.C,J4*%
X175600000Y-112500000D03*
X174600000Y-112500000D03*
X173600000Y-112500000D03*
X172600000Y-112500000D03*
X171600000Y-112500000D03*
D12*
X170600000Y-112500000D03*
%TD*%
D11*
%TO.C,J3*%
X161800000Y-112500000D03*
X160800000Y-112500000D03*
D12*
X159800000Y-112500000D03*
%TD*%
D11*
%TO.C,J2*%
X153500000Y-112500000D03*
X152500000Y-112500000D03*
D12*
X151500000Y-112500000D03*
%TD*%
D11*
%TO.C,J1*%
X145700000Y-112500000D03*
X144700000Y-112500000D03*
D12*
X143700000Y-112500000D03*
%TD*%
D13*
%TO.C,D4*%
X153000000Y-77200000D03*
X157000000Y-77200000D03*
%TD*%
%TO.C,D3*%
X153000000Y-70600000D03*
X157000000Y-70600000D03*
%TD*%
%TO.C,D2*%
X149500000Y-77200000D03*
X145500000Y-77200000D03*
%TD*%
%TO.C,D1*%
X145500000Y-70600000D03*
X149500000Y-70600000D03*
%TD*%
%TO.C,C11*%
G36*
G01*
X157937500Y-82700000D02*
X158462500Y-82700000D01*
G75*
G02*
X158725000Y-82962500I0J-262500D01*
G01*
X158725000Y-83587500D01*
G75*
G02*
X158462500Y-83850000I-262500J0D01*
G01*
X157937500Y-83850000D01*
G75*
G02*
X157675000Y-83587500I0J262500D01*
G01*
X157675000Y-82962500D01*
G75*
G02*
X157937500Y-82700000I262500J0D01*
G01*
G37*
G36*
G01*
X157937500Y-80950000D02*
X158462500Y-80950000D01*
G75*
G02*
X158725000Y-81212500I0J-262500D01*
G01*
X158725000Y-81837500D01*
G75*
G02*
X158462500Y-82100000I-262500J0D01*
G01*
X157937500Y-82100000D01*
G75*
G02*
X157675000Y-81837500I0J262500D01*
G01*
X157675000Y-81212500D01*
G75*
G02*
X157937500Y-80950000I262500J0D01*
G01*
G37*
%TD*%
%TO.C,C10*%
G36*
G01*
X168700000Y-78962500D02*
X168700000Y-78437500D01*
G75*
G02*
X168962500Y-78175000I262500J0D01*
G01*
X169587500Y-78175000D01*
G75*
G02*
X169850000Y-78437500I0J-262500D01*
G01*
X169850000Y-78962500D01*
G75*
G02*
X169587500Y-79225000I-262500J0D01*
G01*
X168962500Y-79225000D01*
G75*
G02*
X168700000Y-78962500I0J262500D01*
G01*
G37*
G36*
G01*
X166950000Y-78962500D02*
X166950000Y-78437500D01*
G75*
G02*
X167212500Y-78175000I262500J0D01*
G01*
X167837500Y-78175000D01*
G75*
G02*
X168100000Y-78437500I0J-262500D01*
G01*
X168100000Y-78962500D01*
G75*
G02*
X167837500Y-79225000I-262500J0D01*
G01*
X167212500Y-79225000D01*
G75*
G02*
X166950000Y-78962500I0J262500D01*
G01*
G37*
%TD*%
%TO.C,C9*%
G36*
G01*
X160062500Y-69400000D02*
X159537500Y-69400000D01*
G75*
G02*
X159275000Y-69137500I0J262500D01*
G01*
X159275000Y-68512500D01*
G75*
G02*
X159537500Y-68250000I262500J0D01*
G01*
X160062500Y-68250000D01*
G75*
G02*
X160325000Y-68512500I0J-262500D01*
G01*
X160325000Y-69137500D01*
G75*
G02*
X160062500Y-69400000I-262500J0D01*
G01*
G37*
G36*
G01*
X160062500Y-71150000D02*
X159537500Y-71150000D01*
G75*
G02*
X159275000Y-70887500I0J262500D01*
G01*
X159275000Y-70262500D01*
G75*
G02*
X159537500Y-70000000I262500J0D01*
G01*
X160062500Y-70000000D01*
G75*
G02*
X160325000Y-70262500I0J-262500D01*
G01*
X160325000Y-70887500D01*
G75*
G02*
X160062500Y-71150000I-262500J0D01*
G01*
G37*
%TD*%
%TO.C,C8*%
G36*
G01*
X162162500Y-69400000D02*
X161637500Y-69400000D01*
G75*
G02*
X161375000Y-69137500I0J262500D01*
G01*
X161375000Y-68512500D01*
G75*
G02*
X161637500Y-68250000I262500J0D01*
G01*
X162162500Y-68250000D01*
G75*
G02*
X162425000Y-68512500I0J-262500D01*
G01*
X162425000Y-69137500D01*
G75*
G02*
X162162500Y-69400000I-262500J0D01*
G01*
G37*
G36*
G01*
X162162500Y-71150000D02*
X161637500Y-71150000D01*
G75*
G02*
X161375000Y-70887500I0J262500D01*
G01*
X161375000Y-70262500D01*
G75*
G02*
X161637500Y-70000000I262500J0D01*
G01*
X162162500Y-70000000D01*
G75*
G02*
X162425000Y-70262500I0J-262500D01*
G01*
X162425000Y-70887500D01*
G75*
G02*
X162162500Y-71150000I-262500J0D01*
G01*
G37*
%TD*%
%TO.C,C7*%
G36*
G01*
X164162500Y-69400000D02*
X163637500Y-69400000D01*
G75*
G02*
X163375000Y-69137500I0J262500D01*
G01*
X163375000Y-68512500D01*
G75*
G02*
X163637500Y-68250000I262500J0D01*
G01*
X164162500Y-68250000D01*
G75*
G02*
X164425000Y-68512500I0J-262500D01*
G01*
X164425000Y-69137500D01*
G75*
G02*
X164162500Y-69400000I-262500J0D01*
G01*
G37*
G36*
G01*
X164162500Y-71150000D02*
X163637500Y-71150000D01*
G75*
G02*
X163375000Y-70887500I0J262500D01*
G01*
X163375000Y-70262500D01*
G75*
G02*
X163637500Y-70000000I262500J0D01*
G01*
X164162500Y-70000000D01*
G75*
G02*
X164425000Y-70262500I0J-262500D01*
G01*
X164425000Y-70887500D01*
G75*
G02*
X164162500Y-71150000I-262500J0D01*
G01*
G37*
%TD*%
%TO.C,C6*%
G36*
G01*
X168670000Y-82462500D02*
X168670000Y-81937500D01*
G75*
G02*
X168932500Y-81675000I262500J0D01*
G01*
X169557500Y-81675000D01*
G75*
G02*
X169820000Y-81937500I0J-262500D01*
G01*
X169820000Y-82462500D01*
G75*
G02*
X169557500Y-82725000I-262500J0D01*
G01*
X168932500Y-82725000D01*
G75*
G02*
X168670000Y-82462500I0J262500D01*
G01*
G37*
G36*
G01*
X166920000Y-82462500D02*
X166920000Y-81937500D01*
G75*
G02*
X167182500Y-81675000I262500J0D01*
G01*
X167807500Y-81675000D01*
G75*
G02*
X168070000Y-81937500I0J-262500D01*
G01*
X168070000Y-82462500D01*
G75*
G02*
X167807500Y-82725000I-262500J0D01*
G01*
X167182500Y-82725000D01*
G75*
G02*
X166920000Y-82462500I0J262500D01*
G01*
G37*
%TD*%
%TO.C,C5*%
G36*
G01*
X166162500Y-69400000D02*
X165637500Y-69400000D01*
G75*
G02*
X165375000Y-69137500I0J262500D01*
G01*
X165375000Y-68512500D01*
G75*
G02*
X165637500Y-68250000I262500J0D01*
G01*
X166162500Y-68250000D01*
G75*
G02*
X166425000Y-68512500I0J-262500D01*
G01*
X166425000Y-69137500D01*
G75*
G02*
X166162500Y-69400000I-262500J0D01*
G01*
G37*
G36*
G01*
X166162500Y-71150000D02*
X165637500Y-71150000D01*
G75*
G02*
X165375000Y-70887500I0J262500D01*
G01*
X165375000Y-70262500D01*
G75*
G02*
X165637500Y-70000000I262500J0D01*
G01*
X166162500Y-70000000D01*
G75*
G02*
X166425000Y-70262500I0J-262500D01*
G01*
X166425000Y-70887500D01*
G75*
G02*
X166162500Y-71150000I-262500J0D01*
G01*
G37*
%TD*%
%TO.C,C4*%
G36*
G01*
X168670000Y-80712500D02*
X168670000Y-80187500D01*
G75*
G02*
X168932500Y-79925000I262500J0D01*
G01*
X169557500Y-79925000D01*
G75*
G02*
X169820000Y-80187500I0J-262500D01*
G01*
X169820000Y-80712500D01*
G75*
G02*
X169557500Y-80975000I-262500J0D01*
G01*
X168932500Y-80975000D01*
G75*
G02*
X168670000Y-80712500I0J262500D01*
G01*
G37*
G36*
G01*
X166920000Y-80712500D02*
X166920000Y-80187500D01*
G75*
G02*
X167182500Y-79925000I262500J0D01*
G01*
X167807500Y-79925000D01*
G75*
G02*
X168070000Y-80187500I0J-262500D01*
G01*
X168070000Y-80712500D01*
G75*
G02*
X167807500Y-80975000I-262500J0D01*
G01*
X167182500Y-80975000D01*
G75*
G02*
X166920000Y-80712500I0J262500D01*
G01*
G37*
%TD*%
%TO.C,C3*%
G36*
G01*
X172862500Y-75800000D02*
X172337500Y-75800000D01*
G75*
G02*
X172075000Y-75537500I0J262500D01*
G01*
X172075000Y-74912500D01*
G75*
G02*
X172337500Y-74650000I262500J0D01*
G01*
X172862500Y-74650000D01*
G75*
G02*
X173125000Y-74912500I0J-262500D01*
G01*
X173125000Y-75537500D01*
G75*
G02*
X172862500Y-75800000I-262500J0D01*
G01*
G37*
G36*
G01*
X172862500Y-77550000D02*
X172337500Y-77550000D01*
G75*
G02*
X172075000Y-77287500I0J262500D01*
G01*
X172075000Y-76662500D01*
G75*
G02*
X172337500Y-76400000I262500J0D01*
G01*
X172862500Y-76400000D01*
G75*
G02*
X173125000Y-76662500I0J-262500D01*
G01*
X173125000Y-77287500D01*
G75*
G02*
X172862500Y-77550000I-262500J0D01*
G01*
G37*
%TD*%
M02*
